<svg width="92" height="92" viewBox="0 0 92 92" fill="none" xmlns="http://www.w3.org/2000/svg">
<path fill-rule="evenodd" clip-rule="evenodd" d="M50.7735 90.9644L50.6032 90.6598C50.4515 90.5304 50.3197 90.3805 50.2119 90.2147C49.9291 89.9601 50.072 89.4806 50.3299 89.2063C50.5415 89.0055 50.7775 88.8313 51.0325 88.6874L51.0321 88.6864C51.026 88.5043 51.0785 88.3257 51.1824 88.1755C51.2865 88.0421 51.4357 87.9494 51.6035 87.9138C51.8563 87.827 51.9762 88.2575 51.7126 88.4972L51.7407 88.5265C51.6986 88.5703 51.6542 88.6119 51.609 88.6493C52.1887 89.0445 52.7367 89.4823 53.2486 89.9589C53.2829 90.0438 53.289 90.1372 53.2663 90.2253L52.4558 90.856C63.596 89.8895 73.7359 84.0297 81.0562 73.7461C80.9055 73.8258 80.7433 73.9427 80.5687 74.0686C80.3763 74.2074 80.1681 74.3574 79.9427 74.4811C79.909 74.4813 79.8755 74.4779 79.8426 74.4712C79.8053 74.4636 79.7693 74.4515 79.7345 74.4353C79.6697 74.4046 79.6127 74.3598 79.5682 74.3044C79.5237 74.2489 79.4927 74.1843 79.4777 74.1156C79.4628 74.0468 79.4641 73.9757 79.4816 73.9077C79.5593 73.6593 79.6799 73.4261 79.8373 73.2177C80.202 73.391 80.6559 73.6078 80.9889 73.7759C81.0297 73.4254 81.1968 73.1015 81.4606 72.8623C81.5741 72.7595 81.7023 72.6752 81.8403 72.6114C82.4988 71.6298 83.1326 70.6104 83.7403 69.5537C96.1279 48.0101 93.1148 18.8788 71.2022 6.18494C65.3776 2.8108 58.9403 1.18189 52.3949 1.01341L52.2838 1.06298L52.2817 1.01065C50.2869 0.964432 48.2823 1.05366 46.2822 1.27029C46.2962 1.54714 46.0881 1.77917 45.7319 1.97349L45.8083 2.00971C45.4181 2.04922 45.0656 2.07165 44.7273 2.08557C44.5534 2.09272 44.3834 2.09754 44.2136 2.10139C44.0408 1.94608 43.9836 1.76649 43.9714 1.57724C42.9995 1.73008 42.0301 1.91243 41.0647 2.12335C41.0425 2.14395 41.0191 2.16346 40.9947 2.1818C40.255 2.58209 39.8396 3.07695 40.4752 3.96181C40.531 4.06074 40.5941 4.17434 40.4897 4.22078C40.4362 4.29558 40.3906 4.38223 40.3452 4.46844C40.2564 4.63649 40.1681 4.80353 40.0252 4.87902C39.8087 4.99326 39.2602 5.01635 39.2083 4.90683C38.9768 4.619 38.641 4.45588 38.3056 4.29319L38.3036 4.29224C37.9719 4.13097 37.641 3.97007 37.4139 3.68872C37.5745 3.44043 37.7268 3.18707 37.8704 2.92906C32.1337 4.57079 26.6086 7.20749 21.6539 10.6368C21.8605 10.6818 22.0586 10.7476 22.2364 10.8631C22.1085 11.3679 22.0102 11.8798 21.9427 12.396C21.9032 12.5361 21.8499 12.6715 21.7838 12.8002C21.7186 12.9266 21.6408 13.0466 21.5515 13.1587C20.9959 13.6933 20.2975 14.0651 19.5347 14.2325C19.4477 14.3215 19.3754 14.2534 19.2955 14.1782C19.287 14.1702 19.2784 14.1621 19.2697 14.1541L19.2689 14.1534C19.1791 14.0705 19.0895 13.9877 19.1791 13.9062C19.1729 13.7245 19.2255 13.5456 19.3294 13.3954C19.7539 12.9443 19.9925 12.4984 19.7253 12.0336C14.2894 16.1514 9.64631 21.2521 6.31735 27.0416C5.77495 27.9849 5.27611 28.9313 4.8199 29.8796L4.89058 30.0658L4.75239 30.0206C3.18464 33.3107 2.12913 36.6246 1.54684 39.9202C1.65714 39.8805 1.77516 39.8646 1.89326 39.8735C1.95379 39.8781 2.01336 39.8891 2.07097 39.9063C2.14142 39.9276 2.20917 39.9579 2.27216 39.9969C2.54904 40.2405 2.75312 40.7596 2.48967 40.999C2.36169 41.2265 2.20825 41.4305 2.04376 41.6491C1.8989 41.8417 1.74545 42.0457 1.59334 42.2871C1.45496 42.4113 1.31423 42.533 1.17123 42.652C-0.446879 59.0797 9.51881 74.7569 26.1753 84.4059C34.3997 89.1702 42.8147 91.3008 50.7735 90.9644ZM58.0496 88.6245C58.1107 88.6967 58.1741 88.7676 58.2428 88.8355C58.2057 88.8404 58.1683 88.8455 58.1308 88.8506C57.5712 88.9274 56.9765 89.009 56.6323 88.3981C56.584 88.3112 56.5627 88.2346 56.558 88.1628C56.551 88.0589 56.5788 87.966 56.6078 87.8692C56.6327 87.7852 56.7168 87.7404 56.8156 87.7234C56.9091 87.7072 57.0154 87.7158 57.0968 87.7398C57.2017 87.7751 57.2994 87.8275 57.3855 87.8946C57.4424 87.9393 57.4941 87.9903 57.5398 88.0468C57.6866 88.1812 57.806 88.3276 57.9247 88.4732L57.9257 88.4744C57.9666 88.5245 58.0078 88.5751 58.0496 88.6245ZM77.6728 75.7518C77.6305 75.7402 77.589 75.7288 77.5338 75.7579C77.6274 75.7818 77.6678 75.792 77.7059 75.787C77.7344 75.7834 77.7617 75.7713 77.8098 75.7499C77.7549 75.7744 77.7135 75.763 77.6728 75.7518ZM79.6553 73.1312L79.7317 73.1675C79.3415 73.207 78.989 73.2294 78.6507 73.2433C78.4768 73.2505 78.3068 73.2553 78.137 73.2591C77.8544 73.0051 77.881 72.6862 77.9077 72.3663C77.9342 72.0454 77.9607 71.7234 77.6758 71.465C77.6528 71.4242 77.6392 71.4002 77.6347 71.3748C77.6281 71.3383 77.6399 71.2988 77.6687 71.2026C77.8324 70.7086 78.1621 70.2848 78.605 69.999C79.0478 69.7134 79.5775 69.583 80.1084 69.6288C80.1084 69.6288 80.2111 69.7378 80.2729 69.8592C80.3081 69.928 80.3299 70.0008 80.3123 70.06C80.288 70.1414 80.2239 70.2096 80.1597 70.2779L80.1581 70.2796C80.094 70.3479 80.0299 70.4161 80.0056 70.4975C79.8205 70.7029 79.7195 70.9679 79.7216 71.2426C79.7236 71.5172 79.8285 71.7825 80.0164 71.9881C80.388 72.4686 80.186 72.8418 79.6553 73.1312ZM72.227 75.45L72.229 75.4509C72.5644 75.6136 72.9002 75.7768 73.1317 76.0646C73.1836 76.1741 73.7321 76.151 73.9486 76.0368C74.0915 75.9613 74.1796 75.7946 74.2684 75.6266C74.3138 75.5404 74.3596 75.4533 74.4131 75.3785C74.5175 75.3321 74.4544 75.2185 74.3986 75.1196C73.763 74.2347 74.1783 73.7398 74.9181 73.3396C75.0652 73.2292 75.1728 73.0759 75.2252 72.9019C75.3367 72.8522 75.2779 72.7464 75.219 72.6404L75.2184 72.6394L75.2105 72.6251L75.2016 72.6087C75.1497 72.513 75.1026 72.4263 74.9912 72.4839C74.2112 72.4088 73.4268 72.5468 72.7262 72.8827C72.6052 72.9614 72.4926 73.0513 72.3901 73.1509C72.2857 73.2525 72.1916 73.3645 72.109 73.485C71.879 73.9531 71.6211 74.4077 71.3373 74.8465C71.5644 75.1278 71.8953 75.2887 72.227 75.45ZM75.6369 78.2485C75.6602 78.2162 75.6784 78.1826 75.6876 78.1469L75.6701 78.1103C75.7354 78.1298 75.8038 78.1349 75.8712 78.1248C75.9381 78.1149 76.0021 78.0901 76.058 78.0526C76.1178 78.0678 76.1701 78.07 76.215 78.0718C76.2935 78.075 76.3492 78.0772 76.382 78.1471C76.5355 78.2249 76.6565 78.3525 76.7245 78.5076C76.8153 78.9096 76.222 79.0856 75.6216 78.9992L75.575 78.953L75.5742 78.9522C75.477 78.8576 75.3388 78.7231 75.3805 78.5845C75.4047 78.5035 75.47 78.4347 75.5348 78.3663C75.5715 78.3276 75.6081 78.289 75.6369 78.2485ZM69.8304 80.0486C69.5024 80.1947 69.4785 80.6391 69.747 80.6344C69.9182 80.6521 70.0901 80.61 70.232 80.5156C70.3791 80.4052 70.4864 80.2522 70.5391 80.078C70.5114 79.7717 70.1378 79.8409 69.813 80.0122L69.8304 80.0486ZM83.7378 67.5957C83.7589 67.5148 83.8245 67.4457 83.8906 67.376C83.9554 67.3077 84.0207 67.2389 84.0449 67.158L84.0278 67.1213C84.0658 67.1338 84.1103 67.1429 84.1557 67.1522C84.3015 67.182 84.4562 67.2135 84.4323 67.366C84.4444 67.3999 84.4526 67.4347 84.4563 67.4702C84.4594 67.4994 84.4596 67.5288 84.457 67.5582C84.4538 67.5919 84.4468 67.6248 84.4361 67.6566C84.4264 67.6864 84.4133 67.7149 84.397 67.742C84.3632 67.7982 84.3177 67.8465 84.2628 67.8836C84.2219 67.9114 84.1764 67.9323 84.1284 67.9457C84.1127 67.9501 84.0965 67.9537 84.08 67.9565C83.926 67.8795 83.8046 67.7517 83.7378 67.5957ZM72.1975 80.5512C71.9738 80.651 71.9393 80.8256 72.1665 80.9811C72.2148 81.0833 72.3826 81.1325 72.3231 81.0263C72.4349 80.9764 72.5889 80.7486 72.533 80.6497L72.5303 80.645C72.4745 80.5459 72.3935 80.4023 72.1801 80.5148L72.1975 80.5512ZM70.9262 78.0561C71.153 78.2117 71.0522 78.2653 70.7762 78.2732L70.6577 78.0606C70.7446 78.0922 70.8407 78.0905 70.9262 78.0561ZM68.9462 75.777C68.904 75.7654 68.8624 75.754 68.8073 75.783C68.9009 75.8069 68.9413 75.8171 68.9794 75.8122C69.0079 75.8086 69.0352 75.7964 69.0832 75.775C69.0284 75.7995 68.987 75.7881 68.9462 75.777ZM66.9104 78.2736C66.9336 78.2414 66.9518 78.2077 66.961 78.172L66.9436 78.1354C67.0088 78.155 67.0773 78.16 67.1446 78.1499C67.2116 78.14 67.2756 78.1152 67.3315 78.0777C67.3912 78.093 67.4435 78.0951 67.4884 78.0969C67.5669 78.1001 67.6227 78.1024 67.6555 78.1722C67.809 78.2501 67.9299 78.3776 67.998 78.5327C68.0888 78.9347 67.4954 79.1107 66.895 79.0243L66.8485 78.9781L66.8477 78.9773C66.7505 78.8827 66.6123 78.7482 66.654 78.6096C66.6782 78.5287 66.7435 78.4598 66.8082 78.3915C66.845 78.3527 66.8816 78.3141 66.9104 78.2736ZM61.1038 80.0737C60.7759 80.2199 60.7519 80.6642 61.0204 80.6595C61.1917 80.6773 61.3635 80.6352 61.5055 80.5407C61.6526 80.4304 61.7598 80.2773 61.8125 80.1031C61.7848 79.7969 61.4113 79.866 61.0864 80.0373L61.1038 80.0737ZM63.4399 81.0062C63.2127 80.8507 63.2473 80.6761 63.4709 80.5764L63.4535 80.5399C63.667 80.4274 63.7479 80.571 63.8038 80.6701L63.8064 80.6748C63.8623 80.7738 63.7084 81.0015 63.5966 81.0514C63.656 81.1576 63.4883 81.1084 63.4399 81.0062ZM62.0497 78.2984C62.3257 78.2904 62.4265 78.2368 62.1996 78.0812C62.1142 78.1156 62.0181 78.1173 61.9311 78.0857L62.0497 78.2984ZM64.4089 85.4226L64.4069 85.4216C64.0752 85.2603 63.7443 85.0994 63.5172 84.8181C63.801 84.3793 64.0589 83.9247 64.2889 83.4566C64.3715 83.3361 64.4656 83.2241 64.5699 83.1225C64.6725 83.0229 64.7851 82.933 64.9061 82.8543C65.6067 82.5184 66.3911 82.3804 67.1711 82.4555C67.2825 82.398 67.3296 82.4846 67.3815 82.5803C67.387 82.5905 67.3926 82.6008 67.3983 82.611L67.3988 82.612C67.4578 82.718 67.5166 82.8238 67.4051 82.8735C67.3527 83.0475 67.2451 83.2008 67.098 83.3112C66.3582 83.7115 65.9429 84.2063 66.5785 85.0912C66.6343 85.1901 66.6974 85.3037 66.593 85.3501C66.5395 85.4249 66.4939 85.5116 66.4485 85.5978C66.3597 85.7659 66.2714 85.9329 66.1285 86.0084C65.912 86.1226 65.3635 86.1457 65.3116 86.0362C65.0801 85.7484 64.7443 85.5853 64.4089 85.4226ZM60.1155 76.7208C60.0345 76.6707 59.9517 76.6227 59.8648 76.5791C59.8984 76.5631 59.9322 76.5467 59.966 76.5303C60.4713 76.2857 61.0082 76.0257 61.5302 76.502C61.6038 76.5699 61.6486 76.6364 61.676 76.7033C61.716 76.8 61.7195 76.897 61.7231 76.9981C61.7265 77.0857 61.6612 77.1541 61.5732 77.2006C61.4898 77.2447 61.3864 77.2691 61.3016 77.2712C61.191 77.2697 61.0816 77.2497 60.9785 77.2122C60.9104 77.1871 60.845 77.1544 60.7836 77.1146C60.6015 77.0317 60.4415 76.9288 60.2823 76.8266C60.2269 76.791 60.1716 76.7554 60.1155 76.7208ZM66.5133 72.5007L65.9773 72.0084C65.8085 71.8315 65.2787 71.8619 65.2067 72.1144L64.131 73.7306C64.1378 73.8214 64.1735 73.9085 64.2333 73.9788C64.9098 74.2939 65.6109 74.5548 66.3298 74.759C66.4142 74.8474 66.5041 74.7546 66.5886 74.6669C66.8496 74.4128 67.0687 74.1208 67.2386 73.8009C67.3947 73.4607 67.3761 72.9603 67.0267 72.8046C66.8714 72.6797 66.6985 72.5774 66.5133 72.5007ZM49.2012 88.3252C49.4663 88.4036 49.4896 88.5805 49.3098 88.744L49.338 88.7733C49.172 88.9459 49.0492 88.8339 48.9646 88.7567L48.9605 88.753C48.8759 88.676 48.9485 88.4119 49.0384 88.3302C48.948 88.2472 49.1226 88.2427 49.2012 88.3252ZM68.0191 69.8111L67.7661 69.5458C67.7067 69.5312 67.6444 69.5326 67.5859 69.5494C67.5275 69.5663 67.4745 69.5979 67.4331 69.6414C67.4113 69.6642 67.3927 69.6897 67.3785 69.7171C67.3653 69.7422 67.3555 69.7689 67.349 69.7967C67.3356 69.8548 67.3385 69.9155 67.3571 69.9726L67.5256 70.1497C67.71 70.1909 67.8782 70.0162 68.0465 69.8414L68.0191 69.8111ZM55.0319 89.4047C55.0291 89.3678 55.0356 89.3302 55.0472 89.2924C55.0615 89.245 55.0837 89.197 55.1061 89.1489C55.1455 89.064 55.1852 88.9784 55.1821 88.8939C55.1772 88.7491 55.0031 88.6634 54.8807 88.6031L54.8797 88.6026L54.8208 88.5729C54.2246 88.6746 53.7192 89.024 53.9342 89.379C54.0484 89.5058 54.2039 89.5902 54.3742 89.6173C54.4277 89.6737 54.4812 89.6588 54.5566 89.6378C54.5997 89.6258 54.6499 89.6118 54.7114 89.608C54.7522 89.5551 54.8049 89.5119 54.8651 89.4819C54.9256 89.4517 54.9921 89.4355 55.0601 89.4342L55.0319 89.4047ZM59.8587 85.2155C60.1114 85.1287 60.2314 85.5591 59.9677 85.7988L59.9959 85.8282C59.7433 86.0908 59.4118 86.2711 59.2872 85.988C59.2812 85.806 59.3337 85.6274 59.4375 85.4772C59.5416 85.3438 59.6909 85.251 59.8587 85.2155ZM57.565 86.0456C57.7448 85.8821 57.7214 85.7053 57.4564 85.6268C57.3778 85.5444 57.2032 85.5489 57.2936 85.6318C57.2037 85.7136 57.131 85.9776 57.2157 86.0547L57.2198 86.0584C57.3044 86.1356 57.4271 86.2475 57.5932 86.075L57.565 86.0456ZM59.5696 88.0319C59.3049 87.9533 59.3831 87.8713 59.6419 87.7792L59.8224 87.9453C59.7299 87.9419 59.6395 87.9729 59.5696 88.0319ZM55.1236 81.7189L55.1215 81.7186C54.7517 81.6664 54.3813 81.614 54.0698 81.4109C53.9855 81.3225 53.4735 81.5126 53.3051 81.6878C53.194 81.8034 53.1642 81.9891 53.134 82.1763C53.1187 82.2723 53.1032 82.3693 53.0765 82.4569C52.9926 82.5331 53.0888 82.6219 53.1734 82.699C54.0592 83.3468 53.8248 83.9453 53.2528 84.5532C53.1489 84.7033 53.0963 84.8823 53.1025 85.064C53.0129 85.1455 53.1025 85.2282 53.1923 85.3111L53.1931 85.3119C53.2018 85.3199 53.2104 85.328 53.2189 85.336C53.2988 85.4111 53.3711 85.4793 53.4581 85.3903C54.2209 85.2228 54.9193 84.851 55.4749 84.3164C55.5642 84.2044 55.642 84.0843 55.7071 83.958C55.7733 83.8293 55.8266 83.6938 55.8661 83.5537C55.9336 83.0375 56.0319 82.5256 56.1598 82.0209C55.8545 81.8226 55.4895 81.7708 55.1236 81.7189ZM24.3194 17.6777C24.2507 17.6099 24.1873 17.539 24.1262 17.4667C24.0839 17.4168 24.0426 17.3662 24.0013 17.3155C23.8826 17.1698 23.7632 17.0234 23.6164 16.8891C23.5708 16.8325 23.519 16.7815 23.4621 16.7369C23.376 16.6698 23.2783 16.6173 23.1734 16.5821C23.092 16.558 22.9858 16.5494 22.8922 16.5657C22.7934 16.5827 22.7093 16.6275 22.6844 16.7114C22.6554 16.8082 22.6276 16.9012 22.6346 17.005C22.6393 17.0768 22.6606 17.1535 22.7089 17.2403C23.0531 17.8513 23.6478 17.7697 24.2074 17.6929C24.2449 17.6877 24.2823 17.6826 24.3194 17.6777ZM43.7494 4.59409C43.7071 4.58249 43.6656 4.57109 43.6104 4.60013C43.704 4.62401 43.7444 4.63423 43.7825 4.62928C43.811 4.62568 43.8383 4.61357 43.8864 4.59216C43.8315 4.61663 43.7901 4.60527 43.7494 4.59409ZM45.9139 2.05997C46.2786 2.23328 46.7325 2.45002 47.0655 2.61819C47.1063 2.26762 47.2734 1.94378 47.5372 1.70458C47.801 1.46555 48.1441 1.32674 48.5047 1.31325C48.6846 1.27361 48.8731 1.30529 49.0301 1.40121C49.187 1.49697 49.2995 1.64923 49.3426 1.82483C49.3645 1.91187 49.3682 2.00231 49.3541 2.09059C49.3458 2.1434 49.3306 2.19498 49.3098 2.24408C49.2959 2.27693 49.2791 2.30884 49.2596 2.33921C49.2117 2.415 49.1487 2.48061 49.0742 2.53213C49.0378 2.55708 48.9993 2.57847 48.959 2.59618C48.9163 2.61489 48.8716 2.62923 48.8257 2.6392C48.2779 2.83815 47.6708 2.81989 47.1327 2.58828C46.9821 2.66806 46.8199 2.78496 46.6453 2.91089C46.4529 3.04968 46.2447 3.19965 46.0193 3.32331C45.9857 3.32354 45.9521 3.32018 45.9192 3.31347C45.8819 3.30585 45.8459 3.29373 45.8111 3.27755C45.7463 3.24682 45.6893 3.20201 45.6448 3.14669C45.6003 3.0912 45.5693 3.02657 45.5543 2.95779C45.5394 2.88902 45.5407 2.81794 45.5582 2.74999C45.6359 2.50157 45.7565 2.26835 45.9139 2.05997ZM17.0322 20.1325L16.6798 19.502C16.5281 19.3727 16.3963 19.2227 16.2885 19.0569C16.0057 18.8024 16.1486 18.3228 16.4065 18.0486C16.6181 17.8478 16.8541 17.6736 17.1091 17.5297L17.1087 17.5286C17.1026 17.3466 17.1551 17.168 17.259 17.0178C17.3631 16.8844 17.5123 16.7916 17.6802 16.756C17.9329 16.6693 18.0528 17.0997 17.7892 17.3394L17.8173 17.3688C17.7752 17.4126 17.7308 17.4541 17.6856 17.4916C18.2653 17.8868 18.8133 18.3245 19.3252 18.8011C19.3595 18.8861 19.3656 18.9795 19.3429 19.0675L17.8 20.2682C17.6504 20.4853 17.1361 20.3517 17.0322 20.1325ZM41.7135 7.09074C41.7368 7.05848 41.755 7.02487 41.7642 6.98909L41.7467 6.9525C41.812 6.97208 41.8804 6.97712 41.9478 6.96707C42.0147 6.95711 42.0787 6.93233 42.1346 6.89484C42.1943 6.91008 42.2467 6.91221 42.2916 6.91403C42.3701 6.91722 42.4258 6.91948 42.4587 6.98932C42.6121 7.0672 42.7331 7.19475 42.8011 7.34984C42.8919 7.75184 42.2986 7.92782 41.6982 7.8414L41.6516 7.79524L41.6508 7.79446C41.5536 7.69985 41.4154 7.56533 41.4571 7.42675C41.4813 7.34579 41.5466 7.27692 41.6114 7.20859C41.6481 7.16983 41.6847 7.13125 41.7135 7.09074ZM35.907 8.89082C35.579 9.03699 35.5551 9.48135 35.8236 9.47664C35.9948 9.49438 36.1667 9.45229 36.3086 9.35786C36.4557 9.24747 36.563 9.09444 36.6157 8.92021C36.588 8.61397 36.2144 8.68314 35.8896 8.8544L35.907 8.89082ZM38.2741 9.39348C38.0504 9.49322 38.0159 9.66784 38.2431 9.82334C38.2914 9.92552 38.4592 9.97476 38.3997 9.8685C38.5115 9.81863 38.6655 9.59088 38.6096 9.49195L38.6069 9.48721C38.5511 9.38816 38.4701 9.24454 38.2567 9.35706L38.2741 9.39348ZM14.5386 21.9161L14.3827 21.5873L14.3656 21.5506C14.582 21.4367 14.799 21.3225 14.9614 21.4179L15.065 21.6373C15.0644 21.6971 15.0476 21.7554 15.0162 21.8063C15.0011 21.8307 14.9832 21.853 14.9626 21.8727C14.9403 21.8942 14.9144 21.9127 14.8863 21.9277C14.8329 21.9561 14.7724 21.9698 14.7113 21.968C14.6502 21.9659 14.5904 21.9481 14.5386 21.9161ZM37.0028 6.89832C37.2296 7.05391 37.1288 7.10751 36.8528 7.11548L36.7343 6.90286C36.8212 6.93447 36.9173 6.93276 37.0028 6.89832ZM35.0228 4.61922C34.9806 4.60762 34.939 4.5962 34.8838 4.62525C34.9775 4.64913 35.0179 4.65935 35.056 4.6544C35.0845 4.6508 35.1118 4.6387 35.1599 4.61728C35.105 4.64176 35.0636 4.6304 35.0228 4.61922ZM32.987 7.11586C33.0102 7.0836 33.0284 7.04999 33.0376 7.01422L33.0202 6.97762C33.0854 6.9972 33.1539 7.00224 33.2212 6.99219C33.2882 6.98223 33.3522 6.95745 33.4081 6.91996C33.4678 6.9352 33.5201 6.93733 33.565 6.93916C33.6435 6.94235 33.6993 6.94461 33.7321 7.01445C33.8856 7.09232 34.0065 7.21988 34.0746 7.37496C34.1654 7.77697 33.572 7.95294 32.9716 7.86652L32.9251 7.82036L32.9243 7.81958C32.8271 7.72498 32.6889 7.59045 32.7306 7.45187C32.7548 7.37091 32.8201 7.30203 32.8848 7.23371C32.9216 7.19495 32.9582 7.15637 32.987 7.11586ZM27.1804 8.91594C26.8525 9.06212 26.8285 9.50647 27.097 9.50176C27.2683 9.5195 27.4401 9.47742 27.5821 9.38299C27.7292 9.2726 27.8364 9.11957 27.8891 8.94533C27.8614 8.63909 27.4879 8.70826 27.163 8.87952L27.1804 8.91594ZM29.5165 9.84846C29.2893 9.69296 29.3239 9.51834 29.5475 9.4186L29.5301 9.38218C29.7436 9.26966 29.8245 9.41328 29.8804 9.51233L29.883 9.51707C29.9389 9.616 29.785 9.84374 29.6732 9.89361C29.7326 9.99988 29.5649 9.95064 29.5165 9.84846ZM28.1263 7.1406C28.4023 7.13264 28.5031 7.07904 28.2762 6.92345C28.1908 6.95788 28.0947 6.95959 28.0077 6.92799L28.1263 7.1406ZM30.4855 14.2648L30.4835 14.2638C30.1518 14.1026 29.8209 13.9417 29.5938 13.6603C29.8776 13.2216 30.1355 12.7669 30.3655 12.2989C30.4481 12.1783 30.5422 12.0664 30.6465 11.9648C30.7491 11.8651 30.8617 11.7753 30.9827 11.6966C31.6833 11.3606 32.4677 11.2226 33.2477 11.2978C33.3591 11.2402 33.4062 11.3269 33.4581 11.4225C33.4636 11.4327 33.4692 11.443 33.4749 11.4533L33.4754 11.4542C33.5344 11.5602 33.5932 11.666 33.4817 11.7158C33.4293 11.8897 33.3217 12.043 33.1746 12.1534C32.4348 12.5537 32.0195 13.0486 32.6551 13.9334C32.7109 14.0324 32.774 14.146 32.6696 14.1924C32.6161 14.2672 32.5705 14.3538 32.5251 14.4401C32.4363 14.6081 32.348 14.7751 32.2051 14.8506C31.9886 14.9649 31.4401 14.988 31.3882 14.8784C31.1567 14.5906 30.8209 14.4275 30.4855 14.2648ZM11.8718 23.7858C11.8289 23.8304 11.7859 23.8323 11.7422 23.8342C11.7 23.836 11.6572 23.8379 11.6131 23.878C11.6517 23.8429 11.6737 23.823 11.6995 23.8108C11.734 23.7945 11.7755 23.7918 11.8718 23.7858ZM9.23626 26.7319C9.60559 26.79 10.1049 26.8573 10.5059 26.9105C10.5881 26.6639 10.6274 26.4048 10.6212 26.1445C10.616 26.0744 10.5944 26.0063 10.5582 25.9454C10.522 25.8845 10.4719 25.8325 10.4119 25.7933C10.352 25.7543 10.2837 25.729 10.2124 25.7196C10.1743 25.7149 10.1364 25.7144 10.0985 25.7186C10.0652 25.7223 10.0324 25.7293 10.0006 25.7399C9.82685 25.9267 9.67791 26.1333 9.54021 26.3244C9.41531 26.4979 9.29928 26.6589 9.18224 26.781C8.59839 26.7254 8.01766 26.894 7.56277 27.2514C7.52251 27.2749 7.4848 27.3023 7.45038 27.3332C7.41791 27.3624 7.38831 27.3945 7.36189 27.4294C7.30781 27.5014 7.26922 27.5831 7.24819 27.67C7.23945 27.7049 7.2338 27.7404 7.23122 27.7759C7.22726 27.8291 7.22945 27.8828 7.23854 27.9357C7.25348 28.0241 7.28602 28.109 7.33471 28.1852C7.43189 28.3392 7.58726 28.4497 7.76659 28.4928C7.94602 28.536 8.13473 28.5084 8.29227 28.4156C8.62948 28.2922 8.90977 28.0549 9.08288 27.7464C9.25588 27.4378 9.31013 27.0782 9.23626 26.7319ZM10.622 26.926L10.706 26.9371C10.2964 27.3754 10.2249 27.7926 10.731 28.1362C10.9749 28.2744 11.1593 28.4949 11.2494 28.7557C11.3395 29.0167 11.3289 29.3 11.2196 29.5523C11.2227 29.6372 11.1839 29.7218 11.1451 29.8066L11.1441 29.8086C11.1053 29.8933 11.0665 29.9779 11.0696 30.0629C11.0719 30.1246 11.1159 30.1873 11.1713 30.242C11.2688 30.3387 11.4011 30.411 11.4011 30.411C11.9184 30.2919 12.3781 30.0053 12.7058 29.5977C13.0334 29.1899 13.2096 28.6853 13.2062 28.1647C13.2025 28.0643 13.201 28.0231 13.1831 27.9903C13.1706 27.9675 13.1501 27.9488 13.1152 27.9171C12.7625 27.7583 12.6843 27.4437 12.6063 27.13C12.529 26.8172 12.4518 26.5052 12.1027 26.35C11.9431 26.4057 11.7837 26.4624 11.6213 26.5225C11.3054 26.6394 10.9789 26.7688 10.622 26.926ZM16.9935 22.4524L16.9957 22.4527C17.3615 22.5046 17.7265 22.5563 18.0318 22.7547C17.904 23.2594 17.8057 23.7713 17.7381 24.2875C17.6986 24.4276 17.6454 24.5631 17.5792 24.6918C17.514 24.8181 17.4363 24.9382 17.3469 25.0502C16.7914 25.5848 16.0929 25.9566 15.3302 26.1241C15.2432 26.2131 15.1708 26.1449 15.091 26.0698C15.0824 26.0617 15.0738 26.0536 15.0651 26.0457L15.0644 26.0449C14.9745 25.962 14.8849 25.8793 14.9745 25.7978C14.9683 25.6161 15.0209 25.4371 15.1248 25.2869C15.6968 24.6791 15.9312 24.0806 15.0455 23.4328C14.9608 23.3557 14.8647 23.2669 14.9486 23.1907C14.9753 23.103 14.9907 23.0065 15.006 22.9105C15.0361 22.7233 15.0661 22.5372 15.1772 22.4215C15.3455 22.2464 15.8575 22.0563 15.9418 22.1447C16.2533 22.3478 16.6237 22.4002 16.9935 22.4524ZM6.61242 35.2747C6.65581 35.2721 6.69795 35.2697 6.73709 35.3108C6.75973 35.4368 6.8233 35.5528 6.91842 35.6414C6.8197 35.891 6.66443 36.1151 6.46437 36.297C6.2643 36.4789 6.0243 36.6141 5.76226 36.6922C5.67563 36.7811 5.60332 36.7131 5.5235 36.6379L5.51004 36.6253L5.49762 36.6138C5.40722 36.5308 5.31682 36.4478 5.4067 36.3661C5.45676 36.0974 5.58436 35.8486 5.77389 35.6491C5.96362 35.4493 6.20765 35.307 6.47819 35.2382C6.5235 35.2798 6.56863 35.2772 6.61242 35.2747ZM12.8533 20.9453C12.8505 20.9084 12.857 20.8708 12.8686 20.833C12.8829 20.7856 12.9052 20.7376 12.9275 20.6895C12.9669 20.6045 13.0067 20.5189 13.0036 20.4344C12.9986 20.2897 12.8246 20.204 12.7022 20.1437L12.7012 20.1432L12.6422 20.1135C12.046 20.2152 11.5407 20.5646 11.7556 20.9196C11.8698 21.0464 12.0253 21.1308 12.1956 21.1579C12.2492 21.2143 12.3027 21.1994 12.378 21.1784C12.4211 21.1663 12.4713 21.1523 12.5328 21.1485C12.5737 21.0957 12.6263 21.0525 12.6865 21.0225C12.7471 20.9923 12.8135 20.9761 12.8816 20.9748L12.8533 20.9453ZM8.54271 33.7151C8.58293 33.6286 8.62286 33.5426 8.61684 33.4592C8.50355 33.3311 8.34758 33.2466 8.17703 33.2205C8.1726 33.2228 8.16821 33.2252 8.16388 33.2277L8.15702 33.2316L8.15091 33.2353C8.1454 33.2386 8.13999 33.2421 8.13471 33.2456C8.09351 33.273 8.05713 33.3069 8.0273 33.346C7.98726 33.398 7.95963 33.458 7.94567 33.5219C7.93899 33.5527 7.93571 33.5839 7.93603 33.6152C7.93613 33.6488 7.94013 33.6822 7.94785 33.7153C7.94934 33.7215 7.95096 33.7276 7.9527 33.7337C7.95431 33.7393 7.95604 33.745 7.95786 33.7505L7.96205 33.7628L7.96595 33.7733L7.96941 33.782C7.97175 33.7877 7.97421 33.7933 7.97678 33.7989C7.99169 33.8315 8.01062 33.8622 8.03293 33.8907C8.0592 34.0433 8.21583 34.0259 8.36352 34.0096C8.37799 34.008 8.39237 34.0064 8.40654 34.0049C8.41966 34.0036 8.4326 34.0025 8.44524 34.0016C8.46228 34.0003 8.47879 33.9996 8.49451 33.9997L8.46655 33.97C8.4635 33.8856 8.50324 33.8001 8.54271 33.7151ZM15.2778 17.1674C15.5429 17.2458 15.5662 17.4227 15.3864 17.5862L15.4146 17.6156C15.2486 17.7881 15.1259 17.6762 15.0412 17.599L15.0371 17.5953C14.9525 17.5182 15.0251 17.2542 15.115 17.1724C15.0246 17.0895 15.1992 17.0849 15.2778 17.1674ZM20.127 21.0875C20.0841 21.1321 20.0411 21.1339 19.9973 21.1358C19.9552 21.1377 19.9123 21.1396 19.8682 21.1797C19.9069 21.1446 19.9288 21.1247 19.9547 21.1125C19.9891 21.0961 20.0307 21.0935 20.127 21.0875ZM21.1085 18.247C21.1057 18.2101 21.1122 18.1725 21.1238 18.1346C21.1381 18.0872 21.1603 18.0393 21.1827 17.9911C21.2221 17.9062 21.2618 17.8206 21.2588 17.7361C21.2538 17.5914 21.0797 17.5057 20.9574 17.4453L20.9563 17.4448L20.8974 17.4152C20.3012 17.5169 19.7958 17.8663 20.0108 18.2212C20.125 18.348 20.2805 18.4324 20.4508 18.4596C20.5043 18.516 20.5578 18.5011 20.6332 18.48C20.6763 18.468 20.7265 18.454 20.788 18.4502C20.8288 18.3974 20.8815 18.3542 20.9417 18.3242C21.0022 18.294 21.0687 18.2778 21.1367 18.2764L21.1085 18.247ZM25.9353 14.0577C26.188 13.9709 26.308 14.4014 26.0443 14.6411L26.0725 14.6704C25.8199 14.9331 25.4884 15.1134 25.3638 14.8303C25.3578 14.6482 25.4103 14.4696 25.5141 14.3194C25.6182 14.186 25.7675 14.0933 25.9353 14.0577ZM23.6416 14.8879C23.8214 14.7244 23.7981 14.5475 23.533 14.4691C23.4544 14.3866 23.2798 14.3911 23.3702 14.4741C23.2803 14.5558 23.2076 14.8199 23.2923 14.897L23.2964 14.9007C23.381 14.9779 23.5038 15.0898 23.6698 14.9172L23.6416 14.8879ZM25.6462 16.8742C25.3815 16.7955 25.4597 16.7136 25.7185 16.6214L25.899 16.7875C25.8065 16.7841 25.7161 16.8152 25.6462 16.8742Z" fill="#E0EDFF"/>
<path d="M48.5479 33.9988C45.5349 39.3547 55.7046 44.8588 50.4802 50.5425M57 43.2192C52.0905 46.5061 47.0451 35.4119 41.835 41.1112M43.4525 57.9988C46.4655 52.643 36.2958 47.1389 41.5202 41.4551M35 48.7783C39.9096 45.4914 44.955 56.5856 50.165 50.8863M47.1381 47.2403L44.8622 44.7576M40.0453 54.9768L37.7695 52.4941M54.3447 39.3779L52.0688 36.8952" stroke="#003E94" stroke-width="2.31818" stroke-linecap="round" stroke-linejoin="round"/>
</svg>
