<svg width="92" height="93" viewBox="0 0 92 93" fill="none" xmlns="http://www.w3.org/2000/svg">
<path fill-rule="evenodd" clip-rule="evenodd" d="M41.2265 1.03389L41.3968 1.34531C41.5486 1.47756 41.6803 1.6308 41.7882 1.80033C42.0709 2.06051 41.928 2.55072 41.6701 2.83108C41.4585 3.03631 41.2225 3.2144 40.9675 3.3615L40.9679 3.36257C40.974 3.54867 40.9215 3.73123 40.8176 3.88476C40.7135 4.02115 40.5643 4.11595 40.3965 4.15233C40.1438 4.24102 40.0238 3.80101 40.2874 3.55598L40.2593 3.52599C40.3014 3.4812 40.3458 3.43875 40.391 3.40045C39.8113 2.99646 39.2633 2.54899 38.7514 2.06181C38.7171 1.97496 38.711 1.87949 38.7337 1.78949L39.5442 1.14469C28.404 2.13273 18.2641 8.12274 10.9438 18.6349C11.0945 18.5533 11.2567 18.4339 11.4313 18.3051C11.6237 18.1633 11.8319 18.01 12.0573 17.8836C12.091 17.8833 12.1245 17.8868 12.1574 17.8936C12.1947 17.9014 12.2307 17.9138 12.2655 17.9303C12.3303 17.9618 12.3873 18.0075 12.4318 18.0641C12.4763 18.1208 12.5074 18.1869 12.5223 18.2572C12.5372 18.3275 12.5359 18.4002 12.5184 18.4696C12.4407 18.7236 12.3201 18.962 12.1627 19.175C11.798 18.9978 11.3441 18.7762 11.0111 18.6043C10.9703 18.9627 10.8032 19.2937 10.5394 19.5383C10.4259 19.6434 10.2977 19.7296 10.1597 19.7947C9.50117 20.7982 8.86736 21.8402 8.25971 22.9205C-4.12785 44.9427 -1.11484 74.7215 20.7978 87.6974C26.6224 91.1465 33.0597 92.8116 39.6051 92.9838L39.7162 92.9332L39.7182 92.9867C41.7131 93.0339 43.7177 92.9427 45.7178 92.7212C45.7037 92.4382 45.9119 92.201 46.2681 92.0024L46.1917 91.9654C46.5819 91.925 46.9344 91.9021 47.2727 91.8878C47.4466 91.8805 47.6166 91.8756 47.7864 91.8717C47.9592 92.0304 48.0164 92.214 48.0286 92.4075C49.0005 92.2512 49.9699 92.0648 50.9353 91.8492C50.9575 91.8282 50.9809 91.8082 51.0053 91.7895C51.745 91.3803 52.1604 90.8744 51.5248 89.9699C51.469 89.8688 51.4059 89.7527 51.5103 89.7052C51.5638 89.6287 51.6094 89.5401 51.6548 89.452C51.7436 89.2802 51.8319 89.1095 51.9748 89.0323C52.1913 88.9155 52.7398 88.8919 52.7917 89.0039C53.0232 89.2981 53.359 89.4649 53.6944 89.6312L53.6963 89.6321C54.028 89.797 54.359 89.9615 54.5861 90.2491C54.4255 90.5029 54.2732 90.7619 54.1296 91.0256C59.8663 89.3474 65.3914 86.6521 70.3461 83.1466C70.1395 83.1006 69.9414 83.0333 69.7636 82.9152C69.8915 82.3993 69.9898 81.876 70.0573 81.3483C70.0968 81.2051 70.1501 81.0666 70.2162 80.9351C70.2814 80.8059 70.3591 80.6832 70.4485 80.5687C71.0041 80.0222 71.7025 79.6422 72.4652 79.4709C72.5523 79.38 72.6246 79.4496 72.7045 79.5265C72.713 79.5347 72.7216 79.5429 72.7303 79.5511L72.7311 79.5519C72.8209 79.6366 72.9105 79.7212 72.8209 79.8045C72.8271 79.9902 72.7745 80.1732 72.6706 80.3267C72.2461 80.7878 72.0075 81.2437 72.2747 81.7188C77.7106 77.5095 82.3537 72.2954 85.6826 66.3772C86.2251 65.413 86.7239 64.4456 87.1801 63.4762L87.1094 63.2859L87.2476 63.332C88.8154 59.9688 89.8709 56.5813 90.4532 53.2124C90.3429 53.253 90.2248 53.2693 90.1067 53.2602C90.0462 53.2555 89.9866 53.2443 89.929 53.2266C89.8586 53.2049 89.7908 53.1739 89.7278 53.134C89.451 52.8851 89.2469 52.3544 89.5103 52.1097C89.6383 51.8772 89.7918 51.6686 89.9562 51.4451C90.1011 51.2483 90.2545 51.0397 90.4067 50.793C90.545 50.666 90.6858 50.5416 90.8288 50.42C92.4469 33.6272 82.4812 17.6016 65.8247 7.73819C57.6003 2.86795 49.1853 0.690028 41.2265 1.03389ZM33.9504 3.42586C33.8893 3.35201 33.8259 3.27954 33.7572 3.21018C33.7943 3.20518 33.8317 3.19993 33.8692 3.19467C34.4288 3.11617 35.0235 3.03274 35.3677 3.6573C35.416 3.74604 35.4373 3.82443 35.442 3.89783C35.449 4.00397 35.4212 4.09897 35.3922 4.19794C35.3673 4.28374 35.2832 4.32952 35.1844 4.34692C35.0909 4.36355 34.9846 4.35474 34.9032 4.33017C34.7983 4.29413 34.7006 4.2405 34.6145 4.1719C34.5576 4.12628 34.5059 4.07413 34.4602 4.01633C34.3134 3.87903 34.194 3.72932 34.0753 3.58044L34.0743 3.57923C34.0335 3.52801 33.9922 3.47634 33.9504 3.42586ZM14.3272 16.5845C14.3695 16.5964 14.411 16.608 14.4662 16.5784C14.3726 16.5539 14.3322 16.5435 14.2941 16.5486C14.2656 16.5522 14.2383 16.5646 14.1902 16.5865C14.2451 16.5615 14.2865 16.5731 14.3272 16.5845ZM12.3447 19.2634L12.2683 19.2263C12.6585 19.186 13.011 19.163 13.3493 19.1488C13.5232 19.1415 13.6932 19.1366 13.863 19.1326C14.1456 19.3923 14.119 19.7183 14.0923 20.0453C14.0658 20.3734 14.0393 20.7025 14.3243 20.9667C14.3472 21.0083 14.3608 21.0328 14.3654 21.0589C14.3719 21.0962 14.3601 21.1366 14.3313 21.2349C14.1676 21.7398 13.8379 22.1731 13.395 22.4652C12.9522 22.7571 12.4225 22.8905 11.8916 22.8437C11.8916 22.8437 11.7889 22.7323 11.7271 22.6081C11.6919 22.5378 11.6701 22.4634 11.6877 22.4029C11.712 22.3197 11.7761 22.25 11.8403 22.1801L11.8419 22.1784C11.9061 22.1086 11.9701 22.0388 11.9944 21.9556C12.1795 21.7457 12.2805 21.4748 12.2784 21.194C12.2764 20.9133 12.1715 20.6421 11.9836 20.4319C11.612 19.9408 11.814 19.5593 12.3447 19.2634ZM19.773 16.8931L19.771 16.8921C19.4356 16.7258 19.0998 16.5591 18.8683 16.2648C18.8164 16.1529 18.2679 16.1765 18.0514 16.2933C17.9085 16.3704 17.8204 16.5408 17.7316 16.7126C17.6863 16.8007 17.6404 16.8897 17.5869 16.9661C17.4825 17.0136 17.5456 17.1297 17.6014 17.2309C18.237 18.1354 17.8217 18.6412 17.0819 19.0504C16.9348 19.1633 16.8272 19.32 16.7748 19.4978C16.6633 19.5486 16.7221 19.6568 16.781 19.7652L16.7816 19.7661L16.7895 19.7807L16.7984 19.7975C16.8503 19.8953 16.8974 19.9839 17.0088 19.9251C17.7888 20.0019 18.5732 19.8608 19.2738 19.5174C19.3948 19.437 19.5074 19.3451 19.6099 19.2433C19.7143 19.1394 19.8084 19.025 19.891 18.9017C20.121 18.4233 20.3789 17.9585 20.6627 17.51C20.4356 17.2224 20.1047 17.058 19.773 16.8931ZM16.3631 14.0324C16.3399 14.0654 16.3216 14.0997 16.3124 14.1363L16.3299 14.1737C16.2646 14.1537 16.1962 14.1485 16.1288 14.1588C16.0619 14.169 15.9979 14.1943 15.942 14.2327C15.8823 14.2171 15.8299 14.2149 15.785 14.213C15.7065 14.2098 15.6508 14.2075 15.618 14.1361C15.4645 14.0565 15.3435 13.9261 15.2755 13.7675C15.1847 13.3566 15.778 13.1767 16.3784 13.2651L16.425 13.3123L16.4258 13.3131C16.523 13.4098 16.6612 13.5473 16.6195 13.6889C16.5953 13.7717 16.53 13.8421 16.4652 13.9119C16.4285 13.9516 16.3919 13.991 16.3631 14.0324ZM22.1696 12.1923C22.4976 12.0429 22.5215 11.5887 22.253 11.5935C22.0818 11.5753 21.9099 11.6184 21.768 11.7149C21.6209 11.8277 21.5136 11.9842 21.4609 12.1623C21.4886 12.4753 21.8622 12.4046 22.187 12.2296L22.1696 12.1923ZM8.26218 24.922C8.24114 25.0046 8.17554 25.0753 8.10945 25.1465C8.04462 25.2163 7.9793 25.2867 7.95512 25.3693L7.97222 25.4068C7.93421 25.3941 7.8897 25.3848 7.84434 25.3753C7.69846 25.3449 7.54376 25.3126 7.56769 25.1567C7.55559 25.1221 7.54743 25.0865 7.5437 25.0503C7.54055 25.0204 7.54041 24.9903 7.54297 24.9603C7.54624 24.9258 7.55317 24.8922 7.56386 24.8596C7.5736 24.8292 7.58674 24.8001 7.60296 24.7724C7.63676 24.7149 7.68233 24.6655 7.73717 24.6277C7.7781 24.5992 7.82362 24.5778 7.87165 24.5642C7.88728 24.5597 7.90352 24.556 7.92 24.5532C8.07401 24.6318 8.19541 24.7625 8.26218 24.922ZM19.8025 11.6785C20.0262 11.5765 20.0607 11.398 19.8335 11.2391C19.7852 11.1346 19.6174 11.0843 19.6769 11.1929C19.5651 11.2439 19.4111 11.4767 19.467 11.5778L19.4697 11.5827C19.5255 11.6839 19.6065 11.8307 19.8199 11.7157L19.8025 11.6785ZM21.0738 14.2291C20.847 14.07 20.9478 14.0153 21.2238 14.0071L21.3423 14.2245C21.2554 14.1921 21.1593 14.1939 21.0738 14.2291ZM23.0538 16.5589C23.0961 16.5707 23.1376 16.5824 23.1928 16.5527C23.0991 16.5283 23.0587 16.5178 23.0206 16.5229C22.9921 16.5266 22.9648 16.5389 22.9168 16.5608C22.9716 16.5358 23.013 16.5474 23.0538 16.5589ZM25.0896 14.0067C25.0664 14.0397 25.0482 14.0741 25.039 14.1106L25.0564 14.148C24.9912 14.128 24.9227 14.1229 24.8554 14.1331C24.7884 14.1433 24.7244 14.1686 24.6686 14.207C24.6088 14.1914 24.5565 14.1892 24.5116 14.1874C24.4331 14.1841 24.3773 14.1818 24.3445 14.1104C24.191 14.0308 24.0701 13.9004 24.002 13.7419C23.9113 13.3309 24.5046 13.151 25.105 13.2394L25.1515 13.2866L25.1523 13.2874C25.2495 13.3841 25.3877 13.5216 25.346 13.6632C25.3218 13.746 25.2565 13.8164 25.1918 13.8863C25.155 13.9259 25.1184 13.9653 25.0896 14.0067ZM30.8962 12.1666C31.2241 12.0172 31.2481 11.563 30.9796 11.5678C30.8083 11.5497 30.6365 11.5927 30.4945 11.6892C30.3474 11.8021 30.2402 11.9585 30.1875 12.1366C30.2152 12.4496 30.5887 12.3789 30.9136 12.2039L30.8962 12.1666ZM28.5601 11.2134C28.7873 11.3724 28.7527 11.5509 28.5291 11.6528L28.5465 11.69C28.333 11.8051 28.2521 11.6583 28.1962 11.557L28.1936 11.5522C28.1377 11.451 28.2916 11.2182 28.4034 11.1672C28.344 11.0586 28.5117 11.1089 28.5601 11.2134ZM29.9503 13.9814C29.6743 13.9896 29.5735 14.0444 29.8004 14.2034C29.8858 14.1682 29.9819 14.1665 30.0689 14.1988L29.9503 13.9814ZM27.5911 6.69892L27.5931 6.6999C27.9248 6.86474 28.2557 7.02922 28.4828 7.31681C28.199 7.76534 27.9411 8.23006 27.7111 8.70853C27.6286 8.83178 27.5344 8.94621 27.4301 9.05007C27.3275 9.15193 27.2149 9.24378 27.0939 9.32423C26.3933 9.66764 25.6089 9.80872 24.8289 9.73188C24.7175 9.79074 24.6704 9.70213 24.6185 9.60435C24.613 9.59393 24.6074 9.58339 24.6017 9.57293L24.6012 9.57198C24.5422 9.46358 24.4835 9.35544 24.5949 9.30461C24.6473 9.12678 24.7549 8.97007 24.902 8.85723C25.6418 8.44804 26.0571 7.94218 25.4215 7.03766C25.3657 6.93653 25.3026 6.82041 25.407 6.77294C25.4605 6.69648 25.5062 6.6079 25.5515 6.51977C25.6403 6.34799 25.7286 6.17724 25.8715 6.10007C26.088 5.9833 26.6365 5.95969 26.6884 6.07165C26.9199 6.36587 27.2557 6.53262 27.5911 6.69892ZM31.8845 15.594C31.9655 15.6452 32.0483 15.6944 32.1352 15.7389C32.1016 15.7553 32.0678 15.772 32.034 15.7888C31.5287 16.0388 30.9918 16.3046 30.4698 15.8177C30.3962 15.7483 30.3514 15.6803 30.324 15.6119C30.284 15.5131 30.2805 15.4139 30.2769 15.3106C30.2735 15.2211 30.3388 15.1511 30.4268 15.1036C30.5102 15.0585 30.6136 15.0336 30.6984 15.0315C30.809 15.0329 30.9184 15.0534 31.0215 15.0917C31.0896 15.1173 31.155 15.1508 31.2164 15.1915C31.3985 15.2763 31.5585 15.3814 31.7177 15.4859C31.7731 15.5223 31.8284 15.5587 31.8845 15.594ZM25.4867 19.9079L26.0227 20.4112C26.1915 20.592 26.7213 20.5609 26.7933 20.3028L27.869 18.6507C27.8622 18.5579 27.8265 18.4689 27.7667 18.3969C27.0902 18.0749 26.3891 17.8082 25.6702 17.5994C25.5859 17.5091 25.4959 17.604 25.4114 17.6936C25.1504 17.9534 24.9313 18.2519 24.7614 18.5788C24.6053 18.9266 24.6239 19.4381 24.9733 19.5973C25.1286 19.7249 25.3015 19.8296 25.4867 19.9079ZM42.7988 3.73181C42.5337 3.65163 42.5104 3.47083 42.6902 3.30369L42.662 3.2737C42.828 3.0973 42.9508 3.21174 43.0354 3.29065L43.0395 3.29443C43.1241 3.37322 43.0515 3.64312 42.9616 3.72669C43.052 3.8115 42.8774 3.81613 42.7988 3.73181ZM23.9809 22.6573L24.2339 22.9284C24.2933 22.9434 24.3556 22.942 24.4141 22.9249C24.4726 22.9076 24.5255 22.8752 24.5669 22.8308C24.5887 22.8075 24.6073 22.7814 24.6215 22.7534C24.6347 22.7277 24.6445 22.7004 24.651 22.672C24.6644 22.6126 24.6615 22.5506 24.6429 22.4922L24.4744 22.3111C24.29 22.2691 24.1218 22.4477 23.9535 22.6263L23.9809 22.6573ZM36.9681 2.62828C36.9709 2.66599 36.9644 2.70442 36.9528 2.74309C36.9385 2.79155 36.9163 2.84056 36.8939 2.88979C36.8545 2.9766 36.8148 3.06409 36.8179 3.15047C36.8228 3.29842 36.9969 3.38606 37.1193 3.4477L37.1203 3.44821L37.1792 3.47856C37.7754 3.37459 38.2808 3.01743 38.0658 2.65457C37.9516 2.52493 37.7961 2.43866 37.6258 2.41095C37.5723 2.35326 37.5188 2.36852 37.4434 2.39001C37.4003 2.4023 37.3501 2.41663 37.2886 2.4205C37.2478 2.4745 37.1951 2.51866 37.1349 2.54934C37.0744 2.58022 37.0079 2.59676 36.9399 2.59814L36.9681 2.62828ZM32.1413 6.91062C31.8886 6.99932 31.7686 6.55931 32.0323 6.31428L32.0041 6.28428C32.2567 6.01582 32.5882 5.83147 32.7128 6.12087C32.7188 6.30697 32.6663 6.48952 32.5625 6.64306C32.4584 6.77944 32.3091 6.87424 32.1413 6.91062ZM34.435 6.06198C34.2552 6.22913 34.2786 6.40993 34.5436 6.49011C34.6222 6.57442 34.7968 6.56979 34.7064 6.48498C34.7963 6.40141 34.869 6.13151 34.7843 6.05273L34.7802 6.04895C34.6956 5.97003 34.5729 5.8556 34.4068 6.03199L34.435 6.06198ZM32.4304 4.03158C32.6951 4.11196 32.6169 4.19571 32.3581 4.28993L32.1776 4.12012C32.2701 4.12364 32.3605 4.09187 32.4304 4.03158ZM36.8764 10.4849L36.8786 10.4852C37.2483 10.5385 37.6187 10.5921 37.9302 10.7997C38.0146 10.8901 38.5265 10.6958 38.6949 10.5167C38.806 10.3985 38.8359 10.2087 38.866 10.0173C38.8813 9.91916 38.8968 9.82008 38.9235 9.7305C39.0074 9.65261 38.9112 9.56178 38.8266 9.48299C37.9408 8.8208 38.1752 8.20903 38.7472 7.58765C38.8511 7.43412 38.9038 7.2512 38.8975 7.06546C38.9871 6.98213 38.8975 6.89758 38.8077 6.81282L38.8069 6.81207C38.7982 6.8039 38.7896 6.79563 38.7811 6.78744C38.7012 6.71059 38.6289 6.64095 38.5419 6.7319C37.7791 6.90311 37.0807 7.28317 36.5251 7.82963C36.4358 7.94416 36.358 8.06688 36.2929 8.19601C36.2267 8.32759 36.1734 8.46605 36.1339 8.60928C36.0664 9.13693 35.9681 9.66022 35.8402 10.1762C36.1455 10.3789 36.5105 10.4319 36.8764 10.4849ZM67.6806 75.9492C67.7493 76.0186 67.8127 76.091 67.8738 76.1649C67.9161 76.216 67.9574 76.2677 67.9987 76.3195C68.1174 76.4684 68.2368 76.6181 68.3836 76.7554C68.4292 76.8132 68.481 76.8653 68.5379 76.9109C68.624 76.9795 68.7217 77.0332 68.8266 77.0692C68.908 77.0938 69.0142 77.1026 69.1078 77.086C69.2066 77.0686 69.2907 77.0228 69.3156 76.937C69.3446 76.838 69.3724 76.743 69.3654 76.6369C69.3607 76.5635 69.3394 76.4851 69.2911 76.3963C68.9469 75.7718 68.3522 75.8552 67.7926 75.9337C67.7551 75.939 67.7177 75.9442 67.6806 75.9492ZM48.2506 89.3236C48.2929 89.3354 48.3344 89.3471 48.3896 89.3174C48.296 89.293 48.2556 89.2825 48.2175 89.2876C48.189 89.2913 48.1617 89.3037 48.1136 89.3255C48.1685 89.3005 48.2099 89.3121 48.2506 89.3236ZM46.0861 91.914C45.7214 91.7368 45.2675 91.5153 44.9345 91.3434C44.8937 91.7018 44.7266 92.0328 44.4628 92.2773C44.199 92.5216 43.8559 92.6635 43.4953 92.6773C43.3154 92.7178 43.1269 92.6855 42.9699 92.5874C42.813 92.4895 42.7005 92.3339 42.6574 92.1544C42.6355 92.0654 42.6318 91.973 42.6459 91.8827C42.6542 91.8287 42.6694 91.776 42.6902 91.7258C42.7041 91.6922 42.7209 91.6596 42.7404 91.6286C42.7883 91.5511 42.8513 91.484 42.9258 91.4314C42.9622 91.4059 43.0007 91.384 43.041 91.3659C43.0837 91.3468 43.1284 91.3321 43.1743 91.3219C43.7221 91.1185 44.3292 91.1372 44.8673 91.374C45.0179 91.2924 45.1801 91.1729 45.3547 91.0442C45.5471 90.9023 45.7553 90.749 45.9807 90.6226C46.0143 90.6224 46.0478 90.6258 46.0808 90.6327C46.1181 90.6404 46.1541 90.6528 46.1889 90.6694C46.2537 90.7008 46.3107 90.7466 46.3552 90.8031C46.3997 90.8599 46.4307 90.9259 46.4457 90.9962C46.4606 91.0665 46.4593 91.1392 46.4418 91.2087C46.3641 91.4626 46.2435 91.701 46.0861 91.914ZM74.9678 73.4399L75.3202 74.0844C75.4719 74.2166 75.6037 74.3698 75.7115 74.5394C75.9943 74.7995 75.8514 75.2898 75.5935 75.5701C75.3819 75.7754 75.1459 75.9534 74.8909 76.1005L74.8913 76.1016C74.8974 76.2877 74.8449 76.4703 74.741 76.6238C74.6369 76.7602 74.4877 76.855 74.3198 76.8914C74.0671 76.9801 73.9472 76.5401 74.2108 76.295L74.1827 76.265C74.2248 76.2202 74.2692 76.1778 74.3144 76.1395C73.7347 75.7355 73.1867 75.288 72.6748 74.8008C72.6405 74.714 72.6344 74.6185 72.6571 74.5285L74.2 73.3011C74.3496 73.0793 74.8639 73.2158 74.9678 73.4399ZM50.2865 86.7715C50.2632 86.8044 50.245 86.8388 50.2358 86.8754L50.2532 86.9128C50.188 86.8927 50.1196 86.8876 50.0522 86.8979C49.9853 86.9081 49.9213 86.9334 49.8654 86.9717C49.8056 86.9561 49.7533 86.9539 49.7084 86.9521C49.6299 86.9488 49.5742 86.9465 49.5413 86.8751C49.3878 86.7955 49.2669 86.6651 49.1988 86.5066C49.1081 86.0956 49.7014 85.9158 50.3018 86.0041L50.3484 86.0513L50.3492 86.0521C50.4463 86.1488 50.5846 86.2863 50.5429 86.428C50.5187 86.5107 50.4534 86.5811 50.3886 86.651C50.3518 86.6906 50.3153 86.73 50.2865 86.7715ZM56.093 84.9314C56.421 84.7819 56.4449 84.3277 56.1764 84.3325C56.0052 84.3144 55.8333 84.3574 55.6914 84.4539C55.5443 84.5668 55.437 84.7232 55.3843 84.9013C55.412 85.2144 55.7856 85.1437 56.1104 84.9686L56.093 84.9314ZM53.7259 84.4175C53.9496 84.3156 53.9841 84.1371 53.7569 83.9781C53.7086 83.8737 53.5408 83.8233 53.6003 83.932C53.4885 83.9829 53.3345 84.2158 53.3904 84.3169L53.3931 84.3217C53.4489 84.423 53.5299 84.5698 53.7433 84.4548L53.7259 84.4175ZM77.4614 71.6167L77.6173 71.9527L77.6344 71.9902C77.418 72.1067 77.201 72.2235 77.0386 72.1259L76.935 71.9017C76.9356 71.8405 76.9524 71.7809 76.9838 71.7288C76.9989 71.7039 77.0168 71.6812 77.0374 71.661C77.0597 71.639 77.0856 71.6201 77.1137 71.6048C77.1671 71.5758 77.2276 71.5617 77.2887 71.5636C77.3498 71.5657 77.4096 71.5839 77.4614 71.6167ZM54.9972 86.9681C54.7704 86.8091 54.8712 86.7543 55.1472 86.7461L55.2657 86.9635C55.1788 86.9312 55.0827 86.9329 54.9972 86.9681ZM56.9772 89.2979C57.0194 89.3097 57.061 89.3214 57.1161 89.2917C57.0225 89.2673 56.9821 89.2569 56.944 89.2619C56.9155 89.2656 56.8882 89.278 56.8401 89.2999C56.895 89.2748 56.9364 89.2865 56.9772 89.2979ZM59.013 86.7458C58.9898 86.7787 58.9716 86.8131 58.9623 86.8497L58.9798 86.8871C58.9146 86.8671 58.8461 86.8619 58.7788 86.8722C58.7118 86.8824 58.6478 86.9077 58.5919 86.946C58.5322 86.9304 58.4799 86.9283 58.435 86.9264C58.3565 86.9231 58.3007 86.9208 58.2679 86.8494C58.1144 86.7698 57.9935 86.6394 57.9254 86.4809C57.8346 86.07 58.428 85.8901 59.0284 85.9784L59.0749 86.0256L59.0757 86.0264C59.1729 86.1231 59.3111 86.2606 59.2694 86.4023C59.2452 86.485 59.1799 86.5555 59.1151 86.6253C59.0784 86.6649 59.0418 86.7044 59.013 86.7458ZM64.8196 84.9057C65.1475 84.7563 65.1715 84.302 64.903 84.3068C64.7317 84.2887 64.5599 84.3317 64.4179 84.4283C64.2708 84.5411 64.1636 84.6975 64.1109 84.8756C64.1386 85.1887 64.5121 85.118 64.837 84.9429L64.8196 84.9057ZM62.4835 83.9524C62.7107 84.1114 62.6761 84.2899 62.4525 84.3919L62.4699 84.4291C62.2564 84.5441 62.1755 84.3973 62.1196 84.296L62.117 84.2912C62.0611 84.1901 62.215 83.9573 62.3268 83.9063C62.2674 83.7977 62.4351 83.848 62.4835 83.9524ZM63.8737 86.7205C63.5977 86.7286 63.4969 86.7834 63.7238 86.9425C63.8092 86.9073 63.9053 86.9055 63.9923 86.9378L63.8737 86.7205ZM61.5145 79.438L61.5164 79.4389C61.8482 79.6038 62.1791 79.7683 62.4062 80.0559C62.1224 80.5044 61.8645 80.9691 61.6345 81.4476C61.5519 81.5708 61.4578 81.6852 61.3534 81.7891C61.2509 81.891 61.1383 81.9828 61.0173 82.0633C60.3167 82.4067 59.5323 82.5478 58.7523 82.4709C58.6408 82.5298 58.5938 82.4412 58.5419 82.3434C58.5364 82.333 58.5308 82.3224 58.5251 82.312L58.5246 82.311C58.4656 82.2026 58.4068 82.0945 58.5183 82.0436C58.5707 81.8658 58.6783 81.7091 58.8254 81.5963C59.5651 81.1871 59.9805 80.6812 59.3449 79.7767C59.2891 79.6756 59.226 79.5595 59.3304 79.512C59.3839 79.4355 59.4295 79.3469 59.4749 79.2588C59.5637 79.087 59.652 78.9163 59.7949 78.8391C60.0114 78.7223 60.5599 78.6987 60.6118 78.8107C60.8433 79.1049 61.1791 79.2717 61.5145 79.438ZM80.1282 69.7053C80.1711 69.6598 80.2141 69.6579 80.2578 69.6559C80.3 69.6541 80.3428 69.6521 80.3869 69.6111C80.3483 69.647 80.3263 69.6674 80.3005 69.6798C80.266 69.6965 80.2245 69.6993 80.1282 69.7053ZM82.7637 66.6938C82.3944 66.6344 81.8951 66.5657 81.4941 66.5112C81.4119 66.7634 81.3726 67.0282 81.3788 67.2943C81.384 67.3659 81.4056 67.4355 81.4418 67.4978C81.478 67.5601 81.5281 67.6132 81.5881 67.6533C81.648 67.6932 81.7163 67.719 81.7876 67.7286C81.8257 67.7334 81.8636 67.7339 81.9015 67.7297C81.9348 67.7259 81.9676 67.7187 81.9994 67.7079C82.1731 67.5169 82.3221 67.3057 82.4598 67.1103C82.5847 66.9331 82.7007 66.7685 82.8178 66.6436C83.4016 66.7005 83.9823 66.5281 84.4372 66.1628C84.4775 66.1387 84.5152 66.1108 84.5496 66.0792C84.5821 66.0493 84.6117 66.0164 84.6381 65.9808C84.6922 65.9073 84.7308 65.8237 84.7518 65.7349C84.7606 65.6992 84.7662 65.6629 84.7688 65.6266C84.7727 65.5723 84.7705 65.5173 84.7615 65.4633C84.7465 65.3729 84.714 65.2861 84.6653 65.2082C84.5681 65.0508 84.4127 64.9378 84.2334 64.8938C84.054 64.8496 83.8653 64.8778 83.7077 64.9727C83.3705 65.0989 83.0902 65.3415 82.9171 65.6568C82.7441 65.9722 82.6899 66.3398 82.7637 66.6938ZM81.378 66.4954L81.294 66.4841C81.7036 66.036 81.7751 65.6095 81.269 65.2583C81.0251 65.117 80.8407 64.8916 80.7506 64.625C80.6605 64.3582 80.6711 64.0687 80.7804 63.8108C80.7773 63.7239 80.8161 63.6375 80.8549 63.5508L80.8559 63.5488C80.8947 63.4621 80.9335 63.3757 80.9304 63.2888C80.9281 63.2257 80.8841 63.1616 80.8287 63.1057C80.7312 63.0069 80.5989 62.933 80.5989 62.933C80.0816 63.0547 79.6219 63.3476 79.2942 63.7644C78.9666 64.1812 78.7904 64.697 78.7938 65.2291C78.7975 65.3318 78.799 65.374 78.8169 65.4074C78.8294 65.4308 78.8499 65.4499 78.8848 65.4823C79.2375 65.6446 79.3157 65.9662 79.3937 66.2868C79.471 66.6066 79.5482 66.9255 79.8973 67.0842C80.0569 67.0273 80.2163 66.9693 80.3787 66.9079C80.6946 66.7884 81.0211 66.6561 81.378 66.4954ZM75.0065 71.0685L75.0043 71.0681C74.6385 71.0151 74.2735 70.9622 73.9682 70.7595C74.096 70.2435 74.1943 69.7202 74.2619 69.1925C74.3014 69.0493 74.3546 68.9108 74.4208 68.7793C74.486 68.6501 74.5637 68.5274 74.6531 68.4129C75.2086 67.8664 75.9071 67.4864 76.6698 67.3151C76.7568 67.2242 76.8292 67.2938 76.909 67.3707C76.9176 67.3789 76.9262 67.3871 76.9349 67.3953L76.9356 67.3961C77.0255 67.4808 77.1151 67.5654 77.0255 67.6487C77.0317 67.8344 76.979 68.0174 76.8752 68.1709C76.3032 68.7923 76.0687 69.404 76.9545 70.0662C77.0392 70.145 77.1353 70.2359 77.0514 70.3137C77.0247 70.4033 77.0093 70.502 76.994 70.6001C76.9639 70.7915 76.9339 70.9817 76.8228 71.1C76.6545 71.279 76.1425 71.4733 76.0582 71.383C75.7467 71.1753 75.3763 71.1217 75.0065 71.0685ZM85.3876 57.9612C85.3442 57.9638 85.302 57.9662 85.2629 57.9243C85.2403 57.7955 85.1767 57.6769 85.0816 57.5863C85.1803 57.3312 85.3356 57.1021 85.5356 56.9161C85.7357 56.7302 85.9757 56.592 86.2377 56.5121C86.3244 56.4213 86.3967 56.4908 86.4765 56.5677L86.49 56.5806L86.5024 56.5924C86.5928 56.6772 86.6832 56.762 86.5933 56.8455C86.5432 57.1202 86.4156 57.3745 86.2261 57.5784C86.0364 57.7827 85.7923 57.9282 85.5218 57.9985C85.4765 57.956 85.4314 57.9586 85.3876 57.9612ZM79.1467 72.609C79.1495 72.6467 79.143 72.6852 79.1314 72.7239C79.1171 72.7723 79.0948 72.8213 79.0725 72.8705C79.033 72.9573 78.9933 73.0448 78.9964 73.1312C79.0014 73.2792 79.1754 73.3668 79.2978 73.4285L79.2988 73.429L79.3577 73.4593C79.954 73.3553 80.4593 72.9982 80.2444 72.6353C80.1301 72.5057 79.9747 72.4194 79.8044 72.3917C79.7508 72.334 79.6973 72.3493 79.622 72.3708C79.5789 72.383 79.5287 72.3974 79.4672 72.4012C79.4263 72.4552 79.3737 72.4994 79.3135 72.5301C79.2529 72.561 79.1865 72.5775 79.1184 72.5789L79.1467 72.609ZM83.4573 59.5554C83.4171 59.6439 83.3771 59.7317 83.3832 59.817C83.4964 59.9479 83.6524 60.0343 83.823 60.061C83.8274 60.0586 83.8318 60.0562 83.8361 60.0537L83.843 60.0497L83.8491 60.0459C83.8546 60.0425 83.86 60.039 83.8653 60.0353C83.9065 60.0073 83.9429 59.9727 83.9727 59.9328C84.0127 59.8795 84.0404 59.8182 84.0543 59.7529C84.061 59.7215 84.0643 59.6896 84.064 59.6576C84.0639 59.6233 84.0599 59.589 84.0522 59.5552C84.0507 59.5489 84.049 59.5427 84.0473 59.5364C84.0457 59.5307 84.044 59.5249 84.0421 59.5192L84.0379 59.5067L84.034 59.496L84.0306 59.4871C84.0283 59.4813 84.0258 59.4755 84.0232 59.4698C84.0083 59.4364 83.9894 59.4051 83.9671 59.3759C83.9408 59.22 83.7842 59.2377 83.6365 59.2544C83.622 59.2561 83.6076 59.2577 83.5935 59.2592C83.5803 59.2605 83.5674 59.2617 83.5548 59.2626C83.5377 59.2639 83.5212 59.2646 83.5055 59.2645L83.5334 59.2948C83.5365 59.3811 83.4968 59.4686 83.4573 59.5554ZM76.7222 76.4708C76.4571 76.3907 76.4338 76.2099 76.6136 76.0427L76.5854 76.0127C76.7514 75.8363 76.8741 75.9508 76.9588 76.0297L76.9629 76.0335C77.0475 76.1123 76.9749 76.3822 76.885 76.4657C76.9754 76.5505 76.8008 76.5552 76.7222 76.4708ZM71.873 72.4636C71.9159 72.4181 71.9589 72.4162 72.0027 72.4142C72.0448 72.4123 72.0877 72.4104 72.1318 72.3694C72.0931 72.4053 72.0712 72.4257 72.0453 72.4381C72.0108 72.4548 71.9693 72.4576 71.873 72.4636ZM70.8915 75.3673C70.8943 75.405 70.8878 75.4435 70.8762 75.4821C70.8619 75.5306 70.8397 75.5796 70.8173 75.6288C70.7779 75.7156 70.7382 75.8031 70.7412 75.8895C70.7462 76.0375 70.9202 76.1251 71.0426 76.1867L71.0437 76.1873L71.1026 76.2176C71.6988 76.1136 72.2042 75.7565 71.9892 75.3936C71.875 75.264 71.7195 75.1777 71.5492 75.15C71.4957 75.0923 71.4422 75.1076 71.3668 75.1291C71.3237 75.1413 71.2735 75.1557 71.212 75.1595C71.1712 75.2135 71.1185 75.2577 71.0583 75.2884C70.9977 75.3193 70.9313 75.3358 70.8633 75.3372L70.8915 75.3673ZM66.0647 79.6497C65.812 79.7383 65.692 79.2984 65.9557 79.0533L65.9275 79.0233C66.1801 78.7549 66.5116 78.5705 66.6362 78.8599C66.6422 79.046 66.5897 79.2286 66.4859 79.3821C66.3817 79.5185 66.2325 79.6133 66.0647 79.6497ZM68.3584 78.801C68.1786 78.9682 68.2019 79.149 68.467 79.2291C68.5456 79.3135 68.7202 79.3088 68.6298 79.224C68.7197 79.1405 68.7924 78.8706 68.7077 78.7918L68.7036 78.788C68.619 78.7091 68.4962 78.5946 68.3302 78.771L68.3584 78.801ZM66.3538 76.7706C66.6185 76.851 66.5403 76.9348 66.2815 77.029L66.101 76.8592C66.1935 76.8627 66.2839 76.8309 66.3538 76.7706Z" fill="#E0EDFF"/>
<path d="M56.9993 54.276H52.7783C51.8462 54.276 51.0929 53.2704 51.0929 52.0346V50.7143C51.0929 49.4707 51.8387 48.4652 52.7783 48.4652H56.9993M52.145 43.3295C51.9024 43.3295 51.6694 43.2314 51.4964 43.0561C51.3235 42.881 51.2242 42.6428 51.2204 42.3931V42.5082C51.2184 42.3825 51.2406 42.2578 51.2857 42.1409C51.3308 42.0242 51.398 41.9178 51.4833 41.8279C51.5685 41.738 51.6702 41.6663 51.7826 41.6171C51.8949 41.5678 52.0155 41.542 52.1376 41.5409H52.7118C53.1885 41.5409 53.6457 41.346 53.9827 40.9991C54.3198 40.6522 54.5092 40.1817 54.5092 39.691V37.4342C54.5092 37.0535 54.3623 36.6884 54.1007 36.4192C53.8392 36.15 53.4844 35.9988 53.1146 35.9988H38.8631C38.4932 35.9988 38.1385 36.15 37.877 36.4192C37.6154 36.6884 37.4685 37.0535 37.4685 37.4342V39.6833C37.4685 39.9282 37.5157 40.1706 37.6074 40.3966C37.6992 40.6226 37.8335 40.8276 38.0028 40.9996C38.1721 41.1718 38.3728 41.3076 38.5935 41.3992C38.8142 41.4908 39.0503 41.5364 39.2881 41.5333H39.8848C40.1274 41.5413 40.3573 41.6472 40.5247 41.8282C40.6922 42.0092 40.7838 42.2506 40.7797 42.5005V42.3931C40.7777 42.6442 40.6794 42.8843 40.5062 43.0611C40.333 43.2379 40.0989 43.3372 39.855 43.3372C39.2171 43.3362 38.5854 43.4647 37.9959 43.7156C37.4064 43.9663 36.8709 44.3343 36.4199 44.7986C35.9688 45.2629 35.6112 45.8141 35.3676 46.4209C35.124 47.0276 34.999 47.6779 35 48.3344V54.675C34.999 55.1105 35.0815 55.5419 35.2424 55.9446C35.4034 56.3474 35.64 56.7134 35.9384 57.0221C36.2369 57.3307 36.5915 57.5759 36.9819 57.7435C37.3724 57.9111 37.7912 57.9978 38.2143 57.9988H53.7857C54.2088 57.9978 54.6276 57.9111 55.0181 57.7435C55.4085 57.5759 55.7632 57.3307 56.0616 57.0221C56.3601 56.7134 56.5966 56.3474 56.7577 55.9446C56.9186 55.5419 57.001 55.1105 57 54.675V48.3268C57.001 47.6703 56.8761 47.02 56.6325 46.4132C56.3888 45.8065 56.0312 45.2551 55.5802 44.7909C55.1292 44.3267 54.5936 43.9586 54.0041 43.7079C53.4146 43.4571 52.7829 43.3285 52.145 43.3295Z" stroke="#003E94" stroke-width="2.31818" stroke-linecap="round" stroke-linejoin="round"/>
</svg>
