<svg width="92" height="92" viewBox="0 0 92 92" fill="none" xmlns="http://www.w3.org/2000/svg">
<path fill-rule="evenodd" clip-rule="evenodd" d="M6.49494 72.57L6.68018 72.2693C6.71909 72.0735 6.78624 71.8845 6.8795 71.7078C6.96395 71.3361 7.46128 71.2155 7.83389 71.2976C8.1181 71.3773 8.39092 71.4914 8.64638 71.6373L8.64707 71.6363C8.8057 71.5388 8.99053 71.4932 9.17588 71.5062C9.34647 71.5278 9.50352 71.6088 9.61915 71.7348C9.82269 71.9076 9.50056 72.2288 9.15574 72.1242L9.14379 72.1633C9.08378 72.1493 9.02471 72.1323 8.96881 72.1126C8.90809 72.8104 8.79377 73.5026 8.62686 74.1835C8.56863 74.2561 8.48873 74.3087 8.39923 74.3339L7.43337 73.9584C13.8686 83.0264 24.1477 88.754 36.9432 89.8185C36.7969 89.7297 36.6119 89.6498 36.4127 89.5639C36.1931 89.4692 35.9558 89.3666 35.7331 89.236C35.7161 89.2072 35.7023 89.1768 35.6918 89.1451C35.6798 89.1092 35.6726 89.0722 35.6696 89.0341C35.6644 88.9629 35.6756 88.8913 35.7025 88.8251C35.7295 88.7587 35.7713 88.6993 35.8249 88.6516C35.8785 88.6039 35.9423 88.569 36.0114 88.5495C36.2708 88.4902 36.5382 88.4753 36.8021 88.5047C36.8308 88.9055 36.8655 89.4049 36.883 89.7759C37.2147 89.6331 37.5858 89.6122 37.9303 89.7172C38.0784 89.7624 38.2175 89.8297 38.3431 89.9157C39.5444 89.9828 40.7668 90.0096 42.0093 89.9949C67.3392 89.6954 91.6965 72.3335 91.9974 47.0936C92.0774 40.3846 90.3011 34.0351 87.1739 28.3337L87.0742 28.2635L87.1197 28.2352C86.1621 26.5002 85.0793 24.8255 83.8857 23.2194C83.6469 23.3718 83.3367 23.311 82.9858 23.1039L82.9919 23.1878C82.7615 22.873 82.5651 22.582 82.3834 22.2988C82.29 22.1532 82.2006 22.0098 82.1122 21.866C82.1636 21.639 82.2944 21.4989 82.4563 21.3924C81.8341 20.6361 81.1868 19.8968 80.5163 19.1754C80.4869 19.1669 80.4579 19.1567 80.4293 19.1451C79.7036 18.7134 79.0563 18.6081 78.5888 19.6022C78.5289 19.7003 78.4596 19.812 78.3661 19.7461C78.2729 19.7381 78.1731 19.7429 78.0739 19.7477C77.8802 19.7567 77.6877 19.7657 77.5491 19.6814C77.3393 19.5536 77.0442 19.0947 77.1155 18.9946C77.2552 18.65 77.2319 18.2791 77.2084 17.9088L77.2083 17.9067C77.1854 17.5403 77.1626 17.1747 77.2988 16.8372C77.5996 16.849 77.9008 16.8511 78.2018 16.8435C73.8722 12.7541 68.7651 9.35108 63.2398 6.83945C63.3033 7.03962 63.344 7.24292 63.3305 7.45405C62.8183 7.60038 62.3145 7.77573 61.8224 7.97958C61.6782 8.01678 61.5313 8.03979 61.3839 8.04831C61.2391 8.05649 61.0936 8.05067 60.9494 8.03083C60.1966 7.82534 59.5168 7.41468 58.9863 6.84519C58.8637 6.81566 58.888 6.71901 58.9147 6.61238C58.9176 6.60101 58.9205 6.58952 58.9232 6.57799L58.9235 6.57696C58.9521 6.45783 58.9807 6.33897 59.0979 6.37451C59.2562 6.277 59.4414 6.23142 59.6268 6.24434C60.2398 6.37974 60.7552 6.35824 61.0341 5.89324C54.6567 3.31804 47.8033 1.92161 40.9962 2.00207C39.8872 2.01518 38.7972 2.06721 37.7267 2.15683L37.5968 2.31191L37.5678 2.17043C33.8616 2.4942 30.3908 3.26955 27.1732 4.44162C27.2637 4.51612 27.3369 4.60931 27.3881 4.71518C27.4143 4.76941 27.4344 4.82611 27.4479 4.8843C27.4643 4.95551 27.4713 5.02902 27.4682 5.10286C27.3906 5.46395 27.0318 5.9024 26.6874 5.79777C26.4213 5.80336 26.1633 5.77518 25.8869 5.74496C25.6434 5.71835 25.3854 5.69017 25.0949 5.68211C24.9153 5.62641 24.7369 5.56737 24.5596 5.50502C9.16341 12.4496 0.232693 28.9524 0.00393713 48.138C-0.109012 57.6113 2.21193 65.912 6.49494 72.57ZM12.2151 77.6259C12.1816 77.715 12.1504 77.8054 12.1245 77.8987C12.1016 77.8694 12.0783 77.8399 12.055 77.8103C11.7067 77.3691 11.3365 76.9003 11.7067 76.2951C11.7596 76.2096 11.817 76.1524 11.8784 76.112C11.9671 76.0533 12.0635 76.03 12.164 76.0058C12.251 75.9846 12.3329 76.034 12.3974 76.1101C12.4587 76.1821 12.5042 76.2777 12.5237 76.3597C12.5448 76.4676 12.5472 76.578 12.5307 76.686C12.5196 76.7574 12.5002 76.8277 12.4728 76.8955C12.427 77.0896 12.3568 77.2663 12.2869 77.4421L12.2866 77.4428L12.2863 77.4435C12.2623 77.504 12.2381 77.565 12.2151 77.6259ZM33.4684 87.933C33.4576 87.8908 33.4469 87.8494 33.3935 87.8168C33.4192 87.9092 33.4303 87.9491 33.4538 87.9793C33.4713 88.0019 33.4957 88.0192 33.5388 88.0496C33.4896 88.0149 33.4789 87.9736 33.4684 87.933ZM36.7878 88.3047L36.7938 88.3886C36.5634 88.0738 36.367 87.7828 36.1853 87.4996C36.0919 87.354 36.0025 87.2106 35.9141 87.0668C35.9981 86.6955 36.2947 86.5566 36.5921 86.4172C36.8903 86.2771 37.1894 86.1366 37.2763 85.761C37.3009 85.7206 37.3154 85.6969 37.3357 85.68C37.3648 85.6558 37.4059 85.6459 37.5057 85.6218C38.0262 85.5118 38.5676 85.5797 39.043 85.8147C39.5183 86.0498 39.8993 86.4381 40.1244 86.9168C40.1244 86.9168 40.0791 87.0602 40.0022 87.1748C39.9587 87.24 39.905 87.2956 39.8436 87.3105C39.7592 87.3309 39.6665 87.3105 39.5737 87.2901L39.5715 87.2896C39.4787 87.2692 39.386 87.2488 39.3016 87.2693C39.0266 87.2147 38.7407 87.2624 38.4978 87.4035C38.2551 87.5446 38.072 87.7691 37.9835 88.0346C37.743 88.5972 37.3105 88.6132 36.7878 88.3047ZM31.0102 83.1074L31.0104 83.1096C31.0338 83.4799 31.0571 83.8508 30.9174 84.1954C30.8462 84.2955 31.1412 84.7543 31.3511 84.8822C31.4896 84.9665 31.6817 84.9575 31.8754 84.9485C31.9746 84.9437 32.0748 84.9389 32.1681 84.9468C32.2615 85.0128 32.3308 84.9011 32.3907 84.803C32.8582 83.8089 33.5055 83.9142 34.2313 84.3458C34.4029 84.4161 34.5929 84.4306 34.7736 84.3873C34.8735 84.4577 34.938 84.3536 35.0027 84.2493L35.0033 84.2484L35.012 84.2343L35.0221 84.2183C35.0811 84.1253 35.1345 84.041 35.0276 83.9746C34.7038 83.2672 34.1886 82.6642 33.5396 82.2335C33.4091 82.1696 33.273 82.1185 33.1332 82.0811C32.9907 82.0431 32.8442 82.0191 32.6958 82.0094C32.1651 82.0495 31.6323 82.0588 31.1007 82.0379C30.9645 82.3755 30.9874 82.741 31.0102 83.1074ZM30.2325 87.4526C30.2728 87.4562 30.3117 87.4548 30.3481 87.4446L30.3719 87.411C30.3871 87.4769 30.4169 87.5382 30.4596 87.5909C30.5019 87.6433 30.556 87.6856 30.6172 87.7146C30.6336 87.7735 30.6579 87.8195 30.6788 87.859C30.7152 87.9279 30.7411 87.9769 30.6956 88.0405C30.7033 88.2117 30.6506 88.3802 30.5469 88.5172C30.2354 88.799 29.7821 88.3792 29.5583 87.8203L29.576 87.7569L29.5763 87.7558C29.6116 87.6244 29.6619 87.4376 29.8058 87.4031C29.8898 87.3828 29.9836 87.4039 30.0767 87.4248C30.1295 87.4367 30.1821 87.4485 30.2325 87.4526ZM25.7274 83.3837C25.4334 83.1765 25.0268 83.3813 25.1654 83.6093C25.2354 83.7652 25.3588 83.8913 25.5137 83.9652C25.6854 84.0355 25.875 84.0499 26.056 84.0067C26.3141 83.8276 26.0656 83.5422 25.751 83.3503L25.7274 83.3837ZM43.7466 88.9996C43.8289 88.9766 43.9231 88.9978 44.018 89.0192C44.1112 89.0402 44.205 89.0613 44.2889 89.041L44.3129 89.0077C44.3208 89.0467 44.335 89.0895 44.3495 89.1331C44.3961 89.2734 44.4455 89.4221 44.2981 89.4789C44.2742 89.5065 44.2473 89.5312 44.2177 89.5524C44.1933 89.5699 44.1673 89.5849 44.1399 89.5976C44.1084 89.6119 44.0756 89.6227 44.042 89.6296C44.0107 89.6364 43.9788 89.6396 43.9467 89.6394C43.8798 89.6389 43.8141 89.6243 43.7538 89.5961C43.7086 89.5751 43.6672 89.5466 43.6313 89.5122C43.6196 89.501 43.6082 89.4889 43.5975 89.4762C43.5888 89.305 43.6415 89.136 43.7466 88.9996ZM26.466 85.6697C26.2655 85.5284 26.0932 85.5873 26.0688 85.8611C26.0023 85.9544 26.0426 86.1233 26.1072 86.0184C26.2074 86.0891 26.4867 86.1056 26.5466 86.0075L26.5494 86.0028C26.6094 85.9046 26.6964 85.7623 26.4897 85.6362L26.466 85.6697ZM28.0451 83.3132C28.0205 83.5868 27.9224 83.5275 27.7772 83.2947L27.9066 83.0852C27.9221 83.1758 27.9717 83.2574 28.0451 83.3132ZM29.0775 80.4584C29.0666 80.4162 29.0559 80.3748 29.0025 80.3422C29.0282 80.4346 29.0393 80.4745 29.0628 80.5046C29.0803 80.5273 29.1047 80.5445 29.1478 80.5749C29.0986 80.5403 29.0879 80.499 29.0775 80.4584ZM25.8415 79.978C25.8818 79.9816 25.9208 79.9802 25.9571 79.9699L25.9809 79.9364C25.9962 80.0023 26.0259 80.0636 26.0686 80.1163C26.111 80.1687 26.165 80.211 26.2262 80.2399C26.2426 80.2989 26.2669 80.3449 26.2878 80.3843C26.3242 80.4533 26.3502 80.5023 26.3046 80.5659C26.3123 80.7371 26.2596 80.9056 26.1559 81.0426C25.8444 81.3244 25.3912 80.9046 25.1673 80.3456L25.185 80.2823L25.1853 80.2812C25.2206 80.1498 25.2709 79.963 25.4148 79.9285C25.4988 79.9082 25.5926 79.9292 25.6857 79.9502C25.7386 79.962 25.7911 79.9739 25.8415 79.978ZM21.3364 75.9091C21.0424 75.7019 20.6359 75.9067 20.7745 76.1347C20.8444 76.2906 20.9678 76.4167 21.1227 76.4906C21.2944 76.5609 21.484 76.5752 21.6651 76.5321C21.9231 76.353 21.6747 76.0675 21.36 75.8757L21.3364 75.9091ZM21.6779 78.3865C21.7022 78.1127 21.8746 78.0537 22.0751 78.195L22.0987 78.1616C22.3055 78.2877 22.2185 78.43 22.1585 78.5282L22.1556 78.5329C22.0957 78.631 21.8165 78.6144 21.7162 78.5438C21.6516 78.6487 21.6113 78.4798 21.6779 78.3865ZM23.3862 75.8201C23.5314 76.0529 23.6295 76.1122 23.6541 75.8386C23.5807 75.7828 23.5311 75.7012 23.5156 75.6105L23.3862 75.8201ZM18.2417 81.4581L18.2416 81.4559C18.2187 81.0895 18.1959 80.7239 18.332 80.3864C18.8637 80.4073 19.3964 80.3979 19.9272 80.3579C20.0756 80.3675 20.2221 80.3916 20.3645 80.4295C20.5044 80.467 20.6405 80.518 20.771 80.5819C21.42 81.0126 21.9352 81.6156 22.2589 82.323C22.3658 82.3894 22.3124 82.4737 22.2535 82.5668C22.2472 82.5767 22.2408 82.5867 22.2346 82.5968L22.2341 82.5977C22.1694 82.7021 22.1049 82.8062 22.0049 82.7357C21.8242 82.779 21.6343 82.7645 21.4626 82.6943C20.7369 82.2626 20.0896 82.1573 19.6221 83.1514C19.5622 83.2496 19.4929 83.3613 19.3994 83.2953C19.3062 83.2873 19.2064 83.2921 19.1071 83.2969C18.9135 83.3059 18.721 83.3149 18.5824 83.2306C18.3726 83.1028 18.0775 82.6439 18.1488 82.5438C18.2884 82.1992 18.2651 81.8283 18.2417 81.4581ZM23.8186 73.3604C23.8225 73.2655 23.8237 73.17 23.8189 73.0734C23.85 73.0941 23.8814 73.1148 23.9129 73.1355C24.383 73.4449 24.8827 73.7738 24.7211 74.4632C24.6977 74.5608 24.6611 74.6329 24.6154 74.6905C24.5495 74.7738 24.4651 74.826 24.3772 74.8804C24.3011 74.9277 24.2077 74.9064 24.1224 74.8544C24.0414 74.8053 23.968 74.7289 23.9237 74.6572C23.8696 74.5616 23.8326 74.4576 23.8143 74.3501C23.8025 74.2789 23.7988 74.2062 23.8035 74.1334C23.7859 73.9351 23.7971 73.7456 23.8082 73.5571C23.8121 73.4916 23.816 73.426 23.8186 73.3604ZM30.7685 76.7091L30.9372 75.9994C31.0098 75.7649 30.7176 75.3257 30.4573 75.392L28.4838 75.2889C28.4066 75.3408 28.3472 75.4156 28.3147 75.5026C28.3736 76.2429 28.4929 76.9767 28.6714 77.6972C28.6352 77.8143 28.7627 77.8444 28.8828 77.8724C29.2391 77.9675 29.6081 78.0074 29.9771 77.9909C30.3573 77.9523 30.7923 77.6825 30.7557 77.3037C30.7888 77.1071 30.7931 76.9068 30.7685 76.7091ZM8.05124 69.8822C8.11429 70.1494 7.96891 70.2592 7.73374 70.1879L7.7218 70.2269C7.48547 70.172 7.52342 70.0099 7.54959 69.8981L7.55084 69.8928C7.57689 69.781 7.8477 69.7094 7.96528 69.7451C7.99369 69.6254 8.08514 69.773 8.05124 69.8822ZM33.9104 76.6367L34.0193 76.2851C34.0025 76.2267 33.9701 76.174 33.9259 76.1322C33.8816 76.0907 33.827 76.0613 33.7677 76.0478C33.7366 76.0407 33.7046 76.0377 33.6732 76.0394C33.6443 76.0408 33.6157 76.0459 33.5877 76.0545C33.5294 76.0724 33.477 76.1057 33.4356 76.1507L33.3627 76.385C33.4185 76.5642 33.6578 76.6199 33.8973 76.6756L33.8981 76.6758L33.9104 76.6367ZM10.0116 75.4325C10.043 75.4114 10.0796 75.3979 10.1191 75.3887C10.1683 75.3769 10.222 75.3717 10.276 75.3664C10.3711 75.3572 10.467 75.3478 10.5405 75.3023C10.6665 75.2246 10.6555 75.0318 10.6477 74.8962L10.6477 74.8951L10.6445 74.8295C10.2557 74.3695 9.69253 74.1132 9.48496 74.4777C9.42954 74.64 9.43244 74.8162 9.49364 74.9761C9.47032 75.0506 9.51037 75.089 9.56675 75.143C9.599 75.1738 9.63659 75.2098 9.67072 75.2606C9.73808 75.2689 9.8028 75.2922 9.8596 75.3286C9.91672 75.3652 9.96435 75.414 9.99962 75.4717L10.0116 75.4325ZM16.1477 77.449C16.3512 77.6218 16.0291 77.943 15.6843 77.8384L15.6723 77.8775C15.3127 77.7939 14.9866 77.601 15.1756 77.3505C15.3342 77.253 15.5191 77.2074 15.7044 77.2203C15.875 77.242 16.0321 77.323 16.1477 77.449ZM14.2623 75.9021C14.4974 75.9734 14.6428 75.8636 14.5798 75.5964C14.6137 75.4872 14.5222 75.3396 14.4938 75.4593C14.3762 75.4236 14.1054 75.4952 14.0794 75.607L14.0781 75.6123C14.052 75.7241 14.014 75.8862 14.2503 75.9411L14.2623 75.9021ZM13.5022 78.6295C13.4395 78.3625 13.5514 78.3881 13.7628 78.5634L13.7057 78.8025C13.6624 78.7214 13.5896 78.6596 13.5022 78.6295ZM16.8818 71.6126L16.881 71.6106C16.7422 71.2669 16.6033 70.9225 16.6277 70.5522C16.6639 70.435 16.2389 70.0922 15.9991 70.0366C15.8408 69.9999 15.6609 70.0685 15.4796 70.1376C15.3867 70.1731 15.2929 70.209 15.2017 70.2306C15.0921 70.1973 15.0613 70.3248 15.0353 70.4365C14.9035 71.5251 14.2548 71.6276 13.4287 71.4451C13.2433 71.4322 13.0581 71.4778 12.8999 71.5753C12.7826 71.5397 12.7541 71.6586 12.7254 71.7777L12.7251 71.7788C12.7224 71.7903 12.7195 71.8018 12.7167 71.8131C12.6899 71.9198 12.6656 72.0164 12.7882 72.046C13.3188 72.6155 13.9985 73.0261 14.7513 73.2316C14.8955 73.2514 15.041 73.2573 15.1858 73.2491C15.3332 73.2406 15.4801 73.2175 15.6243 73.1804C16.1165 72.9765 16.6202 72.8012 17.1324 72.6548C17.1556 72.2923 17.0189 71.9528 16.8818 71.6126ZM58.3226 12.6979C58.3485 12.6046 58.3797 12.5142 58.4132 12.4251C58.4364 12.3635 58.4607 12.3025 58.485 12.2413C58.5548 12.0656 58.6251 11.8888 58.6709 11.6947C58.6982 11.6269 58.7176 11.5566 58.7288 11.4852C58.7453 11.3773 58.7429 11.2668 58.7217 11.1589C58.7023 11.0769 58.6568 10.9814 58.5955 10.9093C58.5309 10.8333 58.4491 10.7838 58.3621 10.805C58.2616 10.8292 58.1651 10.8525 58.0765 10.9112C58.015 10.9516 57.9576 11.0088 57.9047 11.0943C57.5345 11.6995 57.9047 12.1684 58.2531 12.6095C58.2764 12.6391 58.2997 12.6686 58.3226 12.6979ZM79.6665 22.7322C79.6557 22.69 79.645 22.6486 79.5916 22.616C79.6172 22.7085 79.6284 22.7483 79.6519 22.7785C79.6693 22.8011 79.6937 22.8184 79.7368 22.8488C79.6876 22.8141 79.677 22.7728 79.6665 22.7322ZM83.0001 23.3039C83.0289 23.7048 83.0636 24.2041 83.081 24.5752C83.4127 24.4324 83.7839 24.4114 84.1283 24.5164C84.4726 24.6215 84.7676 24.8455 84.9602 25.1481C85.0854 25.2823 85.1517 25.4601 85.1451 25.6434C85.1386 25.8267 85.0597 26.0004 84.9254 26.1265C84.8591 26.1894 84.7806 26.2385 84.6952 26.2711C84.6441 26.2908 84.5908 26.3039 84.5367 26.311C84.5006 26.3157 84.4639 26.3175 84.4271 26.3162C84.3359 26.3135 84.2461 26.2928 84.163 26.2549C84.1227 26.2364 84.0844 26.2142 84.0485 26.1886C84.0105 26.1615 83.9754 26.1304 83.9436 26.0961C83.4927 25.727 83.205 25.1968 83.1412 24.6176C82.995 24.5289 82.81 24.449 82.6108 24.3631C82.3912 24.2684 82.1538 24.1659 81.9312 24.0352C81.9141 24.0064 81.9004 23.976 81.8898 23.9443C81.8779 23.9084 81.8707 23.8714 81.8676 23.8334C81.8624 23.7621 81.8737 23.6905 81.9006 23.6243C81.9275 23.5579 81.9694 23.4985 82.023 23.4508C82.0766 23.4031 82.1403 23.3682 82.2094 23.3488C82.4689 23.2894 82.7363 23.2745 83.0001 23.3039ZM52.4949 7.69074L52.8783 7.06857C52.9172 6.87277 52.9843 6.68368 53.0776 6.50703C53.162 6.13534 53.6593 6.01468 54.032 6.0968C54.3162 6.17655 54.589 6.29064 54.8445 6.43648L54.8451 6.43555C55.0038 6.33804 55.1886 6.29245 55.374 6.30537C55.5445 6.32703 55.7016 6.40803 55.8172 6.53399C56.0208 6.7068 55.6986 7.02807 55.3538 6.92345L55.3419 6.9625C55.2819 6.94856 55.2228 6.93157 55.1669 6.91178C55.1062 7.60959 54.9918 8.30184 54.8249 8.98277C54.7667 9.05535 54.6868 9.10792 54.5973 9.13315L52.7588 8.41837C52.4911 8.4001 52.3523 7.89109 52.4949 7.69074ZM76.4306 22.2519C76.4708 22.2554 76.5098 22.254 76.5462 22.2438L76.5699 22.2102C76.5852 22.2761 76.615 22.3374 76.6576 22.3901C76.7 22.4425 76.754 22.4849 76.8153 22.5138C76.8317 22.5728 76.856 22.6187 76.8768 22.6582C76.9133 22.7271 76.9392 22.7761 76.8936 22.8397C76.9013 23.0109 76.8486 23.1794 76.745 23.3165C76.4335 23.5982 75.9802 23.1785 75.7564 22.6195L75.7741 22.5561L75.7743 22.555C75.8097 22.4237 75.86 22.2368 76.0039 22.2023C76.0879 22.182 76.1817 22.2031 76.2748 22.224C76.3276 22.2359 76.3802 22.2477 76.4306 22.2519ZM71.9254 18.183C71.6314 17.9757 71.2249 18.1806 71.3635 18.4085C71.4335 18.5645 71.5569 18.6906 71.7118 18.7645C71.8835 18.8347 72.073 18.8491 72.2541 18.8059C72.5121 18.6268 72.2637 18.3414 71.949 18.1495L71.9254 18.183ZM72.6641 20.4689C72.4636 20.3276 72.2912 20.3865 72.2669 20.6603C72.2004 20.7536 72.2407 20.9225 72.3052 20.8176C72.4055 20.8883 72.6848 20.9048 72.7446 20.8067L72.7475 20.802C72.8075 20.7039 72.8945 20.5616 72.6877 20.4355L72.6641 20.4689ZM49.6629 6.45594L49.8768 6.15548L49.9008 6.1222L49.9015 6.12263C50.111 6.25047 50.3203 6.37824 50.3169 6.56606L50.174 6.76615C50.1206 6.79598 50.0604 6.81124 49.9994 6.81008C49.9703 6.8095 49.9415 6.8054 49.9137 6.79778C49.8834 6.78951 49.854 6.77668 49.8267 6.76019C49.7747 6.72878 49.7322 6.6838 49.7033 6.63045C49.6745 6.57696 49.6604 6.51667 49.6629 6.45594ZM74.2431 18.1125C74.2185 18.386 74.1205 18.3267 73.9752 18.0939L74.1047 17.8844C74.1201 17.975 74.1698 18.0566 74.2431 18.1125ZM75.2755 15.2576C75.2647 15.2154 75.254 15.174 75.2006 15.1414C75.2263 15.2338 75.2374 15.2737 75.2609 15.3039C75.2784 15.3265 75.3028 15.3438 75.3458 15.3742C75.2966 15.3395 75.286 15.2982 75.2755 15.2576ZM72.0396 14.7773C72.0798 14.7808 72.1188 14.7794 72.1552 14.7692L72.1789 14.7356C72.1942 14.8015 72.224 14.8628 72.2667 14.9155C72.309 14.9679 72.3631 15.0102 72.4243 15.0392C72.4407 15.0981 72.465 15.1441 72.4859 15.1836C72.5223 15.2525 72.5482 15.3015 72.5026 15.3651C72.5103 15.5363 72.4576 15.7048 72.354 15.8418C72.0425 16.1236 71.5892 15.7038 71.3654 15.1449L71.3831 15.0815L71.3834 15.0804C71.4187 14.949 71.469 14.7622 71.6129 14.7277C71.6969 14.7074 71.7907 14.7285 71.8838 14.7494C71.9366 14.7613 71.9892 14.7731 72.0396 14.7773ZM67.5344 10.7083C67.2405 10.5011 66.8339 10.706 66.9725 10.9339C67.0425 11.0899 67.1659 11.2159 67.3208 11.2899C67.4925 11.3601 67.682 11.3745 67.8631 11.3313C68.1212 11.1522 67.8727 10.8668 67.5581 10.6749L67.5344 10.7083ZM67.8759 13.1857C67.9003 12.9119 68.0726 12.853 68.2731 12.9943L68.2968 12.9609C68.5035 13.0869 68.4165 13.2292 68.3565 13.3274L68.3537 13.3321C68.2938 13.4302 68.0145 13.4137 67.9143 13.343C67.8497 13.4479 67.8094 13.279 67.8759 13.1857ZM69.5843 10.6193C69.7295 10.8521 69.8276 10.9114 69.8521 10.6378C69.7788 10.582 69.7292 10.5004 69.7137 10.4098L69.5843 10.6193ZM64.4398 16.2573L64.4396 16.2551C64.4168 15.8887 64.394 15.5231 64.5301 15.1856C65.0617 15.2065 65.5945 15.1972 66.1252 15.1571C66.2736 15.1668 66.4202 15.1908 66.5626 15.2288C66.7024 15.2662 66.8386 15.3172 66.969 15.3812C67.618 15.8118 68.1332 16.4148 68.457 17.1222C68.5639 17.1886 68.5105 17.2729 68.4516 17.366C68.4453 17.3759 68.4389 17.3859 68.4327 17.3961L68.4321 17.397C68.3675 17.5013 68.303 17.6054 68.203 17.535C68.0223 17.5783 67.8323 17.5637 67.6607 17.4935C66.9349 17.0619 66.2876 16.9565 65.8201 17.9507C65.7603 18.0488 65.6909 18.1605 65.5975 18.0945C65.5043 18.0865 65.4045 18.0913 65.3052 18.0961C65.1115 18.1052 64.9191 18.1142 64.7805 18.0299C64.5707 17.902 64.2756 17.4431 64.3468 17.343C64.4865 16.9984 64.4632 16.6275 64.4398 16.2573ZM46.6677 5.11633C46.6067 5.10212 46.5835 5.06617 46.5599 5.02959C46.5372 4.99435 46.514 4.95854 46.4563 4.94104C46.5069 4.95639 46.5355 4.96514 46.5593 4.98114C46.5911 5.00241 46.6142 5.0367 46.6677 5.11633ZM42.7325 4.3494C42.8658 4.69574 43.0561 5.15829 43.2095 5.52936C43.4697 5.47474 43.7194 5.37709 43.9474 5.23972C44.007 5.19969 44.0567 5.14664 44.0926 5.08468C44.1286 5.02272 44.1497 4.95334 44.1544 4.88198C44.1591 4.81078 44.1473 4.7394 44.12 4.67347C44.1051 4.63835 44.0866 4.60555 44.0639 4.57522C44.0439 4.54851 44.0212 4.52394 43.996 4.50201C43.7431 4.44768 43.4851 4.42468 43.2464 4.40349C43.0299 4.38429 42.8289 4.3664 42.6619 4.32793C42.419 3.79877 41.9785 3.38607 41.4335 3.17703C41.3924 3.15443 41.3493 3.13596 41.3046 3.1221C41.2624 3.10906 41.219 3.09997 41.1748 3.09501C41.0839 3.08509 40.992 3.09346 40.9043 3.11947C40.869 3.12967 40.8346 3.14285 40.8017 3.15866C40.7526 3.18221 40.7059 3.21136 40.6636 3.24596C40.5926 3.30362 40.5334 3.37464 40.4902 3.45505C40.4021 3.61654 40.3817 3.80591 40.4333 3.98162C40.4847 4.15751 40.6037 4.3054 40.765 4.39348C41.0434 4.62021 41.3944 4.74033 41.7549 4.73239C42.1156 4.72429 42.462 4.58845 42.7325 4.3494ZM43.2539 5.63683L43.2861 5.71447C42.6919 5.58536 42.2856 5.73569 42.2339 6.34418C42.2333 6.62355 42.1298 6.89364 41.9433 7.10322C41.7568 7.31296 41.4999 7.44752 41.2212 7.4817C41.1473 7.52747 41.0528 7.5371 40.9581 7.54675L40.9558 7.54698C40.8611 7.55663 40.7666 7.56627 40.6927 7.61204C40.6391 7.64531 40.6054 7.71485 40.5846 7.79016C40.5476 7.92282 40.5496 8.07298 40.5496 8.07298C40.9143 8.45649 41.3989 8.70555 41.9249 8.77993C42.451 8.85414 42.9872 8.74934 43.4477 8.48235C43.535 8.4283 43.5709 8.40609 43.591 8.37408C43.605 8.35176 43.6113 8.32468 43.6221 8.2787C43.5864 7.89553 43.8266 7.66885 44.0661 7.44284C44.3051 7.21779 44.5435 6.9933 44.5066 6.61503C44.3772 6.50636 44.2471 6.39835 44.1124 6.28952C43.8505 6.07779 43.5721 5.86325 43.2539 5.63683ZM50.4157 8.83427L50.4165 8.83632C50.5536 9.17654 50.6904 9.51598 50.6671 9.8785C50.1549 10.0248 49.6512 10.2002 49.159 10.404C49.0149 10.4412 48.868 10.4642 48.7205 10.4728C48.5758 10.4809 48.4302 10.4751 48.286 10.4553C47.5332 10.2498 46.8535 9.83913 46.3229 9.26964C46.2004 9.24011 46.2246 9.14347 46.2514 9.03683C46.2542 9.02546 46.2571 9.01397 46.2599 9.00245L46.2601 9.00141C46.2888 8.88228 46.3173 8.76342 46.4346 8.79896C46.5928 8.70145 46.778 8.65586 46.9634 8.66879C47.7895 8.85123 48.4382 8.74879 48.57 7.66021C48.596 7.54847 48.6268 7.42092 48.7365 7.45426C48.8276 7.4327 48.921 7.39697 49.0139 7.36141C49.1952 7.2923 49.3755 7.22362 49.5338 7.26024C49.7736 7.31588 50.1987 7.6587 50.1624 7.77587C50.138 8.14621 50.2769 8.49057 50.4157 8.83427ZM33.8339 6.43144C33.8578 6.46738 33.8811 6.50233 33.8642 6.55671C33.7636 6.64008 33.6925 6.75344 33.6614 6.88001C33.3904 6.92193 33.1137 6.90238 32.852 6.823C32.5903 6.74362 32.3502 6.60624 32.1496 6.42107C32.0273 6.39184 32.0515 6.29526 32.0783 6.18865L32.0828 6.17068L32.0868 6.1542C32.1152 6.03455 32.1436 5.91491 32.2612 5.95055C32.5248 5.8572 32.8096 5.8405 33.0816 5.90192C33.354 5.96333 33.6025 6.10055 33.7991 6.29775C33.7848 6.35775 33.8097 6.39517 33.8339 6.43144ZM49.6812 4.51754C49.7126 4.49646 49.7492 4.48295 49.7886 4.47374C49.8378 4.46195 49.8915 4.45672 49.9455 4.45147C50.0406 4.44221 50.1365 4.43288 50.21 4.38738C50.336 4.30969 50.325 4.11686 50.3173 3.98127L50.3172 3.98014L50.3141 3.91454C49.9253 3.45455 49.3621 3.19821 49.1545 3.5627C49.0991 3.72503 49.102 3.90123 49.1632 4.06113C49.1399 4.13566 49.1799 4.174 49.2363 4.22798C49.2685 4.25886 49.3061 4.29485 49.3403 4.34567C49.4076 4.35393 49.4723 4.3772 49.5291 4.41364C49.5863 4.45026 49.6339 4.49906 49.6692 4.55676L49.6812 4.51754ZM36.1849 7.29656C36.2819 7.28715 36.3782 7.27782 36.4493 7.23033C36.5063 7.06817 36.5032 6.89149 36.441 6.73192C36.4367 6.72929 36.4324 6.72673 36.4281 6.72425L36.4212 6.72037L36.4148 6.71697C36.4091 6.71395 36.4033 6.71106 36.3975 6.70833C36.3526 6.68689 36.3043 6.67286 36.2547 6.66707C36.1884 6.65913 36.1213 6.66586 36.0576 6.68628C36.0269 6.69615 35.9976 6.70917 35.97 6.72531C35.9402 6.74244 35.9125 6.76286 35.8869 6.78626C35.8822 6.79066 35.8776 6.79516 35.8731 6.79973C35.8689 6.80398 35.8647 6.80832 35.8607 6.81271L35.8519 6.82253L35.8446 6.83118L35.8386 6.83856C35.8347 6.84345 35.8309 6.84843 35.8272 6.85349C35.8057 6.88282 35.7879 6.91462 35.7738 6.94823C35.6515 7.04814 35.7453 7.17373 35.8338 7.29215C35.8425 7.30375 35.8511 7.31529 35.8594 7.32672C35.8672 7.33731 35.8747 7.34782 35.8818 7.35821C35.8914 7.37221 35.9003 7.38602 35.9081 7.39956L35.9205 7.36051C35.9939 7.31507 36.0897 7.30578 36.1849 7.29656ZM54.2493 4.68147C54.3124 4.94867 54.167 5.05838 53.9318 4.98709L53.9199 5.02615C53.6835 4.97124 53.7215 4.80915 53.7477 4.69735L53.7489 4.692C53.775 4.58026 54.0458 4.50867 54.1634 4.54431C54.1918 4.42467 54.2832 4.57221 54.2493 4.68147ZM53.1963 10.8305C53.1352 10.8163 53.112 10.7804 53.0884 10.7438C53.0657 10.7085 53.0426 10.6727 52.9849 10.6552C53.0354 10.6706 53.064 10.6793 53.0878 10.6953C53.1196 10.7166 53.1427 10.7509 53.1963 10.8305ZM56.2097 10.2317C56.2411 10.2106 56.2777 10.1971 56.3171 10.1879C56.3664 10.1761 56.4201 10.1709 56.474 10.1657C56.5692 10.1564 56.665 10.1471 56.7385 10.1016C56.8645 10.0239 56.8535 9.83107 56.8458 9.69548L56.8457 9.69434L56.8426 9.62873C56.4538 9.16873 55.8906 8.91239 55.683 9.27689C55.6276 9.43922 55.6305 9.61541 55.6917 9.77531C55.6684 9.84985 55.7084 9.8882 55.7648 9.94217C55.7971 9.97305 55.8347 10.009 55.8688 10.0599C55.9362 10.0681 56.0009 10.0914 56.0577 10.1278C56.1148 10.1644 56.1624 10.2132 56.1977 10.2709L56.2097 10.2317ZM62.3457 12.2482C62.5493 12.421 62.2272 12.7423 61.8823 12.6376L61.8704 12.6767C61.5107 12.5932 61.1847 12.4002 61.3737 12.1497C61.5323 12.0522 61.7171 12.0066 61.9025 12.0196C62.0731 12.0412 62.2301 12.1222 62.3457 12.2482ZM60.4604 10.7013C60.6955 10.7726 60.8409 10.6629 60.7778 10.3957C60.8117 10.2864 60.7203 10.1389 60.6919 10.2585C60.5743 10.2229 60.3035 10.2944 60.2774 10.4062L60.2762 10.4115C60.25 10.5233 60.2121 10.6854 60.4484 10.7403L60.4604 10.7013ZM59.7003 13.4287C59.6376 13.1617 59.7495 13.1873 59.9609 13.3626L59.9038 13.6017C59.8605 13.5206 59.7876 13.4588 59.7003 13.4287Z" fill="#E0EDFF"/>
<path d="M35.6921 45.914C37.4871 45.914 40.326 42.8138 44.5243 42.8138C48.7225 42.8138 51.3526 45.914 56.319 45.914M55.6205 52.8465L56.9819 39.3347C57.0261 38.9134 56.9891 38.4863 56.8733 38.082C56.7575 37.6778 56.5655 37.3055 56.3102 36.99C56.0548 36.6745 55.7418 36.4229 55.3921 36.252C55.0425 36.0812 54.6639 35.9949 54.2819 35.9989L46.3418 36.0496L37.7172 35.9989C37.3359 35.9951 36.9582 36.0811 36.6091 36.2515C36.26 36.4219 35.9475 36.6727 35.6921 36.9872C35.4369 37.3018 35.2447 37.673 35.1284 38.0762C35.012 38.4795 34.9741 38.9055 35.0173 39.3262L36.4015 52.838C36.4685 53.5342 36.7453 54.1849 37.187 54.6846C37.6288 55.1842 38.2095 55.5037 38.8352 55.591C41.2293 55.8836 43.6368 56.019 46.0453 55.9964C48.4131 56.0162 50.78 55.8809 53.1335 55.591C53.7676 55.5166 54.3598 55.2039 54.8121 54.7048C55.2643 54.2057 55.5495 53.5501 55.6205 52.8465Z" stroke="#003E94" stroke-width="2.31818" stroke-linecap="round" stroke-linejoin="round"/>
</svg>
