<svg width="92" height="92" viewBox="0 0 92 92" fill="none" xmlns="http://www.w3.org/2000/svg">
<path fill-rule="evenodd" clip-rule="evenodd" d="M86.8753 66.0668L86.5207 66.0584C86.3304 66.1226 86.132 66.1594 85.9314 66.1677C85.565 66.2805 85.2118 65.9169 85.0977 65.5588C85.0256 65.2771 84.9892 64.9881 84.9891 64.6981L84.9879 64.698C84.8238 64.6113 84.6919 64.4766 84.6108 64.3123C84.5446 64.1563 84.537 63.9823 84.5893 63.8212C84.6386 63.562 85.0795 63.6767 85.1601 64.0224L85.2001 64.0131C85.2179 64.0712 85.2325 64.1299 85.2431 64.1874C85.8822 63.8923 86.5432 63.6457 87.2205 63.4495C87.3128 63.463 87.3985 63.505 87.4651 63.5686L87.6189 64.5778C92.3231 54.5918 92.1968 42.9922 86.7476 31.5667C86.7431 31.7353 86.7656 31.9325 86.7899 32.1449C86.8167 32.3789 86.8456 32.632 86.8425 32.8865C86.826 32.9154 86.8062 32.9422 86.7839 32.9669C86.7585 32.9949 86.7298 33.0195 86.6981 33.041C86.6386 33.0808 86.5705 33.1068 86.4993 33.1168C86.4279 33.1268 86.3553 33.1207 86.2869 33.0988C86.2186 33.0768 86.1564 33.0399 86.1049 32.9907C85.9238 32.7993 85.7776 32.5789 85.6717 32.3396C86.0071 32.116 86.4255 31.8383 86.7405 31.639C86.4506 31.4275 86.2473 31.1219 86.1672 30.7764C86.1328 30.6277 86.1222 30.4759 86.1347 30.3261C85.5944 29.2698 85.0085 28.2155 84.3763 27.1647C71.4893 5.74259 44.2001 -6.3731 22.0283 5.91193C16.1348 9.17742 11.4803 13.8451 8.06456 19.3411L8.05297 19.4609L8.00565 19.4362C6.96918 21.1138 6.04772 22.868 5.24129 24.6826C5.49335 24.8102 5.59487 25.1046 5.58909 25.5063L5.65927 25.4594C5.49948 25.8121 5.34345 26.1239 5.18691 26.4194C5.10645 26.5713 5.02589 26.7186 4.94454 26.8654C4.72084 26.9344 4.53333 26.8926 4.35971 26.8077C4.00999 27.7134 3.68757 28.6319 3.39246 29.5614C3.39962 29.5907 3.40525 29.6204 3.40928 29.6505C3.39441 30.483 3.62517 31.0866 4.72557 30.9908C4.84102 30.993 4.97303 30.9965 4.96206 31.1089C5.00155 31.1922 5.05547 31.2748 5.10914 31.357C5.21357 31.5174 5.31737 31.6769 5.31288 31.8367C5.30592 32.079 5.05265 32.5583 4.92979 32.5473C4.55951 32.5996 4.2475 32.8037 3.93613 33.0077L3.93431 33.0089C3.62602 33.2104 3.31843 33.4115 2.95609 33.4632C2.81644 33.2012 2.66819 32.9436 2.5115 32.6911C1.10161 38.4101 0.678096 44.4502 1.24078 50.4035C1.3838 50.25 1.54088 50.1143 1.73184 50.0209C2.11481 50.3844 2.51889 50.7263 2.94206 51.0441C3.04638 51.1484 3.13969 51.262 3.2206 51.3834C3.2999 51.5026 3.36736 51.6294 3.42194 51.7621C3.61787 52.5052 3.5984 53.2882 3.36598 54.023C3.4013 54.142 3.30489 54.1694 3.1985 54.1996C3.18715 54.2028 3.1757 54.206 3.16428 54.2094L3.16324 54.2097C3.04503 54.2445 2.92707 54.2792 2.89964 54.1617C2.7357 54.0755 2.60359 53.9404 2.52248 53.7761C2.33504 53.1867 2.0594 52.7585 1.51466 52.7521C2.44664 59.4626 4.64434 65.9929 8.10751 71.7497C8.67178 72.6877 9.26047 73.5901 9.87222 74.4571L10.0723 74.4907L9.96333 74.5857C12.0932 77.581 14.4997 80.1515 17.1262 82.3092C17.1461 82.1952 17.1909 82.0865 17.2577 81.9903C17.292 81.941 17.3314 81.8957 17.3755 81.8553C17.4294 81.806 17.4901 81.7635 17.556 81.7294C17.9098 81.6161 18.4712 81.7038 18.5516 82.0491C18.6891 82.2729 18.793 82.5066 18.9045 82.757C19.0026 82.9776 19.1066 83.2113 19.2444 83.4627C19.2853 83.6433 19.3228 83.8246 19.3567 84.0065C33.0901 93.6672 51.9403 93.0726 68.7938 83.7344C77.1156 79.1235 83.2011 73.0225 86.8753 66.0668ZM88.4354 58.6833C88.5298 58.6676 88.6242 58.6493 88.7185 58.6249C88.7043 58.659 88.6902 58.6935 88.6761 58.728C88.4648 59.2439 88.2402 59.7921 87.5276 59.7776C87.4267 59.775 87.3482 59.7545 87.2823 59.7223C87.1869 59.676 87.1185 59.6054 87.0473 59.5319C86.9854 59.4683 86.9878 59.374 87.0219 59.2812C87.0543 59.1933 87.1149 59.107 87.1768 59.0497C87.2604 58.9781 87.3556 58.9212 87.458 58.8816C87.5258 58.8556 87.5968 58.8372 87.6696 58.8268C87.8618 58.7693 88.051 58.7413 88.2392 58.7135L88.2407 58.7133C88.3055 58.7037 88.3708 58.694 88.4354 58.6833ZM86.8345 35.4626C86.8031 35.4928 86.7723 35.5225 86.7705 35.5841C86.8384 35.5163 86.8676 35.487 86.8822 35.4521C86.8932 35.4259 86.8961 35.3966 86.9012 35.3448C86.8955 35.4039 86.8647 35.4335 86.8345 35.4626ZM85.5043 32.4512L85.5745 32.4043C85.4147 32.7569 85.2587 33.0688 85.1021 33.3643C85.0217 33.5162 84.9411 33.6635 84.8598 33.8103C84.4939 33.9232 84.2249 33.7397 83.9551 33.5556C83.6842 33.3713 83.4124 33.1864 83.0415 33.2991C82.994 33.2982 82.966 33.2976 82.9411 33.2887C82.9055 33.2759 82.8765 33.2459 82.8057 33.1729C82.4502 32.7842 82.2396 32.2895 82.2076 31.7678C82.1759 31.2463 82.3248 30.7288 82.6302 30.2993C82.6302 30.2993 82.778 30.2666 82.9163 30.2752C82.9948 30.2798 83.0701 30.298 83.1137 30.3428C83.1736 30.4046 83.202 30.4936 83.2304 30.5828L83.2311 30.5849C83.2596 30.6741 83.288 30.7631 83.3479 30.8249C83.4373 31.0862 83.6214 31.3059 83.8657 31.4426C84.1097 31.5793 84.3969 31.6236 84.6727 31.5671C85.2834 31.4924 85.5129 31.8527 85.5043 32.4512ZM83.8495 39.9537L83.8514 39.9525C84.1627 39.7486 84.4747 39.5445 84.845 39.4922C84.9679 39.5031 85.2212 39.0238 85.2281 38.7816C85.2326 38.6217 85.129 38.4626 85.0246 38.3022C84.9709 38.2201 84.9168 38.1371 84.8773 38.0538C84.8883 37.9414 84.7563 37.9379 84.6408 37.9356C83.5404 38.0315 83.3096 37.4279 83.3245 36.5954C83.3002 36.4143 83.2182 36.2453 83.0904 36.1129C83.102 35.9928 82.979 35.9896 82.8558 35.9864L82.8547 35.9864L82.8381 35.9859L82.819 35.9852C82.7085 35.9813 82.6083 35.9777 82.6036 36.1017C82.1478 36.7289 81.8785 37.4673 81.8262 38.234C81.8355 38.3769 81.8588 38.5181 81.8959 38.6558C81.9337 38.796 81.9858 38.9327 82.0513 39.0639C82.3509 39.4959 82.6245 39.945 82.8713 40.4081C83.2337 40.3564 83.5412 40.1553 83.8495 39.9537ZM88.0284 38.457C88.0114 38.4209 87.9908 38.3884 87.9637 38.3625L87.9226 38.359C87.9725 38.3132 88.0111 38.2574 88.0358 38.1949C88.0604 38.1328 88.0704 38.0657 88.0651 37.9992C88.1084 37.956 88.1364 37.9124 88.1605 37.875C88.2025 37.8097 88.2323 37.7633 88.3105 37.7705C88.456 37.6789 88.6293 37.6401 88.8005 37.6602C89.2017 37.7855 89.0613 38.3801 88.6852 38.8485L88.6211 38.8649L88.62 38.8652C88.4877 38.9004 88.2997 38.9504 88.1979 38.845C88.1383 38.7836 88.1099 38.6932 88.0817 38.6035C88.0658 38.5526 88.0499 38.502 88.0284 38.457ZM86.7239 44.3153C86.6896 44.6687 87.071 44.9131 87.2008 44.6818C87.3019 44.5447 87.3504 44.377 87.3377 44.2083C87.3134 44.0272 87.2315 43.8586 87.1036 43.7259C86.8187 43.5951 86.6935 43.9485 86.6829 44.3118L86.7239 44.3153ZM82.642 26.1798C82.5809 26.1211 82.5525 26.0303 82.5238 25.9389C82.4957 25.8491 82.4673 25.7588 82.4078 25.6974L82.3668 25.6935C82.3969 25.6673 82.4271 25.634 82.4579 25.6C82.5571 25.4906 82.6623 25.3746 82.7853 25.4719C82.8213 25.4786 82.8562 25.4892 82.8895 25.5039C82.9169 25.516 82.943 25.5307 82.9677 25.5477C82.9959 25.5674 83.0216 25.5899 83.0444 25.6151C83.0659 25.6384 83.0846 25.664 83.1005 25.6915C83.1333 25.7486 83.1534 25.8118 83.1588 25.8773C83.163 25.9262 83.1588 25.9756 83.1467 26.0232C83.1428 26.0388 83.1379 26.0545 83.1321 26.0699C82.9871 26.1624 82.8134 26.2015 82.642 26.1798ZM88.3501 42.5504C88.3268 42.7914 88.4641 42.9089 88.7151 42.7936C88.8297 42.8038 88.957 42.6856 88.8333 42.6827C88.845 42.5623 88.7202 42.3162 88.6047 42.314L88.5992 42.3139C88.4837 42.3116 88.3161 42.3082 88.3092 42.5469L88.3501 42.5504ZM85.5071 42.3766C85.758 42.2616 85.7551 42.3746 85.6245 42.614L85.3771 42.6079C85.4485 42.5496 85.4949 42.4668 85.5071 42.3766ZM82.5016 42.916C82.4702 42.9462 82.4394 42.9758 82.4376 43.0375C82.5055 42.9697 82.5347 42.9404 82.5493 42.9054C82.5603 42.8793 82.5632 42.8499 82.5683 42.7982C82.5626 42.8573 82.5318 42.8869 82.5016 42.916ZM83.6955 45.9104C83.6785 45.8743 83.6579 45.8418 83.6308 45.8159L83.5897 45.8124C83.6396 45.7666 83.6782 45.7108 83.7029 45.6483C83.7275 45.5862 83.7375 45.5191 83.7322 45.4526C83.7755 45.4093 83.8035 45.3658 83.8276 45.3284C83.8695 45.2631 83.8994 45.2167 83.9776 45.2239C84.1231 45.1323 84.2964 45.0935 84.4676 45.1136C84.8688 45.2389 84.7284 45.8335 84.3523 46.3018L84.2882 46.3183L84.2871 46.3186C84.1548 46.3537 83.9668 46.4038 83.8649 46.2983C83.8054 46.2369 83.777 46.1465 83.7488 46.0569C83.7328 46.006 83.717 45.9553 83.6955 45.9104ZM82.391 51.7687C82.3567 52.1221 82.738 52.3664 82.8679 52.1352C82.969 51.9981 83.0175 51.8303 83.0048 51.6617C82.9805 51.4806 82.8986 51.312 82.7707 51.1793C82.4858 51.0485 82.3605 51.4019 82.35 51.7652L82.391 51.7687ZM84.3822 50.2469C84.1312 50.3623 83.9939 50.2448 84.0172 50.0038L83.9763 50.0003C83.9832 49.7616 84.1508 49.7649 84.2663 49.7673L84.2718 49.7674C84.3873 49.7696 84.512 50.0156 84.5004 50.1361C84.6241 50.139 84.4968 50.2572 84.3822 50.2469ZM81.2915 50.0673C81.4222 49.828 81.4251 49.715 81.1742 49.83C81.162 49.9202 81.1156 50.003 81.0442 50.0612L81.2915 50.0673ZM88.7749 51.6469L88.7731 51.6481C88.4648 51.8497 88.1572 52.0507 87.7949 52.1025C87.5481 51.6394 87.2744 51.1903 86.9749 50.7583C86.9094 50.6271 86.8573 50.4904 86.8194 50.3502C86.7824 50.2125 86.7591 50.0712 86.7498 49.9284C86.8021 49.1617 87.0714 48.4233 87.5272 47.7961C87.5319 47.6721 87.6321 47.6757 87.7426 47.6796C87.7544 47.68 87.7663 47.6805 87.7783 47.6807L87.7793 47.6808C87.9026 47.684 88.0256 47.6872 88.0139 47.8073C88.1418 47.9397 88.2238 48.1087 88.2481 48.2898C88.2332 49.1223 88.464 49.7259 89.5644 49.63C89.6798 49.6322 89.8118 49.6358 89.8009 49.7481C89.8404 49.8315 89.8943 49.9141 89.9479 49.9962C90.0524 50.1567 90.1562 50.3161 90.1517 50.476C90.1447 50.7182 89.8914 51.1975 89.7686 51.1866C89.3983 51.2389 89.0863 51.443 88.7749 51.6469ZM78.9299 50.9213C78.8451 50.9651 78.7613 51.0115 78.6794 51.0636C78.6819 51.0268 78.6843 50.9898 78.6867 50.9527C78.7223 50.3986 78.7602 49.8097 79.4423 49.6048C79.5391 49.5762 79.6203 49.5715 79.6932 49.5819C79.7988 49.5965 79.8864 49.6424 79.9777 49.6903C80.0569 49.7316 80.0848 49.8218 80.0821 49.9202C80.0795 50.0136 80.0495 50.114 80.009 50.1874C79.9525 50.2809 79.8802 50.3641 79.7956 50.4331C79.7394 50.4786 79.6778 50.5179 79.6119 50.5501C79.4476 50.6636 79.2767 50.7482 79.1068 50.8323C79.0476 50.8616 78.9885 50.8909 78.9299 50.9213ZM78.3874 43.3388L77.6842 43.5478C77.4434 43.6025 77.2058 44.0696 77.3934 44.2583L78.2872 45.9901C78.3709 46.0301 78.4658 46.0435 78.5579 46.028C79.1744 45.61 79.7552 45.1438 80.2948 44.6337C80.4151 44.6064 80.3778 44.4829 80.3424 44.3666C80.2478 44.016 80.0986 43.6819 79.9003 43.3759C79.6771 43.0713 79.2249 42.8349 78.9127 43.0543C78.7246 43.1238 78.5477 43.2196 78.3874 43.3388ZM83.7545 66.077C83.9562 65.8905 84.1244 65.9598 84.1794 66.1955L84.2194 66.1862C84.2893 66.4148 84.129 66.463 84.0184 66.4963L84.0131 66.4979C83.9026 66.5312 83.7052 66.3362 83.6777 66.2183C83.5591 66.2536 83.6423 66.1024 83.7545 66.077ZM76.7583 40.6991L76.3972 40.7812C76.3546 40.8244 76.3247 40.8782 76.3103 40.9366C76.2962 40.995 76.2978 41.056 76.3155 41.1133C76.3248 41.1433 76.3382 41.1721 76.3553 41.198C76.371 41.2219 76.3897 41.2437 76.4111 41.2632C76.4558 41.304 76.5109 41.3321 76.5708 41.345L76.8117 41.2907C76.9401 41.1541 76.8694 40.9226 76.7987 40.691L76.7583 40.6991ZM87.6199 61.6496C87.5859 61.6334 87.5559 61.6089 87.5282 61.5799C87.4934 61.5439 87.462 61.5007 87.4305 61.4574C87.375 61.381 87.3191 61.304 87.2428 61.264C87.1122 61.1953 86.9494 61.3005 86.835 61.3744L86.834 61.375L86.7784 61.4103C86.5708 61.97 86.6279 62.577 87.0494 62.5726C87.2186 62.5391 87.3709 62.4491 87.4799 62.3176C87.5566 62.3004 87.5701 62.2472 87.5891 62.1724C87.5999 62.1296 87.6126 62.0797 87.6399 62.0254C87.6135 61.9639 87.6016 61.8972 87.6051 61.8307C87.6086 61.7639 87.6274 61.6991 87.6602 61.6404L87.6199 61.6496ZM86.3208 55.4223C86.3701 55.1631 86.811 55.2777 86.8916 55.6234L86.9316 55.6142C87.038 55.9619 87.0322 56.3355 86.7194 56.299C86.5553 56.2124 86.4234 56.0776 86.3423 55.9133C86.2761 55.7573 86.2685 55.5833 86.3208 55.4223ZM85.9109 57.7965C85.8559 57.5608 85.6877 57.4915 85.486 57.678C85.3737 57.7034 85.2906 57.8546 85.4091 57.8193C85.4367 57.9372 85.6341 58.1322 85.7446 58.0989L85.7499 58.0973C85.8605 58.064 86.0208 58.0158 85.9509 57.7873L85.9109 57.7965ZM88.6695 57.0885C88.4677 57.2746 88.4343 57.1666 88.4818 56.8995L88.719 56.8293C88.6698 56.9064 88.6521 56.9992 88.6695 57.0885ZM80.8626 57.6971L80.8613 57.6988C80.6306 57.9878 80.3994 58.2772 80.0641 58.4404C79.9438 58.4677 79.8565 59.0001 79.9275 59.2319C79.9745 59.3849 80.1239 59.504 80.2746 59.6241C80.3519 59.6855 80.43 59.7476 80.4943 59.8145C80.5198 59.9245 80.6465 59.8873 80.7569 59.854C81.7724 59.4253 82.1851 59.9268 82.4377 60.721C82.5188 60.8852 82.6509 61.0203 82.8149 61.1066C82.8423 61.2241 82.9602 61.1894 83.0785 61.1546L83.0795 61.1543C83.0909 61.1509 83.1024 61.1477 83.1137 61.1445C83.2201 61.1143 83.3165 61.0869 83.2812 60.9679C83.5136 60.2331 83.5331 59.4501 83.3372 58.707C83.2826 58.5743 83.2151 58.4475 83.1358 58.3282C83.0549 58.2069 82.9616 58.0933 82.8573 57.989C82.4341 57.6712 82.03 57.3293 81.6471 56.9658C81.3192 57.1262 81.0912 57.4113 80.8626 57.6971ZM8.80331 51.68C8.70897 51.7044 8.61458 51.7227 8.52013 51.7384C8.45482 51.7493 8.38945 51.7589 8.32397 51.7686C8.1358 51.7964 7.94657 51.8244 7.75441 51.8819C7.6816 51.8923 7.61061 51.9107 7.54273 51.9367C7.44035 51.9763 7.34512 52.0332 7.26159 52.1048C7.19969 52.1621 7.13903 52.2484 7.10673 52.3364C7.07253 52.4291 7.07019 52.5234 7.13204 52.587C7.20326 52.6605 7.27164 52.7311 7.36707 52.7774C7.43294 52.8096 7.51147 52.8301 7.61242 52.8327C8.32498 52.8472 8.54955 52.299 8.76084 51.7832C8.77501 51.7486 8.78912 51.7141 8.80331 51.68ZM6.91929 28.5177C6.88792 28.5479 6.85709 28.5776 6.85527 28.6392C6.92314 28.5714 6.95235 28.5422 6.96698 28.5072C6.97802 28.4811 6.98092 28.4517 6.98596 28.3999C6.98024 28.459 6.94952 28.4886 6.91929 28.5177ZM5.75645 25.3947C6.09188 25.1711 6.51024 24.8934 6.82531 24.6942C6.53537 24.4826 6.33209 24.177 6.25201 23.8315C6.1721 23.486 6.22045 23.1235 6.38851 22.8092C6.44317 22.6359 6.5653 22.4911 6.72855 22.4056C6.89162 22.3201 7.08253 22.3009 7.25948 22.3527C7.34747 22.3779 7.42936 22.4203 7.50045 22.4769C7.54305 22.5106 7.58114 22.5495 7.6142 22.592C7.63636 22.6204 7.65623 22.6508 7.67337 22.6827C7.71655 22.7618 7.74319 22.8486 7.75157 22.9381C7.75552 22.9817 7.75523 23.0253 7.7508 23.0686C7.74605 23.1144 7.73645 23.1598 7.72236 23.2039C7.62506 23.7713 7.30591 24.2798 6.83236 24.6218C6.82779 24.7905 6.85035 24.9877 6.87468 25.2C6.90148 25.4341 6.93035 25.6871 6.92731 25.9417C6.91072 25.9705 6.89102 25.9973 6.86866 26.022C6.84326 26.0501 6.81459 26.0746 6.78292 26.0961C6.72333 26.1359 6.65527 26.1619 6.58408 26.1719C6.51272 26.182 6.44004 26.1758 6.37172 26.1539C6.3034 26.1319 6.24113 26.095 6.18972 26.0458C6.00859 25.8544 5.86234 25.634 5.75645 25.3947ZM7.33934 59.1308L6.60542 59.1135C6.41519 59.1777 6.21674 59.2145 6.01613 59.2228C5.64974 59.3356 5.29657 58.972 5.18249 58.6139C5.11041 58.3322 5.07396 58.0432 5.07387 57.7532L5.07272 57.7531C4.90857 57.6665 4.77666 57.5317 4.69555 57.3674C4.62941 57.2114 4.62181 57.0374 4.67407 56.8764C4.72339 56.6171 5.16427 56.7318 5.24486 57.0775L5.28489 57.0682C5.30264 57.1263 5.31726 57.185 5.32786 57.2425C5.96696 56.9474 6.62793 56.7008 7.30524 56.5046C7.39759 56.5182 7.48328 56.5601 7.54991 56.6238L7.84268 58.5446C7.96015 58.7816 7.58524 59.1527 7.33934 59.1308ZM8.11317 31.5121C8.09619 31.476 8.07555 31.4435 8.04848 31.4177L8.00738 31.4141C8.05726 31.3683 8.09589 31.3125 8.12059 31.25C8.1452 31.1879 8.15522 31.1209 8.14991 31.0543C8.19322 31.0111 8.22121 30.9675 8.24523 30.9302C8.28723 30.8648 8.31705 30.8184 8.39526 30.8257C8.54079 30.734 8.71406 30.6952 8.8853 30.7154C9.28643 30.8406 9.14609 31.4352 8.76995 31.9036L8.70586 31.92L8.70477 31.9203C8.57252 31.9555 8.38448 32.0055 8.28262 31.9001C8.22303 31.8387 8.19466 31.7483 8.16651 31.6586C8.15054 31.6077 8.13464 31.5571 8.11317 31.5121ZM6.80864 37.3704C6.77434 37.7238 7.15572 37.9682 7.28554 37.7369C7.38671 37.5998 7.43522 37.4321 7.42248 37.2634C7.39819 37.0824 7.31627 36.9138 7.18834 36.781C6.90344 36.6503 6.77824 37.0036 6.76771 37.3669L6.80864 37.3704ZM8.43491 35.6055C8.41158 35.8465 8.54889 35.964 8.79992 35.8487C8.9145 35.8589 9.0418 35.7407 8.91807 35.7379C8.92974 35.6174 8.80496 35.3713 8.6895 35.3691L8.68397 35.369C8.56844 35.3667 8.40092 35.3633 8.39398 35.602L8.43491 35.6055ZM7.6736 62.1561L7.30484 62.1233L7.26384 62.1194C7.27097 61.8775 7.27812 61.6349 7.44372 61.5445L7.68951 61.5668C7.74217 61.5974 7.78548 61.6411 7.81485 61.6936C7.82887 61.7187 7.83963 61.7452 7.84685 61.7727C7.85475 61.8026 7.8582 61.834 7.85743 61.8655C7.85592 61.9253 7.83787 61.9839 7.80572 62.035C7.7734 62.0861 7.72783 62.1281 7.6736 62.1561ZM5.59186 35.4317C5.8428 35.3167 5.83992 35.4297 5.70924 35.6691L5.46187 35.663C5.53325 35.6048 5.57969 35.5219 5.59186 35.4317ZM2.58638 35.9711C2.55501 36.0013 2.52417 36.031 2.52236 36.0926C2.59023 36.0248 2.61944 35.9955 2.63407 35.9606C2.64511 35.9344 2.64801 35.9051 2.65305 35.8533C2.64733 35.9124 2.61661 35.942 2.58638 35.9711ZM3.78026 38.9655C3.76329 38.9294 3.74264 38.8969 3.71556 38.871L3.67446 38.8675C3.72434 38.8217 3.76297 38.7659 3.78768 38.7034C3.81229 38.6413 3.8223 38.5742 3.81699 38.5077C3.8603 38.4644 3.8883 38.4209 3.91232 38.3835C3.95432 38.3182 3.98414 38.2718 4.06235 38.279C4.20788 38.1874 4.38115 38.1486 4.55239 38.1687C4.95352 38.294 4.81318 38.8886 4.43704 39.357L4.37294 39.3734L4.37185 39.3737C4.23961 39.4089 4.05156 39.4589 3.94971 39.3535C3.89012 39.292 3.86174 39.2016 3.83359 39.112C3.81763 39.0611 3.80173 39.0105 3.78026 38.9655ZM2.47572 44.8238C2.44142 45.1772 2.82281 45.4216 2.95263 45.1903C3.0538 45.0532 3.10231 44.8854 3.08958 44.7168C3.06528 44.5357 2.98336 44.3671 2.85543 44.2344C2.57053 44.1036 2.44533 44.457 2.4348 44.8203L2.47572 44.8238ZM4.46701 43.302C4.21598 43.4174 4.07867 43.2999 4.102 43.0589L4.06107 43.0554C4.06801 42.8167 4.23553 42.82 4.35106 42.8224L4.35659 42.8225C4.47205 42.8247 4.59682 43.0707 4.58515 43.1912C4.70888 43.1941 4.58159 43.3123 4.46701 43.302ZM1.37632 43.1224C1.50701 42.8831 1.50989 42.7701 1.25895 42.8851C1.24678 42.9753 1.20034 43.0581 1.12896 43.1163L1.37632 43.1224ZM8.85972 44.702L8.85789 44.7032C8.5496 44.9048 8.24201 45.1059 7.87967 45.1576C7.6329 44.6945 7.35921 44.2454 7.05969 43.8134C6.99417 43.6822 6.94208 43.5455 6.90421 43.4053C6.8672 43.2676 6.84385 43.1263 6.83459 42.9835C6.88686 42.2168 7.15616 41.4784 7.61199 40.8512C7.61663 40.7272 7.71683 40.7308 7.8274 40.7347C7.83919 40.7352 7.8511 40.7356 7.86302 40.7359L7.86409 40.7359C7.98737 40.7391 8.11035 40.7423 8.09872 40.8624C8.22656 40.9948 8.30857 41.1638 8.33286 41.3449C8.31799 42.1774 8.54874 42.781 9.64915 42.6851C9.7646 42.6874 9.89661 42.6909 9.88564 42.8033C9.92513 42.8866 9.97906 42.9692 10.0327 43.0513C10.1371 43.2118 10.2409 43.3712 10.2365 43.5311C10.2295 43.7734 9.97622 44.2526 9.85337 44.2417C9.48309 44.294 9.17108 44.4981 8.85972 44.702ZM7.99774 65.3725C8.01577 65.4315 7.99596 65.4691 7.97581 65.5074C7.9564 65.5443 7.93668 65.5817 7.95018 65.6396C7.93838 65.5889 7.93173 65.5602 7.93386 65.532C7.93656 65.4943 7.95494 65.4576 7.99774 65.3725ZM9.29013 69.1048C9.52584 68.8191 9.8346 68.4273 10.0819 68.1122C9.90453 67.9178 9.69488 67.7537 9.46134 67.6278C9.39672 67.5969 9.32568 67.581 9.2537 67.5811C9.18171 67.5813 9.11066 67.5978 9.04603 67.6292C8.98158 67.6606 8.92517 67.7061 8.88128 67.7622C8.85806 67.7923 8.83867 67.8244 8.8235 67.8587C8.81015 67.889 8.80002 67.9205 8.79349 67.953C8.87214 68.1953 8.98067 68.4264 9.08114 68.6402C9.1723 68.8341 9.2569 69.0142 9.30659 69.1756C8.96596 69.6453 8.82544 70.2255 8.91472 70.7935C8.91547 70.8397 8.92087 70.8857 8.93105 70.9306C8.9407 70.973 8.95439 71.0144 8.9721 71.0546C9.00876 71.1369 9.06188 71.2111 9.12825 71.2728C9.15479 71.2978 9.18343 71.3205 9.21359 71.3406C9.25864 71.3708 9.30732 71.396 9.35862 71.4149C9.44432 71.4467 9.53578 71.4618 9.6275 71.4587C9.81231 71.4535 9.98766 71.3767 10.1153 71.2455C10.2431 71.1143 10.3128 70.9395 10.3093 70.7584C10.3683 70.4086 10.2982 70.05 10.1115 69.7469C9.92472 69.4439 9.63354 69.2164 9.29013 69.1048ZM10.1535 68.021L10.2052 67.9551C10.3887 68.5252 10.7224 68.7965 11.2791 68.5382C11.5231 68.3999 11.8104 68.3538 12.0862 68.4085C12.3622 68.4632 12.6076 68.615 12.7764 68.8354C12.8531 68.8755 12.9086 68.9513 12.9643 69.0271L12.9656 69.0289C13.0212 69.1048 13.0767 69.1805 13.1535 69.2207C13.2093 69.2498 13.2867 69.2439 13.3628 69.2242C13.497 69.1899 13.627 69.1135 13.627 69.1135C13.7798 68.6124 13.7556 68.0759 13.5583 67.591C13.3608 67.1061 13.0021 66.7016 12.5396 66.4421C12.4489 66.3946 12.4117 66.375 12.3737 66.3738C12.3473 66.373 12.3205 66.3811 12.275 66.3948C11.9585 66.6155 11.641 66.5236 11.3244 66.432C11.0089 66.3402 10.6942 66.2488 10.3826 66.4682C10.3523 66.6324 10.3229 66.7968 10.295 66.9656C10.2409 67.2939 10.1924 67.6375 10.1535 68.021ZM9.37347 60.3333L9.37484 60.3316C9.60336 60.0458 9.83135 59.7607 10.1592 59.6003C10.5422 59.9638 10.9463 60.3057 11.3695 60.6235C11.4738 60.7278 11.5671 60.8414 11.648 60.9628C11.7273 61.082 11.7948 61.2088 11.8493 61.3415C12.0453 62.0846 12.0258 62.8676 11.7934 63.6024C11.8287 63.7214 11.7323 63.7488 11.6259 63.779C11.6146 63.7822 11.6031 63.7854 11.5917 63.7888L11.5906 63.7891C11.4724 63.8239 11.3545 63.8587 11.327 63.7411C11.1631 63.6549 11.031 63.5198 10.9499 63.3555C10.6973 62.5614 10.2846 62.0598 9.2691 62.4885C9.15862 62.5218 9.032 62.559 9.00643 62.4491C8.94218 62.3821 8.86445 62.3203 8.78712 62.2589C8.63643 62.1388 8.48668 62.0195 8.43972 61.8664C8.36873 61.6346 8.45597 61.1023 8.57627 61.0749C8.91156 60.9117 9.14278 60.6223 9.37347 60.3333ZM15.5422 75.6483C15.5617 75.61 15.5806 75.5729 15.6364 75.5602C15.7593 75.6044 15.8936 75.6087 16.0196 75.5722C16.1913 75.7822 16.3121 76.0276 16.3733 76.2899C16.4345 76.5522 16.4343 76.8249 16.3727 77.0878C16.4082 77.2064 16.3118 77.2338 16.2055 77.264L16.1876 77.2691L16.1712 77.2738C16.0526 77.3091 15.9341 77.3444 15.9066 77.2265C15.6937 77.0484 15.5372 76.8142 15.4552 76.552C15.373 76.2895 15.3689 76.0097 15.4429 75.7443C15.5024 75.7267 15.5227 75.6869 15.5422 75.6483ZM5.97324 63.1037C5.93921 63.0875 5.90916 63.063 5.88148 63.034C5.84664 62.9979 5.81532 62.9548 5.78384 62.9115C5.72835 62.8351 5.67241 62.758 5.59608 62.7181C5.46549 62.6494 5.30273 62.7545 5.18828 62.8285L5.18733 62.8291L5.13165 62.8644C4.92411 63.4241 4.98118 64.031 5.40267 64.0267C5.57192 63.9932 5.72421 63.9032 5.83322 63.7717C5.90988 63.7545 5.92336 63.7013 5.94236 63.6265C5.95322 63.5837 5.96589 63.5338 5.99321 63.4795C5.96685 63.418 5.95488 63.3513 5.95837 63.2848C5.96184 63.218 5.98069 63.1532 6.01345 63.0945L5.97324 63.1037ZM15.1252 73.2163C15.0686 73.1383 15.0125 73.061 14.9356 73.0241C14.7657 73.0561 14.6131 73.1465 14.5049 73.2787C14.5047 73.2837 14.5046 73.2886 14.5046 73.2936L14.5047 73.3014L14.5049 73.3084C14.5051 73.3148 14.5055 73.3212 14.506 73.3275C14.5097 73.3764 14.5215 73.4245 14.5412 73.4696C14.5673 73.53 14.6066 73.5838 14.6562 73.628C14.6801 73.6491 14.706 73.6677 14.7339 73.6832C14.7637 73.7 14.7953 73.7135 14.8285 73.7236C14.8347 73.7254 14.8409 73.7271 14.8471 73.7287C14.8529 73.7302 14.8588 73.7315 14.8646 73.7328L14.8776 73.7354L14.8888 73.7374L14.8982 73.7388C14.9044 73.7397 14.9106 73.7404 14.9169 73.7411C14.9532 73.7448 14.9898 73.7441 15.0262 73.7395C15.1743 73.7939 15.2371 73.6516 15.2963 73.5175C15.3021 73.5043 15.3079 73.4913 15.3137 73.4785C15.3191 73.4666 15.3245 73.455 15.3301 73.4438C15.3375 73.4286 15.3451 73.4142 15.353 73.4008L15.3128 73.4097C15.2366 73.3698 15.1807 73.2927 15.1252 73.2163ZM3.83927 59.1321C4.04098 58.9456 4.20917 59.0149 4.26418 59.2506L4.30422 59.2414C4.3741 59.4699 4.21377 59.5181 4.10318 59.5514L4.09788 59.553C3.98741 59.5863 3.78996 59.3913 3.76245 59.2734C3.6439 59.3087 3.72705 59.1575 3.83927 59.1321ZM9.72921 56.9735C9.74724 57.0325 9.72744 57.0701 9.70729 57.1084C9.68787 57.1453 9.66815 57.1828 9.68165 57.2406C9.66985 57.1899 9.66321 57.1612 9.66533 57.133C9.66804 57.0954 9.68641 57.0586 9.72921 56.9735ZM7.70471 54.7048C7.67068 54.6885 7.64064 54.664 7.61295 54.635C7.57812 54.599 7.54678 54.5558 7.51531 54.5125C7.45982 54.4361 7.40388 54.3591 7.32754 54.3191C7.19695 54.2504 7.03422 54.3556 6.91977 54.4295L6.91881 54.4301L6.86313 54.4654C6.65558 55.0251 6.71265 55.6321 7.13414 55.6277C7.30339 55.5943 7.45568 55.5042 7.56469 55.3727C7.64135 55.3555 7.65484 55.3023 7.67383 55.2275C7.6847 55.1847 7.69736 55.1348 7.72468 55.0805C7.69832 55.019 7.68636 54.9523 7.68985 54.8859C7.69332 54.819 7.71216 54.7542 7.74492 54.6955L7.70471 54.7048ZM6.40555 48.4774C6.45487 48.2182 6.89573 48.3329 6.97633 48.6785L7.01636 48.6693C7.12275 49.0171 7.11692 49.3906 6.80418 49.3541C6.64003 49.2675 6.50814 49.1327 6.42702 48.9684C6.36089 48.8124 6.35328 48.6384 6.40555 48.4774ZM5.99565 50.8516C5.94064 50.6159 5.77246 50.5466 5.57075 50.7331C5.45853 50.7585 5.37537 50.9097 5.49392 50.8744C5.52143 50.9923 5.71888 51.1873 5.82936 51.154L5.83466 51.1524C5.94524 51.1191 6.10558 51.0709 6.0357 50.8424L5.99565 50.8516ZM8.75423 50.1436C8.5525 50.3297 8.51904 50.2217 8.5666 49.9546L8.80373 49.8844C8.75452 49.9616 8.73689 50.0543 8.75423 50.1436Z" fill="#E0EDFF"/>
<path d="M45.8375 39.8823V54.1718M42.1429 45.8977C43.221 46.6628 44.5035 47.1119 45.8377 47.1917M49.5322 48.8934C48.4521 49.6546 47.1708 50.1033 45.8375 50.1875M49.5322 42.1333C48.4524 42.894 47.1705 43.3402 45.8375 43.4194M43.1874 57.9988C43.993 57.5635 44.6637 56.9273 45.1296 56.1564C45.5955 55.3854 45.8397 54.5079 45.8369 53.6147V52.3049M44.104 34.7686C44.3514 34.5248 44.6465 34.3312 44.972 34.199C45.2976 34.0669 45.647 33.9988 46 33.9988C46.3531 33.9988 46.7025 34.0669 47.028 34.199C47.3536 34.3312 47.6487 34.5248 47.896 34.7686C51.2829 38.1723 58 40.7997 58 46.5877C58 52.0149 52.6279 54.1716 46 54.1716C39.3721 54.1716 34 52.0149 34 46.5877C34 40.7997 40.7171 38.1723 44.104 34.7686Z" stroke="#003E94" stroke-width="2.31818" stroke-linecap="round" stroke-linejoin="round"/>
</svg>
