<svg width="92" height="92" viewBox="0 0 92 92" fill="none" xmlns="http://www.w3.org/2000/svg">
<path fill-rule="evenodd" clip-rule="evenodd" d="M5.12469 25.9308L5.47935 25.9391C5.66958 25.875 5.86803 25.8382 6.06865 25.8298C6.43504 25.7171 6.7882 26.0806 6.90228 26.4388C6.97437 26.7204 7.01081 27.0094 7.0109 27.2994L7.01206 27.2996C7.17621 27.3862 7.30811 27.521 7.38922 27.6852C7.45535 27.8413 7.46297 28.0152 7.4107 28.1763C7.36139 28.4355 6.92051 28.3208 6.83992 27.9752L6.79989 27.9844C6.78214 27.9264 6.76752 27.8676 6.75692 27.8102C6.11782 28.1052 5.45684 28.3518 4.77954 28.548C4.68718 28.5345 4.60149 28.4926 4.53486 28.4289L4.38106 27.4198C-0.32311 37.4057 -0.196841 49.0054 5.25236 60.4309C5.25693 60.2622 5.23443 60.065 5.21009 59.8527C5.18329 59.6186 5.15442 59.3655 5.15746 59.111C5.17405 59.0822 5.19375 59.0553 5.21612 59.0306C5.24152 59.0026 5.27018 58.9781 5.30185 58.9566C5.36144 58.9167 5.4295 58.8908 5.50069 58.8807C5.57205 58.8707 5.64473 58.8768 5.71305 58.8988C5.78137 58.9207 5.84364 58.9577 5.89505 59.0069C6.07618 59.1983 6.22243 59.4187 6.32832 59.6579C5.99289 59.8816 5.57452 60.1593 5.25946 60.3585C5.5494 60.57 5.75268 60.8757 5.83277 61.2212C5.86715 61.3698 5.87779 61.5217 5.86535 61.6714C6.40556 62.7278 6.99154 63.782 7.62369 64.8329C20.5107 86.255 47.7999 98.3707 69.9717 86.0856C75.8652 82.8201 80.5197 78.1525 83.9354 72.6564L83.947 72.5367L83.9944 72.5614C85.0308 70.8838 85.9523 69.1295 86.7587 67.315C86.5066 67.1874 86.4051 66.893 86.4109 66.4913L86.3407 66.5381C86.5005 66.1855 86.6565 65.8737 86.8131 65.5782C86.8935 65.4263 86.9741 65.2789 87.0555 65.1322C87.2792 65.0631 87.4667 65.1049 87.6403 65.1899C87.99 64.2842 88.3124 63.3657 88.6075 62.4362C88.6004 62.4069 88.5948 62.3772 88.5907 62.3471C88.6056 61.5145 88.3748 60.911 87.2744 61.0068C87.159 61.0046 87.027 61.0011 87.0379 60.8887C86.9984 60.8053 86.9445 60.7227 86.8909 60.6406C86.7864 60.4802 86.6826 60.3207 86.6871 60.1608C86.6941 59.9186 86.9474 59.4393 87.0702 59.4502C87.4405 59.398 87.7525 59.1938 88.0639 58.9899L88.0657 58.9887C88.374 58.7872 88.6816 58.5861 89.0439 58.5343C89.1836 58.7964 89.3318 59.054 89.4885 59.3065C90.8984 53.5874 91.3219 47.5473 90.7592 41.594C90.6162 41.7476 90.4591 41.8833 90.2682 41.9766C89.8852 41.6132 89.4811 41.2713 89.0579 40.9535C88.9536 40.8492 88.8603 40.7355 88.7794 40.6142C88.7001 40.495 88.6326 40.3682 88.5781 40.2355C88.3821 39.4923 88.4016 38.7094 88.634 37.9746C88.5987 37.8555 88.6951 37.8282 88.8015 37.798C88.8128 37.7948 88.8243 37.7915 88.8357 37.7881L88.8368 37.7878C88.955 37.753 89.0729 37.7183 89.1004 37.8358C89.2643 37.9221 89.3964 38.0572 89.4775 38.2215C89.665 38.8108 89.9406 39.239 90.4853 39.2455C89.5534 32.5349 87.3557 26.0047 83.8925 20.2479C83.3282 19.3099 82.7395 18.4075 82.1278 17.5405L81.9277 17.5069L82.0367 17.4118C79.9069 14.4166 77.5003 11.8461 74.8739 9.68834C74.854 9.8024 74.8091 9.91105 74.7423 10.0072C74.7081 10.0566 74.6686 10.1018 74.6245 10.1422C74.5706 10.1916 74.5099 10.2341 74.444 10.2681C74.0902 10.3814 73.5288 10.2937 73.4484 9.94846C73.311 9.72466 73.207 9.49099 73.0955 9.24053C72.9974 9.01993 72.8934 8.78627 72.7556 8.53489C72.7147 8.35426 72.6772 8.17294 72.6433 7.99104C58.9099 -1.66968 40.0597 -1.07509 23.2062 8.26314C14.8844 12.8741 8.79893 18.9751 5.12469 25.9308ZM3.56464 33.3143C3.4702 33.33 3.3758 33.3483 3.28146 33.3727C3.29565 33.3385 3.30976 33.3041 3.32393 33.2695C3.53523 32.7537 3.75979 32.2054 4.47236 32.22C4.5733 32.2226 4.65183 32.243 4.71771 32.2753C4.81313 32.3216 4.88152 32.3921 4.95273 32.4657C5.01459 32.5292 5.01225 32.6235 4.97805 32.7163C4.94574 32.8043 4.88508 32.8905 4.82318 32.9478C4.73965 33.0195 4.64442 33.0764 4.54204 33.116C4.47416 33.142 4.40318 33.1604 4.33037 33.1708C4.1382 33.2282 3.94897 33.2562 3.76081 33.284L3.75927 33.2843C3.69452 33.2939 3.62922 33.3035 3.56464 33.3143ZM5.16548 56.535C5.19685 56.5048 5.22768 56.4751 5.2295 56.4134C5.16163 56.4812 5.13242 56.5105 5.11779 56.5455C5.10675 56.5716 5.10385 56.601 5.09881 56.6528C5.10453 56.5936 5.13525 56.5641 5.16548 56.535ZM6.49568 59.5464L6.4255 59.5933C6.58529 59.2406 6.74132 58.9288 6.89786 58.6333C6.97832 58.4814 7.05887 58.334 7.14023 58.1873C7.50608 58.0744 7.77511 58.2579 8.04494 58.4419C8.31582 58.6262 8.58759 58.8111 8.95853 58.6985C9.00604 58.6994 9.03403 58.6999 9.05885 58.7089C9.09445 58.7217 9.12354 58.7517 9.19432 58.8247C9.5498 59.2133 9.76039 59.7081 9.79234 60.2297C9.82412 60.7513 9.67525 61.2687 9.36976 61.6982C9.36976 61.6982 9.22202 61.7309 9.08371 61.7224C9.00524 61.7177 8.92991 61.6996 8.88635 61.6547C8.82642 61.593 8.79802 61.504 8.76957 61.4148L8.76888 61.4126C8.74043 61.3234 8.71203 61.2344 8.65211 61.1726C8.56267 60.9113 8.37857 60.6916 8.13432 60.5549C7.89025 60.4182 7.60308 60.3739 7.32731 60.4305C6.7166 60.5051 6.48707 60.1448 6.49568 59.5464ZM8.15048 52.0438L8.14864 52.045C7.83727 52.2489 7.52526 52.4531 7.15498 52.5053C7.03212 52.4944 6.77885 52.9737 6.77189 53.2159C6.7674 53.3758 6.87096 53.5349 6.97539 53.6953C7.02905 53.7775 7.08322 53.8604 7.12271 53.9438C7.11174 54.0562 7.24375 54.0597 7.3592 54.0619C8.4596 53.9661 8.69036 54.5696 8.67549 55.4022C8.69978 55.5833 8.78179 55.7523 8.90963 55.8846C8.898 56.0047 9.02097 56.008 9.14424 56.0112L9.14533 56.0112L9.16193 56.0117L9.18095 56.0123C9.29151 56.0163 9.39171 56.0199 9.39636 55.8959C9.85219 55.2686 10.1215 54.5303 10.1738 53.7636C10.1645 53.6207 10.1412 53.4794 10.1041 53.3417C10.0663 53.2016 10.0142 53.0648 9.94866 52.9337C9.64915 52.5016 9.37545 52.0525 9.12868 51.5894C8.76634 51.6412 8.45876 51.8423 8.15048 52.0438ZM3.97161 53.5406C3.98858 53.5766 4.00922 53.6091 4.03629 53.635L4.0774 53.6386C4.02752 53.6843 3.98888 53.7401 3.96418 53.8026C3.93957 53.8647 3.92956 53.9318 3.93486 53.9983C3.89156 54.0416 3.86356 54.0851 3.83954 54.1225C3.79755 54.1878 3.76772 54.2342 3.68951 54.227C3.54398 54.3186 3.37071 54.3575 3.19947 54.3373C2.79834 54.212 2.93868 53.6175 3.31482 53.1491L3.37892 53.1326L3.38001 53.1324C3.51225 53.0972 3.7003 53.0472 3.80215 53.1526C3.86174 53.214 3.89012 53.3044 3.91827 53.3941C3.93423 53.4449 3.95013 53.4956 3.97161 53.5406ZM5.27613 47.6822C5.31043 47.3289 4.92905 47.0845 4.79923 47.3158C4.69806 47.4528 4.64955 47.6206 4.66229 47.7892C4.68658 47.9703 4.7685 48.1389 4.89643 48.2717C5.18133 48.4024 5.30653 48.049 5.31706 47.6857L5.27613 47.6822ZM9.35803 65.8177C9.41908 65.8764 9.44754 65.9672 9.47621 66.0587C9.50434 66.1484 9.53267 66.2388 9.59217 66.3002L9.63318 66.3041C9.60315 66.3302 9.57289 66.3636 9.54206 66.3976C9.44289 66.507 9.33773 66.6229 9.21472 66.5257C9.17872 66.5189 9.14378 66.5083 9.11055 66.4936C9.08312 66.4816 9.057 66.4669 9.03228 66.4499C9.0041 66.4301 8.9784 66.4076 8.95555 66.3824C8.9341 66.3592 8.9154 66.3336 8.89953 66.3061C8.86665 66.2489 8.84659 66.1857 8.84117 66.1203C8.83697 66.0714 8.84115 66.022 8.85332 65.9743C8.85722 65.9588 8.86212 65.9431 8.86791 65.9276C9.01291 65.8351 9.18663 65.7961 9.35803 65.8177ZM3.64987 49.4471C3.6732 49.2062 3.53588 49.0887 3.28485 49.204C3.17027 49.1937 3.04297 49.3119 3.1667 49.3148C3.15504 49.4353 3.27981 49.6813 3.39527 49.6836L3.4008 49.6837C3.51633 49.686 3.68385 49.6894 3.69079 49.4506L3.64987 49.4471ZM6.49291 49.6209C6.24197 49.7359 6.24485 49.6229 6.37554 49.3836L6.6229 49.3897C6.55152 49.4479 6.50508 49.5307 6.49291 49.6209ZM9.49839 49.0816C9.52976 49.0514 9.56059 49.0217 9.56241 48.96C9.49454 49.0278 9.46533 49.0571 9.4507 49.0921C9.43966 49.1182 9.43676 49.1476 9.43172 49.1994C9.43745 49.1403 9.46817 49.1107 9.49839 49.0816ZM8.30452 46.0872C8.32149 46.1232 8.34213 46.1557 8.36921 46.1816L8.41031 46.1852C8.36043 46.2309 8.32179 46.2868 8.29709 46.3492C8.27248 46.4114 8.26247 46.4784 8.26778 46.545C8.22447 46.5882 8.19647 46.6318 8.17245 46.6691C8.13046 46.7344 8.10063 46.7808 8.02243 46.7736C7.87689 46.8653 7.70363 46.9041 7.53239 46.8839C7.13125 46.7587 7.27159 46.1641 7.64773 45.6957L7.71183 45.6793L7.71292 45.679C7.84516 45.6438 8.03321 45.5938 8.13506 45.6992C8.19465 45.7606 8.22303 45.851 8.25118 45.9407C8.26715 45.9916 8.28304 46.0422 8.30452 46.0872ZM9.60905 40.2288C9.64335 39.8755 9.26196 39.6311 9.13215 39.8624C9.03098 39.9995 8.98246 40.1672 8.99519 40.3359C9.01949 40.5169 9.10142 40.6855 9.22934 40.8183C9.51424 40.949 9.63945 40.5957 9.64997 40.2323L9.60905 40.2288ZM7.61777 41.7506C7.8688 41.6353 8.00611 41.7528 7.98278 41.9938L8.0237 41.9973C8.01676 42.236 7.84924 42.2326 7.73371 42.2303L7.72818 42.2302C7.61273 42.228 7.48795 41.9819 7.49962 41.8614C7.37589 41.8586 7.50319 41.7403 7.61777 41.7506ZM10.7084 41.9302C10.5778 42.1696 10.5749 42.2826 10.8258 42.1676C10.838 42.0773 10.8844 41.9945 10.9558 41.9363L10.7084 41.9302ZM3.22506 40.3506L3.22689 40.3494C3.53516 40.1479 3.84276 39.9468 4.2051 39.895C4.45187 40.3582 4.72557 40.8072 5.02509 41.2393C5.09061 41.3705 5.14269 41.5072 5.18056 41.6473C5.21758 41.785 5.24092 41.9263 5.25018 42.0692C5.19791 42.8359 4.92861 43.5742 4.47278 44.2015C4.46814 44.3255 4.36794 44.3219 4.25738 44.3179C4.24559 44.3175 4.23367 44.3171 4.22175 44.3168L4.22067 44.3168C4.0974 44.3136 3.97442 44.3104 3.98605 44.1902C3.85821 44.0579 3.7762 43.8889 3.75191 43.7078C3.76678 42.8753 3.53602 42.2717 2.43562 42.3675C2.32016 42.3653 2.18816 42.3618 2.19913 42.2494C2.15964 42.166 2.10572 42.0835 2.05205 42.0013C1.94762 41.8409 1.84382 41.6814 1.84831 41.5215C1.85527 41.2793 2.10855 40.8 2.23141 40.8109C2.60169 40.7587 2.91369 40.5546 3.22506 40.3506ZM13.0701 41.0763C13.1549 41.0324 13.2387 40.9861 13.3206 40.934C13.3181 40.9707 13.3157 41.0077 13.3133 41.0449C13.2777 41.5989 13.2398 42.1878 12.5577 42.3928C12.4609 42.4213 12.3797 42.426 12.3068 42.4157C12.2012 42.401 12.1136 42.3551 12.0223 42.3072C11.9431 42.2659 11.9152 42.1758 11.9179 42.0773C11.9205 41.984 11.9505 41.8835 11.991 41.8102C12.0475 41.7166 12.1198 41.6334 12.2044 41.5644C12.2606 41.5189 12.3222 41.4797 12.3881 41.4475C12.5524 41.334 12.7233 41.2494 12.8932 41.1652C12.9524 41.1359 13.0115 41.1067 13.0701 41.0763ZM13.6126 48.6587L14.3158 48.4498C14.5566 48.3951 14.7942 47.928 14.6066 47.7393L13.7128 46.0074C13.6291 45.9675 13.5342 45.954 13.4421 45.9696C12.8256 46.3876 12.2448 46.8538 11.7052 47.3638C11.5849 47.3912 11.6222 47.5146 11.6576 47.6309C11.7522 47.9816 11.9014 48.3156 12.0997 48.6217C12.3229 48.9263 12.7751 49.1627 13.0873 48.9433C13.2754 48.8737 13.4523 48.778 13.6126 48.6587ZM8.2455 25.9206C8.04379 26.1071 7.8756 26.0378 7.82058 25.8021L7.78055 25.8113C7.71067 25.5828 7.87101 25.5345 7.9816 25.5013L7.98689 25.4997C8.09736 25.4663 8.29481 25.6614 8.32232 25.7792C8.44087 25.744 8.35772 25.8952 8.2455 25.9206ZM15.2417 51.2984L15.6028 51.2164C15.6454 51.1731 15.6753 51.1193 15.6897 51.0609C15.7038 51.0026 15.7022 50.9415 15.6845 50.8843C15.6752 50.8542 15.6618 50.8255 15.6447 50.7995C15.629 50.7757 15.6103 50.7538 15.5889 50.7343C15.5442 50.6936 15.489 50.6654 15.4292 50.6525L15.1883 50.7069C15.0599 50.8434 15.1306 51.0749 15.2013 51.3065L15.2417 51.2984ZM4.38006 30.3479C4.4141 30.3641 4.44413 30.3886 4.47181 30.4176C4.50665 30.4537 4.53798 30.4968 4.56946 30.5402C4.62495 30.6166 4.68089 30.6936 4.75722 30.7336C4.88782 30.8023 5.05057 30.6971 5.16502 30.6231L5.16597 30.6225L5.22165 30.5873C5.42919 30.0276 5.37212 29.4206 4.95063 29.4249C4.78138 29.4584 4.6291 29.5484 4.52009 29.68C4.44343 29.6972 4.42993 29.7503 4.41094 29.8252C4.40007 29.868 4.38741 29.9179 4.36009 29.9722C4.38645 30.0337 4.39842 30.1003 4.39492 30.1668C4.39145 30.2336 4.37261 30.2985 4.33984 30.3572L4.38006 30.3479ZM5.67923 36.5753C5.62991 36.8345 5.18904 36.7198 5.10845 36.3742L5.06841 36.3834C4.96202 36.0356 4.96785 35.662 5.28059 35.6986C5.44474 35.7852 5.57664 35.9199 5.65775 36.0842C5.72388 36.2402 5.7315 36.4142 5.67923 36.5753ZM6.08911 34.201C6.14413 34.4367 6.31232 34.506 6.51403 34.3196C6.62625 34.2941 6.7094 34.143 6.59085 34.1782C6.56334 34.0604 6.36589 33.8653 6.25541 33.8987L6.25012 33.9003C6.13954 33.9335 5.9792 33.9817 6.04908 34.2103L6.08911 34.201ZM3.33054 34.909C3.53227 34.7229 3.56574 34.831 3.51817 35.0981L3.28104 35.1682C3.33025 35.0911 3.34788 34.9983 3.33054 34.909ZM11.1374 34.3005L11.1387 34.2988C11.3694 34.0098 11.6006 33.7204 11.9359 33.5572C12.0562 33.5298 12.1435 32.9975 12.0725 32.7656C12.0255 32.6126 11.8761 32.4935 11.7254 32.3734C11.6481 32.312 11.57 32.2499 11.5057 32.183C11.4802 32.0731 11.3535 32.1102 11.2431 32.1436C10.2276 32.5723 9.81487 32.0707 9.56229 31.2766C9.48118 31.1123 9.34907 30.9772 9.18513 30.8909C9.1577 30.7734 9.03977 30.8081 8.92154 30.8429L8.9205 30.8432C8.90908 30.8466 8.89762 30.8499 8.88628 30.8531C8.77989 30.8833 8.68348 30.9106 8.71879 31.0297C8.48638 31.7645 8.46691 32.5474 8.66284 33.2906C8.71742 33.4233 8.78487 33.5501 8.86417 33.6693C8.94509 33.7906 9.0384 33.9043 9.14272 34.0086C9.56589 34.3264 9.96996 34.6683 10.3529 35.0317C10.6808 34.8714 10.9088 34.5863 11.1374 34.3005ZM83.1967 40.3176C83.291 40.2932 83.3854 40.2749 83.4799 40.2592C83.5452 40.2483 83.6105 40.2386 83.676 40.2289C83.8642 40.2011 84.0534 40.1731 84.2456 40.1157C84.3184 40.1053 84.3894 40.0869 84.4573 40.0609C84.5596 40.0213 84.6549 39.9644 84.7384 39.8927C84.8003 39.8354 84.861 39.7492 84.8933 39.6612C84.9275 39.5684 84.9298 39.4741 84.868 39.4106C84.7967 39.337 84.7284 39.2665 84.6329 39.2201C84.5671 39.1879 84.4885 39.1674 84.3876 39.1649C83.675 39.1503 83.4505 39.6986 83.2392 40.2144C83.225 40.249 83.2109 40.2834 83.1967 40.3176ZM85.0807 63.4799C85.1121 63.4497 85.1429 63.42 85.1447 63.3583C85.0769 63.4261 85.0476 63.4554 85.033 63.4904C85.022 63.5165 85.0191 63.5459 85.014 63.5977C85.0198 63.5385 85.0505 63.509 85.0807 63.4799ZM86.2436 66.6028C85.9081 66.8265 85.4898 67.1042 85.1747 67.3034C85.4646 67.5149 85.6679 67.8206 85.748 68.1661C85.8279 68.5115 85.7795 68.874 85.6115 69.1883C85.5568 69.3616 85.4347 69.5064 85.2714 69.5919C85.1084 69.6775 84.9175 69.6966 84.7405 69.6449C84.6525 69.6197 84.5706 69.5772 84.4995 69.5207C84.4569 69.487 84.4189 69.4481 84.3858 69.4056C84.3636 69.3772 84.3438 69.3468 84.3266 69.3148C84.2834 69.2358 84.2568 69.149 84.2484 69.0594C84.2445 69.0159 84.2448 68.9723 84.2492 68.929C84.2539 68.8831 84.2635 68.8378 84.2776 68.7936C84.3749 68.2262 84.6941 67.7178 85.1676 67.3758C85.1722 67.2071 85.1497 67.0099 85.1253 66.7976C85.0985 66.5635 85.0696 66.3104 85.0727 66.0559C85.0893 66.0271 85.109 66.0002 85.1313 65.9755C85.1567 65.9475 85.1854 65.923 85.2171 65.9015C85.2767 65.8616 85.3447 65.8357 85.4159 65.8256C85.4873 65.8156 85.56 65.8217 85.6283 65.8437C85.6966 65.8656 85.7589 65.9026 85.8103 65.9518C85.9914 66.1432 86.1377 66.3636 86.2436 66.6028ZM84.6607 32.8667L85.3946 32.884C85.5848 32.8199 85.7833 32.7831 85.9839 32.7747C86.3503 32.662 86.7034 33.0255 86.8175 33.3837C86.8896 33.6653 86.926 33.9543 86.9261 34.2443L86.9273 34.2445C87.0914 34.3311 87.2233 34.4659 87.3045 34.6301C87.3706 34.7862 87.3782 34.9601 87.3259 35.1212C87.2766 35.3804 86.8357 35.2657 86.7551 34.9201L86.7151 34.9293C86.6974 34.8713 86.6827 34.8125 86.6721 34.7551C86.033 35.0501 85.3721 35.2967 84.6948 35.4929C84.6024 35.4794 84.5167 35.4375 84.4501 35.3738L84.1573 33.453C84.0399 33.216 84.4148 32.8448 84.6607 32.8667ZM83.8868 60.4855C83.9038 60.5215 83.9244 60.554 83.9515 60.5799L83.9926 60.5835C83.9427 60.6292 83.9041 60.685 83.8794 60.7475C83.8548 60.8096 83.8448 60.8767 83.8501 60.9432C83.8068 60.9865 83.7788 61.03 83.7548 61.0674C83.7128 61.1327 83.6829 61.1791 83.6047 61.1719C83.4592 61.2635 83.2859 61.3023 83.1147 61.2822C82.7136 61.1569 82.8539 60.5623 83.23 60.094L83.2941 60.0775L83.2952 60.0773C83.4275 60.0421 83.6155 59.9921 83.7174 60.0975C83.777 60.1589 83.8053 60.2493 83.8335 60.339C83.8495 60.3898 83.8654 60.4405 83.8868 60.4855ZM85.1914 54.6271C85.2257 54.2738 84.8443 54.0294 84.7145 54.2607C84.6133 54.3977 84.5648 54.5655 84.5775 54.7341C84.6018 54.9152 84.6837 55.0838 84.8117 55.2166C85.0966 55.3473 85.2218 54.9939 85.2323 54.6306L85.1914 54.6271ZM83.5651 56.392C83.5884 56.1511 83.4511 56.0336 83.2001 56.1489C83.0855 56.1386 82.9582 56.2568 83.0819 56.2597C83.0703 56.3802 83.195 56.6262 83.3105 56.6284L83.316 56.6286C83.4316 56.6309 83.5991 56.6343 83.606 56.3955L83.5651 56.392ZM84.3264 29.8414L84.6952 29.8743L84.7362 29.8782C84.729 30.1201 84.7219 30.3627 84.5563 30.4531L84.3105 30.4308C84.2578 30.4001 84.2145 30.3565 84.1852 30.304C84.1711 30.2789 84.1604 30.2523 84.1532 30.2248C84.1453 30.1949 84.1418 30.1635 84.1426 30.1321C84.1441 30.0722 84.1621 30.0137 84.1943 29.9625C84.2266 29.9115 84.2722 29.8695 84.3264 29.8414ZM86.4081 56.5658C86.1572 56.6808 86.1601 56.5678 86.2908 56.3285L86.5381 56.3346C86.4667 56.3928 86.4203 56.4756 86.4081 56.5658ZM89.4136 56.0265C89.445 55.9963 89.4758 55.9666 89.4776 55.9049C89.4098 55.9727 89.3806 56.002 89.3659 56.037C89.3549 56.0631 89.352 56.0925 89.3469 56.1443C89.3527 56.0852 89.3834 56.0556 89.4136 56.0265ZM88.2197 53.0321C88.2367 53.0681 88.2574 53.1006 88.2844 53.1265L88.3255 53.1301C88.2757 53.1758 88.237 53.2317 88.2123 53.2941C88.1877 53.3563 88.1777 53.4233 88.183 53.4899C88.1397 53.5331 88.1117 53.5767 88.0877 53.614C88.0457 53.6793 88.0159 53.7257 87.9377 53.7185C87.7921 53.8101 87.6189 53.849 87.4476 53.8288C87.0465 53.7036 87.1868 53.109 87.563 52.6406L87.6271 52.6242L87.6282 52.6239C87.7604 52.5887 87.9484 52.5387 88.0503 52.6441C88.1099 52.7055 88.1383 52.7959 88.1664 52.8856C88.1824 52.9365 88.1983 52.9871 88.2197 53.0321ZM89.5243 47.1737C89.5586 46.8204 89.1772 46.576 89.0474 46.8073C88.9462 46.9444 88.8977 47.1121 88.9104 47.2808C88.9347 47.4618 89.0166 47.6304 89.1446 47.7632C89.4295 47.8939 89.5547 47.5406 89.5652 47.1772L89.5243 47.1737ZM87.533 48.6955C87.784 48.5802 87.9213 48.6977 87.898 48.9386L87.9389 48.9422C87.932 49.1809 87.7645 49.1775 87.6489 49.1752L87.6434 49.1751C87.528 49.1729 87.4032 48.9268 87.4148 48.8063C87.2911 48.8035 87.4184 48.6852 87.533 48.6955ZM90.6237 48.8751C90.493 49.1145 90.4901 49.2275 90.741 49.1125C90.7532 49.0222 90.7997 48.9394 90.871 48.8812L90.6237 48.8751ZM83.1403 47.2955L83.1421 47.2943C83.4504 47.0928 83.758 46.8917 84.1203 46.8399C84.3671 47.3031 84.6408 47.7521 84.9403 48.1842C85.0058 48.3154 85.0579 48.4521 85.0958 48.5922C85.1328 48.7299 85.1562 48.8712 85.1654 49.0141C85.1131 49.7808 84.8438 50.5191 84.388 51.1464C84.3834 51.2704 84.2832 51.2668 84.1726 51.2628C84.1608 51.2624 84.1489 51.262 84.137 51.2617L84.1359 51.2617C84.0126 51.2585 83.8897 51.2553 83.9013 51.1351C83.7734 51.0028 83.6914 50.8338 83.6671 50.6527C83.682 49.8202 83.4513 49.2166 82.3509 49.3124C82.2354 49.3102 82.1034 49.3067 82.1144 49.1943C82.0749 49.1109 82.0209 49.0284 81.9673 48.9462C81.8628 48.7858 81.759 48.6263 81.7635 48.4664C81.7705 48.2242 82.0238 47.7449 82.1466 47.7558C82.5169 47.7036 82.8289 47.4994 83.1403 47.2955ZM84.0023 26.6251C83.9842 26.5661 84.004 26.5284 84.0242 26.4902C84.0436 26.4533 84.0633 26.4158 84.0498 26.358C84.0616 26.4086 84.0683 26.4374 84.0661 26.4656C84.0634 26.5032 84.0451 26.54 84.0023 26.6251ZM82.7099 22.8928C82.4742 23.1784 82.1654 23.5703 81.9182 23.8853C82.0955 24.0797 82.3051 24.2439 82.5387 24.3698C82.6033 24.4007 82.6743 24.4166 82.7463 24.4164C82.8183 24.4163 82.8893 24.3998 82.954 24.3684C83.0184 24.337 83.0748 24.2914 83.1187 24.2354C83.1419 24.2053 83.1613 24.1732 83.1765 24.1388C83.1898 24.1086 83.2 24.077 83.2065 24.0446C83.1279 23.8023 83.0193 23.5711 82.9189 23.3573C82.8277 23.1634 82.7431 22.9833 82.6934 22.822C83.034 22.3522 83.1746 21.772 83.0853 21.204C83.0845 21.1578 83.0791 21.1119 83.069 21.067C83.0593 21.0246 83.0456 20.9831 83.0279 20.943C82.9912 20.8606 82.9381 20.7865 82.8717 20.7248C82.8452 20.6997 82.8166 20.677 82.7864 20.6569C82.7414 20.6267 82.6927 20.6015 82.6414 20.5826C82.5557 20.5508 82.4642 20.5357 82.3725 20.5388C82.1877 20.5441 82.0123 20.6208 81.8847 20.752C81.7569 20.8832 81.6872 21.0581 81.6907 21.2392C81.6317 21.5889 81.7018 21.9475 81.8885 22.2506C82.0753 22.5537 82.3665 22.7812 82.7099 22.8928ZM81.8465 23.9765L81.7948 24.0425C81.6113 23.4723 81.2776 23.201 80.7209 23.4594C80.4769 23.5977 80.1896 23.6438 79.9138 23.5891C79.6378 23.5344 79.3924 23.3826 79.2236 23.1622C79.1469 23.122 79.0914 23.0463 79.0358 22.9705L79.0344 22.9686C78.9788 22.8928 78.9233 22.8171 78.8465 22.7769C78.7907 22.7477 78.7133 22.7536 78.6372 22.7733C78.503 22.8077 78.373 22.884 78.373 22.884C78.2202 23.3852 78.2444 23.9216 78.4417 24.4065C78.6392 24.8914 78.9979 25.296 79.4604 25.5555C79.5511 25.603 79.5883 25.6225 79.6263 25.6237C79.6527 25.6245 79.6795 25.6165 79.725 25.6028C80.0415 25.382 80.359 25.4739 80.6756 25.5656C80.9911 25.6573 81.3058 25.7488 81.6174 25.5294C81.6478 25.3652 81.6771 25.2007 81.705 25.032C81.7591 24.7037 81.8076 24.36 81.8465 23.9765ZM82.6265 31.6643L82.6252 31.666C82.3966 31.9518 82.1687 32.2369 81.8408 32.3972C81.4578 32.0338 81.0537 31.6919 80.6305 31.3741C80.5262 31.2698 80.4329 31.1561 80.352 31.0348C80.2727 30.9156 80.2052 30.7887 80.1507 30.6561C79.9547 29.9129 79.9742 29.13 80.2066 28.3952C80.1713 28.2761 80.2677 28.2488 80.3741 28.2186C80.3854 28.2154 80.3969 28.2121 80.4083 28.2087L80.4093 28.2084C80.5276 28.1736 80.6455 28.1389 80.673 28.2564C80.8369 28.3427 80.969 28.4778 81.0501 28.6421C81.3027 29.4362 81.7154 29.9378 82.7309 29.5091C82.8414 29.4757 82.968 29.4386 82.9936 29.5485C83.0578 29.6154 83.1356 29.6772 83.2129 29.7386C83.3636 29.8587 83.5133 29.9781 83.5603 30.1311C83.6313 30.363 83.544 30.8953 83.4237 30.9226C83.0884 31.0859 82.8572 31.3753 82.6265 31.6643ZM76.4578 16.3493C76.4384 16.3875 76.4194 16.4247 76.3636 16.4374C76.2407 16.3931 76.1064 16.3889 75.9804 16.4253C75.8087 16.2153 75.6879 15.97 75.6267 15.7077C75.5655 15.4454 75.5657 15.1726 75.6273 14.9098C75.5918 14.7911 75.6882 14.7638 75.7945 14.7336L75.8124 14.7285L75.8288 14.7237C75.9474 14.6885 76.0659 14.6532 76.0934 14.7711C76.3063 14.9492 76.4628 15.1834 76.5448 15.4455C76.627 15.7081 76.6311 15.9878 76.5571 16.2532C76.4976 16.2709 76.4773 16.3106 76.4578 16.3493ZM86.0268 28.8938C86.0608 28.9101 86.0908 28.9345 86.1185 28.9635C86.1534 28.9996 86.1847 29.0428 86.2162 29.0861C86.2717 29.1625 86.3276 29.2395 86.4039 29.2795C86.5345 29.3482 86.6973 29.243 86.8117 29.1691L86.8127 29.1684L86.8683 29.1332C87.0759 28.5735 87.0188 27.9665 86.5973 27.9709C86.4281 28.0043 86.2758 28.0943 86.1668 28.2259C86.0901 28.2431 86.0766 28.2962 86.0576 28.3711C86.0468 28.4139 86.0341 28.4638 86.0068 28.5181C86.0331 28.5796 86.0451 28.6462 86.0416 28.7127C86.0382 28.7796 86.0193 28.8444 85.9865 28.9031L86.0268 28.8938ZM76.8748 18.7813C76.9314 18.8592 76.9875 18.9366 77.0644 18.9735C77.2343 18.9415 77.3869 18.8511 77.4951 18.7188C77.4953 18.7139 77.4954 18.7089 77.4954 18.704L77.4953 18.6962L77.4951 18.6891C77.4949 18.6827 77.4945 18.6764 77.494 18.6701C77.4903 18.6211 77.4785 18.573 77.4588 18.5279C77.4327 18.4675 77.3934 18.4137 77.3438 18.3696C77.3199 18.3484 77.294 18.3299 77.2661 18.3144C77.2363 18.2975 77.2047 18.2841 77.1715 18.274C77.1654 18.2721 77.1591 18.2704 77.1529 18.2689C77.1471 18.2674 77.1412 18.266 77.1354 18.2648L77.1224 18.2622L77.1112 18.2602L77.1018 18.2588C77.0956 18.2579 77.0894 18.2571 77.0831 18.2565C77.0468 18.2528 77.0102 18.2535 76.9738 18.2581C76.8257 18.2036 76.7629 18.3459 76.7037 18.4801C76.6979 18.4932 76.6921 18.5063 76.6863 18.5191C76.6809 18.5309 76.6755 18.5426 76.67 18.5538C76.6625 18.5689 76.6549 18.5834 76.647 18.5967L76.6872 18.5878C76.7635 18.6278 76.8193 18.7048 76.8748 18.7813ZM88.1607 32.8655C87.959 33.0519 87.7908 32.9827 87.7358 32.747L87.6958 32.7562C87.6259 32.5277 87.7862 32.4794 87.8968 32.4462L87.9021 32.4446C88.0126 32.4112 88.21 32.6063 88.2376 32.7241C88.3561 32.6889 88.273 32.8401 88.1607 32.8655ZM82.2708 35.0241C82.2528 34.965 82.2726 34.9274 82.2927 34.8891C82.3121 34.8523 82.3318 34.8148 82.3183 34.757C82.3301 34.8076 82.3368 34.8364 82.3347 34.8645C82.332 34.9022 82.3136 34.9389 82.2708 35.0241ZM84.2953 37.2928C84.3293 37.309 84.3594 37.3335 84.3871 37.3625C84.4219 37.3986 84.4532 37.4417 84.4847 37.4851C84.5402 37.5615 84.5961 37.6385 84.6725 37.6785C84.8031 37.7472 84.9658 37.642 85.0802 37.5681L85.0812 37.5674L85.1369 37.5322C85.3444 36.9725 85.2873 36.3655 84.8659 36.3698C84.6966 36.4033 84.5443 36.4933 84.4353 36.6249C84.3587 36.6421 84.3452 36.6952 84.3262 36.7701C84.3153 36.8129 84.3026 36.8628 84.2753 36.9171C84.3017 36.9785 84.3136 37.0452 84.3102 37.1117C84.3067 37.1785 84.2878 37.2434 84.2551 37.3021L84.2953 37.2928ZM85.5945 43.5202C85.5451 43.7794 85.1043 43.6647 85.0237 43.3191L84.9836 43.3283C84.8773 42.9805 84.8831 42.6069 85.1958 42.6434C85.36 42.7301 85.4919 42.8648 85.573 43.0291C85.6391 43.1851 85.6467 43.3591 85.5945 43.5202ZM86.0043 41.1459C86.0594 41.3816 86.2275 41.4509 86.4293 41.2645C86.5415 41.239 86.6246 41.0879 86.5061 41.1231C86.4786 41.0053 86.2811 40.8102 86.1706 40.8436L86.1653 40.8452C86.0548 40.8784 85.8944 40.9266 85.9643 41.1552L86.0043 41.1459ZM83.2458 41.8539C83.4475 41.6678 83.481 41.7759 83.4334 42.043L83.1963 42.1131C83.2455 42.036 83.2631 41.9432 83.2458 41.8539Z" fill="#E0EDFF"/>
<path d="M53.1194 45.831H50.5067C50.3439 45.8384 50.1868 45.8945 50.054 45.9927C49.9212 46.0908 49.8184 46.2266 49.7581 46.384L49.0843 48.1441C49.0205 48.3053 48.9121 48.4433 48.7728 48.5404C48.6335 48.6374 48.4697 48.6892 48.302 48.6892C48.1344 48.6892 47.9704 48.6374 47.8311 48.5404C47.6919 48.4433 47.5835 48.3053 47.5196 48.1441L45.1166 41.937C45.0556 41.7726 44.9483 41.6313 44.8086 41.5316C44.669 41.432 44.5036 41.3787 44.3343 41.3787C44.1648 41.3787 43.9994 41.432 43.8598 41.5316C43.7202 41.6313 43.6128 41.7726 43.5519 41.937L42.2717 45.2391C42.2181 45.4043 42.1181 45.5491 41.9847 45.6546C41.8513 45.76 41.6904 45.8215 41.5231 45.831H39.1724M44.0237 56.3996C44.621 56.7911 45.3127 56.9988 46.0187 56.9988C46.7248 56.9988 47.4165 56.7911 48.0138 56.3996C51.4201 54.2034 57.9932 49.0477 57.9932 42.0152C58.0343 41.0867 57.8895 40.1593 57.5678 39.2922C57.2463 38.425 56.7548 37.6368 56.1248 36.9778C55.4947 36.3186 54.7399 35.803 53.908 35.4636C53.0762 35.1241 52.1857 34.9683 51.2929 35.006C49.9587 35.0053 48.655 35.4203 47.5497 36.1976C47.4282 36.2795 47.3107 36.3679 47.1978 36.4624C46.8589 36.7308 46.4447 36.8762 46.0187 36.8762C45.5927 36.8762 45.1786 36.7308 44.8397 36.4624C44.7273 36.3689 44.6076 36.2832 44.4878 36.1976C43.3809 35.4238 42.0782 35.0091 40.7446 35.006C39.8488 34.9627 38.9541 35.1144 38.1178 35.4514C37.2815 35.7884 36.5221 36.3031 35.8879 36.9628C35.2538 37.6225 34.7589 38.4126 34.435 39.2826C34.1112 40.1526 33.9654 41.0832 34.0069 42.0152C34.0369 49.0477 40.6174 54.2034 44.0237 56.3996Z" stroke="#003E94" stroke-width="2.31818" stroke-linecap="round" stroke-linejoin="round"/>
</svg>
