<svg width="24" height="25" viewBox="0 0 24 25" fill="none" xmlns="http://www.w3.org/2000/svg">
<path d="M14.1755 4.22408C14.1766 2.99629 11.6731 2.00183 8.58832 2.00183C5.50357 2.00183 3.00224 2.9974 3 4.22408M3 4.22408C3 5.45187 5.50133 6.44632 8.58832 6.44632C11.6753 6.44632 14.1766 5.45187 14.1766 4.22408L14.1766 12.8463M3 4.22408V17.5575C3.00112 18.7853 5.50245 19.7797 8.58832 19.7797C10.0849 19.7797 11.4361 19.543 12.4387 19.1619M3.00112 8.66855C3.00112 9.89634 5.50245 10.8908 8.58944 10.8908C11.6764 10.8908 14.1778 9.89634 14.1778 8.66855M12.5057 14.6965C11.4976 15.0909 10.115 15.3354 8.58832 15.3354C5.50245 15.3354 3.00112 14.3409 3.00112 13.1131M20.5272 13.4665C22.4909 15.4187 22.4909 18.5854 20.5272 20.5376C18.5635 22.4899 15.3781 22.4899 13.4144 20.5376C11.4507 18.5854 11.4507 15.4187 13.4144 13.4665C15.3781 11.5142 18.5635 11.5142 20.5272 13.4665Z" stroke="#121417" stroke-width="2" stroke-linecap="round" stroke-linejoin="round"/>
</svg>
