<svg width="14" height="7" viewBox="0 0 14 7" fill="none" xmlns="http://www.w3.org/2000/svg">
<mask id="path-1-outside-1_1419_12727" maskUnits="userSpaceOnUse" x="0" y="0.000976562" width="14" height="8" fill="black">
<rect fill="white" y="0.000976562" width="14" height="8"/>
<path d="M13 7.00098L7 1.00098L1 7.00098L13 7.00098Z"/>
</mask>
<path d="M13 7.00098L7 1.00098L1 7.00098L13 7.00098Z" fill="white"/>
<path d="M7 1.00098L7.70711 0.29387C7.31658 -0.0966544 6.68342 -0.0966545 6.29289 0.29387L7 1.00098ZM13 7.00098V8.00098C13.4045 8.00098 13.7691 7.75733 13.9239 7.38366C14.0787 7.00999 13.9931 6.57987 13.7071 6.29387L13 7.00098ZM1 7.00098L0.292893 6.29387C0.00689524 6.57987 -0.0786605 7.00998 0.0761204 7.38366C0.230901 7.75733 0.595538 8.00098 1 8.00098L1 7.00098ZM6.29289 1.70808L12.2929 7.70808L13.7071 6.29387L7.70711 0.29387L6.29289 1.70808ZM13 6.00098L1 6.00098L1 8.00098L13 8.00098V6.00098ZM1.70711 7.70808L7.70711 1.70808L6.29289 0.29387L0.292893 6.29387L1.70711 7.70808Z" fill="#DDE0E4" mask="url(#path-1-outside-1_1419_12727)"/>
</svg>
