<svg width="20" height="20" viewBox="0 0 20 20" fill="none" xmlns="http://www.w3.org/2000/svg">
<g clip-path="url(#clip0_1308_17499)">
<path d="M14.5827 5.41772H14.591M5.83268 1.66772H14.166C16.4672 1.66772 18.3327 3.5332 18.3327 5.83439V14.1677C18.3327 16.4689 16.4672 18.3344 14.166 18.3344H5.83268C3.5315 18.3344 1.66602 16.4689 1.66602 14.1677V5.83439C1.66602 3.5332 3.5315 1.66772 5.83268 1.66772ZM13.3327 9.47606C13.4355 10.1696 13.3171 10.8779 12.9941 11.5002C12.6712 12.1226 12.1603 12.6272 11.534 12.9425C10.9078 13.2577 10.1981 13.3674 9.50584 13.256C8.81362 13.1446 8.17415 12.8178 7.67838 12.322C7.18261 11.8263 6.85579 11.1868 6.74441 10.4946C6.63302 9.80235 6.74274 9.09264 7.05795 8.46637C7.37317 7.8401 7.87784 7.32918 8.50017 7.00626C9.1225 6.68334 9.83081 6.56488 10.5243 6.66772C11.2318 6.77263 11.8867 7.10228 12.3924 7.60798C12.8981 8.11368 13.2278 8.76862 13.3327 9.47606Z" stroke="white" stroke-width="1.6" stroke-linecap="round" stroke-linejoin="round"/>
</g>
<defs>
<clipPath id="clip0_1308_17499">
<rect width="20" height="20" fill="white" transform="translate(0 0.00109863)"/>
</clipPath>
</defs>
</svg>
