<svg width="16" height="16" viewBox="0 0 16 16" fill="none" xmlns="http://www.w3.org/2000/svg">
<g clip-path="url(#clip0_1401_15408)">
<path d="M6.6668 8.66767C6.9531 9.05042 7.31837 9.36713 7.73783 9.5963C8.1573 9.82547 8.62114 9.96175 9.0979 9.99589C9.57466 10.03 10.0532 9.96125 10.501 9.79419C10.9489 9.62714 11.3555 9.36572 11.6935 9.02767L13.6935 7.02767C14.3007 6.399 14.6366 5.55699 14.629 4.683C14.6215 3.80901 14.2709 2.97297 13.6529 2.35494C13.0348 1.73692 12.1988 1.38635 11.3248 1.37876C10.4508 1.37116 9.60881 1.70714 8.98013 2.31434L7.83347 3.45434M9.33347 7.33434C9.04716 6.95159 8.68189 6.63488 8.26243 6.40571C7.84297 6.17654 7.37913 6.04026 6.90237 6.00612C6.4256 5.97197 5.94708 6.04076 5.49924 6.20782C5.0514 6.37487 4.64472 6.63629 4.3068 6.97434L2.3068 8.97434C1.69961 9.60301 1.36363 10.445 1.37122 11.319C1.37881 12.193 1.72938 13.029 2.3474 13.6471C2.96543 14.2651 3.80147 14.6157 4.67546 14.6233C5.54945 14.6308 6.39146 14.2949 7.02013 13.6877L8.16013 12.5477" stroke="#0059D6" stroke-width="1.6" stroke-linecap="round" stroke-linejoin="round"/>
</g>
<defs>
<clipPath id="clip0_1401_15408">
<rect width="16" height="16" fill="white" transform="translate(0 0.00100708)"/>
</clipPath>
</defs>
</svg>
