<svg width="34" height="24" viewBox="0 0 34 24" fill="none" xmlns="http://www.w3.org/2000/svg">
<rect x="0.5" y="0.500977" width="33" height="23" rx="3.5" fill="white"/>
<path d="M19.2576 11.7067C19.2576 15.4102 16.2898 18.4125 12.6288 18.4125C8.96782 18.4125 6 15.4102 6 11.7067C6 8.00325 8.96782 5.00098 12.6288 5.00098C16.2898 5.00098 19.2576 8.00325 19.2576 11.7067Z" fill="#ED0006"/>
<path d="M27.8572 11.7067C27.8572 15.4102 24.8894 18.4125 21.2284 18.4125C17.5674 18.4125 14.5996 15.4102 14.5996 11.7067C14.5996 8.00325 17.5674 5.00098 21.2284 5.00098C24.8894 5.00098 27.8572 8.00325 27.8572 11.7067Z" fill="#0099DF"/>
<path fill-rule="evenodd" clip-rule="evenodd" d="M16.9286 6.60291C18.3539 7.83286 19.2576 9.66303 19.2576 11.7067C19.2576 13.7504 18.3539 15.5806 16.9286 16.8105C15.5034 15.5806 14.5996 13.7504 14.5996 11.7067C14.5996 9.66303 15.5034 7.83286 16.9286 6.60291Z" fill="#6C6BBD"/>
<rect x="0.5" y="0.500977" width="33" height="23" rx="3.5" stroke="#DDE0E4"/>
</svg>
