<svg width="34" height="24" viewBox="0 0 34 24" fill="none" xmlns="http://www.w3.org/2000/svg">
<rect x="0.5" y="0.500977" width="33" height="23" rx="3.5" fill="white"/>
<path fill-rule="evenodd" clip-rule="evenodd" d="M17.179 16.8304C15.9949 17.8284 14.459 18.4309 12.7807 18.4309C9.03582 18.4309 6 15.4313 6 11.7309C6 8.03064 9.03582 5.03094 12.7807 5.03094C14.459 5.03094 15.9949 5.63344 17.179 6.63149C18.363 5.63344 19.8989 5.03094 21.5773 5.03094C25.3221 5.03094 28.358 8.03064 28.358 11.7309C28.358 15.4313 25.3221 18.4309 21.5773 18.4309C19.8989 18.4309 18.363 17.8284 17.179 16.8304Z" fill="#ED0006"/>
<path fill-rule="evenodd" clip-rule="evenodd" d="M17.1787 16.8304C18.6366 15.6015 19.5611 13.7729 19.5611 11.7309C19.5611 9.68899 18.6366 7.86039 17.1787 6.63148C18.3628 5.63344 19.8987 5.03094 21.577 5.03094C25.3219 5.03094 28.3577 8.03064 28.3577 11.7309C28.3577 15.4313 25.3219 18.4309 21.577 18.4309C19.8987 18.4309 18.3628 17.8284 17.1787 16.8304Z" fill="#F9A000"/>
<path fill-rule="evenodd" clip-rule="evenodd" d="M17.1793 16.8304C18.6372 15.6015 19.5616 13.7729 19.5616 11.731C19.5616 9.68903 18.6372 7.86043 17.1793 6.63153C15.7213 7.86043 14.7969 9.68903 14.7969 11.731C14.7969 13.7729 15.7213 15.6015 17.1793 16.8304Z" fill="#FF5E00"/>
<rect x="0.5" y="0.500977" width="33" height="23" rx="3.5" stroke="#DDE0E4"/>
</svg>
