<svg width="64" height="65" viewBox="0 0 64 65" fill="none" xmlns="http://www.w3.org/2000/svg">
<rect y="0.0012207" width="64" height="64" rx="32" fill="#E0EDFF"/>
<path d="M37.6569 27.5401L36.9298 28.2267L37.6569 27.5401ZM26.3431 27.5401L27.0702 28.2267L26.3431 27.5401ZM31.2807 22.3122L30.5537 21.6256L31.2807 22.3122ZM32.7193 22.3122L31.9923 22.9988L32.7193 22.3122ZM36.9298 28.2267C39.6901 31.1492 39.6901 35.9099 36.9298 38.8324L38.3839 40.2057C41.872 36.5124 41.872 30.5467 38.3839 26.8534L36.9298 28.2267ZM36.9298 38.8324C34.2003 41.7225 29.7997 41.7225 27.0702 38.8324L25.6161 40.2057C29.135 43.9314 34.865 43.9314 38.3839 40.2057L36.9298 38.8324ZM27.0702 38.8324C24.3099 35.9099 24.3099 31.1492 27.0702 28.2267L25.6161 26.8534C22.128 30.5467 22.128 36.5124 25.6161 40.2057L27.0702 38.8324ZM27.0702 28.2267L32.0077 22.9988L30.5537 21.6256L25.6161 26.8534L27.0702 28.2267ZM31.9923 22.9988L36.9298 28.2267L38.3839 26.8534L33.4463 21.6256L31.9923 22.9988ZM32.0077 22.9988C32.0093 22.9971 32.0099 22.9968 32.0094 22.9972C32.0089 22.9975 32.008 22.998 32.0067 22.9986C32.0043 22.9996 32.0019 23 32 23C31.9981 23 31.9957 22.9996 31.9933 22.9986C31.992 22.998 31.9911 22.9975 31.9906 22.9972C31.9901 22.9968 31.9907 22.9971 31.9923 22.9988L33.4463 21.6256C32.6586 20.7915 31.3414 20.7915 30.5537 21.6256L32.0077 22.9988Z" fill="#003E94"/>
<path d="M9 55L55 9" stroke="white" stroke-width="3"/>
</svg>
