<svg width="65" height="65" viewBox="0 0 65 65" fill="none" xmlns="http://www.w3.org/2000/svg">
<rect x="0.599609" y="0.0012207" width="64" height="64" rx="32" fill="#E0EDFF"/>
<path d="M23.3 26.4326L33 31.966L42.7 26.4326M33 43V31.955M43 36.338V27.5721C42.9996 27.1878 42.8967 26.8104 42.7017 26.4777C42.5067 26.145 42.2264 25.8687 41.8889 25.6765L34.1111 21.2936C33.7733 21.1013 33.3901 21 33 21C32.6099 21 32.2267 21.1013 31.8889 21.2936L24.1111 25.6765C23.7736 25.8687 23.4933 26.145 23.2983 26.4777C23.1033 26.8104 23.0004 27.1878 23 27.5721V36.338C23.0004 36.7223 23.1033 37.0997 23.2983 37.4324C23.4933 37.7651 23.7736 38.0414 24.1111 38.2336L31.8889 42.6165C32.2267 42.8088 32.6099 42.9101 33 42.9101C33.3901 42.9101 33.7733 42.8088 34.1111 42.6165L41.8889 38.2336C42.2264 38.0414 42.5067 37.7651 42.7017 37.4324C42.8967 37.0997 42.9996 36.7223 43 36.338Z" stroke="#003E94" stroke-width="2" stroke-linecap="round" stroke-linejoin="round"/>
<path d="M10 55L56 9" stroke="white" stroke-width="3"/>
</svg>
