<svg width="96" height="16" viewBox="0 0 96 16" fill="none" xmlns="http://www.w3.org/2000/svg">
<path d="M8 0.00100708L10.7193 4.50102L16 5.60318L12.4 9.48649L12.9443 14.6677L8 12.5677L3.05573 14.6677L3.6 9.48649L0 5.60318L5.28065 4.50102L8 0.00100708Z" fill="#FFB429"/>
<path d="M3.05573 14.6677L8 12.5677V0.00100708L5.28065 4.50102L0 5.60318L3.6 9.48649L3.05573 14.6677Z" fill="#FFB429"/>
<path d="M28 0.00100708L30.7193 4.50102L36 5.60318L32.4 9.48649L32.9443 14.6677L28 12.5677L23.0557 14.6677L23.6 9.48649L20 5.60318L25.2807 4.50102L28 0.00100708Z" fill="#FFB429"/>
<path d="M23.0557 14.6677L28 12.5677V0.00100708L25.2807 4.50102L20 5.60318L23.6 9.48649L23.0557 14.6677Z" fill="#FFB429"/>
<path d="M48 0.00100708L50.7193 4.50102L56 5.60318L52.4 9.48649L52.9443 14.6677L48 12.5677L43.0557 14.6677L43.6 9.48649L40 5.60318L45.2807 4.50102L48 0.00100708Z" fill="#FFB429"/>
<path d="M43.0557 14.6677L48 12.5677V0.00100708L45.2807 4.50102L40 5.60318L43.6 9.48649L43.0557 14.6677Z" fill="#FFB429"/>
<path d="M68 0.00100708L70.7193 4.50102L76 5.60318L72.4 9.48649L72.9443 14.6677L68 12.5677L63.0557 14.6677L63.6 9.48649L60 5.60318L65.2807 4.50102L68 0.00100708Z" fill="#FFB429"/>
<path d="M63.0557 14.6677L68 12.5677V0.00100708L65.2807 4.50102L60 5.60318L63.6 9.48649L63.0557 14.6677Z" fill="#FFB429"/>
<path d="M88 0.00100708L90.7193 4.50102L96 5.60318L92.4 9.48649L92.9443 14.6677L88 12.5677L83.0557 14.6677L83.6 9.48649L80 5.60318L85.2807 4.50102L88 0.00100708Z" fill="#FFB429"/>
</svg>
