<svg width="24" height="25" viewBox="0 0 24 25" fill="none" xmlns="http://www.w3.org/2000/svg">
<path d="M1 4.00178V10.0018M1 10.0018H7M1 10.0018L5.64 5.64178C7.02091 4.2632 8.81245 3.37075 10.7447 3.0989C12.6769 2.82704 14.6451 3.19051 16.3528 4.13454C18.0605 5.07857 19.4152 6.55202 20.2126 8.33288C21.0101 10.1137 21.2072 12.1055 20.7742 14.0081C20.3413 15.9108 19.3017 17.6211 17.8121 18.8815C16.3226 20.142 14.4637 20.8841 12.5157 20.9963C10.5677 21.1084 8.63598 20.5844 7.01166 19.5032C5.38734 18.422 4.15839 16.8422 3.51 15.0018" stroke="#121417" stroke-width="2" stroke-linecap="round" stroke-linejoin="round"/>
</svg>
