<svg width="16" height="16" viewBox="0 0 16 16" fill="none" xmlns="http://www.w3.org/2000/svg">
<g clip-path="url(#clip0_1401_13094)">
<path d="M5.72667 9.00768L10.28 11.661M10.2733 4.34102L5.72667 6.99435M14 3.33435C14 4.43892 13.1046 5.33435 12 5.33435C10.8954 5.33435 10 4.43892 10 3.33435C10 2.22978 10.8954 1.33435 12 1.33435C13.1046 1.33435 14 2.22978 14 3.33435ZM6 8.00102C6 9.10559 5.10457 10.001 4 10.001C2.89543 10.001 2 9.10559 2 8.00102C2 6.89645 2.89543 6.00102 4 6.00102C5.10457 6.00102 6 6.89645 6 8.00102ZM14 12.6677C14 13.7723 13.1046 14.6677 12 14.6677C10.8954 14.6677 10 13.7723 10 12.6677C10 11.5631 10.8954 10.6677 12 10.6677C13.1046 10.6677 14 11.5631 14 12.6677Z" stroke="#0059D6" stroke-width="1.6" stroke-linecap="round" stroke-linejoin="round"/>
</g>
<defs>
<clipPath id="clip0_1401_13094">
<rect width="16" height="16" fill="white" transform="translate(0 0.00100708)"/>
</clipPath>
</defs>
</svg>
