<svg width="10" height="5" viewBox="0 0 10 5" fill="none" xmlns="http://www.w3.org/2000/svg">
<mask id="path-1-outside-1_972_11155" x="0" y="-1" width="10" height="6" fill="black">
<rect fill="white" y="-1" width="10" height="6"/>
<path d="M1 0L5 4L9 0H1Z"/>
</mask>
<path d="M1 0L5 4L9 0H1Z" fill="white"/>
<path d="M5 4L4.29289 4.70711C4.68342 5.09763 5.31658 5.09763 5.70711 4.70711L5 4ZM1 0V-1C0.595538 -1 0.230901 -0.756358 0.0761205 -0.382683C-0.0786605 -0.00900904 0.00689522 0.421109 0.292893 0.707107L1 0ZM9 0L9.70711 0.707107C9.9931 0.421109 10.0787 -0.00900904 9.92388 -0.382683C9.7691 -0.756358 9.40446 -1 9 -1V0ZM5.70711 3.29289L1.70711 -0.707107L0.292893 0.707107L4.29289 4.70711L5.70711 3.29289ZM1 1H9V-1H1V1ZM8.29289 -0.707107L4.29289 3.29289L5.70711 4.70711L9.70711 0.707107L8.29289 -0.707107Z" fill="#DDE0E4" mask="url(#path-1-outside-1_972_11155)"/>
</svg>
