<svg width="20" height="20" viewBox="0 0 20 20" fill="none" xmlns="http://www.w3.org/2000/svg">
<path d="M19.1673 2.50106C18.3693 3.06395 17.4857 3.49448 16.5507 3.77606C16.0488 3.19898 15.3818 2.78997 14.6398 2.60433C13.8979 2.41869 13.1169 2.46539 12.4024 2.7381C11.6879 3.01081 11.0744 3.49639 10.6448 4.12915C10.2153 4.76192 9.9904 5.51134 10.0007 6.27606V7.10939C8.53618 7.14736 7.08505 6.82257 5.77649 6.16393C4.46794 5.50529 3.34258 4.53325 2.50065 3.33439C2.50065 3.33439 -0.832682 10.8344 6.66732 14.1677C4.95109 15.3327 2.90661 15.9168 0.833984 15.8344C8.33398 20.0011 17.5006 15.8344 17.5006 6.25106C17.4999 6.01893 17.4776 5.78738 17.434 5.55939C18.2845 4.72063 18.8847 3.66165 19.1673 2.50106Z" stroke="white" stroke-width="1.6" stroke-linecap="round" stroke-linejoin="round"/>
</svg>
