<svg width="224" height="30" viewBox="0 0 224 30" fill="none" xmlns="http://www.w3.org/2000/svg">
<path d="M184.444 25.8425C184.818 25.8507 185.186 25.9354 185.526 26.0914C186.72 26.8022 188.126 27.0704 189.498 26.8489C190.744 26.8004 191.988 26.9991 193.156 27.4333C194.93 28.1146 196.809 28.4809 198.709 28.5155C200.322 28.5155 201.891 29.0674 203.655 29.0349L204.738 29.1107C204.938 29.1153 205.135 29.0609 205.304 28.9541C205.473 28.8474 205.607 28.6932 205.689 28.5107C205.771 28.3282 205.798 28.1255 205.765 27.9281C205.732 27.7307 205.642 27.5473 205.506 27.4008C205.021 26.8134 204.58 26.1913 204.186 25.5395C204.056 25.204 204.186 24.8902 204.272 24.4573H203.948L204.121 24.3058C204.424 24.4898 204.727 24.8361 205.041 24.8577C205.328 24.9893 205.646 25.0407 205.96 25.0064C206.275 24.9721 206.574 24.8534 206.827 24.6629L207.812 23.808C207.996 23.3427 208.039 22.8665 208.234 22.3903C208.291 22.1545 208.415 21.9403 208.591 21.7735C208.764 21.622 209.1 21.4921 209.251 21.6653C209.403 21.8384 209.543 22.0008 209.522 22.3254C209.446 23.4076 208.439 23.5375 207.649 23.7972C208.162 24.7373 208.871 25.5566 209.727 26.1996C209.413 26.642 209.134 27.1089 208.894 27.5956C208.799 27.768 208.741 27.9581 208.724 28.154C208.707 28.3499 208.73 28.5472 208.793 28.7335C208.857 28.9198 208.958 29.0908 209.091 29.2359C209.223 29.3809 209.385 29.4968 209.565 29.576C210.011 29.7934 210.49 29.9359 210.983 29.9981C211.297 29.9981 211.784 30.0522 211.979 29.5868C212.062 29.4205 212.112 29.2391 212.125 29.0534C212.138 28.8676 212.114 28.6811 212.054 28.5047C211.924 28.0177 211.47 27.6606 211.188 27.1628C211.048 26.8273 210.745 26.481 210.615 26.1563C210.355 25.3339 210.918 24.0785 211.697 24.1435C213.31 24.0894 214.749 24.1976 216.362 24.1435C217.921 24.8902 219.717 24.5439 221.114 25.2257C221.401 25.3596 221.719 25.4122 222.034 25.3779C222.349 25.3436 222.648 25.2235 222.9 25.0309C223.275 24.8189 223.579 24.4997 223.771 24.114C223.964 23.7284 224.038 23.294 223.982 22.8665C223.982 22.7042 223.7 22.3579 223.549 22.1847L222.618 21.6436C222.276 21.4603 221.968 21.2186 221.709 20.9294C222.202 20.1789 222.737 19.4563 223.311 18.765C224.014 17.8452 223.863 17.6828 222.77 17.2716C221.198 16.6752 219.525 16.3921 217.845 16.4383C218.3 16.7955 218.927 17.1634 219.371 17.5205C219.523 17.6937 219.663 18.0291 219.49 18.1807C219.317 18.3322 219.133 18.6352 218.83 18.4512C218.18 18.4512 217.553 18.2023 216.914 18.159C216.752 18.159 216.622 17.8127 216.633 17.6504L216.968 17.3582C217.315 17.0552 218.116 17.1093 217.845 16.4492C215.335 15.4782 212.668 14.9757 209.976 14.9666C209.922 15.6051 210.041 16.2544 209.976 16.8929C209.976 17.2175 209.608 17.5097 209.413 17.975C209.035 18.7542 208.385 18.8732 207.433 18.646C206.739 18.3134 206.128 17.8289 205.647 17.2283C204.77 16.0379 204.435 16.1462 203.385 17.3907C203.06 17.3907 202.746 17.3366 202.735 17.4989C202.032 18.2564 201.339 19.0139 200.636 19.7606C200.473 19.9121 200.765 20.2584 200.755 20.4208H201.079C201.902 20.1502 202.735 19.7282 203.558 19.4684C203.72 19.4684 203.872 19.4684 203.861 19.6524C203.85 19.8364 204.153 20.1502 203.861 20.2909C201.698 21.8879 199.641 23.623 197.702 25.4854C195.31 25.1499 193.081 24.8252 190.862 24.3491C190.353 24.2444 189.864 24.0619 189.412 23.808C189.78 23.1912 191.219 23.2994 190.342 22.109C190.039 21.7627 190.245 21.135 190.277 20.6588C190.093 18.7109 190.083 16.6223 188.762 14.9125C188.459 14.577 188.816 14.1116 189.303 13.9926C189.79 13.8736 190.277 13.8952 190.018 13.0728C189.866 12.8996 190.212 12.6074 190.537 12.6291C190.862 12.6507 191.62 12.8671 191.771 13.3649C192.389 14.1783 192.764 15.1501 192.853 16.1678C192.94 17.1418 193.048 17.9534 193.146 18.765C193.139 18.9354 193.173 19.105 193.245 19.2597C193.316 19.4145 193.424 19.5502 193.558 19.6557C193.692 19.7612 193.849 19.8335 194.016 19.8668C194.183 19.9001 194.356 19.8934 194.52 19.8472C195.175 19.8606 195.828 19.7989 196.468 19.6632C196.468 19.5009 196.468 19.3386 196.328 19.3278C196.036 18.9815 195.722 18.7975 195.581 18.4728C195.44 18.1482 195.949 17.856 196.295 17.553C196.966 17.1201 196.512 16.763 196.23 16.2652C195.787 15.5942 195.971 15.2804 196.642 15.0099C197.313 14.7393 197.951 14.6203 198.46 14.3281C198.959 14.0032 199.532 13.8091 200.126 13.7637C200.72 13.7184 201.316 13.8231 201.859 14.0684C202.316 15.1023 202.836 16.107 203.417 17.0768C203.828 15.8215 204.229 14.7177 205.582 14.1766C205.733 14.1766 205.917 13.8736 206.091 13.7221C203.308 12.8357 200.437 12.2551 197.529 11.9906C194.975 11.6443 192.431 11.3088 190.05 10.811C187.331 10.1587 184.561 9.74589 181.77 9.57731C178.723 9.30365 175.692 8.87382 172.689 8.28951L168.847 7.57527C168.366 7.35837 167.981 6.97357 167.765 6.49309C167.596 6.08588 167.277 5.75895 166.874 5.57974C166.472 5.40053 166.015 5.38271 165.6 5.52995C164.407 5.96734 163.122 6.09759 161.866 5.90871C161.221 5.89186 160.581 5.79368 159.961 5.61652C158.006 4.99063 155.963 4.68012 153.91 4.69667C153.29 4.64083 152.666 4.7648 152.114 5.05379C151.696 5.36555 151.19 5.53401 150.669 5.53401C150.148 5.53401 149.641 5.36555 149.224 5.05379C148.831 4.72392 148.352 4.51385 147.844 4.44861C147.335 4.38337 146.819 4.46572 146.356 4.68585C145.035 5.07543 143.574 5.29187 141.94 5.65981C140.219 4.89146 138.13 4.90228 136.279 3.79846C135.921 3.6861 135.533 3.71714 135.197 3.88503C134.906 4.14667 134.562 4.34062 134.187 4.4529C133.813 4.56519 133.418 4.593 133.032 4.53434C132.393 4.53434 131.733 4.59927 131.094 4.53434C130.932 4.53434 130.467 4.32873 130.477 4.1664C130.358 3.67942 130.845 3.54956 131.17 3.5712L131.506 3.27901C130.328 3.22695 129.156 3.08952 127.999 2.86778C125.932 2.55395 123.832 2.56477 121.938 2.11025C121.209 1.84665 120.42 1.79936 119.665 1.9741C118.911 2.14883 118.223 2.53813 117.684 3.09504L117.857 2.94353L118.637 3.3223C117.362 3.15683 116.079 3.06649 114.794 3.05175C113.668 2.99376 112.547 2.85999 111.439 2.65135C111.319 2.62745 111.212 2.56233 111.136 2.46737C110.984 2.29423 111.136 1.99121 111.482 2.01286C113.352 1.65317 115.25 1.46481 117.154 1.45012C117.271 1.42545 117.379 1.37191 117.47 1.29441C117.561 1.2169 117.631 1.11789 117.673 1.00643C117.673 0.844102 117.543 0.508625 117.392 0.497804C116.794 0.233148 116.139 0.121574 115.487 0.173149C113.885 0.0541091 112.435 0.173149 110.833 0C109.22 0 107.445 0.0757527 105.832 0.129862C102.585 0.216436 99.3382 0.313833 96.1561 0.562734L92.7575 0.800814C89.0559 0.854924 85.3543 0.800814 81.6526 0.800814C80.6225 0.819656 79.5951 0.913696 78.5787 1.08218C77.0875 1.39811 75.568 1.56128 74.0437 1.56916C73.6815 1.52109 73.3133 1.54686 72.9613 1.64492C70.7966 2.78121 68.4155 2.2834 66.1533 2.2834C62.2874 2.28562 58.4283 2.60777 54.6155 3.24655C53.3166 3.31148 52.1585 3.87421 50.9138 3.14915C49.5153 3.11719 48.1162 3.17503 46.7251 3.3223C43.9435 3.92832 41.216 3.89585 38.4343 4.50188C37.1138 4.89146 35.6527 5.1079 34.343 5.49748C32.2848 6.13593 30.1445 6.47132 27.9896 6.49309C26.7258 6.49903 25.469 6.68115 24.2555 7.03418L21.3007 7.79171C20.6583 7.86826 20.0658 8.176 19.6339 8.65745C18.4756 9.50786 17.1045 10.021 15.6725 10.14C14.2572 10.1778 12.9099 10.7546 11.9059 11.7525C11.522 12.1371 11.0608 12.4358 10.5529 12.6291C7.8254 12.6291 5.76893 14.209 3.30117 14.999C2.72097 15.2673 2.22917 15.6952 1.88329 16.2327C1.34954 17.4046 0.719621 18.5304 0 19.5983L0 19.923C0.0364408 20.5059 0.233751 21.0673 0.570022 21.5449C0.906293 22.0225 1.36837 22.3975 1.90494 22.6284C2.37035 22.8232 2.84658 22.8557 3.32282 23.0505C3.5709 23.1555 3.7672 23.3546 3.86865 23.6041C3.97011 23.8537 3.96843 24.1333 3.864 24.3816C3.80213 24.7649 3.6661 25.1325 3.46353 25.4637C3.41845 25.6932 3.44892 25.9311 3.55038 26.1418C3.65185 26.3525 3.81883 26.5246 4.02635 26.6325C4.52532 26.7761 4.95812 27.0901 5.24941 27.5199C6.3967 29.5327 8.27999 30.1496 10.5529 29.8357C11.3647 29.7275 12.0358 29.457 12.8475 29.3488C16.5222 28.2064 20.2937 27.4022 24.1148 26.9463C26.7474 26.5005 29.4036 26.2079 32.0701 26.0698C32.5463 26.0698 33.0442 25.8209 33.5313 25.8533C35.2955 25.8533 36.984 24.7711 38.7374 24.9335C40.4908 25.2257 42.32 24.3924 44.0734 24.6737C44.6044 24.5406 45.1494 24.4716 45.6969 24.4681C50.0018 23.8425 54.3377 23.4523 58.6851 23.2994C63.3717 22.9964 68.0691 22.5202 72.918 22.2172C76.3166 21.9791 79.5528 21.7194 82.919 21.806L87.086 21.6436C87.7216 21.4815 88.3878 21.4815 89.0234 21.6436C90.9494 21.8563 92.8943 21.8309 94.814 21.5679C95.1387 21.5679 95.6258 21.4705 95.9505 21.4921C98.2235 21.8589 100.536 21.9099 102.823 21.6436C105.086 21.4813 107.488 21.6436 109.75 21.4921H110.551C113.268 21.6869 116.19 21.4164 118.907 21.6112C121.808 21.6112 124.525 21.8492 127.414 21.8925C132.393 22.0873 137.372 22.1198 142.329 22.6392C144.342 22.9459 146.376 23.0907 148.412 23.0721L149.213 23.1262C152.211 23.9811 155.296 23.5591 158.337 23.7755C161.018 23.8375 163.687 24.138 166.314 24.6737C167.422 24.8824 168.543 25.0162 169.669 25.0742L182.279 26.4593C182.666 26.5106 183.059 26.4782 183.433 26.3644C183.806 26.2505 184.151 26.0577 184.444 25.7992C184.449 25.7581 184.47 25.7206 184.502 25.6944C184.534 25.6682 184.575 25.6554 184.617 25.6585L184.444 25.8425ZM176.932 18.3971C177.116 18.0833 176.932 18.0724 176.791 18.2239L176.932 18.3971C177.094 18.3971 177.105 18.2456 177.268 18.2564C177.094 18.3971 177.094 18.3971 176.932 18.3971ZM171.997 17.7153C172.354 17.2608 172.873 16.6331 173.23 16.2003C172.429 16.1353 171.975 15.789 172.148 14.999C172.257 14.645 172.232 14.2635 172.078 13.9265C171.925 13.5896 171.653 13.3205 171.315 13.1702C171.163 12.997 170.849 12.9754 170.698 12.8022C170.546 12.6291 170.698 12.1637 170.698 12.1637C171.309 11.8185 172.018 11.6894 172.711 11.7974C173.405 11.9054 174.042 12.2442 174.518 12.7589C174.67 12.9321 174.67 12.9321 174.659 13.0836C174.269 14.0251 175.514 14.5986 175.125 15.5293C174.464 15.8107 173.793 16.0812 172.96 16.3518C173.308 16.5267 173.62 16.7653 173.88 17.0552C173.94 17.1286 173.982 17.2149 174.003 17.3071C174.024 17.3994 174.023 17.4953 174.001 17.5874C173.979 17.6795 173.936 17.7653 173.876 17.8381C173.815 17.911 173.739 17.9689 173.653 18.0075C173.003 17.9534 172.375 17.7478 171.899 17.7153C171.385 18.2917 170.667 18.645 169.897 18.7001C169.779 18.7253 169.657 18.7268 169.538 18.7045C169.42 18.6821 169.307 18.6363 169.206 18.5699C169.105 18.5034 169.019 18.4175 168.951 18.3172C168.884 18.217 168.838 18.1043 168.814 17.9859C168.766 17.7477 168.815 17.5003 168.948 17.2975C169.082 17.0948 169.291 16.9532 169.529 16.9037C169.969 16.7235 170.46 16.7063 170.912 16.8551C171.364 17.0038 171.749 17.3088 171.997 17.7153ZM150.241 9.25265C151.031 9.46909 151.67 9.51238 152.298 9.71799C152.774 9.71799 153.055 10.4106 153.012 10.8976C152.967 11.0693 152.88 11.2273 152.759 11.3575C152.638 11.4877 152.487 11.5862 152.319 11.6443C150.33 11.6423 148.349 11.3951 146.421 10.9084C146.258 10.9084 146.128 10.3998 146.301 10.2591C146.507 9.93168 146.804 9.67199 147.157 9.51238C148.176 9.34578 149.208 9.25894 150.241 9.25265ZM184.184 13.7654C183.956 14.7068 182.95 15.2804 182.723 16.2327C182.723 16.3951 182.052 16.6656 181.727 16.644C181.402 16.6223 181.11 16.276 180.796 16.092C180.644 16.092 180.655 15.9189 180.666 15.7674C180.926 14.3389 180.147 13.9601 179.032 13.8736C178.793 13.8187 178.577 13.69 178.415 13.5056C178.252 13.5056 178.263 13.3433 178.274 13.181C178.285 13.0186 178.274 12.8563 178.458 12.8671C179.351 12.35 180.371 12.0915 181.402 12.1204C181.786 12.1818 182.153 12.3178 182.484 12.5208C183.027 12.968 183.594 13.3835 184.184 13.7654ZM218.04 21.806L217.975 22.7691C217.975 23.0938 217.434 23.5375 217.131 23.3535L214.598 22.7258C214.52 22.6304 214.475 22.513 214.468 22.3903C214.832 21.4761 215.27 20.593 215.778 19.7498C215.778 19.5875 215.951 19.5983 216.113 19.6091C216.6 19.6257 217.082 19.7169 217.542 19.8797C218.007 20.0745 218.451 20.5831 218.256 21.0484C218.221 21.3101 218.148 21.5652 218.04 21.806ZM97.4982 1.94793C99.9108 1.6306 102.363 1.8036 104.707 2.45655C101.644 2.56477 99.5764 2.73792 97.4982 1.94793ZM161.66 11.5144C161.66 11.6659 161.487 11.6551 161.476 11.8174C161.151 11.9915 160.783 12.0696 160.415 12.0428C160.047 12.016 159.694 11.8853 159.398 11.6659C159.236 11.6659 159.246 11.5036 159.257 11.3413C159.268 11.1789 159.257 11.0166 159.441 11.0274C159.767 10.8702 160.124 10.7886 160.486 10.7886C160.847 10.7886 161.204 10.8702 161.53 11.0274C161.52 11.1995 161.565 11.3703 161.66 11.5144ZM180.839 20.1719C180.98 20.345 181.305 20.3667 181.456 20.5398C181.608 20.713 181.456 21.016 181.402 21.1783C180.731 21.6112 179.919 21.7194 179.8 21.1783C179.794 20.9515 179.866 20.7295 180.006 20.5506C180.006 20.3883 180.168 20.3991 180.341 20.2584C180.43 20.274 180.52 20.2694 180.606 20.245C180.693 20.2206 180.772 20.1772 180.839 20.1178V20.1719ZM188.946 19.3061C189.422 19.3061 189.704 19.8364 189.379 19.9771C189.183 20.092 188.953 20.1342 188.73 20.0961C188.49 20.0413 188.275 19.9125 188.113 19.7282C187.972 19.3386 188.459 19.2195 188.946 19.252V19.3061ZM164.572 11.2872C164.723 11.4603 165.048 11.4819 165.189 11.6551C165.197 11.8821 165.124 12.1048 164.983 12.2828C164.898 12.3051 164.809 12.3087 164.722 12.2932C164.636 12.2777 164.553 12.2436 164.481 12.1931C164.409 12.1427 164.349 12.0771 164.305 12.001C164.26 11.9249 164.233 11.8401 164.225 11.7525C164.074 11.5252 164.409 11.3846 164.572 11.233V11.2872ZM186.392 21.2108C186.716 21.2108 186.857 21.4056 186.673 21.7194C186.673 21.8709 186.5 22.0224 186.511 21.8601C186.348 21.8601 186.035 21.6653 186.045 21.5138C186.056 21.3623 186.067 21.135 186.392 21.1567V21.2108ZM221.98 23.1046V23.5916C221.935 23.6589 221.874 23.7132 221.802 23.749C221.729 23.7848 221.649 23.8008 221.569 23.7953C221.488 23.7897 221.411 23.763 221.344 23.7177C221.277 23.6724 221.224 23.6102 221.189 23.5375V23.2128C221.33 23.0072 221.655 23.0288 221.98 23.0505V23.1046ZM140.219 9.81539C140.056 9.81539 139.732 9.94525 139.569 9.93443C139.255 9.75046 139.288 9.4258 139.569 9.45827C139.742 9.30676 140.056 9.45827 140.208 9.45827L140.219 9.81539ZM132.891 8.80896C132.891 8.65745 132.74 8.64663 132.75 8.4843C132.761 8.32198 132.924 8.3328 133.086 8.34362C133.411 8.34362 133.551 8.53841 133.216 8.84142L132.891 8.80896ZM164.712 18.3213L164.853 18.6568H164.528L164.712 18.3213ZM186.803 17.6504C186.468 17.7911 186.316 17.7802 186.5 17.4664C186.622 17.4619 186.738 17.4117 186.825 17.3257L186.803 17.6504Z" fill="#FFDE5C"/>
</svg>
