<svg width="183" height="17" viewBox="0 0 183 17" fill="none" xmlns="http://www.w3.org/2000/svg">
<path d="M150.684 14.6441C150.989 14.6487 151.29 14.6967 151.568 14.7851C152.544 15.1879 153.692 15.3399 154.813 15.2144C155.831 15.1869 156.847 15.2995 157.802 15.5455C159.251 15.9316 160.786 16.1392 162.338 16.1588C163.656 16.1588 164.938 16.4715 166.379 16.4531L167.263 16.4961C167.427 16.4987 167.588 16.4678 167.726 16.4073C167.864 16.3469 167.974 16.2595 168.041 16.156C168.108 16.0526 168.129 15.9378 168.103 15.8259C168.076 15.7141 168.003 15.6102 167.891 15.5271C167.495 15.1942 167.134 14.8417 166.812 14.4724C166.706 14.2823 166.812 14.1044 166.883 13.8591H166.618L166.759 13.7733C167.007 13.8775 167.255 14.0738 167.511 14.086C167.746 14.1606 168.006 14.1897 168.262 14.1703C168.519 14.1508 168.764 14.0836 168.97 13.9757L169.775 13.4912C169.925 13.2275 169.96 12.9577 170.119 12.6879C170.166 12.5542 170.267 12.4328 170.411 12.3383C170.553 12.2525 170.827 12.1789 170.951 12.277C171.074 12.3751 171.189 12.4671 171.172 12.6511C171.11 13.2643 170.287 13.3379 169.642 13.4851C170.061 14.0178 170.64 14.4821 171.34 14.8464C171.083 15.0971 170.855 15.3617 170.659 15.6375C170.581 15.7352 170.534 15.8429 170.52 15.9539C170.506 16.0649 170.525 16.1768 170.577 16.2823C170.628 16.3879 170.711 16.4848 170.82 16.567C170.928 16.6492 171.06 16.7148 171.207 16.7597C171.572 16.8829 171.963 16.9637 172.365 16.9989C172.622 16.9989 173.02 17.0296 173.179 16.7659C173.247 16.6716 173.288 16.5688 173.299 16.4636C173.309 16.3583 173.29 16.2526 173.241 16.1526C173.135 15.8767 172.763 15.6743 172.533 15.3922C172.418 15.2021 172.171 15.0059 172.065 14.8219C171.853 14.3559 172.312 13.6445 172.949 13.6813C174.267 13.6506 175.443 13.712 176.76 13.6813C178.033 14.1044 179.501 13.9082 180.642 14.2945C180.876 14.3704 181.136 14.4003 181.394 14.3808C181.651 14.3613 181.896 14.2933 182.101 14.1842C182.408 14.064 182.656 13.8831 182.813 13.6646C182.971 13.4461 183.031 13.1999 182.985 12.9577C182.985 12.8657 182.755 12.6695 182.631 12.5713L181.871 12.2647C181.591 12.1608 181.34 12.0239 181.128 11.86C181.531 11.4347 181.968 11.0252 182.437 10.6335C183.012 10.1123 182.888 10.0203 181.995 9.78725C180.711 9.4493 179.344 9.28888 177.972 9.31506C178.343 9.51743 178.856 9.72593 179.218 9.9283C179.342 10.0264 179.457 10.2165 179.316 10.3024C179.174 10.3882 179.024 10.5599 178.776 10.4557C178.246 10.4557 177.733 10.3146 177.211 10.2901C177.078 10.2901 176.972 10.0939 176.981 10.0019L177.255 9.83631C177.538 9.6646 178.193 9.69526 177.972 9.32119C175.921 8.77098 173.742 8.48622 171.543 8.48106C171.499 8.84287 171.596 9.21081 171.543 9.57262C171.543 9.75659 171.242 9.92216 171.083 10.1859C170.774 10.6274 170.243 10.6948 169.465 10.5661C168.898 10.3776 168.399 10.103 168.006 9.76272C167.29 9.08816 167.016 9.14948 166.158 9.85471C165.893 9.85471 165.636 9.82405 165.627 9.91603C165.053 10.3453 164.487 10.7746 163.912 11.1977C163.779 11.2835 164.018 11.4798 164.009 11.5718H164.275C164.947 11.4185 165.628 11.1793 166.3 11.0321C166.432 11.0321 166.556 11.0321 166.547 11.1364C166.538 11.2406 166.786 11.4185 166.547 11.4982C164.78 12.4031 163.1 13.3864 161.516 14.4417C159.562 14.2516 157.74 14.0676 155.927 13.7978C155.512 13.7385 155.112 13.6351 154.742 13.4912C155.043 13.1417 156.219 13.203 155.503 12.5284C155.255 12.3322 155.423 11.9765 155.45 11.7067C155.3 10.6029 155.291 9.41931 154.212 8.4504C153.964 8.26029 154.256 7.9966 154.654 7.92914C155.052 7.86169 155.45 7.87395 155.238 7.40789C155.114 7.30978 155.397 7.1442 155.662 7.15647C155.927 7.16873 156.546 7.29138 156.67 7.57347C157.175 8.03439 157.482 8.58505 157.554 9.16175C157.625 9.71366 157.714 10.1736 157.793 10.6335C157.788 10.7301 157.816 10.8261 157.874 10.9138C157.933 11.0016 158.02 11.0784 158.13 11.1382C158.239 11.198 158.367 11.239 158.504 11.2579C158.641 11.2767 158.782 11.2729 158.916 11.2468C159.451 11.2544 159.985 11.2194 160.508 11.1425C160.508 11.0505 160.508 10.9585 160.393 10.9524C160.154 10.7562 159.898 10.6519 159.783 10.4679C159.668 10.284 160.083 10.1184 160.366 9.94669C160.914 9.7014 160.543 9.49903 160.313 9.21694C159.951 8.83673 160.101 8.6589 160.649 8.50559C161.197 8.35228 161.719 8.28482 162.135 8.11925C162.543 7.93515 163.011 7.82517 163.496 7.79945C163.981 7.77373 164.468 7.8331 164.911 7.97207C165.285 8.55794 165.71 9.12729 166.185 9.67687C166.521 8.96551 166.848 8.34001 167.953 8.03339C168.077 8.03339 168.227 7.86169 168.369 7.77584C166.096 7.27356 163.75 6.94456 161.374 6.79466C159.287 6.59842 157.21 6.40832 155.264 6.12623C153.043 5.7566 150.78 5.52267 148.5 5.42714C146.01 5.27207 143.534 5.0285 141.081 4.69739L137.942 4.29265C137.549 4.16975 137.235 3.95169 137.058 3.67942C136.92 3.44866 136.659 3.2634 136.33 3.16185C136.001 3.0603 135.629 3.0502 135.289 3.13364C134.314 3.38149 133.265 3.4553 132.238 3.34827C131.712 3.33872 131.189 3.28309 130.682 3.1827C129.085 2.82802 127.416 2.65207 125.739 2.66145C125.232 2.6298 124.723 2.70005 124.271 2.86381C123.931 3.04048 123.517 3.13594 123.091 3.13594C122.665 3.13594 122.251 3.04048 121.911 2.86381C121.59 2.67689 121.199 2.55785 120.783 2.52088C120.368 2.48391 119.946 2.53058 119.567 2.65531C118.489 2.87608 117.295 2.99873 115.96 3.20723C114.554 2.77183 112.847 2.77796 111.335 2.15246C111.042 2.08879 110.725 2.10638 110.451 2.20152C110.214 2.34978 109.932 2.45968 109.626 2.52331C109.32 2.58694 108.998 2.6027 108.682 2.56946C108.161 2.56946 107.621 2.60625 107.099 2.56946C106.967 2.56946 106.587 2.45294 106.595 2.36096C106.498 2.085 106.896 2.01141 107.161 2.02368L107.435 1.85811C106.474 1.82861 105.516 1.75073 104.571 1.62508C102.882 1.44724 101.166 1.45337 99.6188 1.19581C99.0237 1.04643 98.3789 1.01964 97.7623 1.11866C97.1457 1.21767 96.5836 1.43827 96.1437 1.75386L96.2852 1.668L96.9218 1.88264C95.8807 1.78887 94.8326 1.73768 93.7828 1.72933C92.8627 1.69646 91.947 1.62066 91.0416 1.50243C90.944 1.48889 90.8564 1.45199 90.794 1.39818C90.6702 1.30006 90.794 1.12835 91.077 1.14062C92.6043 0.936795 94.1552 0.830058 95.7104 0.821737C95.8058 0.807755 95.8947 0.777418 95.9688 0.733497C96.0429 0.689577 96.1 0.633473 96.1349 0.57031C96.1349 0.478324 96.0288 0.288221 95.905 0.282089C95.4163 0.132117 94.8814 0.0688917 94.3487 0.0981178C93.04 0.0306618 91.8551 0.0981178 90.5464 0C89.2289 0 87.7788 0.0429265 86.4612 0.0735883C83.8085 0.122647 81.1558 0.177839 78.5561 0.318883L75.7796 0.453795C72.7555 0.484457 69.7314 0.453795 66.7073 0.453795C65.8657 0.464472 65.0264 0.517761 64.196 0.613236C62.9777 0.792264 61.7363 0.884727 60.491 0.889193C60.1951 0.861952 59.8943 0.876554 59.6068 0.932119C57.8383 1.57602 55.893 1.29393 54.0449 1.29393C50.8866 1.29518 47.7338 1.47773 44.6189 1.83971C43.5578 1.8765 42.6117 2.19539 41.5948 1.78452C40.4523 1.76641 39.3092 1.79918 38.1728 1.88264C35.9002 2.22605 33.672 2.20765 31.3995 2.55106C30.3207 2.77183 29.127 2.89447 28.057 3.11524C26.3755 3.47703 24.627 3.66708 22.8665 3.67942C21.834 3.68278 20.8073 3.78598 19.8159 3.98604L17.4019 4.4153C16.8771 4.45868 16.3931 4.63307 16.0402 4.90589C15.0939 5.38778 13.9738 5.67857 12.8038 5.74602C11.6477 5.7674 10.5469 6.09425 9.72667 6.65975C9.41303 6.87766 9.0363 7.04696 8.62137 7.15647C6.39307 7.15647 4.71301 8.05179 2.69694 8.49945C2.22294 8.65148 1.82115 8.89396 1.53858 9.19854C1.10252 9.86263 0.587904 10.5005 0 11.1057L0 11.2897C0.0297708 11.62 0.190966 11.9381 0.465687 12.2088C0.740409 12.4794 1.11791 12.6919 1.55627 12.8228C1.93649 12.9332 2.32556 12.9515 2.71462 13.0619C2.9173 13.1214 3.07767 13.2343 3.16055 13.3757C3.24343 13.5171 3.24207 13.6755 3.15675 13.8162C3.1062 14.0334 2.99507 14.2417 2.82958 14.4294C2.79275 14.5595 2.81765 14.6943 2.90054 14.8137C2.98343 14.9331 3.11985 15.0306 3.28938 15.0917C3.69703 15.1731 4.05061 15.3511 4.28858 15.5946C5.22587 16.7352 6.76446 17.0848 8.62137 16.9069C9.28455 16.8456 9.83278 16.6923 10.496 16.631C13.4981 15.9836 16.5792 15.5279 19.7009 15.2696C21.8516 15.017 24.0217 14.8511 26.2001 14.7729C26.5892 14.7729 26.9959 14.6318 27.3938 14.6502C28.8352 14.6502 30.2146 14.037 31.647 14.129C33.0795 14.2945 34.5739 13.8223 36.0064 13.9818C36.4402 13.9063 36.8855 13.8672 37.3327 13.8653C40.8497 13.5107 44.3919 13.2896 47.9436 13.203C51.7724 13.0313 55.61 12.7614 59.5714 12.5897C62.348 12.4548 64.9918 12.3077 67.7418 12.3567L71.1462 12.2647C71.6654 12.1728 72.2097 12.1728 72.729 12.2647C74.3024 12.3852 75.8913 12.3708 77.4597 12.2218C77.7249 12.2218 78.1228 12.1666 78.3881 12.1789C80.2451 12.3867 82.1346 12.4156 84.0031 12.2647C85.8511 12.1727 87.8141 12.2647 89.6622 12.1789H90.3165C92.536 12.2893 94.9234 12.1359 97.1429 12.2463C99.5127 12.2463 101.732 12.3812 104.093 12.4058C108.161 12.5162 112.228 12.5345 116.278 12.8289C117.922 13.0027 119.584 13.0847 121.247 13.0742L121.902 13.1049C124.351 13.5893 126.871 13.3502 129.356 13.4728C131.546 13.5079 133.727 13.6782 135.873 13.9818C136.778 14.1 137.694 14.1758 138.614 14.2087L148.915 14.9936C149.232 15.0227 149.553 15.0043 149.858 14.9398C150.163 14.8753 150.445 14.7661 150.684 14.6196C150.688 14.5962 150.705 14.575 150.732 14.5602C150.758 14.5453 150.791 14.5381 150.825 14.5398L150.684 14.6441ZM144.547 10.425C144.697 10.2472 144.547 10.241 144.432 10.3269L144.547 10.425C144.68 10.425 144.689 10.3392 144.821 10.3453C144.68 10.425 144.68 10.425 144.547 10.425ZM140.515 10.0387C140.807 9.78112 141.231 9.42544 141.523 9.18015C140.869 9.14335 140.497 8.94712 140.639 8.49945C140.728 8.29885 140.707 8.08265 140.582 7.8917C140.456 7.70076 140.234 7.54828 139.958 7.46309C139.834 7.36497 139.578 7.3527 139.454 7.25458C139.33 7.15647 139.454 6.89278 139.454 6.89278C139.953 6.69713 140.533 6.62399 141.099 6.6852C141.666 6.74641 142.186 6.93838 142.575 7.23006C142.699 7.32817 142.699 7.32817 142.69 7.41403C142.372 7.94754 143.389 8.27256 143.07 8.79994C142.531 8.95938 141.983 9.11269 141.302 9.266C141.586 9.36514 141.841 9.50034 142.054 9.6646C142.102 9.70623 142.137 9.75508 142.154 9.80738C142.171 9.85968 142.171 9.91402 142.153 9.9662C142.135 10.0184 142.1 10.067 142.05 10.1083C142.001 10.1495 141.939 10.1824 141.868 10.2043C141.337 10.1736 140.824 10.0571 140.435 10.0387C140.016 10.3653 139.429 10.5655 138.8 10.5967C138.703 10.611 138.604 10.6119 138.507 10.5992C138.41 10.5865 138.317 10.5606 138.235 10.5229C138.153 10.4852 138.082 10.4366 138.027 10.3798C137.972 10.3229 137.934 10.2591 137.915 10.192C137.876 10.057 137.915 9.91682 138.025 9.80193C138.134 9.68704 138.305 9.60681 138.499 9.57875C138.859 9.47668 139.26 9.46691 139.629 9.5512C139.999 9.63548 140.313 9.80831 140.515 10.0387ZM122.742 5.24317C123.387 5.36582 123.909 5.39035 124.422 5.50686C124.811 5.50686 125.041 5.89933 125.005 6.17529C124.968 6.27261 124.897 6.36212 124.799 6.43591C124.7 6.5097 124.577 6.56552 124.439 6.59842C122.814 6.59729 121.196 6.45723 119.62 6.18142C119.488 6.18142 119.382 5.8932 119.523 5.81348C119.691 5.62795 119.934 5.48079 120.222 5.39035C121.055 5.29594 121.897 5.24673 122.742 5.24317ZM150.472 7.80037C150.286 8.33388 149.464 8.6589 149.278 9.19854C149.278 9.29053 148.73 9.44384 148.464 9.43157C148.199 9.41931 147.96 9.22307 147.704 9.11882C147.58 9.11882 147.589 9.02071 147.598 8.93485C147.81 8.12538 147.173 7.91075 146.263 7.86169C146.067 7.8306 145.891 7.75765 145.759 7.65319C145.626 7.65319 145.635 7.5612 145.644 7.46922C145.652 7.37723 145.644 7.28525 145.794 7.29138C146.524 6.99835 147.356 6.85185 148.199 6.86825C148.512 6.90299 148.813 6.98008 149.083 7.09514C149.526 7.34851 149.99 7.58397 150.472 7.80037ZM178.131 12.3567L178.078 12.9025C178.078 13.0865 177.636 13.3379 177.388 13.2336L175.319 12.878C175.255 12.8239 175.218 12.7574 175.213 12.6879C175.51 12.1698 175.868 11.6694 176.283 11.1916C176.283 11.0996 176.424 11.1057 176.557 11.1118C176.955 11.1212 177.348 11.1729 177.724 11.2652C178.104 11.3755 178.467 11.6638 178.308 11.9274C178.279 12.0757 178.219 12.2203 178.131 12.3567ZM79.6526 1.10383C81.6236 0.924008 83.6266 1.02204 85.5416 1.39205C83.0392 1.45337 81.3503 1.55149 79.6526 1.10383ZM132.07 6.52483C132.07 6.61069 131.929 6.60455 131.92 6.69654C131.654 6.79516 131.354 6.83944 131.053 6.82424C130.753 6.80904 130.465 6.73499 130.222 6.61069C130.09 6.61069 130.099 6.5187 130.107 6.42672C130.116 6.33473 130.107 6.24274 130.258 6.24888C130.524 6.1598 130.816 6.11353 131.111 6.11353C131.407 6.11353 131.698 6.1598 131.964 6.24888C131.956 6.34639 131.993 6.44317 132.07 6.52483ZM147.739 11.4307C147.854 11.5288 148.119 11.5411 148.243 11.6392C148.367 11.7373 148.243 11.909 148.199 12.001C147.651 12.2463 146.988 12.3077 146.89 12.001C146.885 11.8725 146.944 11.7467 147.058 11.6454C147.058 11.5534 147.191 11.5595 147.333 11.4798C147.405 11.4886 147.479 11.486 147.549 11.4722C147.619 11.4584 147.684 11.4337 147.739 11.4001V11.4307ZM154.362 10.9401C154.751 10.9401 154.981 11.2406 154.716 11.3203C154.556 11.3855 154.368 11.4094 154.185 11.3878C153.99 11.3567 153.814 11.2838 153.681 11.1793C153.566 10.9585 153.964 10.8911 154.362 10.9095V10.9401ZM134.449 6.39605C134.573 6.49417 134.838 6.50644 134.953 6.60455C134.96 6.73322 134.9 6.85937 134.785 6.96023C134.716 6.97291 134.643 6.97493 134.572 6.96616C134.501 6.95739 134.434 6.93803 134.375 6.90944C134.316 6.88084 134.267 6.84369 134.231 6.80057C134.195 6.75745 134.173 6.7094 134.166 6.65975C134.042 6.53097 134.316 6.45125 134.449 6.36539V6.39605ZM152.275 12.0194C152.541 12.0194 152.656 12.1298 152.505 12.3077C152.505 12.3935 152.364 12.4794 152.373 12.3874C152.24 12.3874 151.984 12.277 151.992 12.1911C152.001 12.1053 152.01 11.9765 152.275 11.9888V12.0194ZM181.349 13.0926V13.3685C181.313 13.4067 181.263 13.4375 181.204 13.4578C181.145 13.4781 181.079 13.4871 181.014 13.484C180.948 13.4809 180.885 13.4657 180.83 13.44C180.776 13.4143 180.732 13.3791 180.704 13.3379V13.1539C180.819 13.0374 181.084 13.0497 181.349 13.0619V13.0926ZM114.554 5.56205C114.421 5.56205 114.156 5.63564 114.023 5.62951C113.767 5.52526 113.793 5.34129 114.023 5.35968C114.165 5.27383 114.421 5.35968 114.545 5.35968L114.554 5.56205ZM108.567 4.99174C108.567 4.90589 108.444 4.89976 108.452 4.80777C108.461 4.71579 108.594 4.72192 108.726 4.72805C108.992 4.72805 109.107 4.83843 108.833 5.01014L108.567 4.99174ZM134.564 10.3821L134.679 10.5722H134.414L134.564 10.3821ZM152.611 10.0019C152.337 10.0816 152.214 10.0755 152.364 9.89763C152.464 9.89506 152.558 9.86661 152.629 9.81791L152.611 10.0019Z" fill="#FFDE5C"/>
</svg>
