<svg width="194" height="30" viewBox="0 0 194 30" fill="none" xmlns="http://www.w3.org/2000/svg">
<path d="M159.741 25.8435C160.065 25.8517 160.384 25.9364 160.679 26.0924C161.713 26.8033 162.931 27.0714 164.119 26.85C165.198 26.8015 166.275 27.0001 167.287 27.4343C168.823 28.1157 170.451 28.4819 172.096 28.5165C173.493 28.5165 174.852 29.0684 176.38 29.036L177.317 29.1117C177.491 29.1164 177.661 29.0619 177.808 28.9552C177.954 28.8485 178.071 28.6942 178.142 28.5117C178.213 28.3292 178.235 28.1266 178.207 27.9292C178.179 27.7318 178.101 27.5484 177.983 27.4019C177.563 26.8144 177.181 26.1923 176.839 25.5405C176.727 25.205 176.839 24.8912 176.914 24.4583H176.633L176.783 24.3068C177.046 24.4908 177.308 24.8371 177.58 24.8587C177.829 24.9903 178.104 25.0417 178.376 25.0074C178.649 24.9731 178.908 24.8544 179.127 24.664L179.98 23.809C180.139 23.3437 180.176 22.8675 180.345 22.3914C180.395 22.1556 180.502 21.9413 180.655 21.7745C180.805 21.623 181.095 21.4932 181.226 21.6663C181.358 21.8395 181.479 22.0018 181.461 22.3264C181.395 23.4086 180.523 23.5385 179.839 23.7982C180.283 24.7384 180.897 25.5576 181.639 26.2007C181.366 26.6431 181.125 27.1099 180.917 27.5967C180.835 27.769 180.785 27.9592 180.77 28.155C180.755 28.3509 180.775 28.5483 180.83 28.7345C180.885 28.9208 180.972 29.0919 181.087 29.2369C181.202 29.382 181.342 29.4978 181.498 29.5771C181.885 29.7944 182.3 29.937 182.726 29.9991C182.998 29.9991 183.42 30.0532 183.589 29.5879C183.661 29.4215 183.704 29.2402 183.715 29.0544C183.727 28.8686 183.706 28.6821 183.654 28.5057C183.542 28.0187 183.148 27.6616 182.904 27.1638C182.782 26.8283 182.52 26.482 182.407 26.1574C182.182 25.3349 182.67 24.0796 183.345 24.1445C184.742 24.0904 185.988 24.1986 187.385 24.1445C188.735 24.8912 190.291 24.5449 191.5 25.2267C191.749 25.3606 192.024 25.4133 192.297 25.3789C192.57 25.3446 192.829 25.2246 193.047 25.0319C193.372 24.8199 193.635 24.5007 193.802 24.1151C193.969 23.7295 194.033 23.2951 193.984 22.8675C193.984 22.7052 193.741 22.3589 193.609 22.1858L192.803 21.6447C192.507 21.4614 192.24 21.2196 192.016 20.9304C192.443 20.1799 192.906 19.4574 193.403 18.7661C194.012 17.8462 193.881 17.6839 192.934 17.2727C191.573 16.6763 190.124 16.3932 188.669 16.4394C189.063 16.7965 189.607 17.1644 189.991 17.5216C190.122 17.6947 190.244 18.0302 190.094 18.1817C189.944 18.3332 189.785 18.6362 189.522 18.4522C188.96 18.4522 188.416 18.2033 187.863 18.16C187.722 18.16 187.61 17.8137 187.619 17.6514L187.91 17.3592C188.21 17.0562 188.904 17.1103 188.669 16.4502C186.495 15.4792 184.185 14.9767 181.854 14.9676C181.808 15.6061 181.911 16.2554 181.854 16.8939C181.854 17.2185 181.536 17.5107 181.367 17.9761C181.039 18.7552 180.476 18.8743 179.652 18.647C179.05 18.3144 178.522 17.8299 178.105 17.2294C177.346 16.039 177.055 16.1472 176.146 17.3917C175.864 17.3917 175.593 17.3376 175.583 17.4999C174.974 18.2574 174.374 19.015 173.765 19.7617C173.624 19.9132 173.877 20.2595 173.868 20.4218H174.149C174.861 20.1513 175.583 19.7292 176.296 19.4695C176.436 19.4695 176.568 19.4695 176.558 19.6535C176.549 19.8374 176.811 20.1513 176.558 20.2919C174.685 21.8889 172.903 23.6241 171.224 25.4864C169.153 25.1509 167.222 24.8263 165.3 24.3501C164.86 24.2455 164.436 24.0629 164.044 23.809C164.363 23.1922 165.609 23.3004 164.85 22.11C164.588 21.7637 164.766 21.136 164.794 20.6599C164.634 18.712 164.625 16.6233 163.481 14.9135C163.219 14.578 163.528 14.1127 163.95 13.9936C164.372 13.8746 164.794 13.8963 164.569 13.0738C164.438 12.9006 164.738 12.6085 165.019 12.6301C165.3 12.6517 165.956 12.8682 166.087 13.366C166.623 14.1794 166.948 15.1511 167.025 16.1688C167.1 17.1428 167.194 17.9544 167.278 18.7661C167.272 18.9365 167.302 19.106 167.364 19.2608C167.426 19.4155 167.519 19.5512 167.635 19.6567C167.751 19.7622 167.887 19.8346 168.032 19.8678C168.177 19.9011 168.326 19.8944 168.468 19.8482C169.035 19.8617 169.601 19.7999 170.156 19.6643C170.156 19.502 170.156 19.3396 170.034 19.3288C169.781 18.9825 169.509 18.7985 169.387 18.4739C169.265 18.1492 169.706 17.857 170.006 17.554C170.587 17.1212 170.193 16.764 169.95 16.2662C169.565 15.5953 169.725 15.2814 170.306 15.0109C170.887 14.7404 171.44 14.6213 171.881 14.3291C172.313 14.0042 172.809 13.8102 173.323 13.7648C173.838 13.7194 174.354 13.8241 174.824 14.0694C175.22 15.1033 175.671 16.108 176.174 17.0779C176.53 15.8225 176.877 14.7187 178.049 14.1776C178.18 14.1776 178.339 13.8746 178.489 13.7231C176.079 12.8367 173.593 12.2561 171.074 11.9916C168.862 11.6453 166.659 11.3098 164.597 10.812C162.242 10.1597 159.843 9.74693 157.426 9.57835C154.787 9.30469 152.162 8.87486 149.561 8.29055L146.233 7.57631C145.817 7.35941 145.484 6.97461 145.296 6.49413C145.15 6.08691 144.874 5.75999 144.525 5.58078C144.176 5.40157 143.781 5.38375 143.421 5.53099C142.388 5.96838 141.276 6.09863 140.187 5.90975C139.629 5.89289 139.075 5.79472 138.537 5.61756C136.844 4.99167 135.075 4.68116 133.297 4.69771C132.76 4.64187 132.22 4.76584 131.741 5.05483C131.38 5.36659 130.941 5.53505 130.49 5.53505C130.039 5.53505 129.6 5.36659 129.238 5.05483C128.899 4.72496 128.484 4.51488 128.043 4.44965C127.603 4.38441 127.155 4.46676 126.754 4.68688C125.611 5.07647 124.345 5.29291 122.93 5.66085C121.439 4.8925 119.63 4.90332 118.027 3.7995C117.717 3.68714 117.381 3.71818 117.09 3.88607C116.838 4.1477 116.54 4.34166 116.216 4.45394C115.891 4.56623 115.55 4.59404 115.215 4.53538C114.662 4.53538 114.09 4.60031 113.537 4.53538C113.397 4.53538 112.993 4.32976 113.003 4.16744C112.9 3.68046 113.322 3.55059 113.603 3.57224L113.893 3.28005C112.874 3.22799 111.859 3.09055 110.856 2.86882C109.066 2.55499 107.247 2.56581 105.607 2.11129C104.976 1.84769 104.292 1.8004 103.639 1.97514C102.985 2.14987 102.389 2.53916 101.923 3.09608L102.073 2.94457L102.748 3.32334C101.644 3.15786 100.533 3.06753 99.42 3.05279C98.4447 2.9948 97.4738 2.86103 96.5141 2.65238C96.4106 2.62849 96.3177 2.56337 96.2516 2.46841C96.1204 2.29526 96.2516 1.99225 96.5516 2.0139C98.1706 1.65421 99.8148 1.46585 101.464 1.45116C101.565 1.42649 101.659 1.37295 101.737 1.29544C101.816 1.21794 101.877 1.11893 101.913 1.00747C101.913 0.845139 101.801 0.509663 101.67 0.498841C101.152 0.234185 100.585 0.122611 100.02 0.174187C98.6326 0.0551467 97.3765 0.174187 95.9891 0.0010376C94.5924 0.0010376 93.0551 0.0767903 91.6584 0.130899C88.8462 0.217474 86.034 0.31487 83.2781 0.563772L80.3346 0.801852C77.1288 0.855961 73.9229 0.801852 70.717 0.801852C69.8248 0.820694 68.9351 0.914733 68.0548 1.08322C66.7633 1.39915 65.4473 1.56232 64.1271 1.5702C63.8134 1.52213 63.4946 1.5479 63.1897 1.64595C61.3149 2.78224 59.2527 2.28444 57.2935 2.28444C53.9453 2.28666 50.603 2.60881 47.3009 3.24758C46.176 3.31251 45.173 3.87525 44.095 3.15019C42.8838 3.11823 41.6721 3.17606 40.4673 3.32334C38.0582 3.92936 35.696 3.89689 33.2869 4.50291C32.1432 4.8925 30.8778 5.10893 29.7435 5.49852C27.9609 6.13697 26.1073 6.47235 24.241 6.49413C23.1465 6.50007 22.058 6.68218 21.007 7.03522L18.4479 7.79275C17.8916 7.8693 17.3784 8.17704 17.0043 8.65849C16.0012 9.50889 14.8137 10.022 13.5735 10.1411C12.3478 10.1788 11.1809 10.7556 10.3113 11.7535C9.97884 12.1381 9.57947 12.4369 9.13959 12.6301C6.77736 12.6301 4.99631 14.2101 2.85905 15.0001C2.35656 15.2684 1.93062 15.6963 1.63107 16.2338C1.1688 17.4057 0.623243 18.5314 0 19.5993L0 19.924C0.0315603 20.5069 0.202445 21.0683 0.493679 21.5459C0.784914 22.0235 1.1851 22.3986 1.64981 22.6295C2.05289 22.8242 2.46535 22.8567 2.8778 23.0515C3.09266 23.1565 3.26266 23.3556 3.35053 23.6052C3.43839 23.8547 3.43694 24.1343 3.3465 24.3826C3.29291 24.7659 3.1751 25.1335 2.99966 25.4648C2.96062 25.6942 2.98701 25.9321 3.07489 26.1428C3.16276 26.3535 3.30738 26.5257 3.48711 26.6335C3.91925 26.7771 4.29409 27.0912 4.54636 27.5209C5.54 29.5338 7.17106 30.1506 9.13959 29.8368C9.84264 29.7286 10.4238 29.458 11.1269 29.3498C14.3094 28.2074 17.5758 27.4033 20.8851 26.9474C23.1651 26.5016 25.4656 26.2089 27.775 26.0708C28.1874 26.0708 28.6186 25.8219 29.0405 25.8544C30.5684 25.8544 32.0308 24.7722 33.5493 24.9345C35.0679 25.2267 36.6521 24.3934 38.1707 24.6748C38.6306 24.5416 39.1026 24.4726 39.5768 24.4692C43.3051 23.8435 47.0603 23.4533 50.8255 23.3004C54.8844 22.9974 58.9527 22.5212 63.1522 22.2182C66.0956 21.9801 68.8984 21.7204 71.8137 21.807L75.4227 21.6447C75.9732 21.4825 76.5501 21.4825 77.1006 21.6447C78.7687 21.8574 80.4531 21.8319 82.1157 21.5689C82.3969 21.5689 82.8187 21.4715 83.1 21.4932C85.0686 21.86 87.0717 21.911 89.0524 21.6447C91.0116 21.4823 93.0926 21.6447 95.0517 21.4932H95.7454C98.0983 21.688 100.629 21.4174 102.982 21.6122C105.494 21.6122 107.847 21.8503 110.35 21.8936C114.662 22.0884 118.974 22.1208 123.267 22.6403C125.01 22.947 126.772 23.0917 128.535 23.0732L129.229 23.1273C131.826 23.9822 134.497 23.5601 137.131 23.7766C139.453 23.8385 141.765 24.1391 144.04 24.6748C145 24.8834 145.971 25.0172 146.946 25.0752L157.867 26.4604C158.202 26.5117 158.543 26.4793 158.866 26.3654C159.189 26.2515 159.488 26.0588 159.741 25.8002C159.746 25.7591 159.764 25.7216 159.792 25.6954C159.82 25.6693 159.855 25.6564 159.891 25.6596L159.741 25.8435ZM153.236 18.3981C153.395 18.0843 153.236 18.0735 153.114 18.225L153.236 18.3981C153.376 18.3981 153.386 18.2466 153.526 18.2574C153.376 18.3981 153.376 18.3981 153.236 18.3981ZM148.961 17.7164C149.271 17.2618 149.721 16.6342 150.03 16.2013C149.336 16.1364 148.943 15.7901 149.092 15.0001C149.187 14.6461 149.165 14.2645 149.032 13.9276C148.899 13.5906 148.664 13.3215 148.371 13.1712C148.239 12.998 147.968 12.9764 147.836 12.8032C147.705 12.6301 147.836 12.1648 147.836 12.1648C148.365 11.8195 148.98 11.6904 149.58 11.7984C150.181 11.9065 150.732 12.2452 151.145 12.76C151.277 12.9331 151.277 12.9331 151.267 13.0846C150.93 14.0261 152.008 14.5997 151.67 15.5303C151.099 15.8117 150.517 16.0823 149.796 16.3528C150.097 16.5278 150.367 16.7663 150.592 17.0562C150.644 17.1297 150.68 17.2159 150.699 17.3082C150.717 17.4005 150.716 17.4964 150.697 17.5884C150.678 17.6805 150.641 17.7663 150.589 17.8391C150.537 17.912 150.47 17.97 150.395 18.0085C149.833 17.9544 149.289 17.7488 148.877 17.7164C148.432 18.2927 147.81 18.646 147.143 18.7011C147.04 18.7264 146.935 18.7279 146.832 18.7055C146.729 18.6831 146.632 18.6374 146.544 18.5709C146.457 18.5044 146.382 18.4185 146.324 18.3183C146.266 18.218 146.225 18.1053 146.205 17.9869C146.164 17.7488 146.205 17.5013 146.321 17.2986C146.437 17.0958 146.618 16.9542 146.824 16.9047C147.206 16.7246 147.63 16.7073 148.022 16.8561C148.414 17.0048 148.747 17.3098 148.961 17.7164ZM130.12 9.25369C130.804 9.47013 131.357 9.51341 131.901 9.71903C132.313 9.71903 132.557 10.4116 132.519 10.8986C132.48 11.0704 132.405 11.2283 132.3 11.3585C132.196 11.4888 132.065 11.5872 131.919 11.6453C130.197 11.6433 128.481 11.3962 126.811 10.9094C126.67 10.9094 126.558 10.4008 126.708 10.2601C126.886 9.93271 127.143 9.67303 127.448 9.51341C128.331 9.34682 129.225 9.25998 130.12 9.25369ZM159.516 13.7664C159.319 14.7079 158.448 15.2814 158.251 16.2338C158.251 16.3961 157.67 16.6666 157.388 16.645C157.107 16.6233 156.854 16.2771 156.582 16.0931C156.451 16.0931 156.46 15.9199 156.47 15.7684C156.695 14.3399 156.02 13.9612 155.054 13.8746C154.847 13.8197 154.66 13.691 154.52 13.5067C154.379 13.5067 154.389 13.3443 154.398 13.182C154.408 13.0197 154.398 12.8574 154.557 12.8682C155.331 12.3511 156.214 12.0925 157.107 12.1215C157.439 12.1828 157.758 12.3188 158.045 12.5219C158.514 12.969 159.005 13.3845 159.516 13.7664ZM188.838 21.807L188.782 22.7701C188.782 23.0948 188.313 23.5385 188.051 23.3545L185.857 22.7269C185.79 22.6315 185.751 22.5141 185.745 22.3914C186.06 21.4771 186.439 20.594 186.879 19.7509C186.879 19.5885 187.029 19.5993 187.169 19.6102C187.591 19.6267 188.009 19.7179 188.407 19.8807C188.81 20.0755 189.194 20.5841 189.025 21.0495C188.995 21.3111 188.932 21.5662 188.838 21.807ZM84.4404 1.94896C86.5299 1.63164 88.6533 1.80464 90.6835 2.45759C88.0307 2.56581 86.2402 2.73896 84.4404 1.94896ZM140.009 11.5155C140.009 11.667 139.859 11.6561 139.85 11.8185C139.568 11.9925 139.249 12.0706 138.931 12.0438C138.612 12.017 138.307 11.8863 138.05 11.667C137.909 11.667 137.919 11.5046 137.928 11.3423C137.938 11.18 137.928 11.0176 138.087 11.0285C138.37 10.8713 138.679 10.7896 138.992 10.7896C139.305 10.7896 139.615 10.8713 139.897 11.0285C139.888 11.2005 139.927 11.3713 140.009 11.5155ZM156.62 20.1729C156.742 20.3461 157.023 20.3677 157.154 20.5408C157.285 20.714 157.154 21.017 157.107 21.1793C156.526 21.6122 155.823 21.7204 155.72 21.1793C155.714 20.9525 155.777 20.7306 155.898 20.5517C155.898 20.3893 156.039 20.4002 156.189 20.2595C156.265 20.275 156.343 20.2704 156.418 20.246C156.493 20.2217 156.562 20.1782 156.62 20.1188V20.1729ZM163.641 19.3072C164.053 19.3072 164.297 19.8374 164.016 19.9781C163.846 20.093 163.647 20.1352 163.453 20.0972C163.246 20.0423 163.059 19.9136 162.919 19.7292C162.797 19.3396 163.219 19.2206 163.641 19.2531V19.3072ZM142.531 11.2882C142.662 11.4613 142.943 11.483 143.065 11.6561C143.072 11.8832 143.009 12.1058 142.887 12.2838C142.813 12.3062 142.736 12.3097 142.661 12.2943C142.586 12.2788 142.515 12.2446 142.452 12.1942C142.39 12.1437 142.338 12.0781 142.3 12.0021C142.261 11.926 142.238 11.8412 142.231 11.7535C142.1 11.5263 142.39 11.3856 142.531 11.2341V11.2882ZM161.429 21.2118C161.71 21.2118 161.832 21.4066 161.672 21.7204C161.672 21.8719 161.522 22.0234 161.532 21.8611C161.391 21.8611 161.119 21.6663 161.129 21.5148C161.138 21.3633 161.147 21.136 161.429 21.1577V21.2118ZM192.25 23.1056V23.5926C192.212 23.6599 192.159 23.7143 192.096 23.75C192.034 23.7858 191.964 23.8018 191.894 23.7963C191.825 23.7908 191.758 23.764 191.7 23.7187C191.642 23.6734 191.596 23.6112 191.566 23.5385V23.2138C191.688 23.0082 191.969 23.0299 192.25 23.0515V23.1056ZM121.439 9.81643C121.299 9.81643 121.018 9.94629 120.877 9.93547C120.605 9.7515 120.633 9.42684 120.877 9.45931C121.027 9.3078 121.299 9.45931 121.43 9.45931L121.439 9.81643ZM115.093 8.81C115.093 8.65849 114.962 8.64767 114.971 8.48534C114.981 8.32302 115.121 8.33384 115.262 8.34466C115.543 8.34466 115.665 8.53945 115.374 8.84246L115.093 8.81ZM142.653 18.3224L142.774 18.6579H142.493L142.653 18.3224ZM161.785 17.6514C161.494 17.7921 161.363 17.7813 161.522 17.4674C161.628 17.4629 161.728 17.4127 161.804 17.3268L161.785 17.6514Z" fill="#FFDE5C"/>
</svg>
