<svg width="34" height="24" viewBox="0 0 34 24" fill="none" xmlns="http://www.w3.org/2000/svg">
    <rect x="0.5" y="0.500977" width="33" height="23" rx="3.5" fill="white"/>
    <path fill-rule="evenodd" clip-rule="evenodd"
          d="M10.7501 15.8592H8.69031L7.14576 9.79333C7.07245 9.5143 6.91679 9.26762 6.68782 9.15136C6.11639 8.85918 5.48672 8.62666 4.7998 8.50938V8.27585H8.11789C8.57583 8.27585 8.91929 8.62666 8.97653 9.03408L9.77793 13.4096L11.8367 8.27585H13.8392L10.7501 15.8592ZM14.984 15.8592H13.0388L14.6406 8.27585H16.5858L14.984 15.8592ZM19.1025 10.3767C19.1597 9.96823 19.5032 9.73469 19.9039 9.73469C20.5336 9.67606 21.2195 9.79333 21.7919 10.0845L22.1354 8.45176C21.5629 8.21823 20.9333 8.10095 20.3619 8.10095C18.4738 8.10095 17.1 9.15136 17.1 10.6092C17.1 11.7182 18.0731 12.3006 18.7601 12.6514C19.5032 13.0012 19.7894 13.2347 19.7322 13.5845C19.7322 14.1092 19.1597 14.3427 18.5883 14.3427C17.9014 14.3427 17.2145 14.1678 16.5858 13.8757L16.2424 15.5094C16.9293 15.8006 17.6724 15.9178 18.3594 15.9178C20.4763 15.9755 21.7919 14.9261 21.7919 13.351C21.7919 11.3674 19.1025 11.2512 19.1025 10.3767ZM28.5998 15.8592L27.0553 8.27585H25.3962C25.0528 8.27585 24.7093 8.50938 24.5948 8.85918L21.7347 15.8592H23.7372L24.1369 14.7512H26.5973L26.8263 15.8592H28.5998ZM25.6824 10.318L26.2539 13.1761H24.6521L25.6824 10.318Z"
          fill="#172B85"/>
    <rect x="0.5" y="0.500977" width="33" height="23" rx="3.5" stroke="#DDE0E4"/>
</svg>
