<svg width="457" height="308" viewBox="0 0 457 308" fill="none" xmlns="http://www.w3.org/2000/svg">
<path d="M35.429 4.15341C35.8182 4.15625 36.2017 4.22727 36.5795 4.36648C36.9574 4.50568 37.2983 4.73295 37.6023 5.0483C37.9091 5.36364 38.1534 5.78977 38.3352 6.3267C38.5199 6.8608 38.6136 7.52557 38.6165 8.32102C38.6165 9.08523 38.5398 9.76562 38.3864 10.3622C38.233 10.956 38.0128 11.4574 37.7259 11.8665C37.4418 12.2756 37.0966 12.5866 36.6903 12.7997C36.2841 13.0128 35.8267 13.1193 35.3182 13.1193C34.7983 13.1193 34.3366 13.017 33.9332 12.8125C33.5298 12.608 33.2017 12.3253 32.9489 11.9645C32.696 11.6009 32.5384 11.1832 32.4759 10.7116H33.7756C33.8608 11.0866 34.0341 11.3906 34.2955 11.6236C34.5597 11.8537 34.9006 11.9688 35.3182 11.9688C35.9574 11.9688 36.456 11.6903 36.8139 11.1335C37.1719 10.5739 37.3523 9.79261 37.3551 8.78977H37.2869C37.1392 9.03409 36.9545 9.24432 36.733 9.42045C36.5142 9.59659 36.2685 9.73295 35.9957 9.82955C35.723 9.92614 35.4318 9.97443 35.1222 9.97443C34.6193 9.97443 34.1619 9.85085 33.75 9.60369C33.3381 9.35653 33.0099 9.01705 32.7656 8.58523C32.5213 8.15341 32.3991 7.66051 32.3991 7.10653C32.3991 6.5554 32.5241 6.0554 32.7741 5.60653C33.027 5.15767 33.3793 4.80256 33.831 4.54119C34.2855 4.27699 34.8182 4.14773 35.429 4.15341ZM35.4332 5.26136C35.1009 5.26136 34.8011 5.34375 34.5341 5.50852C34.2699 5.67045 34.0611 5.89062 33.9077 6.16903C33.7543 6.4446 33.6776 6.75142 33.6776 7.08949C33.6776 7.42756 33.7514 7.73437 33.8991 8.00994C34.0497 8.28267 34.2543 8.5 34.5128 8.66193C34.7741 8.82102 35.0724 8.90057 35.4077 8.90057C35.6577 8.90057 35.8906 8.85227 36.1065 8.75568C36.3224 8.65909 36.5114 8.52557 36.6733 8.35511C36.8352 8.18182 36.9616 7.9858 37.0526 7.76705C37.1435 7.5483 37.1889 7.31818 37.1889 7.0767C37.1889 6.75568 37.1122 6.45739 36.9588 6.18182C36.8082 5.90625 36.6009 5.68466 36.3366 5.51705C36.0724 5.34659 35.7713 5.26136 35.4332 5.26136ZM43.1942 13.1449C42.521 13.142 41.9457 12.9645 41.4684 12.6122C40.9911 12.2599 40.6261 11.7472 40.3732 11.0739C40.1204 10.4006 39.994 9.58949 39.994 8.64062C39.994 7.6946 40.1204 6.88636 40.3732 6.21591C40.6289 5.54545 40.9954 5.03409 41.4727 4.68182C41.9528 4.32955 42.5266 4.15341 43.1942 4.15341C43.8619 4.15341 44.4343 4.33097 44.9116 4.68608C45.3888 5.03835 45.7539 5.54972 46.0067 6.22017C46.2624 6.88778 46.3903 7.6946 46.3903 8.64062C46.3903 9.59233 46.2638 10.4048 46.011 11.0781C45.7582 11.7486 45.3931 12.2614 44.9158 12.6165C44.4386 12.9688 43.8647 13.1449 43.1942 13.1449ZM43.1942 12.0071C43.7852 12.0071 44.2468 11.7188 44.5792 11.142C44.9144 10.5653 45.082 9.73153 45.082 8.64062C45.082 7.91619 45.0053 7.30398 44.8519 6.80398C44.7013 6.30114 44.484 5.92045 44.1999 5.66193C43.9187 5.40057 43.5835 5.26989 43.1942 5.26989C42.6062 5.26989 42.1445 5.55966 41.8093 6.1392C41.4741 6.71875 41.305 7.55256 41.3022 8.64062C41.3022 9.3679 41.3775 9.98295 41.5281 10.4858C41.6815 10.9858 41.8988 11.3651 42.18 11.6236C42.4613 11.8793 42.7994 12.0071 43.1942 12.0071ZM52.4574 11.3636V10.9034C52.4574 10.5739 52.5256 10.2727 52.6619 10C52.8011 9.72443 53.0028 9.50426 53.267 9.33949C53.5341 9.17187 53.8565 9.08807 54.2344 9.08807C54.6207 9.08807 54.9446 9.17045 55.206 9.33523C55.4673 9.5 55.6648 9.72017 55.7983 9.99574C55.9347 10.2713 56.0028 10.5739 56.0028 10.9034V11.3636C56.0028 11.6932 55.9347 11.9957 55.7983 12.2713C55.6619 12.544 55.4616 12.7642 55.1974 12.9318C54.9361 13.0966 54.6151 13.179 54.2344 13.179C53.8509 13.179 53.527 13.0966 53.2628 12.9318C52.9986 12.7642 52.7983 12.544 52.6619 12.2713C52.5256 11.9957 52.4574 11.6932 52.4574 11.3636ZM53.4503 10.9034V11.3636C53.4503 11.608 53.5085 11.8295 53.625 12.0284C53.7415 12.2273 53.9446 12.3267 54.2344 12.3267C54.5213 12.3267 54.7216 12.2273 54.8352 12.0284C54.9489 11.8295 55.0057 11.608 55.0057 11.3636V10.9034C55.0057 10.6591 54.9503 10.4375 54.8395 10.2386C54.7315 10.0398 54.5298 9.94034 54.2344 9.94034C53.9503 9.94034 53.7486 10.0398 53.6293 10.2386C53.5099 10.4375 53.4503 10.6591 53.4503 10.9034ZM48.0682 6.36932V5.90909C48.0682 5.57955 48.1364 5.27699 48.2727 5.00142C48.4119 4.72585 48.6136 4.50568 48.8778 4.34091C49.1449 4.17614 49.4673 4.09375 49.8452 4.09375C50.2315 4.09375 50.5554 4.17614 50.8168 4.34091C51.0781 4.50568 51.2756 4.72585 51.4091 5.00142C51.5426 5.27699 51.6094 5.57955 51.6094 5.90909V6.36932C51.6094 6.69886 51.5412 7.00142 51.4048 7.27699C51.2713 7.54972 51.0724 7.76989 50.8082 7.9375C50.5469 8.10227 50.2259 8.18466 49.8452 8.18466C49.4588 8.18466 49.1335 8.10227 48.8693 7.9375C48.608 7.76989 48.4091 7.54972 48.2727 7.27699C48.1364 7.00142 48.0682 6.69886 48.0682 6.36932ZM49.0653 5.90909V6.36932C49.0653 6.61364 49.1222 6.83523 49.2358 7.03409C49.3523 7.23295 49.5554 7.33239 49.8452 7.33239C50.1293 7.33239 50.3281 7.23295 50.4418 7.03409C50.5582 6.83523 50.6165 6.61364 50.6165 6.36932V5.90909C50.6165 5.66477 50.5611 5.44318 50.4503 5.24432C50.3395 5.04545 50.1378 4.94602 49.8452 4.94602C49.5611 4.94602 49.3594 5.04545 49.2401 5.24432C49.1236 5.44318 49.0653 5.66477 49.0653 5.90909ZM48.473 13L54.473 4.27273H55.4915L49.4915 13H48.473Z" fill="#8791A1"/>
<path d="M35.5739 78.6193C35.1847 78.6136 34.8011 78.5426 34.4233 78.4062C34.0483 78.2699 33.7074 78.0426 33.4006 77.7244C33.0938 77.4062 32.848 76.9787 32.6634 76.4418C32.4815 75.9048 32.3906 75.2344 32.3906 74.4304C32.3906 73.669 32.4659 72.9929 32.6165 72.402C32.7699 71.8111 32.9901 71.3125 33.277 70.9062C33.5639 70.4972 33.9105 70.1861 34.3168 69.973C34.723 69.7599 35.179 69.6534 35.6847 69.6534C36.2045 69.6534 36.6662 69.7557 37.0696 69.9602C37.473 70.1648 37.7997 70.4474 38.0497 70.8082C38.3026 71.169 38.4631 71.5795 38.5312 72.0398H37.2315C37.1435 71.6761 36.9688 71.3793 36.7074 71.1491C36.446 70.919 36.1051 70.804 35.6847 70.804C35.0455 70.804 34.5469 71.0824 34.1889 71.6392C33.8338 72.196 33.6548 72.9702 33.652 73.9616H33.7159C33.8665 73.7145 34.0511 73.5043 34.2699 73.331C34.4915 73.1548 34.7386 73.0199 35.0114 72.9261C35.2869 72.8295 35.5767 72.7812 35.8807 72.7812C36.3864 72.7812 36.8438 72.9048 37.2528 73.152C37.6648 73.3963 37.9929 73.7344 38.2372 74.1662C38.4815 74.598 38.6037 75.0923 38.6037 75.6491C38.6037 76.206 38.4773 76.7102 38.2244 77.1619C37.9744 77.6136 37.6222 77.9716 37.1676 78.2358C36.7131 78.4972 36.1818 78.625 35.5739 78.6193ZM35.5696 77.5114C35.9048 77.5114 36.2045 77.429 36.4688 77.2642C36.733 77.0994 36.9418 76.8778 37.0952 76.5994C37.2486 76.321 37.3253 76.0099 37.3253 75.6662C37.3253 75.331 37.25 75.0256 37.0994 74.75C36.9517 74.4744 36.7472 74.2557 36.4858 74.0938C36.2273 73.9318 35.9318 73.8509 35.5994 73.8509C35.3466 73.8509 35.1122 73.8991 34.8963 73.9957C34.6832 74.0923 34.4957 74.2259 34.3338 74.3963C34.1719 74.5668 34.044 74.7628 33.9503 74.9844C33.8594 75.2031 33.8139 75.4347 33.8139 75.679C33.8139 76.0057 33.8892 76.3082 34.0398 76.5866C34.1932 76.8651 34.402 77.0895 34.6662 77.2599C34.9332 77.4276 35.2344 77.5114 35.5696 77.5114ZM43.1942 78.6449C42.521 78.642 41.9457 78.4645 41.4684 78.1122C40.9911 77.7599 40.6261 77.2472 40.3732 76.5739C40.1204 75.9006 39.994 75.0895 39.994 74.1406C39.994 73.1946 40.1204 72.3864 40.3732 71.7159C40.6289 71.0455 40.9954 70.5341 41.4727 70.1818C41.9528 69.8295 42.5266 69.6534 43.1942 69.6534C43.8619 69.6534 44.4343 69.831 44.9116 70.1861C45.3888 70.5384 45.7539 71.0497 46.0067 71.7202C46.2624 72.3878 46.3903 73.1946 46.3903 74.1406C46.3903 75.0923 46.2638 75.9048 46.011 76.5781C45.7582 77.2486 45.3931 77.7614 44.9158 78.1165C44.4386 78.4688 43.8647 78.6449 43.1942 78.6449ZM43.1942 77.5071C43.7852 77.5071 44.2468 77.2188 44.5792 76.642C44.9144 76.0653 45.082 75.2315 45.082 74.1406C45.082 73.4162 45.0053 72.804 44.8519 72.304C44.7013 71.8011 44.484 71.4205 44.1999 71.1619C43.9187 70.9006 43.5835 70.7699 43.1942 70.7699C42.6062 70.7699 42.1445 71.0597 41.8093 71.6392C41.4741 72.2187 41.305 73.0526 41.3022 74.1406C41.3022 74.8679 41.3775 75.483 41.5281 75.9858C41.6815 76.4858 41.8988 76.8651 42.18 77.1236C42.4613 77.3793 42.7994 77.5071 43.1942 77.5071ZM52.4574 76.8636V76.4034C52.4574 76.0739 52.5256 75.7727 52.6619 75.5C52.8011 75.2244 53.0028 75.0043 53.267 74.8395C53.5341 74.6719 53.8565 74.5881 54.2344 74.5881C54.6207 74.5881 54.9446 74.6705 55.206 74.8352C55.4673 75 55.6648 75.2202 55.7983 75.4957C55.9347 75.7713 56.0028 76.0739 56.0028 76.4034V76.8636C56.0028 77.1932 55.9347 77.4957 55.7983 77.7713C55.6619 78.044 55.4616 78.2642 55.1974 78.4318C54.9361 78.5966 54.6151 78.679 54.2344 78.679C53.8509 78.679 53.527 78.5966 53.2628 78.4318C52.9986 78.2642 52.7983 78.044 52.6619 77.7713C52.5256 77.4957 52.4574 77.1932 52.4574 76.8636ZM53.4503 76.4034V76.8636C53.4503 77.108 53.5085 77.3295 53.625 77.5284C53.7415 77.7273 53.9446 77.8267 54.2344 77.8267C54.5213 77.8267 54.7216 77.7273 54.8352 77.5284C54.9489 77.3295 55.0057 77.108 55.0057 76.8636V76.4034C55.0057 76.1591 54.9503 75.9375 54.8395 75.7386C54.7315 75.5398 54.5298 75.4403 54.2344 75.4403C53.9503 75.4403 53.7486 75.5398 53.6293 75.7386C53.5099 75.9375 53.4503 76.1591 53.4503 76.4034ZM48.0682 71.8693V71.4091C48.0682 71.0795 48.1364 70.777 48.2727 70.5014C48.4119 70.2259 48.6136 70.0057 48.8778 69.8409C49.1449 69.6761 49.4673 69.5938 49.8452 69.5938C50.2315 69.5938 50.5554 69.6761 50.8168 69.8409C51.0781 70.0057 51.2756 70.2259 51.4091 70.5014C51.5426 70.777 51.6094 71.0795 51.6094 71.4091V71.8693C51.6094 72.1989 51.5412 72.5014 51.4048 72.777C51.2713 73.0497 51.0724 73.2699 50.8082 73.4375C50.5469 73.6023 50.2259 73.6847 49.8452 73.6847C49.4588 73.6847 49.1335 73.6023 48.8693 73.4375C48.608 73.2699 48.4091 73.0497 48.2727 72.777C48.1364 72.5014 48.0682 72.1989 48.0682 71.8693ZM49.0653 71.4091V71.8693C49.0653 72.1136 49.1222 72.3352 49.2358 72.5341C49.3523 72.733 49.5554 72.8324 49.8452 72.8324C50.1293 72.8324 50.3281 72.733 50.4418 72.5341C50.5582 72.3352 50.6165 72.1136 50.6165 71.8693V71.4091C50.6165 71.1648 50.5611 70.9432 50.4503 70.7443C50.3395 70.5455 50.1378 70.446 49.8452 70.446C49.5611 70.446 49.3594 70.5455 49.2401 70.7443C49.1236 70.9432 49.0653 71.1648 49.0653 71.4091ZM48.473 78.5L54.473 69.7727H55.4915L49.4915 78.5H48.473Z" fill="#8791A1"/>
<path d="M32.1211 142.295V141.23L35.8924 135.273H36.7319V136.841H36.1992L33.5018 141.111V141.179H38.6708V142.295H32.1211ZM36.2589 144V141.972L36.2674 141.486V135.273H37.516V144H36.2589ZM43.1942 144.145C42.521 144.142 41.9457 143.964 41.4684 143.612C40.9911 143.26 40.6261 142.747 40.3732 142.074C40.1204 141.401 39.994 140.589 39.994 139.641C39.994 138.695 40.1204 137.886 40.3732 137.216C40.6289 136.545 40.9954 136.034 41.4727 135.682C41.9528 135.33 42.5266 135.153 43.1942 135.153C43.8619 135.153 44.4343 135.331 44.9116 135.686C45.3888 136.038 45.7539 136.55 46.0067 137.22C46.2624 137.888 46.3903 138.695 46.3903 139.641C46.3903 140.592 46.2638 141.405 46.011 142.078C45.7582 142.749 45.3931 143.261 44.9158 143.616C44.4386 143.969 43.8647 144.145 43.1942 144.145ZM43.1942 143.007C43.7852 143.007 44.2468 142.719 44.5792 142.142C44.9144 141.565 45.082 140.732 45.082 139.641C45.082 138.916 45.0053 138.304 44.8519 137.804C44.7013 137.301 44.484 136.92 44.1999 136.662C43.9187 136.401 43.5835 136.27 43.1942 136.27C42.6062 136.27 42.1445 136.56 41.8093 137.139C41.4741 137.719 41.305 138.553 41.3022 139.641C41.3022 140.368 41.3775 140.983 41.5281 141.486C41.6815 141.986 41.8988 142.365 42.18 142.624C42.4613 142.879 42.7994 143.007 43.1942 143.007ZM52.4574 142.364V141.903C52.4574 141.574 52.5256 141.273 52.6619 141C52.8011 140.724 53.0028 140.504 53.267 140.339C53.5341 140.172 53.8565 140.088 54.2344 140.088C54.6207 140.088 54.9446 140.17 55.206 140.335C55.4673 140.5 55.6648 140.72 55.7983 140.996C55.9347 141.271 56.0028 141.574 56.0028 141.903V142.364C56.0028 142.693 55.9347 142.996 55.7983 143.271C55.6619 143.544 55.4616 143.764 55.1974 143.932C54.9361 144.097 54.6151 144.179 54.2344 144.179C53.8509 144.179 53.527 144.097 53.2628 143.932C52.9986 143.764 52.7983 143.544 52.6619 143.271C52.5256 142.996 52.4574 142.693 52.4574 142.364ZM53.4503 141.903V142.364C53.4503 142.608 53.5085 142.83 53.625 143.028C53.7415 143.227 53.9446 143.327 54.2344 143.327C54.5213 143.327 54.7216 143.227 54.8352 143.028C54.9489 142.83 55.0057 142.608 55.0057 142.364V141.903C55.0057 141.659 54.9503 141.437 54.8395 141.239C54.7315 141.04 54.5298 140.94 54.2344 140.94C53.9503 140.94 53.7486 141.04 53.6293 141.239C53.5099 141.437 53.4503 141.659 53.4503 141.903ZM48.0682 137.369V136.909C48.0682 136.58 48.1364 136.277 48.2727 136.001C48.4119 135.726 48.6136 135.506 48.8778 135.341C49.1449 135.176 49.4673 135.094 49.8452 135.094C50.2315 135.094 50.5554 135.176 50.8168 135.341C51.0781 135.506 51.2756 135.726 51.4091 136.001C51.5426 136.277 51.6094 136.58 51.6094 136.909V137.369C51.6094 137.699 51.5412 138.001 51.4048 138.277C51.2713 138.55 51.0724 138.77 50.8082 138.938C50.5469 139.102 50.2259 139.185 49.8452 139.185C49.4588 139.185 49.1335 139.102 48.8693 138.938C48.608 138.77 48.4091 138.55 48.2727 138.277C48.1364 138.001 48.0682 137.699 48.0682 137.369ZM49.0653 136.909V137.369C49.0653 137.614 49.1222 137.835 49.2358 138.034C49.3523 138.233 49.5554 138.332 49.8452 138.332C50.1293 138.332 50.3281 138.233 50.4418 138.034C50.5582 137.835 50.6165 137.614 50.6165 137.369V136.909C50.6165 136.665 50.5611 136.443 50.4503 136.244C50.3395 136.045 50.1378 135.946 49.8452 135.946C49.5611 135.946 49.3594 136.045 49.2401 136.244C49.1236 136.443 49.0653 136.665 49.0653 136.909ZM48.473 144L54.473 135.273H55.4915L49.4915 144H48.473Z" fill="#8791A1"/>
<path d="M32.7965 209.5V208.545L35.7496 205.486C36.065 205.153 36.3249 204.862 36.5295 204.612C36.7369 204.359 36.8917 204.119 36.994 203.892C37.0962 203.665 37.1474 203.423 37.1474 203.168C37.1474 202.878 37.0792 202.628 36.9428 202.418C36.8065 202.205 36.6204 202.041 36.3846 201.928C36.1488 201.811 35.8832 201.753 35.5877 201.753C35.2752 201.753 35.0025 201.817 34.7695 201.945C34.5366 202.072 34.3576 202.253 34.2326 202.486C34.1076 202.719 34.0451 202.991 34.0451 203.304H32.788C32.788 202.773 32.9102 202.308 33.1545 201.911C33.3988 201.513 33.734 201.205 34.1602 200.986C34.5863 200.764 35.0707 200.653 35.6133 200.653C36.1616 200.653 36.6445 200.763 37.0621 200.982C37.4826 201.197 37.8107 201.493 38.0465 201.868C38.2823 202.24 38.4002 202.661 38.4002 203.129C38.4002 203.453 38.3391 203.77 38.217 204.08C38.0977 204.389 37.8888 204.734 37.5906 205.115C37.2923 205.493 36.8775 205.952 36.3462 206.491L34.6119 208.307V208.371H38.5408V209.5H32.7965ZM43.1942 209.645C42.521 209.642 41.9457 209.464 41.4684 209.112C40.9911 208.76 40.6261 208.247 40.3732 207.574C40.1204 206.901 39.994 206.089 39.994 205.141C39.994 204.195 40.1204 203.386 40.3732 202.716C40.6289 202.045 40.9954 201.534 41.4727 201.182C41.9528 200.83 42.5266 200.653 43.1942 200.653C43.8619 200.653 44.4343 200.831 44.9116 201.186C45.3888 201.538 45.7539 202.05 46.0067 202.72C46.2624 203.388 46.3903 204.195 46.3903 205.141C46.3903 206.092 46.2638 206.905 46.011 207.578C45.7582 208.249 45.3931 208.761 44.9158 209.116C44.4386 209.469 43.8647 209.645 43.1942 209.645ZM43.1942 208.507C43.7852 208.507 44.2468 208.219 44.5792 207.642C44.9144 207.065 45.082 206.232 45.082 205.141C45.082 204.416 45.0053 203.804 44.8519 203.304C44.7013 202.801 44.484 202.42 44.1999 202.162C43.9187 201.901 43.5835 201.77 43.1942 201.77C42.6062 201.77 42.1445 202.06 41.8093 202.639C41.4741 203.219 41.305 204.053 41.3022 205.141C41.3022 205.868 41.3775 206.483 41.5281 206.986C41.6815 207.486 41.8988 207.865 42.18 208.124C42.4613 208.379 42.7994 208.507 43.1942 208.507ZM52.4574 207.864V207.403C52.4574 207.074 52.5256 206.773 52.6619 206.5C52.8011 206.224 53.0028 206.004 53.267 205.839C53.5341 205.672 53.8565 205.588 54.2344 205.588C54.6207 205.588 54.9446 205.67 55.206 205.835C55.4673 206 55.6648 206.22 55.7983 206.496C55.9347 206.771 56.0028 207.074 56.0028 207.403V207.864C56.0028 208.193 55.9347 208.496 55.7983 208.771C55.6619 209.044 55.4616 209.264 55.1974 209.432C54.9361 209.597 54.6151 209.679 54.2344 209.679C53.8509 209.679 53.527 209.597 53.2628 209.432C52.9986 209.264 52.7983 209.044 52.6619 208.771C52.5256 208.496 52.4574 208.193 52.4574 207.864ZM53.4503 207.403V207.864C53.4503 208.108 53.5085 208.33 53.625 208.528C53.7415 208.727 53.9446 208.827 54.2344 208.827C54.5213 208.827 54.7216 208.727 54.8352 208.528C54.9489 208.33 55.0057 208.108 55.0057 207.864V207.403C55.0057 207.159 54.9503 206.937 54.8395 206.739C54.7315 206.54 54.5298 206.44 54.2344 206.44C53.9503 206.44 53.7486 206.54 53.6293 206.739C53.5099 206.937 53.4503 207.159 53.4503 207.403ZM48.0682 202.869V202.409C48.0682 202.08 48.1364 201.777 48.2727 201.501C48.4119 201.226 48.6136 201.006 48.8778 200.841C49.1449 200.676 49.4673 200.594 49.8452 200.594C50.2315 200.594 50.5554 200.676 50.8168 200.841C51.0781 201.006 51.2756 201.226 51.4091 201.501C51.5426 201.777 51.6094 202.08 51.6094 202.409V202.869C51.6094 203.199 51.5412 203.501 51.4048 203.777C51.2713 204.05 51.0724 204.27 50.8082 204.438C50.5469 204.602 50.2259 204.685 49.8452 204.685C49.4588 204.685 49.1335 204.602 48.8693 204.438C48.608 204.27 48.4091 204.05 48.2727 203.777C48.1364 203.501 48.0682 203.199 48.0682 202.869ZM49.0653 202.409V202.869C49.0653 203.114 49.1222 203.335 49.2358 203.534C49.3523 203.733 49.5554 203.832 49.8452 203.832C50.1293 203.832 50.3281 203.733 50.4418 203.534C50.5582 203.335 50.6165 203.114 50.6165 202.869V202.409C50.6165 202.165 50.5611 201.943 50.4503 201.744C50.3395 201.545 50.1378 201.446 49.8452 201.446C49.5611 201.446 49.3594 201.545 49.2401 201.744C49.1236 201.943 49.0653 202.165 49.0653 202.409ZM48.473 209.5L54.473 200.773H55.4915L49.4915 209.5H48.473Z" fill="#8791A1"/>
<path d="M43.1942 275.145C42.521 275.142 41.9457 274.964 41.4684 274.612C40.9911 274.26 40.6261 273.747 40.3732 273.074C40.1204 272.401 39.994 271.589 39.994 270.641C39.994 269.695 40.1204 268.886 40.3732 268.216C40.6289 267.545 40.9954 267.034 41.4727 266.682C41.9528 266.33 42.5266 266.153 43.1942 266.153C43.8619 266.153 44.4343 266.331 44.9116 266.686C45.3888 267.038 45.7539 267.55 46.0067 268.22C46.2624 268.888 46.3903 269.695 46.3903 270.641C46.3903 271.592 46.2638 272.405 46.011 273.078C45.7582 273.749 45.3931 274.261 44.9158 274.616C44.4386 274.969 43.8647 275.145 43.1942 275.145ZM43.1942 274.007C43.7852 274.007 44.2468 273.719 44.5792 273.142C44.9144 272.565 45.082 271.732 45.082 270.641C45.082 269.916 45.0053 269.304 44.8519 268.804C44.7013 268.301 44.484 267.92 44.1999 267.662C43.9187 267.401 43.5835 267.27 43.1942 267.27C42.6062 267.27 42.1445 267.56 41.8093 268.139C41.4741 268.719 41.305 269.553 41.3022 270.641C41.3022 271.368 41.3775 271.983 41.5281 272.486C41.6815 272.986 41.8988 273.365 42.18 273.624C42.4613 273.879 42.7994 274.007 43.1942 274.007ZM52.4574 273.364V272.903C52.4574 272.574 52.5256 272.273 52.6619 272C52.8011 271.724 53.0028 271.504 53.267 271.339C53.5341 271.172 53.8565 271.088 54.2344 271.088C54.6207 271.088 54.9446 271.17 55.206 271.335C55.4673 271.5 55.6648 271.72 55.7983 271.996C55.9347 272.271 56.0028 272.574 56.0028 272.903V273.364C56.0028 273.693 55.9347 273.996 55.7983 274.271C55.6619 274.544 55.4616 274.764 55.1974 274.932C54.9361 275.097 54.6151 275.179 54.2344 275.179C53.8509 275.179 53.527 275.097 53.2628 274.932C52.9986 274.764 52.7983 274.544 52.6619 274.271C52.5256 273.996 52.4574 273.693 52.4574 273.364ZM53.4503 272.903V273.364C53.4503 273.608 53.5085 273.83 53.625 274.028C53.7415 274.227 53.9446 274.327 54.2344 274.327C54.5213 274.327 54.7216 274.227 54.8352 274.028C54.9489 273.83 55.0057 273.608 55.0057 273.364V272.903C55.0057 272.659 54.9503 272.437 54.8395 272.239C54.7315 272.04 54.5298 271.94 54.2344 271.94C53.9503 271.94 53.7486 272.04 53.6293 272.239C53.5099 272.437 53.4503 272.659 53.4503 272.903ZM48.0682 268.369V267.909C48.0682 267.58 48.1364 267.277 48.2727 267.001C48.4119 266.726 48.6136 266.506 48.8778 266.341C49.1449 266.176 49.4673 266.094 49.8452 266.094C50.2315 266.094 50.5554 266.176 50.8168 266.341C51.0781 266.506 51.2756 266.726 51.4091 267.001C51.5426 267.277 51.6094 267.58 51.6094 267.909V268.369C51.6094 268.699 51.5412 269.001 51.4048 269.277C51.2713 269.55 51.0724 269.77 50.8082 269.938C50.5469 270.102 50.2259 270.185 49.8452 270.185C49.4588 270.185 49.1335 270.102 48.8693 269.938C48.608 269.77 48.4091 269.55 48.2727 269.277C48.1364 269.001 48.0682 268.699 48.0682 268.369ZM49.0653 267.909V268.369C49.0653 268.614 49.1222 268.835 49.2358 269.034C49.3523 269.233 49.5554 269.332 49.8452 269.332C50.1293 269.332 50.3281 269.233 50.4418 269.034C50.5582 268.835 50.6165 268.614 50.6165 268.369V267.909C50.6165 267.665 50.5611 267.443 50.4503 267.244C50.3395 267.045 50.1378 266.946 49.8452 266.946C49.5611 266.946 49.3594 267.045 49.2401 267.244C49.1236 267.443 49.0653 267.665 49.0653 267.909ZM48.473 275L54.473 266.273H55.4915L49.4915 275H48.473Z" fill="#8791A1"/>
<rect width="384" height="260.452" transform="translate(71 10)" fill="#F5F9FF"/>
<path d="M71 10H455" stroke="#E9EBED" stroke-linecap="round"/>
<circle cx="326" cy="42" r="3" fill="#006AEB"/>
<path d="M336.057 46V37.2727H339.108C339.716 37.2727 340.217 37.3778 340.612 37.5881C341.007 37.7955 341.301 38.0753 341.494 38.4276C341.688 38.777 341.784 39.1648 341.784 39.5909C341.784 39.9659 341.717 40.2756 341.584 40.5199C341.453 40.7642 341.28 40.9574 341.064 41.0994C340.851 41.2415 340.619 41.3466 340.369 41.4148V41.5C340.636 41.517 340.905 41.6108 341.175 41.7812C341.445 41.9517 341.67 42.196 341.852 42.5142C342.034 42.8324 342.125 43.2216 342.125 43.6818C342.125 44.1193 342.026 44.5128 341.827 44.8622C341.628 45.2116 341.314 45.4886 340.885 45.6932C340.456 45.8977 339.898 46 339.21 46H336.057ZM337.114 45.0625H339.21C339.901 45.0625 340.391 44.929 340.68 44.6619C340.973 44.392 341.119 44.0653 341.119 43.6818C341.119 43.3864 341.044 43.1136 340.893 42.8636C340.743 42.6108 340.528 42.4091 340.25 42.2585C339.972 42.1051 339.642 42.0284 339.261 42.0284H337.114V45.0625ZM337.114 41.108H339.074C339.392 41.108 339.679 41.0455 339.935 40.9205C340.193 40.7955 340.398 40.6193 340.548 40.392C340.702 40.1648 340.778 39.8977 340.778 39.5909C340.778 39.2074 340.645 38.8821 340.378 38.6151C340.111 38.3452 339.688 38.2102 339.108 38.2102H337.114V41.108ZM345.651 46.1534C345.237 46.1534 344.86 46.0753 344.522 45.919C344.184 45.7599 343.915 45.5312 343.717 45.233C343.518 44.9318 343.418 44.5682 343.418 44.142C343.418 43.767 343.492 43.4631 343.64 43.2301C343.788 42.9943 343.985 42.8097 344.232 42.6761C344.479 42.5426 344.752 42.4432 345.05 42.3778C345.352 42.3097 345.654 42.2557 345.958 42.2159C346.356 42.1648 346.678 42.1264 346.925 42.1009C347.175 42.0724 347.357 42.0256 347.471 41.9602C347.587 41.8949 347.646 41.7812 347.646 41.6193V41.5852C347.646 41.1648 347.531 40.8381 347.3 40.6051C347.073 40.3722 346.728 40.2557 346.265 40.2557C345.785 40.2557 345.408 40.3608 345.136 40.571C344.863 40.7812 344.671 41.0057 344.56 41.2443L343.606 40.9034C343.776 40.5057 344.004 40.196 344.288 39.9744C344.575 39.75 344.887 39.5937 345.225 39.5057C345.566 39.4148 345.901 39.3693 346.231 39.3693C346.441 39.3693 346.683 39.3949 346.955 39.446C347.231 39.4943 347.496 39.5952 347.752 39.7486C348.011 39.902 348.225 40.1335 348.396 40.4432C348.566 40.7528 348.651 41.1676 348.651 41.6875V46H347.646V45.1136H347.594C347.526 45.2557 347.413 45.4077 347.254 45.5696C347.094 45.7315 346.883 45.8693 346.619 45.983C346.354 46.0966 346.032 46.1534 345.651 46.1534ZM345.805 45.25C346.202 45.25 346.538 45.1719 346.81 45.0156C347.086 44.8594 347.293 44.6577 347.433 44.4105C347.575 44.1634 347.646 43.9034 347.646 43.6307V42.7102C347.603 42.7614 347.509 42.8082 347.364 42.8509C347.222 42.8906 347.058 42.9261 346.87 42.9574C346.685 42.9858 346.505 43.0114 346.329 43.0341C346.156 43.054 346.015 43.071 345.907 43.0852C345.646 43.1193 345.401 43.1747 345.174 43.2514C344.95 43.3253 344.768 43.4375 344.629 43.5881C344.492 43.7358 344.424 43.9375 344.424 44.1932C344.424 44.5426 344.553 44.8068 344.812 44.9858C345.073 45.1619 345.404 45.25 345.805 45.25ZM355.123 40.9205L354.22 41.1761C354.163 41.0256 354.079 40.8793 353.968 40.7372C353.86 40.5923 353.713 40.473 353.525 40.3793C353.338 40.2855 353.098 40.2386 352.805 40.2386C352.404 40.2386 352.071 40.331 351.804 40.5156C351.539 40.6974 351.407 40.929 351.407 41.2102C351.407 41.4602 351.498 41.6577 351.68 41.8026C351.862 41.9474 352.146 42.0682 352.532 42.1648L353.504 42.4034C354.089 42.5455 354.525 42.7628 354.812 43.0554C355.099 43.3452 355.243 43.7187 355.243 44.1761C355.243 44.5511 355.135 44.8864 354.919 45.1818C354.706 45.4773 354.407 45.7102 354.024 45.8807C353.64 46.0511 353.194 46.1364 352.686 46.1364C352.018 46.1364 351.466 45.9915 351.028 45.7017C350.591 45.4119 350.314 44.9886 350.197 44.4318L351.152 44.1932C351.243 44.5455 351.414 44.8097 351.667 44.9858C351.923 45.1619 352.257 45.25 352.669 45.25C353.137 45.25 353.51 45.1506 353.785 44.9517C354.064 44.75 354.203 44.5085 354.203 44.2273C354.203 44 354.123 43.8097 353.964 43.6562C353.805 43.5 353.561 43.3835 353.231 43.3068L352.14 43.0511C351.541 42.9091 351.1 42.6889 350.819 42.3906C350.541 42.0895 350.402 41.7131 350.402 41.2614C350.402 40.892 350.505 40.5653 350.713 40.2812C350.923 39.9972 351.208 39.7741 351.569 39.6122C351.933 39.4503 352.345 39.3693 352.805 39.3693C353.453 39.3693 353.961 39.5114 354.331 39.7955C354.703 40.0795 354.967 40.4545 355.123 40.9205ZM356.756 46V39.4545H357.762V46H356.756ZM357.268 38.3636C357.072 38.3636 356.903 38.2969 356.761 38.1634C356.621 38.0298 356.552 37.8693 356.552 37.6818C356.552 37.4943 356.621 37.3338 356.761 37.2003C356.903 37.0668 357.072 37 357.268 37C357.464 37 357.631 37.0668 357.771 37.2003C357.913 37.3338 357.984 37.4943 357.984 37.6818C357.984 37.8693 357.913 38.0298 357.771 38.1634C357.631 38.2969 357.464 38.3636 357.268 38.3636ZM364.24 40.9205L363.337 41.1761C363.28 41.0256 363.196 40.8793 363.086 40.7372C362.978 40.5923 362.83 40.473 362.642 40.3793C362.455 40.2855 362.215 40.2386 361.922 40.2386C361.522 40.2386 361.188 40.331 360.921 40.5156C360.657 40.6974 360.525 40.929 360.525 41.2102C360.525 41.4602 360.615 41.6577 360.797 41.8026C360.979 41.9474 361.263 42.0682 361.65 42.1648L362.621 42.4034C363.206 42.5455 363.642 42.7628 363.929 43.0554C364.216 43.3452 364.36 43.7187 364.36 44.1761C364.36 44.5511 364.252 44.8864 364.036 45.1818C363.823 45.4773 363.525 45.7102 363.141 45.8807C362.757 46.0511 362.311 46.1364 361.803 46.1364C361.135 46.1364 360.583 45.9915 360.145 45.7017C359.708 45.4119 359.431 44.9886 359.314 44.4318L360.269 44.1932C360.36 44.5455 360.532 44.8097 360.784 44.9858C361.04 45.1619 361.374 45.25 361.786 45.25C362.255 45.25 362.627 45.1506 362.902 44.9517C363.181 44.75 363.32 44.5085 363.32 44.2273C363.32 44 363.24 43.8097 363.081 43.6562C362.922 43.5 362.678 43.3835 362.348 43.3068L361.257 43.0511C360.658 42.9091 360.218 42.6889 359.936 42.3906C359.658 42.0895 359.519 41.7131 359.519 41.2614C359.519 40.892 359.623 40.5653 359.83 40.2812C360.04 39.9972 360.326 39.7741 360.686 39.6122C361.05 39.4503 361.462 39.3693 361.922 39.3693C362.57 39.3693 363.078 39.5114 363.448 39.7955C363.82 40.0795 364.084 40.4545 364.24 40.9205Z" fill="#535D6A"/>
<circle cx="380" cy="42" r="3" fill="#8791A1"/>
<path d="M390.057 46V37.2727H393.006C393.69 37.2727 394.25 37.3963 394.685 37.6435C395.122 37.8878 395.446 38.2188 395.656 38.6364C395.866 39.054 395.972 39.5199 395.972 40.0341C395.972 40.5483 395.866 41.0156 395.656 41.4361C395.449 41.8565 395.128 42.1918 394.693 42.4418C394.259 42.6889 393.702 42.8125 393.023 42.8125H390.909V41.875H392.989C393.457 41.875 393.834 41.794 394.118 41.6321C394.402 41.4702 394.608 41.2514 394.736 40.9759C394.866 40.6974 394.932 40.3835 394.932 40.0341C394.932 39.6847 394.866 39.3722 394.736 39.0966C394.608 38.821 394.401 38.6051 394.114 38.4489C393.827 38.2898 393.446 38.2102 392.972 38.2102H391.114V46H390.057ZM398.543 37.2727V46H397.538V37.2727H398.543ZM402.311 46.1534C401.897 46.1534 401.52 46.0753 401.182 45.919C400.844 45.7599 400.576 45.5312 400.377 45.233C400.178 44.9318 400.078 44.5682 400.078 44.142C400.078 43.767 400.152 43.4631 400.3 43.2301C400.448 42.9943 400.645 42.8097 400.892 42.6761C401.14 42.5426 401.412 42.4432 401.711 42.3778C402.012 42.3097 402.314 42.2557 402.618 42.2159C403.016 42.1648 403.338 42.1264 403.586 42.1009C403.836 42.0724 404.017 42.0256 404.131 41.9602C404.248 41.8949 404.306 41.7812 404.306 41.6193V41.5852C404.306 41.1648 404.191 40.8381 403.961 40.6051C403.733 40.3722 403.388 40.2557 402.925 40.2557C402.445 40.2557 402.069 40.3608 401.796 40.571C401.523 40.7812 401.331 41.0057 401.221 41.2443L400.266 40.9034C400.436 40.5057 400.664 40.196 400.948 39.9744C401.235 39.75 401.547 39.5937 401.885 39.5057C402.226 39.4148 402.561 39.3693 402.891 39.3693C403.101 39.3693 403.343 39.3949 403.615 39.446C403.891 39.4943 404.157 39.5952 404.412 39.7486C404.671 39.902 404.885 40.1335 405.056 40.4432C405.226 40.7528 405.311 41.1676 405.311 41.6875V46H404.306V45.1136H404.255C404.186 45.2557 404.073 45.4077 403.914 45.5696C403.755 45.7315 403.543 45.8693 403.279 45.983C403.015 46.0966 402.692 46.1534 402.311 46.1534ZM402.465 45.25C402.863 45.25 403.198 45.1719 403.471 45.0156C403.746 44.8594 403.953 44.6577 404.093 44.4105C404.235 44.1634 404.306 43.9034 404.306 43.6307V42.7102C404.263 42.7614 404.169 42.8082 404.025 42.8509C403.882 42.8906 403.718 42.9261 403.53 42.9574C403.346 42.9858 403.165 43.0114 402.989 43.0341C402.816 43.054 402.675 43.071 402.567 43.0852C402.306 43.1193 402.061 43.1747 401.834 43.2514C401.61 43.3253 401.428 43.4375 401.289 43.5881C401.152 43.7358 401.084 43.9375 401.084 44.1932C401.084 44.5426 401.213 44.8068 401.472 44.9858C401.733 45.1619 402.064 45.25 402.465 45.25ZM409.806 46.1364C409.192 46.1364 408.664 45.9915 408.221 45.7017C407.778 45.4119 407.437 45.0128 407.198 44.5043C406.96 43.9957 406.84 43.4148 406.84 42.7614C406.84 42.0966 406.962 41.5099 407.207 41.0014C407.454 40.4901 407.798 40.0909 408.238 39.804C408.681 39.5142 409.198 39.3693 409.789 39.3693C410.249 39.3693 410.664 39.4545 411.033 39.625C411.403 39.7955 411.705 40.0341 411.941 40.3409C412.177 40.6477 412.323 41.0057 412.38 41.4148H411.374C411.298 41.1165 411.127 40.8523 410.863 40.6222C410.602 40.3892 410.249 40.2727 409.806 40.2727C409.414 40.2727 409.07 40.375 408.775 40.5795C408.482 40.7812 408.254 41.0668 408.089 41.4361C407.927 41.8026 407.846 42.233 407.846 42.7273C407.846 43.233 407.925 43.6733 408.085 44.0483C408.246 44.4233 408.474 44.7145 408.766 44.9219C409.062 45.1293 409.408 45.233 409.806 45.233C410.067 45.233 410.305 45.1875 410.518 45.0966C410.731 45.0057 410.911 44.875 411.059 44.7045C411.207 44.5341 411.312 44.3295 411.374 44.0909H412.38C412.323 44.4773 412.183 44.8253 411.958 45.1349C411.737 45.4418 411.442 45.6861 411.076 45.8679C410.712 46.0469 410.289 46.1364 409.806 46.1364ZM416.594 46.1364C415.964 46.1364 415.42 45.9972 414.962 45.7188C414.508 45.4375 414.157 45.0455 413.91 44.5426C413.665 44.0369 413.543 43.4489 413.543 42.7784C413.543 42.108 413.665 41.517 413.91 41.0057C414.157 40.4915 414.501 40.0909 414.941 39.804C415.384 39.5142 415.901 39.3693 416.492 39.3693C416.833 39.3693 417.17 39.4261 417.502 39.5398C417.835 39.6534 418.137 39.8381 418.41 40.0938C418.683 40.3466 418.9 40.6818 419.062 41.0994C419.224 41.517 419.305 42.0312 419.305 42.642V43.0682H414.259V42.1989H418.282C418.282 41.8295 418.208 41.5 418.06 41.2102C417.915 40.9205 417.708 40.6918 417.438 40.5241C417.171 40.3565 416.856 40.2727 416.492 40.2727C416.092 40.2727 415.745 40.3722 415.452 40.571C415.163 40.767 414.94 41.0227 414.783 41.3381C414.627 41.6534 414.549 41.9915 414.549 42.3523V42.9318C414.549 43.4261 414.634 43.8452 414.805 44.1889C414.978 44.5298 415.218 44.7898 415.525 44.9688C415.832 45.1449 416.188 45.233 416.594 45.233C416.859 45.233 417.097 45.196 417.31 45.1222C417.526 45.0455 417.712 44.9318 417.869 44.7812C418.025 44.6278 418.146 44.4375 418.231 44.2102L419.202 44.483C419.1 44.8125 418.928 45.1023 418.687 45.3523C418.445 45.5994 418.147 45.7926 417.792 45.9318C417.437 46.0682 417.038 46.1364 416.594 46.1364ZM420.971 46V37.2727H421.977V40.4943H422.062C422.136 40.3807 422.238 40.2358 422.369 40.0597C422.502 39.8807 422.692 39.7216 422.94 39.5824C423.19 39.4403 423.528 39.3693 423.954 39.3693C424.505 39.3693 424.991 39.5071 425.411 39.7827C425.832 40.0582 426.16 40.4489 426.396 40.9545C426.631 41.4602 426.749 42.0568 426.749 42.7443C426.749 43.4375 426.631 44.0384 426.396 44.5469C426.16 45.0526 425.833 45.4446 425.415 45.723C424.998 45.9986 424.516 46.1364 423.971 46.1364C423.55 46.1364 423.214 46.0668 422.961 45.9276C422.708 45.7855 422.513 45.625 422.377 45.446C422.241 45.2642 422.136 45.1136 422.062 44.9943H421.942V46H420.971ZM421.96 42.7273C421.96 43.2216 422.032 43.6577 422.177 44.0355C422.322 44.4105 422.533 44.7045 422.812 44.9176C423.09 45.1278 423.431 45.233 423.835 45.233C424.255 45.233 424.606 45.1222 424.887 44.9006C425.171 44.6761 425.384 44.375 425.526 43.9972C425.671 43.6165 425.744 43.1932 425.744 42.7273C425.744 42.267 425.673 41.8523 425.531 41.483C425.391 41.1108 425.18 40.8168 424.896 40.6009C424.614 40.3821 424.261 40.2727 423.835 40.2727C423.425 40.2727 423.082 40.3764 422.803 40.5838C422.525 40.7884 422.315 41.0753 422.173 41.4446C422.031 41.8111 421.96 42.2386 421.96 42.7273ZM430.947 46.1364C430.356 46.1364 429.837 45.9957 429.391 45.7145C428.948 45.4332 428.602 45.0398 428.352 44.5341C428.104 44.0284 427.981 43.4375 427.981 42.7614C427.981 42.0795 428.104 41.4844 428.352 40.9759C428.602 40.4673 428.948 40.0724 429.391 39.7912C429.837 39.5099 430.356 39.3693 430.947 39.3693C431.538 39.3693 432.055 39.5099 432.498 39.7912C432.944 40.0724 433.29 40.4673 433.538 40.9759C433.788 41.4844 433.913 42.0795 433.913 42.7614C433.913 43.4375 433.788 44.0284 433.538 44.5341C433.29 45.0398 432.944 45.4332 432.498 45.7145C432.055 45.9957 431.538 46.1364 430.947 46.1364ZM430.947 45.233C431.396 45.233 431.765 45.1179 432.055 44.8878C432.344 44.6577 432.559 44.3551 432.698 43.9801C432.837 43.6051 432.907 43.1989 432.907 42.7614C432.907 42.3239 432.837 41.9162 432.698 41.5384C432.559 41.1605 432.344 40.8551 432.055 40.6222C431.765 40.3892 431.396 40.2727 430.947 40.2727C430.498 40.2727 430.129 40.3892 429.839 40.6222C429.549 40.8551 429.335 41.1605 429.195 41.5384C429.056 41.9162 428.987 42.3239 428.987 42.7614C428.987 43.1989 429.056 43.6051 429.195 43.9801C429.335 44.3551 429.549 44.6577 429.839 44.8878C430.129 45.1179 430.498 45.233 430.947 45.233Z" fill="#535D6A"/>
<path d="M71 75.1128H455" stroke="#E9EBED" stroke-linecap="round"/>
<path d="M71 140.226H455" stroke="#E9EBED" stroke-linecap="round"/>
<path d="M71 205.339H455" stroke="#E9EBED" stroke-linecap="round"/>
<path d="M71 270.452H455" stroke="#E9EBED" stroke-linecap="round"/>
<path d="M71 268L263 140.226H455" stroke="#0059D6" stroke-width="2" stroke-linecap="round" stroke-linejoin="round"/>
<path d="M71 270.452H455" stroke="#8791A1" stroke-width="2" stroke-linecap="round"/>
<circle cx="263" cy="270.226" r="4" fill="white" stroke="#8791A1" stroke-width="2"/>
<circle cx="263" cy="140.226" r="4" fill="white" stroke="#0059D6" stroke-width="2"/>
<path d="M80.8461 298.236C80.1728 298.233 79.5975 298.055 79.1203 297.703C78.643 297.351 78.2779 296.838 78.0251 296.165C77.7722 295.491 77.6458 294.68 77.6458 293.731C77.6458 292.785 77.7722 291.977 78.0251 291.307C78.2808 290.636 78.6472 290.125 79.1245 289.773C79.6046 289.42 80.1785 289.244 80.8461 289.244C81.5137 289.244 82.0862 289.422 82.5634 289.777C83.0407 290.129 83.4058 290.641 83.6586 291.311C83.9143 291.979 84.0421 292.785 84.0421 293.731C84.0421 294.683 83.9157 295.496 83.6629 296.169C83.41 296.839 83.045 297.352 82.5677 297.707C82.0904 298.06 81.5166 298.236 80.8461 298.236ZM80.8461 297.098C81.437 297.098 81.8987 296.81 82.231 296.233C82.5663 295.656 82.7339 294.822 82.7339 293.731C82.7339 293.007 82.6572 292.395 82.5038 291.895C82.3532 291.392 82.1359 291.011 81.8518 290.753C81.5705 290.491 81.2353 290.361 80.8461 290.361C80.258 290.361 79.7964 290.65 79.4612 291.23C79.1259 291.81 78.9569 292.643 78.9541 293.731C78.9541 294.459 79.0293 295.074 79.1799 295.577C79.3333 296.077 79.5506 296.456 79.8319 296.714C80.1131 296.97 80.4512 297.098 80.8461 297.098Z" fill="#8791A1"/>
<path d="M247.596 298.21C247.011 298.21 246.488 298.109 246.028 297.908C245.571 297.706 245.208 297.426 244.941 297.068C244.677 296.707 244.535 296.29 244.515 295.815H245.853C245.87 296.074 245.957 296.298 246.113 296.489C246.272 296.676 246.48 296.821 246.735 296.923C246.991 297.025 247.275 297.077 247.588 297.077C247.931 297.077 248.235 297.017 248.5 296.898C248.767 296.778 248.975 296.612 249.126 296.399C249.277 296.183 249.352 295.935 249.352 295.653C249.352 295.361 249.277 295.104 249.126 294.882C248.978 294.658 248.761 294.481 248.474 294.354C248.19 294.226 247.846 294.162 247.443 294.162H246.705V293.088H247.443C247.767 293.088 248.051 293.03 248.295 292.913C248.542 292.797 248.735 292.635 248.875 292.427C249.014 292.217 249.083 291.972 249.083 291.69C249.083 291.42 249.022 291.186 248.9 290.987C248.781 290.785 248.61 290.628 248.389 290.514C248.17 290.4 247.911 290.344 247.613 290.344C247.329 290.344 247.063 290.396 246.816 290.501C246.572 290.604 246.373 290.751 246.22 290.945C246.066 291.135 245.984 291.364 245.973 291.631H244.698C244.713 291.159 244.852 290.744 245.116 290.386C245.383 290.028 245.735 289.748 246.173 289.547C246.61 289.345 247.096 289.244 247.63 289.244C248.19 289.244 248.673 289.354 249.079 289.572C249.488 289.788 249.803 290.077 250.025 290.437C250.25 290.798 250.36 291.193 250.357 291.622C250.36 292.111 250.224 292.525 249.948 292.866C249.676 293.207 249.312 293.436 248.857 293.552V293.621C249.437 293.709 249.886 293.939 250.204 294.311C250.525 294.683 250.684 295.145 250.681 295.696C250.684 296.176 250.551 296.606 250.281 296.987C250.014 297.368 249.649 297.668 249.186 297.886C248.723 298.102 248.193 298.21 247.596 298.21ZM255.33 298.236C254.657 298.233 254.082 298.055 253.605 297.703C253.127 297.351 252.762 296.838 252.509 296.165C252.257 295.491 252.13 294.68 252.13 293.731C252.13 292.785 252.257 291.977 252.509 291.307C252.765 290.636 253.132 290.125 253.609 289.773C254.089 289.42 254.663 289.244 255.33 289.244C255.998 289.244 256.571 289.422 257.048 289.777C257.525 290.129 257.89 290.641 258.143 291.311C258.399 291.979 258.527 292.785 258.527 293.731C258.527 294.683 258.4 295.496 258.147 296.169C257.894 296.839 257.529 297.352 257.052 297.707C256.575 298.06 256.001 298.236 255.33 298.236ZM255.33 297.098C255.921 297.098 256.383 296.81 256.715 296.233C257.051 295.656 257.218 294.822 257.218 293.731C257.218 293.007 257.142 292.395 256.988 291.895C256.838 291.392 256.62 291.011 256.336 290.753C256.055 290.491 255.72 290.361 255.33 290.361C254.742 290.361 254.281 290.65 253.946 291.23C253.61 291.81 253.441 292.643 253.438 293.731C253.438 294.459 253.514 295.074 253.664 295.577C253.818 296.077 254.035 296.456 254.316 296.714C254.598 296.97 254.936 297.098 255.33 297.098ZM265.681 298.219C265.153 298.219 264.681 298.084 264.267 297.814C263.855 297.541 263.531 297.153 263.295 296.65C263.062 296.145 262.946 295.538 262.946 294.831C262.946 294.123 263.063 293.518 263.299 293.016C263.538 292.513 263.865 292.128 264.279 291.861C264.694 291.594 265.164 291.46 265.69 291.46C266.096 291.46 266.423 291.528 266.67 291.665C266.92 291.798 267.113 291.954 267.25 292.133C267.389 292.312 267.497 292.47 267.573 292.606H267.65V289.364H268.924V298.091H267.68V297.072H267.573C267.497 297.212 267.386 297.371 267.241 297.55C267.099 297.729 266.903 297.885 266.653 298.018C266.403 298.152 266.079 298.219 265.681 298.219ZM265.963 297.132C266.329 297.132 266.639 297.035 266.892 296.842C267.147 296.646 267.34 296.375 267.471 296.028C267.605 295.682 267.671 295.278 267.671 294.818C267.671 294.364 267.606 293.966 267.475 293.625C267.345 293.284 267.153 293.018 266.9 292.828C266.647 292.638 266.335 292.543 265.963 292.543C265.579 292.543 265.259 292.642 265.004 292.841C264.748 293.04 264.555 293.311 264.424 293.655C264.296 293.998 264.232 294.386 264.232 294.818C264.232 295.256 264.298 295.649 264.428 295.998C264.559 296.348 264.752 296.625 265.008 296.829C265.267 297.031 265.585 297.132 265.963 297.132ZM272.648 298.236C272.233 298.236 271.858 298.159 271.523 298.006C271.187 297.849 270.922 297.623 270.726 297.328C270.533 297.033 270.436 296.67 270.436 296.241C270.436 295.872 270.507 295.568 270.649 295.329C270.791 295.091 270.983 294.902 271.224 294.763C271.466 294.623 271.736 294.518 272.034 294.447C272.332 294.376 272.636 294.322 272.946 294.285C273.338 294.24 273.656 294.203 273.9 294.175C274.145 294.143 274.322 294.094 274.433 294.025C274.544 293.957 274.599 293.847 274.599 293.693V293.663C274.599 293.291 274.494 293.003 274.284 292.798C274.077 292.594 273.767 292.491 273.355 292.491C272.926 292.491 272.588 292.587 272.341 292.777C272.096 292.964 271.927 293.173 271.834 293.403L270.636 293.131C270.778 292.733 270.986 292.412 271.258 292.168C271.534 291.92 271.851 291.741 272.209 291.631C272.567 291.517 272.943 291.46 273.338 291.46C273.599 291.46 273.876 291.491 274.169 291.554C274.464 291.614 274.74 291.724 274.996 291.886C275.254 292.048 275.466 292.28 275.631 292.581C275.795 292.879 275.878 293.267 275.878 293.744V298.091H274.633V297.196H274.582C274.5 297.361 274.376 297.523 274.212 297.682C274.047 297.841 273.835 297.973 273.577 298.078C273.318 298.183 273.008 298.236 272.648 298.236ZM272.925 297.213C273.277 297.213 273.578 297.143 273.828 297.004C274.081 296.865 274.273 296.683 274.403 296.459C274.537 296.231 274.604 295.989 274.604 295.73V294.886C274.558 294.932 274.47 294.974 274.339 295.014C274.212 295.051 274.065 295.084 273.9 295.112C273.736 295.138 273.575 295.162 273.419 295.185C273.263 295.204 273.132 295.222 273.027 295.236C272.78 295.267 272.554 295.32 272.349 295.393C272.148 295.467 271.986 295.574 271.864 295.713C271.744 295.849 271.685 296.031 271.685 296.258C271.685 296.574 271.801 296.812 272.034 296.974C272.267 297.133 272.564 297.213 272.925 297.213ZM278.146 300.545C277.955 300.545 277.782 300.53 277.626 300.498C277.47 300.47 277.353 300.439 277.277 300.405L277.583 299.361C277.816 299.423 278.024 299.45 278.205 299.442C278.387 299.433 278.548 299.365 278.687 299.237C278.829 299.109 278.954 298.9 279.062 298.611L279.22 298.176L276.825 291.545H278.188L279.846 296.625H279.914L281.572 291.545H282.94L280.242 298.964C280.117 299.305 279.958 299.594 279.765 299.829C279.572 300.068 279.342 300.247 279.075 300.366C278.808 300.486 278.498 300.545 278.146 300.545ZM289.042 293.143L287.887 293.348C287.839 293.2 287.762 293.06 287.657 292.926C287.555 292.793 287.416 292.683 287.24 292.598C287.063 292.513 286.843 292.47 286.579 292.47C286.218 292.47 285.917 292.551 285.676 292.713C285.434 292.872 285.313 293.078 285.313 293.331C285.313 293.55 285.394 293.726 285.556 293.859C285.718 293.993 285.98 294.102 286.34 294.187L287.38 294.426C287.982 294.565 288.431 294.78 288.727 295.07C289.022 295.359 289.17 295.736 289.17 296.199C289.17 296.591 289.056 296.94 288.829 297.247C288.605 297.551 288.291 297.79 287.887 297.963C287.487 298.136 287.022 298.223 286.494 298.223C285.761 298.223 285.163 298.067 284.7 297.754C284.237 297.439 283.953 296.991 283.848 296.412L285.079 296.224C285.156 296.545 285.313 296.788 285.552 296.953C285.791 297.115 286.102 297.196 286.485 297.196C286.903 297.196 287.237 297.109 287.487 296.936C287.737 296.76 287.862 296.545 287.862 296.293C287.862 296.088 287.785 295.916 287.632 295.777C287.481 295.638 287.25 295.533 286.937 295.462L285.829 295.219C285.218 295.079 284.767 294.858 284.474 294.554C284.184 294.25 284.039 293.865 284.039 293.399C284.039 293.013 284.147 292.675 284.363 292.385C284.579 292.095 284.877 291.869 285.258 291.707C285.639 291.543 286.075 291.46 286.566 291.46C287.274 291.46 287.83 291.614 288.237 291.92C288.643 292.224 288.911 292.632 289.042 293.143Z" fill="#8791A1"/>
<path d="M413.71 298.21C413.321 298.204 412.937 298.133 412.56 297.997C412.185 297.861 411.844 297.633 411.537 297.315C411.23 296.997 410.984 296.57 410.8 296.033C410.618 295.496 410.527 294.825 410.527 294.021C410.527 293.26 410.602 292.584 410.753 291.993C410.906 291.402 411.126 290.903 411.413 290.497C411.7 290.088 412.047 289.777 412.453 289.564C412.859 289.351 413.315 289.244 413.821 289.244C414.341 289.244 414.802 289.347 415.206 289.551C415.609 289.756 415.936 290.038 416.186 290.399C416.439 290.76 416.599 291.17 416.667 291.631H415.368C415.28 291.267 415.105 290.97 414.844 290.74C414.582 290.51 414.241 290.395 413.821 290.395C413.182 290.395 412.683 290.673 412.325 291.23C411.97 291.787 411.791 292.561 411.788 293.552H411.852C412.003 293.305 412.187 293.095 412.406 292.922C412.628 292.746 412.875 292.611 413.148 292.517C413.423 292.42 413.713 292.372 414.017 292.372C414.523 292.372 414.98 292.496 415.389 292.743C415.801 292.987 416.129 293.325 416.373 293.757C416.618 294.189 416.74 294.683 416.74 295.24C416.74 295.797 416.614 296.301 416.361 296.753C416.111 297.204 415.758 297.562 415.304 297.827C414.849 298.088 414.318 298.216 413.71 298.21ZM413.706 297.102C414.041 297.102 414.341 297.02 414.605 296.855C414.869 296.69 415.078 296.469 415.231 296.19C415.385 295.912 415.462 295.601 415.462 295.257C415.462 294.922 415.386 294.616 415.236 294.341C415.088 294.065 414.883 293.847 414.622 293.685C414.364 293.523 414.068 293.442 413.736 293.442C413.483 293.442 413.248 293.49 413.033 293.587C412.819 293.683 412.632 293.817 412.47 293.987C412.308 294.158 412.18 294.354 412.087 294.575C411.996 294.794 411.95 295.025 411.95 295.27C411.95 295.597 412.025 295.899 412.176 296.177C412.329 296.456 412.538 296.68 412.802 296.851C413.069 297.018 413.371 297.102 413.706 297.102ZM421.33 298.236C420.657 298.233 420.082 298.055 419.605 297.703C419.127 297.351 418.762 296.838 418.509 296.165C418.257 295.491 418.13 294.68 418.13 293.731C418.13 292.785 418.257 291.977 418.509 291.307C418.765 290.636 419.132 290.125 419.609 289.773C420.089 289.42 420.663 289.244 421.33 289.244C421.998 289.244 422.571 289.422 423.048 289.777C423.525 290.129 423.89 290.641 424.143 291.311C424.399 291.979 424.527 292.785 424.527 293.731C424.527 294.683 424.4 295.496 424.147 296.169C423.894 296.839 423.529 297.352 423.052 297.707C422.575 298.06 422.001 298.236 421.33 298.236ZM421.33 297.098C421.921 297.098 422.383 296.81 422.715 296.233C423.051 295.656 423.218 294.822 423.218 293.731C423.218 293.007 423.142 292.395 422.988 291.895C422.838 291.392 422.62 291.011 422.336 290.753C422.055 290.491 421.72 290.361 421.33 290.361C420.742 290.361 420.281 290.65 419.946 291.23C419.61 291.81 419.441 292.643 419.438 293.731C419.438 294.459 419.514 295.074 419.664 295.577C419.818 296.077 420.035 296.456 420.316 296.714C420.598 296.97 420.936 297.098 421.33 297.098ZM431.681 298.219C431.153 298.219 430.681 298.084 430.267 297.814C429.855 297.541 429.531 297.153 429.295 296.65C429.062 296.145 428.946 295.538 428.946 294.831C428.946 294.123 429.063 293.518 429.299 293.016C429.538 292.513 429.865 292.128 430.279 291.861C430.694 291.594 431.164 291.46 431.69 291.46C432.096 291.46 432.423 291.528 432.67 291.665C432.92 291.798 433.113 291.954 433.25 292.133C433.389 292.312 433.497 292.47 433.573 292.606H433.65V289.364H434.924V298.091H433.68V297.072H433.573C433.497 297.212 433.386 297.371 433.241 297.55C433.099 297.729 432.903 297.885 432.653 298.018C432.403 298.152 432.079 298.219 431.681 298.219ZM431.963 297.132C432.329 297.132 432.639 297.035 432.892 296.842C433.147 296.646 433.34 296.375 433.471 296.028C433.605 295.682 433.671 295.278 433.671 294.818C433.671 294.364 433.606 293.966 433.475 293.625C433.345 293.284 433.153 293.018 432.9 292.828C432.647 292.638 432.335 292.543 431.963 292.543C431.579 292.543 431.259 292.642 431.004 292.841C430.748 293.04 430.555 293.311 430.424 293.655C430.296 293.998 430.232 294.386 430.232 294.818C430.232 295.256 430.298 295.649 430.428 295.998C430.559 296.348 430.752 296.625 431.008 296.829C431.267 297.031 431.585 297.132 431.963 297.132ZM438.648 298.236C438.233 298.236 437.858 298.159 437.523 298.006C437.187 297.849 436.922 297.623 436.726 297.328C436.533 297.033 436.436 296.67 436.436 296.241C436.436 295.872 436.507 295.568 436.649 295.329C436.791 295.091 436.983 294.902 437.224 294.763C437.466 294.623 437.736 294.518 438.034 294.447C438.332 294.376 438.636 294.322 438.946 294.285C439.338 294.24 439.656 294.203 439.9 294.175C440.145 294.143 440.322 294.094 440.433 294.025C440.544 293.957 440.599 293.847 440.599 293.693V293.663C440.599 293.291 440.494 293.003 440.284 292.798C440.077 292.594 439.767 292.491 439.355 292.491C438.926 292.491 438.588 292.587 438.341 292.777C438.096 292.964 437.927 293.173 437.834 293.403L436.636 293.131C436.778 292.733 436.986 292.412 437.258 292.168C437.534 291.92 437.851 291.741 438.209 291.631C438.567 291.517 438.943 291.46 439.338 291.46C439.599 291.46 439.876 291.491 440.169 291.554C440.464 291.614 440.74 291.724 440.996 291.886C441.254 292.048 441.466 292.28 441.631 292.581C441.795 292.879 441.878 293.267 441.878 293.744V298.091H440.633V297.196H440.582C440.5 297.361 440.376 297.523 440.212 297.682C440.047 297.841 439.835 297.973 439.577 298.078C439.318 298.183 439.008 298.236 438.648 298.236ZM438.925 297.213C439.277 297.213 439.578 297.143 439.828 297.004C440.081 296.865 440.273 296.683 440.403 296.459C440.537 296.231 440.604 295.989 440.604 295.73V294.886C440.558 294.932 440.47 294.974 440.339 295.014C440.212 295.051 440.065 295.084 439.9 295.112C439.736 295.138 439.575 295.162 439.419 295.185C439.263 295.204 439.132 295.222 439.027 295.236C438.78 295.267 438.554 295.32 438.349 295.393C438.148 295.467 437.986 295.574 437.864 295.713C437.744 295.849 437.685 296.031 437.685 296.258C437.685 296.574 437.801 296.812 438.034 296.974C438.267 297.133 438.564 297.213 438.925 297.213ZM444.146 300.545C443.955 300.545 443.782 300.53 443.626 300.498C443.47 300.47 443.353 300.439 443.277 300.405L443.583 299.361C443.816 299.423 444.024 299.45 444.205 299.442C444.387 299.433 444.548 299.365 444.687 299.237C444.829 299.109 444.954 298.9 445.062 298.611L445.22 298.176L442.825 291.545H444.188L445.846 296.625H445.914L447.572 291.545H448.94L446.242 298.964C446.117 299.305 445.958 299.594 445.765 299.829C445.572 300.068 445.342 300.247 445.075 300.366C444.808 300.486 444.498 300.545 444.146 300.545ZM455.042 293.143L453.887 293.348C453.839 293.2 453.762 293.06 453.657 292.926C453.555 292.793 453.416 292.683 453.24 292.598C453.063 292.513 452.843 292.47 452.579 292.47C452.218 292.47 451.917 292.551 451.676 292.713C451.434 292.872 451.313 293.078 451.313 293.331C451.313 293.55 451.394 293.726 451.556 293.859C451.718 293.993 451.98 294.102 452.34 294.187L453.38 294.426C453.982 294.565 454.431 294.78 454.727 295.07C455.022 295.359 455.17 295.736 455.17 296.199C455.17 296.591 455.056 296.94 454.829 297.247C454.605 297.551 454.291 297.79 453.887 297.963C453.487 298.136 453.022 298.223 452.494 298.223C451.761 298.223 451.163 298.067 450.7 297.754C450.237 297.439 449.953 296.991 449.848 296.412L451.079 296.224C451.156 296.545 451.313 296.788 451.552 296.953C451.791 297.115 452.102 297.196 452.485 297.196C452.903 297.196 453.237 297.109 453.487 296.936C453.737 296.76 453.862 296.545 453.862 296.293C453.862 296.088 453.785 295.916 453.632 295.777C453.481 295.638 453.25 295.533 452.937 295.462L451.829 295.219C451.218 295.079 450.767 294.858 450.474 294.554C450.184 294.25 450.039 293.865 450.039 293.399C450.039 293.013 450.147 292.675 450.363 292.385C450.579 292.095 450.877 291.869 451.258 291.707C451.639 291.543 452.075 291.46 452.566 291.46C453.274 291.46 453.83 291.614 454.237 291.92C454.643 292.224 454.911 292.632 455.042 293.143Z" fill="#8791A1"/>
<path d="M4.11079 199.664L4.11079 200.993C3.8267 201.044 3.5767 201.14 3.36079 201.279C3.14489 201.418 2.96165 201.588 2.81108 201.79C2.66051 201.992 2.54687 202.218 2.47017 202.468C2.39347 202.715 2.35511 202.978 2.35511 203.256C2.35511 203.759 2.48153 204.209 2.73437 204.607C2.98722 205.002 3.35795 205.314 3.84659 205.544C4.33523 205.772 4.93182 205.885 5.63636 205.885C6.34659 205.885 6.94602 205.772 7.43466 205.544C7.9233 205.314 8.29261 205 8.54261 204.603C8.79261 204.205 8.91761 203.757 8.91761 203.26C8.91761 202.985 8.88068 202.723 8.80682 202.476C8.73011 202.226 8.6179 202 8.47017 201.799C8.32244 201.597 8.14205 201.426 7.92898 201.287C7.71307 201.145 7.46591 201.047 7.1875 200.993L7.19176 199.664C7.62074 199.735 8.01562 199.873 8.37642 200.077C8.73437 200.279 9.04403 200.539 9.3054 200.857C9.56392 201.172 9.7642 201.533 9.90625 201.939C10.0483 202.346 10.1193 202.789 10.1193 203.269C10.1193 204.025 9.94034 204.698 9.58239 205.289C9.22159 205.88 8.70597 206.346 8.03551 206.686C7.36506 207.025 6.56534 207.194 5.63636 207.194C4.70455 207.194 3.90483 207.023 3.23722 206.682C2.56676 206.341 2.05256 205.875 1.6946 205.284C1.33381 204.694 1.15341 204.022 1.15341 203.269C1.15341 202.806 1.22017 202.374 1.35369 201.973C1.48437 201.57 1.67756 201.208 1.93324 200.887C2.18608 200.566 2.49574 200.3 2.86222 200.09C3.22585 199.88 3.64204 199.738 4.11079 199.664ZM6.11364 196.916L10 196.916L10 198.19L1.27273 198.19L1.27273 196.933L4.51989 196.933L4.51989 196.852C4.16761 196.699 3.88778 196.464 3.6804 196.149C3.47301 195.834 3.36932 195.422 3.36932 194.913C3.36932 194.464 3.46165 194.072 3.64631 193.737C3.83097 193.399 4.10653 193.138 4.47301 192.953C4.83665 192.766 5.29119 192.672 5.83665 192.672L10 192.672L10 193.946L5.99006 193.946C5.50994 193.946 5.13778 194.07 4.87358 194.317C4.60653 194.564 4.47301 194.908 4.47301 195.348C4.47301 195.649 4.53693 195.919 4.66477 196.158C4.79261 196.393 4.98011 196.58 5.22727 196.716C5.47159 196.849 5.76704 196.916 6.11364 196.916ZM10.1449 189.067C10.1449 189.482 10.0682 189.857 9.91477 190.192C9.75852 190.527 9.53267 190.793 9.23722 190.989C8.94176 191.182 8.57954 191.278 8.15057 191.278C7.78125 191.278 7.47727 191.207 7.23864 191.065C7 190.923 6.81108 190.732 6.67187 190.49C6.53267 190.249 6.42756 189.979 6.35653 189.68C6.28551 189.382 6.23153 189.078 6.1946 188.768C6.14915 188.376 6.11221 188.058 6.08381 187.814C6.05256 187.57 6.00284 187.392 5.93466 187.281C5.86648 187.17 5.75568 187.115 5.60227 187.115L5.57244 187.115C5.20028 187.115 4.91193 187.22 4.70739 187.43C4.50284 187.638 4.40057 187.947 4.40057 188.359C4.40057 188.788 4.49574 189.126 4.68608 189.374C4.87358 189.618 5.08239 189.787 5.3125 189.881L5.03977 191.078C4.64204 190.936 4.32102 190.729 4.0767 190.456C3.82954 190.18 3.65057 189.864 3.53977 189.506C3.42614 189.148 3.36932 188.771 3.36932 188.376C3.36932 188.115 3.40057 187.838 3.46307 187.545C3.52273 187.25 3.63352 186.974 3.79545 186.719C3.95739 186.46 4.18892 186.249 4.49006 186.084C4.78835 185.919 5.17614 185.837 5.65341 185.837L10 185.837L10 187.081L9.10511 187.081L9.10511 187.132C9.26989 187.214 9.43182 187.338 9.59091 187.503C9.75 187.668 9.8821 187.879 9.98722 188.138C10.0923 188.396 10.1449 188.706 10.1449 189.067ZM9.12216 188.79C9.12216 188.437 9.05256 188.136 8.91335 187.886C8.77415 187.634 8.59233 187.442 8.3679 187.311C8.14062 187.178 7.89773 187.111 7.6392 187.111L6.79545 187.111C6.84091 187.156 6.88352 187.244 6.92329 187.375C6.96023 187.503 6.9929 187.649 7.02131 187.814C7.04687 187.979 7.07102 188.139 7.09375 188.295C7.11364 188.452 7.13068 188.582 7.14489 188.687C7.17614 188.935 7.22869 189.161 7.30256 189.365C7.37642 189.567 7.48295 189.729 7.62216 189.851C7.75852 189.97 7.94034 190.03 8.16761 190.03C8.48295 190.03 8.72159 189.913 8.88352 189.68C9.04261 189.447 9.12216 189.151 9.12216 188.79ZM6.11364 182.865L10 182.865L10 184.14L3.45454 184.14L3.45454 182.917L4.51989 182.917L4.51989 182.836C4.17329 182.685 3.89489 182.449 3.68466 182.128C3.47443 181.804 3.36932 181.397 3.36932 180.905C3.36932 180.459 3.46307 180.069 3.65057 179.733C3.83523 179.398 4.11079 179.138 4.47727 178.953C4.84375 178.769 5.29687 178.676 5.83665 178.676L10 178.676L10 179.951L5.99006 179.951C5.51562 179.951 5.14489 180.074 4.87784 180.321C4.60795 180.569 4.47301 180.908 4.47301 181.34C4.47301 181.635 4.53693 181.898 4.66477 182.128C4.79261 182.355 4.98011 182.536 5.22727 182.669C5.47159 182.8 5.76704 182.865 6.11364 182.865ZM12.5909 174.223C12.5909 174.743 12.5227 175.191 12.3864 175.566C12.25 175.938 12.0696 176.242 11.8452 176.478C11.6207 176.713 11.375 176.89 11.108 177.006L10.6562 175.911C10.7812 175.834 10.9134 175.732 11.0526 175.604C11.1946 175.473 11.3153 175.297 11.4148 175.076C11.5142 174.851 11.5639 174.563 11.5639 174.211C11.5639 173.728 11.446 173.328 11.2102 173.013C10.9773 172.698 10.6051 172.54 10.0937 172.54L8.80682 172.54L8.80682 172.621C8.94602 172.698 9.10085 172.809 9.27131 172.953C9.44176 173.096 9.58949 173.292 9.71449 173.542C9.83949 173.792 9.90199 174.117 9.90199 174.517C9.90199 175.034 9.78125 175.5 9.53977 175.915C9.29545 176.327 8.93608 176.654 8.46165 176.895C7.98437 177.134 7.39773 177.253 6.7017 177.253C6.00568 177.253 5.40909 177.135 4.91193 176.9C4.41477 176.661 4.03409 176.334 3.76989 175.919C3.50284 175.505 3.36932 175.034 3.36932 174.509C3.36932 174.103 3.4375 173.775 3.57386 173.525C3.70738 173.275 3.86363 173.08 4.04261 172.941C4.22159 172.799 4.37926 172.689 4.51562 172.613L4.51562 172.519L3.45454 172.519L3.45454 171.27L10.1449 171.27C10.7074 171.27 11.169 171.401 11.5298 171.662C11.8906 171.924 12.1577 172.277 12.331 172.723C12.5043 173.167 12.5909 173.667 12.5909 174.223ZM8.84517 174.236C8.84517 173.87 8.75994 173.56 8.58949 173.307C8.41619 173.051 8.16903 172.858 7.84801 172.728C7.52415 172.594 7.13636 172.527 6.68466 172.527C6.24432 172.527 5.85653 172.593 5.52131 172.723C5.18608 172.854 4.92471 173.046 4.73721 173.299C4.54687 173.551 4.4517 173.864 4.4517 174.236C4.4517 174.62 4.55113 174.939 4.75 175.195C4.94602 175.451 5.21307 175.644 5.55113 175.775C5.8892 175.902 6.26704 175.966 6.68466 175.966C7.11363 175.966 7.49006 175.901 7.81392 175.77C8.13778 175.64 8.39062 175.446 8.57244 175.191C8.75426 174.932 8.84517 174.614 8.84517 174.236ZM10.1321 166.74C10.1321 167.385 9.99432 167.941 9.71875 168.407C9.44034 168.87 9.04971 169.228 8.54687 169.48C8.04119 169.73 7.44886 169.855 6.76988 169.855C6.09943 169.855 5.50852 169.73 4.99716 169.48C4.48579 169.228 4.08665 168.875 3.79971 168.424C3.51278 167.969 3.36932 167.438 3.36932 166.83C3.36932 166.461 3.4304 166.103 3.55255 165.756C3.67471 165.409 3.86648 165.098 4.12784 164.823C4.3892 164.547 4.72869 164.33 5.1463 164.171C5.56108 164.012 6.06534 163.932 6.65909 163.932L7.11079 163.932L7.11079 169.135L6.15625 169.135L6.15625 165.181C5.82102 165.181 5.52415 165.249 5.26562 165.385C5.00426 165.522 4.79829 165.713 4.64773 165.961C4.49716 166.205 4.42187 166.492 4.42187 166.821C4.42187 167.179 4.50994 167.492 4.68608 167.759C4.85937 168.023 5.08665 168.228 5.3679 168.373C5.6463 168.515 5.94886 168.586 6.27557 168.586L7.02131 168.586C7.45881 168.586 7.83096 168.509 8.13778 168.355C8.4446 168.199 8.67898 167.982 8.84091 167.703C9 167.425 9.07954 167.1 9.07954 166.728C9.07954 166.486 9.04545 166.266 8.97727 166.067C8.90625 165.868 8.80113 165.696 8.66193 165.551C8.52273 165.407 8.35085 165.296 8.1463 165.219L8.36363 164.013C8.71875 164.11 9.02983 164.283 9.29687 164.533C9.56108 164.78 9.76704 165.091 9.91477 165.466C10.0597 165.838 10.1321 166.263 10.1321 166.74ZM10 159.343L3.45454 159.343L3.45454 158.069L10 158.069L10 159.343ZM2.4446 158.699C2.4446 158.921 2.37074 159.111 2.22301 159.27C2.07244 159.426 1.89346 159.505 1.68608 159.505C1.47585 159.505 1.29687 159.426 1.14915 159.27C0.998577 159.111 0.923293 158.921 0.923293 158.699C0.923293 158.478 0.998577 158.289 1.14915 158.132C1.29687 157.973 1.47585 157.894 1.68608 157.894C1.89346 157.894 2.07244 157.973 2.22301 158.132C2.37074 158.289 2.4446 158.478 2.4446 158.699ZM6.11363 155.08L10 155.08L10 156.354L3.45454 156.354L3.45454 155.131L4.51988 155.131L4.51988 155.05C4.17329 154.9 3.89488 154.664 3.68466 154.343C3.47443 154.019 3.36932 153.612 3.36932 153.12C3.36932 152.674 3.46307 152.283 3.65057 151.948C3.83522 151.613 4.11079 151.353 4.47727 151.168C4.84375 150.984 5.29687 150.891 5.83665 150.891L10 150.891L10 152.165L5.99005 152.165C5.51562 152.165 5.14488 152.289 4.87784 152.536C4.60795 152.783 4.47301 153.123 4.47301 153.555C4.47301 153.85 4.53693 154.113 4.66477 154.343C4.79261 154.57 4.98011 154.751 5.22727 154.884C5.47159 155.015 5.76704 155.08 6.11363 155.08ZM1.27272 138.86L10 138.86L10 140.071L3.59943 144.507L3.59943 144.588L10 144.588L10 145.904L1.27272 145.904L1.27272 144.686L7.68182 140.245L7.68182 140.164L1.27272 140.164L1.27272 138.86ZM10 136.202L10 137.6L1.27272 134.46L1.27272 132.938L10 129.798L10 131.195L2.85795 133.663L2.85795 133.731L10 136.202ZM6.58238 135.968L6.58238 131.434L7.69034 131.434L7.69034 135.968L6.58238 135.968ZM10 125.712L10 128.537L1.27272 128.537L1.27272 125.623C1.27272 124.767 1.44744 124.033 1.79687 123.419C2.14346 122.806 2.64204 122.336 3.29261 122.009C3.94034 121.679 4.71733 121.515 5.62358 121.515C6.53267 121.515 7.31392 121.681 7.96733 122.013C8.62073 122.343 9.12358 122.82 9.47585 123.445C9.82528 124.07 10 124.826 10 125.712ZM8.84943 127.221L8.84943 125.784C8.84943 125.12 8.72443 124.567 8.47443 124.127C8.22159 123.686 7.85653 123.357 7.37926 123.138C6.89914 122.919 6.31392 122.81 5.62358 122.81C4.93892 122.81 4.35795 122.919 3.88068 123.138C3.40341 123.354 3.04119 123.676 2.79403 124.105C2.54687 124.534 2.42329 125.067 2.42329 125.703L2.42329 127.221L8.84943 127.221ZM8.53409 117.414L2.77272 117.414L2.77272 116.268L8.53409 116.268L8.53409 117.414ZM6.22443 119.719L5.08238 119.719L5.08238 113.958L6.22443 113.958L6.22443 119.719ZM10 108.709L1.27272 108.709L1.27272 107.392L8.86647 107.392L8.86647 103.438L10 103.438L10 108.709ZM10.1321 99.217C10.1321 99.8619 9.99431 100.417 9.71875 100.883C9.44034 101.346 9.04971 101.704 8.54687 101.957C8.04119 102.207 7.44886 102.332 6.76988 102.332C6.09943 102.332 5.50852 102.207 4.99715 101.957C4.48579 101.704 4.08664 101.352 3.79971 100.9C3.51278 100.446 3.36931 99.9144 3.36931 99.3065C3.36931 98.9371 3.43039 98.5792 3.55255 98.2326C3.67471 97.886 3.86647 97.5749 4.12784 97.2994C4.3892 97.0238 4.72869 96.8065 5.1463 96.6474C5.56107 96.4883 6.06534 96.4087 6.65909 96.4087L7.11079 96.4087L7.11079 101.612L6.15625 101.612L6.15625 97.6573C5.82102 97.6573 5.52414 97.7255 5.26562 97.8619C5.00426 97.9982 4.79829 98.19 4.64772 98.4371C4.49715 98.6815 4.42187 98.9684 4.42187 99.2979C4.42187 99.6559 4.50994 99.9684 4.68607 100.235C4.85937 100.5 5.08664 100.704 5.36789 100.849C5.6463 100.991 5.94886 101.062 6.27556 101.062L7.0213 101.062C7.4588 101.062 7.83096 100.985 8.13778 100.832C8.4446 100.676 8.67897 100.458 8.8409 100.18C9 99.9016 9.07954 99.5763 9.07954 99.2042C9.07954 98.9627 9.04545 98.7425 8.97727 98.5437C8.90625 98.3448 8.80113 98.1729 8.66193 98.0281C8.52272 97.8832 8.35085 97.7724 8.1463 97.6957L8.36363 96.4897C8.71875 96.5863 9.02982 96.7596 9.29687 97.0096C9.56107 97.2567 9.76704 97.5678 9.91477 97.9428C10.0597 98.315 10.1321 98.7397 10.1321 99.217ZM3.45454 89.5831L9.99999 91.9567L9.99999 93.3203L3.45454 95.6982L3.45454 94.3303L8.49147 92.6726L8.49147 92.6044L3.45454 90.951L3.45454 89.5831ZM10.1321 85.7873C10.1321 86.4322 9.99431 86.9876 9.71874 87.4535C9.44034 87.9165 9.04971 88.2745 8.54687 88.5273C8.04119 88.7773 7.44886 88.9023 6.76988 88.9023C6.09943 88.9023 5.50852 88.7773 4.99715 88.5273C4.48579 88.2745 4.08664 87.9222 3.79971 87.4705C3.51278 87.016 3.36931 86.4847 3.36931 85.8768C3.36931 85.5075 3.43039 85.1495 3.55255 84.8029C3.67471 84.4563 3.86647 84.1452 4.12784 83.8697C4.3892 83.5941 4.72869 83.3768 5.1463 83.2177C5.56107 83.0586 6.06534 82.979 6.65909 82.979L7.11079 82.979L7.11079 88.1822L6.15624 88.1822L6.15624 84.2276C5.82102 84.2276 5.52414 84.2958 5.26562 84.4322C5.00426 84.5685 4.79829 84.7603 4.64772 85.0075C4.49715 85.2518 4.42187 85.5387 4.42187 85.8683C4.42187 86.2262 4.50994 86.5387 4.68607 86.8058C4.85937 87.07 5.08664 87.2745 5.36789 87.4194C5.6463 87.5614 5.94886 87.6325 6.27556 87.6325L7.0213 87.6325C7.4588 87.6325 7.83096 87.5558 8.13778 87.4023C8.4446 87.2461 8.67897 87.0288 8.8409 86.7504C8.99999 86.4719 9.07954 86.1467 9.07954 85.7745C9.07954 85.533 9.04545 85.3129 8.97727 85.114C8.90624 84.9151 8.80113 84.7433 8.66193 84.5984C8.52272 84.4535 8.35085 84.3427 8.1463 84.266L8.36363 83.06C8.71874 83.1566 9.02982 83.3299 9.29687 83.5799C9.56107 83.8271 9.76704 84.1381 9.91477 84.5131C10.0597 84.8853 10.1321 85.31 10.1321 85.7873ZM1.27272 80.2912L9.99999 80.2912L9.99999 81.5653L1.27272 81.5653L1.27272 80.2912ZM5.05255 73.6722L5.2571 74.8271C5.10937 74.8754 4.96874 74.9521 4.83522 75.0572C4.7017 75.1594 4.59232 75.2987 4.5071 75.4748C4.42187 75.6509 4.37926 75.8711 4.37926 76.1353C4.37926 76.4961 4.46022 76.7972 4.62215 77.0387C4.78124 77.2802 4.98721 77.4009 5.24005 77.4009C5.4588 77.4009 5.63494 77.32 5.76846 77.158C5.90198 76.9961 6.01136 76.7347 6.09659 76.3739L6.33522 75.3342C6.47443 74.7319 6.68891 74.283 6.97869 73.9876C7.26846 73.6921 7.64488 73.5444 8.10795 73.5444C8.49999 73.5444 8.84943 73.658 9.15624 73.8853C9.46022 74.1097 9.69886 74.4236 9.87215 74.8271C10.0454 75.2276 10.1321 75.6921 10.1321 76.2205C10.1321 76.9535 9.97585 77.5515 9.66335 78.0146C9.34801 78.4776 8.90056 78.7617 8.32102 78.8668L8.13352 77.6353C8.45454 77.5586 8.69744 77.4009 8.86221 77.1623C9.02414 76.9236 9.10511 76.6126 9.10511 76.229C9.10511 75.8114 9.01846 75.4776 8.84516 75.2276C8.66903 74.9776 8.45454 74.8526 8.2017 74.8526C7.99715 74.8526 7.82528 74.9293 7.68607 75.0827C7.54687 75.2333 7.44176 75.4648 7.37073 75.7773L7.12784 76.8853C6.98863 77.4961 6.76704 77.9478 6.46306 78.2404C6.15909 78.5302 5.77414 78.6751 5.30823 78.6751C4.92187 78.6751 4.5838 78.5671 4.29403 78.3512C4.00426 78.1353 3.7784 77.837 3.61647 77.4563C3.4517 77.0756 3.36931 76.6396 3.36931 76.1481C3.36931 75.4407 3.52272 74.8839 3.82954 74.4776C4.13352 74.0714 4.54119 73.8029 5.05255 73.6722Z" fill="#121417"/>
</svg>
