<svg xmlns="http://www.w3.org/2000/svg">
    <symbol id="arrow" viewBox="0 0 16 16">
        <path d="M6 12L10 8L6 4" stroke="#9BA4B0" stroke-width="1.6" stroke-linecap="round" stroke-linejoin="round"/>
    </symbol>
    <symbol id="lock" viewBox="0 0 16 16">
        <path d="M4.66667 7.33334V4.66667C4.66667 3.78261 5.01786 2.93477 5.64298 2.30965C6.2681 1.68453 7.11595 1.33334 8 1.33334C8.88406 1.33334 9.7319 1.68453 10.357 2.30965C10.9821 2.93477 11.3333 3.78261 11.3333 4.66667V7.33334M3.33333 7.33334H12.6667C13.403 7.33334 14 7.93029 14 8.66667V13.3333C14 14.0697 13.403 14.6667 12.6667 14.6667H3.33333C2.59695 14.6667 2 14.0697 2 13.3333V8.66667C2 7.93029 2.59695 7.33334 3.33333 7.33334Z"
              stroke="#00A352" stroke-width="1.6" stroke-linecap="round" stroke-linejoin="round"/>
    </symbol>
    <symbol id="message" viewBox="0 0 16 16">
        <path d="M14 7.66667C14.0023 8.54658 13.7967 9.41459 13.4 10.2C12.9296 11.1412 12.2065 11.9328 11.3116 12.4862C10.4168 13.0396 9.3855 13.3329 8.33333 13.3333C7.45342 13.3356 6.58541 13.1301 5.8 12.7333L2 14L3.26667 10.2C2.86995 9.41459 2.66437 8.54658 2.66667 7.66667C2.66707 6.61451 2.96041 5.58324 3.51381 4.68837C4.06722 3.7935 4.85884 3.07038 5.8 2.6C6.58541 2.20329 7.45342 1.99771 8.33333 2H8.66667C10.0562 2.07666 11.3687 2.66318 12.3528 3.64724C13.3368 4.63131 13.9233 5.94377 14 7.33334V7.66667Z"
              stroke="#0059D6" stroke-width="1.6" stroke-linecap="round" stroke-linejoin="round"/>
    </symbol>
</svg>