<svg xmlns="http://www.w3.org/2000/svg">
    <symbol id="shipping" viewBox="0 0 25 25">
        <path d="M16.5 9.40185L7.5 4.21186M3.27 6.96186L12 12.0119L20.73 6.96186M12 22.0819V12.0019M21 16.0019V8.00186C20.9996 7.65113 20.9071 7.30667 20.7315 7.00302C20.556 6.69937 20.3037 6.44722 20 6.27186L13 2.27186C12.696 2.09632 12.3511 2.00391 12 2.00391C11.6489 2.00391 11.304 2.09632 11 2.27186L4 6.27186C3.69626 6.44722 3.44398 6.69937 3.26846 7.00302C3.09294 7.30667 3.00036 7.65113 3 8.00186V16.0019C3.00036 16.3526 3.09294 16.697 3.26846 17.0007C3.44398 17.3043 3.69626 17.5565 4 17.7319L11 21.7319C11.304 21.9074 11.6489 21.9998 12 21.9998C12.3511 21.9998 12.696 21.9074 13 21.7319L20 17.7319C20.3037 17.5565 20.556 17.3043 20.7315 17.0007C20.9071 16.697 20.9996 16.3526 21 16.0019Z"
              stroke-width="2" stroke-linecap="round" stroke-linejoin="round"/>
    </symbol>
    <symbol id="billing" viewBox="0 0 25 25">
        <path d="M14.1755 4.22408C14.1766 2.99629 11.6731 2.00183 8.58832 2.00183C5.50357 2.00183 3.00224 2.9974 3 4.22408M3 4.22408C3 5.45187 5.50133 6.44632 8.58832 6.44632C11.6753 6.44632 14.1766 5.45187 14.1766 4.22408L14.1766 12.8463M3 4.22408V17.5575C3.00112 18.7853 5.50245 19.7797 8.58832 19.7797C10.0849 19.7797 11.4361 19.543 12.4387 19.1619M3.00112 8.66855C3.00112 9.89634 5.50245 10.8908 8.58944 10.8908C11.6764 10.8908 14.1778 9.89634 14.1778 8.66855M12.5057 14.6965C11.4976 15.0909 10.115 15.3354 8.58832 15.3354C5.50245 15.3354 3.00112 14.3409 3.00112 13.1131M20.5272 13.4665C22.4909 15.4187 22.4909 18.5854 20.5272 20.5376C18.5635 22.4899 15.3781 22.4899 13.4144 20.5376C11.4507 18.5854 11.4507 15.4187 13.4144 13.4665C15.3781 11.5142 18.5635 11.5142 20.5272 13.4665Z"
              stroke-width="2" stroke-linecap="round" stroke-linejoin="round"/>
    </symbol>
    <symbol id="return" viewBox="0 0 25 25">
        <path d="M1 4.00178V10.0018M1 10.0018H7M1 10.0018L5.64 5.64178C7.02091 4.2632 8.81245 3.37075 10.7447 3.0989C12.6769 2.82704 14.6451 3.19051 16.3528 4.13454C18.0605 5.07857 19.4152 6.55202 20.2126 8.33288C21.0101 10.1137 21.2072 12.1055 20.7742 14.0081C20.3413 15.9108 19.3017 17.6211 17.8121 18.8815C16.3226 20.142 14.4637 20.8841 12.5157 20.9963C10.5677 21.1084 8.63598 20.5844 7.01166 19.5032C5.38734 18.422 4.15839 16.8422 3.51 15.0018"
              stroke-width="2" stroke-linecap="round" stroke-linejoin="round"/>
    </symbol>
    <symbol id="message" viewBox="0 0 16 16">
        <path d="M14 7.66667C14.0023 8.54658 13.7967 9.41459 13.4 10.2C12.9296 11.1412 12.2065 11.9328 11.3116 12.4862C10.4168 13.0396 9.3855 13.3329 8.33333 13.3333C7.45342 13.3356 6.58541 13.1301 5.8 12.7333L2 14L3.26667 10.2C2.86995 9.41459 2.66437 8.54658 2.66667 7.66667C2.66707 6.61451 2.96041 5.58324 3.51381 4.68837C4.06722 3.7935 4.85884 3.07038 5.8 2.6C6.58541 2.20329 7.45342 1.99771 8.33333 2H8.66667C10.0562 2.07666 11.3687 2.66318 12.3528 3.64724C13.3368 4.63131 13.9233 5.94377 14 7.33334V7.66667Z"
               stroke-width="1.6" stroke-linecap="round" stroke-linejoin="round"/>
    </symbol>
</svg>