<svg xmlns="http://www.w3.org/2000/svg" xmlns:xlink="http://www.w3.org/1999/xlink">
    <symbol id="cross" viewBox="0 0 20 20">
        <path d="M15 5L5 15M5 5L15 15" stroke-width="1.6" stroke-linecap="round" stroke-linejoin="round"/>
    </symbol>
    <symbol id="arrow" viewBox="0 0 20 20">
        <path d="M7.5 15L12.5 10L7.5 5" stroke-width="1.6" stroke-linecap="round" stroke-linejoin="round"/>
    </symbol>
    <symbol id="logo" viewBox="0 0 150 20">
        <path d="M9.16349 10.4787C9.82865 10.5821 10.4325 10.8495 10.9752 11.2807C11.5353 11.7119 11.9729 12.2467 12.288 12.8849C12.6206 13.5231 12.7869 14.2044 12.7869 14.9289C12.7869 15.843 12.5506 16.671 12.0779 17.4127C11.6053 18.1371 10.9139 18.715 10.0037 19.1462C9.11098 19.5602 8.05197 19.7671 6.82667 19.7671H0V1.73351H6.5641C7.80691 1.73351 8.86592 1.94049 9.74113 2.35446C10.6163 2.75119 11.2728 3.29452 11.7104 3.98448C12.148 4.67443 12.3668 5.45063 12.3668 6.31307C12.3668 7.38249 12.0692 8.27081 11.4741 8.97801C10.8964 9.66796 10.1262 10.1682 9.16349 10.4787ZM2.38933 9.52135H6.40656C7.52684 9.52135 8.3933 9.26261 9.00595 8.74515C9.6186 8.22768 9.92492 7.51186 9.92492 6.59767C9.92492 5.68348 9.6186 4.96766 9.00595 4.4502C8.3933 3.93273 7.50933 3.674 6.35405 3.674H2.38933V9.52135ZM6.61662 17.8267C7.80691 17.8267 8.73463 17.5507 9.3998 16.9987C10.065 16.4467 10.3975 15.6792 10.3975 14.696C10.3975 13.6956 10.0475 12.9107 9.34728 12.3415C8.64711 11.7551 7.71063 11.4618 6.53785 11.4618H2.38933V17.8267H6.61662Z"/>
        <path d="M17.3366 3.2859C16.8815 3.2859 16.4964 3.13066 16.1813 2.82018C15.8663 2.5097 15.7087 2.13023 15.7087 1.68176C15.7087 1.23329 15.8663 0.853817 16.1813 0.543338C16.4964 0.23286 16.8815 0.0776202 17.3366 0.0776202C17.7742 0.0776202 18.1418 0.23286 18.4394 0.543338C18.7545 0.853817 18.912 1.23329 18.912 1.68176C18.912 2.13023 18.7545 2.5097 18.4394 2.82018C18.1418 3.13066 17.7742 3.2859 17.3366 3.2859ZM18.4919 5.58862V19.7671H16.1026V5.58862H18.4919Z"/>
        <path d="M28.8394 20C27.4916 20 26.2663 19.6981 25.1635 19.0944C24.0782 18.4907 23.2205 17.6369 22.5904 16.533C21.9777 15.4118 21.6714 14.1182 21.6714 12.652C21.6714 11.2031 21.9865 9.92669 22.6166 8.82277C23.2643 7.7016 24.1395 6.84778 25.2423 6.26132C26.345 5.65761 27.5791 5.35576 28.9444 5.35576C30.3097 5.35576 31.5438 5.65761 32.6466 6.26132C33.7493 6.84778 34.6158 7.69297 35.2459 8.7969C35.8936 9.90082 36.2174 11.1859 36.2174 12.652C36.2174 14.1182 35.8849 15.4118 35.2197 16.533C34.572 17.6369 33.6881 18.4907 32.5678 19.0944C31.4475 19.6981 30.2047 20 28.8394 20ZM28.8394 17.9301C29.6971 17.9301 30.5023 17.7318 31.255 17.3351C32.0077 16.9383 32.6116 16.3433 33.0667 15.5498C33.5393 14.7564 33.7756 13.7904 33.7756 12.652C33.7756 11.5136 33.548 10.5477 33.0929 9.7542C32.6378 8.96076 32.0427 8.3743 31.3075 7.99483C30.5723 7.5981 29.7759 7.39974 28.9182 7.39974C28.0429 7.39974 27.2377 7.5981 26.5026 7.99483C25.7849 8.3743 25.2072 8.96076 24.7696 9.7542C24.332 10.5477 24.1132 11.5136 24.1132 12.652C24.1132 13.8077 24.3233 14.7822 24.7434 15.5757C25.181 16.3691 25.7586 16.9642 26.4763 17.3609C27.194 17.7404 27.9817 17.9301 28.8394 17.9301Z"/>
        <path d="M45.2142 7.52911H42.1947V19.7671H39.8053V7.52911H37.9411V5.58862H39.8053V4.57956C39.8053 2.99267 40.2167 1.837 41.0394 1.11255C41.8796 0.37085 43.2187 0 45.0566 0V1.96637C44.0064 1.96637 43.2624 2.17335 42.8248 2.58732C42.4047 2.98405 42.1947 3.64812 42.1947 4.57956V5.58862H45.2142V7.52911Z"/>
        <path d="M60.7606 5.58862V19.7671H58.3713V17.6714C57.9162 18.3959 57.2773 18.9651 56.4546 19.379C55.6494 19.7758 54.7566 19.9741 53.7764 19.9741C52.6561 19.9741 51.6496 19.7499 50.7569 19.3014C49.8642 18.8357 49.1553 18.1458 48.6302 17.2316C48.1225 16.3174 47.8687 15.2048 47.8687 13.8939V5.58862H50.2318V13.5834C50.2318 14.9806 50.5906 16.0586 51.3083 16.8176C52.026 17.5593 53.0062 17.9301 54.249 17.9301C55.5268 17.9301 56.5333 17.542 57.2685 16.7658C58.0037 15.9897 58.3713 14.8599 58.3713 13.3765V5.58862H60.7606Z"/>
        <path d="M67.1842 0.620959V19.7671H64.7949V0.620959H67.1842Z"/>
        <path d="M73.6457 0.620959V19.7671H71.2564V0.620959H73.6457Z"/>
        <path d="M90.8462 12.1345C90.8462 12.583 90.8199 13.0574 90.7674 13.5576H79.2671C79.3546 14.9547 79.836 16.05 80.7112 16.8435C81.6039 17.6197 82.6804 18.0078 83.9407 18.0078C84.9735 18.0078 85.8312 17.7749 86.5138 17.3092C87.214 16.8262 87.7041 16.188 87.9842 15.3946H90.5573C90.1722 16.7572 89.402 17.8698 88.2468 18.7322C87.0915 19.5774 85.6561 20 83.9407 20C82.5754 20 81.3501 19.6981 80.2648 19.0944C79.1971 18.4907 78.3569 17.6369 77.7442 16.533C77.1316 15.4118 76.8252 14.1182 76.8252 12.652C76.8252 11.1859 77.1228 9.90082 77.7179 8.7969C78.3131 7.69297 79.1446 6.84778 80.2123 6.26132C81.2976 5.65761 82.5404 5.35576 83.9407 5.35576C85.3061 5.35576 86.5138 5.64899 87.5641 6.23545C88.6144 6.82191 89.4196 7.6326 89.9797 8.66753C90.5573 9.68521 90.8462 10.8409 90.8462 12.1345ZM88.3781 11.643C88.3781 10.746 88.1768 9.97844 87.7742 9.34023C87.3716 8.68478 86.8202 8.19319 86.12 7.86546C85.4373 7.52048 84.6759 7.348 83.8357 7.348C82.6279 7.348 81.5951 7.72747 80.7374 8.48642C79.8972 9.24537 79.4159 10.2975 79.2933 11.643H88.3781Z"/>
        <path d="M96.3893 7.89133C96.8094 7.08064 97.4046 6.45106 98.1748 6.00259C98.9625 5.55412 99.9164 5.32988 101.037 5.32988V7.76197H100.407C97.7284 7.76197 96.3893 9.19362 96.3893 12.0569V19.7671H94V5.58862H96.3893V7.89133Z"/>
        <path d="M116.923 12.1345C116.923 12.583 116.897 13.0574 116.844 13.5576H105.344C105.432 14.9547 105.913 16.05 106.788 16.8435C107.681 17.6197 108.757 18.0078 110.018 18.0078C111.05 18.0078 111.908 17.7749 112.591 17.3092C113.291 16.8262 113.781 16.188 114.061 15.3946H116.634C116.249 16.7572 115.479 17.8698 114.324 18.7322C113.168 19.5774 111.733 20 110.018 20C108.652 20 107.427 19.6981 106.342 19.0944C105.274 18.4907 104.434 17.6369 103.821 16.533C103.208 15.4118 102.902 14.1182 102.902 12.652C102.902 11.1859 103.2 9.90082 103.795 8.7969C104.39 7.69297 105.221 6.84778 106.289 6.26132C107.374 5.65761 108.617 5.35576 110.018 5.35576C111.383 5.35576 112.591 5.64899 113.641 6.23545C114.691 6.82191 115.496 7.6326 116.057 8.66753C116.634 9.68521 116.923 10.8409 116.923 12.1345ZM114.455 11.643C114.455 10.746 114.254 9.97844 113.851 9.34023C113.448 8.68478 112.897 8.19319 112.197 7.86546C111.514 7.52048 110.753 7.348 109.913 7.348C108.705 7.348 107.672 7.72747 106.814 8.48642C105.974 9.24537 105.493 10.2975 105.37 11.643H114.455Z"/>
        <path d="M127.087 5.32988C128.838 5.32988 130.256 5.85597 131.341 6.90815C132.426 7.94308 132.969 9.44373 132.969 11.4101V19.7671H130.606V11.7464C130.606 10.332 130.247 9.25399 129.529 8.51229C128.812 7.75334 127.831 7.37387 126.589 7.37387C125.328 7.37387 124.322 7.76197 123.569 8.53816C122.834 9.31436 122.466 10.4442 122.466 11.9276V19.7671H120.077V5.58862H122.466V7.60673C122.939 6.88228 123.578 6.32169 124.383 5.92497C125.206 5.52825 126.107 5.32988 127.087 5.32988Z"/>
        <path d="M150 12.1345C150 12.583 149.974 13.0574 149.921 13.5576H138.421C138.508 14.9547 138.99 16.05 139.865 16.8435C140.758 17.6197 141.834 18.0078 143.095 18.0078C144.127 18.0078 144.985 17.7749 145.668 17.3092C146.368 16.8262 146.858 16.188 147.138 15.3946H149.711C149.326 16.7572 148.556 17.8698 147.401 18.7322C146.245 19.5774 144.81 20 143.095 20C141.729 20 140.504 19.6981 139.419 19.0944C138.351 18.4907 137.511 17.6369 136.898 16.533C136.285 15.4118 135.979 14.1182 135.979 12.652C135.979 11.1859 136.277 9.90082 136.872 8.7969C137.467 7.69297 138.298 6.84778 139.366 6.26132C140.451 5.65761 141.694 5.35576 143.095 5.35576C144.46 5.35576 145.668 5.64899 146.718 6.23545C147.768 6.82191 148.573 7.6326 149.134 8.66753C149.711 9.68521 150 10.8409 150 12.1345ZM147.532 11.643C147.532 10.746 147.331 9.97844 146.928 9.34023C146.525 8.68478 145.974 8.19319 145.274 7.86546C144.591 7.52048 143.83 7.348 142.99 7.348C141.782 7.348 140.749 7.72747 139.891 8.48642C139.051 9.24537 138.57 10.2975 138.447 11.643H147.532Z"/>
    </symbol>
    <symbol id="inst" viewBox="0 0 20 20">
        <g clip-path="url(#clip0_1308_17499)">
            <path d="M14.5827 5.41772H14.591M5.83268 1.66772H14.166C16.4672 1.66772 18.3327 3.5332 18.3327 5.83439V14.1677C18.3327 16.4689 16.4672 18.3344 14.166 18.3344H5.83268C3.5315 18.3344 1.66602 16.4689 1.66602 14.1677V5.83439C1.66602 3.5332 3.5315 1.66772 5.83268 1.66772ZM13.3327 9.47606C13.4355 10.1696 13.3171 10.8779 12.9941 11.5002C12.6712 12.1226 12.1603 12.6272 11.534 12.9425C10.9078 13.2577 10.1981 13.3674 9.50584 13.256C8.81362 13.1446 8.17415 12.8178 7.67838 12.322C7.18261 11.8263 6.85579 11.1868 6.74441 10.4946C6.63302 9.80235 6.74274 9.09264 7.05795 8.46637C7.37317 7.8401 7.87784 7.32918 8.50017 7.00626C9.1225 6.68334 9.83081 6.56488 10.5243 6.66772C11.2318 6.77263 11.8867 7.10228 12.3924 7.60798C12.8981 8.11368 13.2278 8.76862 13.3327 9.47606Z"
                  stroke-width="1.6" stroke-linecap="round" stroke-linejoin="round"/>
        </g>
        <defs>
            <clipPath id="clip0_1308_17499">
                <rect width="20" height="20" fill="white" transform="translate(0 0.00109863)"/>
            </clipPath>
        </defs>
    </symbol>
    <symbol id="tw" viewBox="0 0 20 20">
        <path d="M19.1673 2.50106C18.3693 3.06395 17.4857 3.49448 16.5507 3.77606C16.0488 3.19898 15.3818 2.78997 14.6398 2.60433C13.8979 2.41869 13.1169 2.46539 12.4024 2.7381C11.6879 3.01081 11.0744 3.49639 10.6448 4.12915C10.2153 4.76192 9.9904 5.51134 10.0007 6.27606V7.10939C8.53618 7.14736 7.08505 6.82257 5.77649 6.16393C4.46794 5.50529 3.34258 4.53325 2.50065 3.33439C2.50065 3.33439 -0.832682 10.8344 6.66732 14.1677C4.95109 15.3327 2.90661 15.9168 0.833984 15.8344C8.33398 20.0011 17.5006 15.8344 17.5006 6.25106C17.4999 6.01893 17.4776 5.78738 17.434 5.55939C18.2845 4.72063 18.8847 3.66165 19.1673 2.50106Z"
              stroke-width="1.6" stroke-linecap="round" stroke-linejoin="round"/>
    </symbol>
    <symbol id="close" viewBox="0 0 20 20">
        <path d="M15 5L5 15M5 5L15 15" stroke-width="1.6" stroke-linecap="round" stroke-linejoin="round"/>
    </symbol>
    <symbol id="alert-circle" viewBox="0 0 20 20">
        <path d="M10.0003 6.66667V10M10.0003 13.3333H10.0087M18.3337 10C18.3337 14.6024 14.6027 18.3333 10.0003 18.3333C5.39795 18.3333 1.66699 14.6024 1.66699 10C1.66699 5.39763 5.39795 1.66667 10.0003 1.66667C14.6027 1.66667 18.3337 5.39763 18.3337 10Z"
              stroke-width="2" stroke-linecap="round" stroke-linejoin="round"/>
    </symbol>
    <symbol id="minus" viewBox="0 0 16 16">
        <path d="M3.33301 8H12.6663" stroke-width="1.6" stroke-linecap="round" stroke-linejoin="round"/>
    </symbol>
    <symbol id="plus" viewBox="0 0 16 16">
        <path d="M7.99967 3.33334V12.6667M3.33301 8.00001H12.6663" stroke-width="1.6" stroke-linecap="round"
              stroke-linejoin="round"/>
    </symbol>
    <symbol id="whatsup" viewBox="0 0 1024 1024">
        <path fill="#fff" d="M713.5 599.9c-10.9-5.6-65.2-32.2-75.3-35.8c-10.1-3.8-17.5-5.6-24.8 5.6c-7.4 11.1-28.4 35.8-35 43.3c-6.4 7.4-12.9 8.3-23.8 2.8c-64.8-32.4-107.3-57.8-150-131.1c-11.3-19.5 11.3-18.1 32.4-60.2c3.6-7.4 1.8-13.7-1-19.3c-2.8-5.6-24.8-59.8-34-81.9c-8.9-21.5-18.1-18.5-24.8-18.9c-6.4-.4-13.7-.4-21.1-.4c-7.4 0-19.3 2.8-29.4 13.7c-10.1 11.1-38.6 37.8-38.6 92s39.5 106.7 44.9 114.1c5.6 7.4 77.7 118.6 188.4 166.5c70 30.2 97.4 32.8 132.4 27.6c21.3-3.2 65.2-26.6 74.3-52.5c9.1-25.8 9.1-47.9 6.4-52.5c-2.7-4.9-10.1-7.7-21-13z"/>
        <path fill="#fff" d="M925.2 338.4c-22.6-53.7-55-101.9-96.3-143.3c-41.3-41.3-89.5-73.8-143.3-96.3C630.6 75.7 572.2 64 512 64h-2c-60.6.3-119.3 12.3-174.5 35.9c-53.3 22.8-101.1 55.2-142 96.5c-40.9 41.3-73 89.3-95.2 142.8c-23 55.4-34.6 114.3-34.3 174.9c.3 69.4 16.9 138.3 48 199.9v152c0 25.4 20.6 46 46 46h152.1c61.6 31.1 130.5 47.7 199.9 48h2.1c59.9 0 118-11.6 172.7-34.3c53.5-22.3 101.6-54.3 142.8-95.2c41.3-40.9 73.8-88.7 96.5-142c23.6-55.2 35.6-113.9 35.9-174.5c.3-60.9-11.5-120-34.8-175.6zm-151.1 438C704 845.8 611 884 512 884h-1.7c-60.3-.3-120.2-15.3-173.1-43.5l-8.4-4.5H188V695.2l-4.5-8.4C155.3 633.9 140.3 574 140 513.7c-.4-99.7 37.7-193.3 107.6-263.8c69.8-70.5 163.1-109.5 262.8-109.9h1.7c50 0 98.5 9.7 144.2 28.9c44.6 18.7 84.6 45.6 119 80c34.3 34.3 61.3 74.4 80 119c19.4 46.2 29.1 95.2 28.9 145.8c-.6 99.6-39.7 192.9-110.1 262.7z"/>
    </symbol>
    <symbol id="whatsup-blue" viewBox="0 0 1024 1024">
        <path fill="#003e94" d="M713.5 599.9c-10.9-5.6-65.2-32.2-75.3-35.8c-10.1-3.8-17.5-5.6-24.8 5.6c-7.4 11.1-28.4 35.8-35 43.3c-6.4 7.4-12.9 8.3-23.8 2.8c-64.8-32.4-107.3-57.8-150-131.1c-11.3-19.5 11.3-18.1 32.4-60.2c3.6-7.4 1.8-13.7-1-19.3c-2.8-5.6-24.8-59.8-34-81.9c-8.9-21.5-18.1-18.5-24.8-18.9c-6.4-.4-13.7-.4-21.1-.4c-7.4 0-19.3 2.8-29.4 13.7c-10.1 11.1-38.6 37.8-38.6 92s39.5 106.7 44.9 114.1c5.6 7.4 77.7 118.6 188.4 166.5c70 30.2 97.4 32.8 132.4 27.6c21.3-3.2 65.2-26.6 74.3-52.5c9.1-25.8 9.1-47.9 6.4-52.5c-2.7-4.9-10.1-7.7-21-13z"/>
        <path fill="#003e94" d="M925.2 338.4c-22.6-53.7-55-101.9-96.3-143.3c-41.3-41.3-89.5-73.8-143.3-96.3C630.6 75.7 572.2 64 512 64h-2c-60.6.3-119.3 12.3-174.5 35.9c-53.3 22.8-101.1 55.2-142 96.5c-40.9 41.3-73 89.3-95.2 142.8c-23 55.4-34.6 114.3-34.3 174.9c.3 69.4 16.9 138.3 48 199.9v152c0 25.4 20.6 46 46 46h152.1c61.6 31.1 130.5 47.7 199.9 48h2.1c59.9 0 118-11.6 172.7-34.3c53.5-22.3 101.6-54.3 142.8-95.2c41.3-40.9 73.8-88.7 96.5-142c23.6-55.2 35.6-113.9 35.9-174.5c.3-60.9-11.5-120-34.8-175.6zm-151.1 438C704 845.8 611 884 512 884h-1.7c-60.3-.3-120.2-15.3-173.1-43.5l-8.4-4.5H188V695.2l-4.5-8.4C155.3 633.9 140.3 574 140 513.7c-.4-99.7 37.7-193.3 107.6-263.8c69.8-70.5 163.1-109.5 262.8-109.9h1.7c50 0 98.5 9.7 144.2 28.9c44.6 18.7 84.6 45.6 119 80c34.3 34.3 61.3 74.4 80 119c19.4 46.2 29.1 95.2 28.9 145.8c-.6 99.6-39.7 192.9-110.1 262.7z"/>
    </symbol>
</svg>