<svg xmlns="http://www.w3.org/2000/svg" xmlns:xlink="http://www.w3.org/1999/xlink">
    <symbol id="colorless" viewBox="0 0 65 65">
        <rect x="0.799805" y="0.0012207" width="64" height="64" rx="32" fill="#E0EDFF"/>
        <path d="M23.0492 31.7027C22.9836 31.8953 22.9836 32.1047 23.0492 32.2973C24.5837 36.8021 28.4603 40 33 40C37.5397 40 41.4163 36.8021 42.9508 32.2973C43.0164 32.1047 43.0164 31.8953 42.9508 31.7027C41.4163 27.1979 37.5397 24 33 24C28.4603 24 24.5837 27.1979 23.0492 31.7027Z" stroke="#003E94" stroke-width="2" stroke-linecap="round" stroke-linejoin="round"/>
        <path d="M36 32C36 33.6569 34.6569 35 33 35C31.3431 35 30 33.6569 30 32C30 30.3431 31.3431 29 33 29C34.6569 29 36 30.3431 36 32Z" stroke="#003E94" stroke-width="2" stroke-linecap="round" stroke-linejoin="round"/>
        <path d="M10 55L56 9" stroke="white" stroke-width="3"/>
    </symbol>
    <symbol id="flavorless" viewBox="0 0 65 65">
        <rect x="0.399902" y="0.0012207" width="64" height="64" rx="32" fill="#E0EDFF"/>
        <g clip-path="url(#clip0_1147_20412)">
            <path d="M42.0005 25C42.0005 25 42.5005 41 33.0005 41C23.5005 41 24.0005 25 24.0005 25M22.0005 25H33.0005M44.0005 25H33.0005M33.0005 25L33.0005 36" stroke="#003E94" stroke-width="2" stroke-linecap="round" stroke-linejoin="round"/>
        </g>
        <path d="M9.00049 55L55.0005 9" stroke="white" stroke-width="3"/>
        <defs>
            <clipPath id="clip0_1147_20412">
                <rect width="24" height="24" fill="white" transform="translate(21.0005 20)"/>
            </clipPath>
        </defs>
    </symbol>
    <symbol id="no-calories" viewBox="0 0 65 65">
        <rect y="0.0012207" width="64" height="64" rx="32" fill="#E0EDFF"/>
        <path d="M37.6569 27.5401L36.9298 28.2267L37.6569 27.5401ZM26.3431 27.5401L27.0702 28.2267L26.3431 27.5401ZM31.2807 22.3122L30.5537 21.6256L31.2807 22.3122ZM32.7193 22.3122L31.9923 22.9988L32.7193 22.3122ZM36.9298 28.2267C39.6901 31.1492 39.6901 35.9099 36.9298 38.8324L38.3839 40.2057C41.872 36.5124 41.872 30.5467 38.3839 26.8534L36.9298 28.2267ZM36.9298 38.8324C34.2003 41.7225 29.7997 41.7225 27.0702 38.8324L25.6161 40.2057C29.135 43.9314 34.865 43.9314 38.3839 40.2057L36.9298 38.8324ZM27.0702 38.8324C24.3099 35.9099 24.3099 31.1492 27.0702 28.2267L25.6161 26.8534C22.128 30.5467 22.128 36.5124 25.6161 40.2057L27.0702 38.8324ZM27.0702 28.2267L32.0077 22.9988L30.5537 21.6256L25.6161 26.8534L27.0702 28.2267ZM31.9923 22.9988L36.9298 28.2267L38.3839 26.8534L33.4463 21.6256L31.9923 22.9988ZM32.0077 22.9988C32.0093 22.9971 32.0099 22.9968 32.0094 22.9972C32.0089 22.9975 32.008 22.998 32.0067 22.9986C32.0043 22.9996 32.0019 23 32 23C31.9981 23 31.9957 22.9996 31.9933 22.9986C31.992 22.998 31.9911 22.9975 31.9906 22.9972C31.9901 22.9968 31.9907 22.9971 31.9923 22.9988L33.4463 21.6256C32.6586 20.7915 31.3414 20.7915 30.5537 21.6256L32.0077 22.9988Z" fill="#003E94"/>
        <path d="M9 55L55 9" stroke="white" stroke-width="3"/>
    </symbol>
    <symbol id="no-sugar" viewBox="0 0 65 65">
        <rect x="0.599609" y="0.0012207" width="64" height="64" rx="32" fill="#E0EDFF"/>
        <path d="M23.3 26.4326L33 31.966L42.7 26.4326M33 43V31.955M43 36.338V27.5721C42.9996 27.1878 42.8967 26.8104 42.7017 26.4777C42.5067 26.145 42.2264 25.8687 41.8889 25.6765L34.1111 21.2936C33.7733 21.1013 33.3901 21 33 21C32.6099 21 32.2267 21.1013 31.8889 21.2936L24.1111 25.6765C23.7736 25.8687 23.4933 26.145 23.2983 26.4777C23.1033 26.8104 23.0004 27.1878 23 27.5721V36.338C23.0004 36.7223 23.1033 37.0997 23.2983 37.4324C23.4933 37.7651 23.7736 38.0414 24.1111 38.2336L31.8889 42.6165C32.2267 42.8088 32.6099 42.9101 33 42.9101C33.3901 42.9101 33.7733 42.8088 34.1111 42.6165L41.8889 38.2336C42.2264 38.0414 42.5067 37.7651 42.7017 37.4324C42.8967 37.0997 42.9996 36.7223 43 36.338Z" stroke="#003E94" stroke-width="2" stroke-linecap="round" stroke-linejoin="round"/>
        <path d="M10 55L56 9" stroke="white" stroke-width="3"/>
    </symbol>
    <symbol id="odorless" viewBox="0 0 65 65">
        <rect x="0.199707" y="0.0012207" width="64" height="64" rx="32" fill="#E0EDFF"/>
        <path d="M39.3733 23C48.1873 31.3077 31.2328 32.6923 40.2098 41M32.6233 23C41.4373 31.3077 24.4828 32.6923 33.4598 41M25.8733 23C34.6873 31.3077 17.7328 32.6923 26.7098 41" stroke="#003E94" stroke-width="2" stroke-linecap="round"/>
        <path d="M9.99951 55L55.9995 9" stroke="white" stroke-width="3"/>
    </symbol>
</svg>