<svg xmlns="http://www.w3.org/2000/svg" xmlns:xlink="http://www.w3.org/1999/xlink">
    <symbol id="visa" viewBox="0 0 34 24">
        <rect x="0.5" y="0.500977" width="33" height="23" rx="3.5" fill="white"/>
        <path fill-rule="evenodd" clip-rule="evenodd"
              d="M10.7501 15.8592H8.69031L7.14576 9.79333C7.07245 9.5143 6.91679 9.26762 6.68782 9.15136C6.11639 8.85918 5.48672 8.62666 4.7998 8.50938V8.27585H8.11789C8.57583 8.27585 8.91929 8.62666 8.97653 9.03408L9.77793 13.4096L11.8367 8.27585H13.8392L10.7501 15.8592ZM14.984 15.8592H13.0388L14.6406 8.27585H16.5858L14.984 15.8592ZM19.1025 10.3767C19.1597 9.96823 19.5032 9.73469 19.9039 9.73469C20.5336 9.67606 21.2195 9.79333 21.7919 10.0845L22.1354 8.45176C21.5629 8.21823 20.9333 8.10095 20.3619 8.10095C18.4738 8.10095 17.1 9.15136 17.1 10.6092C17.1 11.7182 18.0731 12.3006 18.7601 12.6514C19.5032 13.0012 19.7894 13.2347 19.7322 13.5845C19.7322 14.1092 19.1597 14.3427 18.5883 14.3427C17.9014 14.3427 17.2145 14.1678 16.5858 13.8757L16.2424 15.5094C16.9293 15.8006 17.6724 15.9178 18.3594 15.9178C20.4763 15.9755 21.7919 14.9261 21.7919 13.351C21.7919 11.3674 19.1025 11.2512 19.1025 10.3767ZM28.5998 15.8592L27.0553 8.27585H25.3962C25.0528 8.27585 24.7093 8.50938 24.5948 8.85918L21.7347 15.8592H23.7372L24.1369 14.7512H26.5973L26.8263 15.8592H28.5998ZM25.6824 10.318L26.2539 13.1761H24.6521L25.6824 10.318Z"
              fill="#172B85"/>
        <rect x="0.5" y="0.500977" width="33" height="23" rx="3.5" stroke="#DDE0E4"/>
    </symbol>
    <symbol id="mastercard" viewBox="0 0 34 24">
        <rect x="0.5" y="0.500977" width="33" height="23" rx="3.5" fill="white"/>
        <path fill-rule="evenodd" clip-rule="evenodd"
              d="M17.179 16.8304C15.9949 17.8284 14.459 18.4309 12.7807 18.4309C9.03582 18.4309 6 15.4313 6 11.7309C6 8.03064 9.03582 5.03094 12.7807 5.03094C14.459 5.03094 15.9949 5.63344 17.179 6.63149C18.363 5.63344 19.8989 5.03094 21.5773 5.03094C25.3221 5.03094 28.358 8.03064 28.358 11.7309C28.358 15.4313 25.3221 18.4309 21.5773 18.4309C19.8989 18.4309 18.363 17.8284 17.179 16.8304Z"
              fill="#ED0006"/>
        <path fill-rule="evenodd" clip-rule="evenodd"
              d="M17.1787 16.8304C18.6366 15.6015 19.5611 13.7729 19.5611 11.7309C19.5611 9.68899 18.6366 7.86039 17.1787 6.63148C18.3628 5.63344 19.8987 5.03094 21.577 5.03094C25.3219 5.03094 28.3577 8.03064 28.3577 11.7309C28.3577 15.4313 25.3219 18.4309 21.577 18.4309C19.8987 18.4309 18.3628 17.8284 17.1787 16.8304Z"
              fill="#F9A000"/>
        <path fill-rule="evenodd" clip-rule="evenodd"
              d="M17.1793 16.8304C18.6372 15.6015 19.5616 13.7729 19.5616 11.731C19.5616 9.68903 18.6372 7.86043 17.1793 6.63153C15.7213 7.86043 14.7969 9.68903 14.7969 11.731C14.7969 13.7729 15.7213 15.6015 17.1793 16.8304Z"
              fill="#FF5E00"/>
        <rect x="0.5" y="0.500977" width="33" height="23" rx="3.5" stroke="#DDE0E4"/>
    </symbol>
    <symbol id="maestro" viewBox="0 0 34 24">
        <rect x="0.5" y="0.500977" width="33" height="23" rx="3.5" fill="white"/>
        <path d="M19.2576 11.7067C19.2576 15.4102 16.2898 18.4125 12.6288 18.4125C8.96782 18.4125 6 15.4102 6 11.7067C6 8.00325 8.96782 5.00098 12.6288 5.00098C16.2898 5.00098 19.2576 8.00325 19.2576 11.7067Z"
              fill="#ED0006"/>
        <path d="M27.8572 11.7067C27.8572 15.4102 24.8894 18.4125 21.2284 18.4125C17.5674 18.4125 14.5996 15.4102 14.5996 11.7067C14.5996 8.00325 17.5674 5.00098 21.2284 5.00098C24.8894 5.00098 27.8572 8.00325 27.8572 11.7067Z"
              fill="#0099DF"/>
        <path fill-rule="evenodd" clip-rule="evenodd"
              d="M16.9286 6.60291C18.3539 7.83286 19.2576 9.66303 19.2576 11.7067C19.2576 13.7504 18.3539 15.5806 16.9286 16.8105C15.5034 15.5806 14.5996 13.7504 14.5996 11.7067C14.5996 9.66303 15.5034 7.83286 16.9286 6.60291Z"
              fill="#6C6BBD"/>
        <rect x="0.5" y="0.500977" width="33" height="23" rx="3.5" stroke="#DDE0E4"/>
    </symbol>
    <symbol id="paypal" viewBox="0 0 34 24">
        <rect x="0.5" y="0.500977" width="33" height="23" rx="3.5" fill="white"/>
        <path fill-rule="evenodd" clip-rule="evenodd"
              d="M14.614 18.4492L14.8347 17.0001L14.3431 16.9882H11.9951L13.6268 6.29461C13.6319 6.26223 13.6484 6.23217 13.6724 6.21079C13.6965 6.1894 13.7272 6.17767 13.7594 6.17767H17.7184C19.0328 6.17767 19.9398 6.46031 20.4133 7.01825C20.6353 7.27999 20.7767 7.55359 20.8452 7.85455C20.9169 8.17042 20.9181 8.54776 20.8481 9.00807L20.843 9.04155V9.33653L21.0651 9.46654C21.252 9.56906 21.4006 9.68637 21.5145 9.82066C21.7044 10.0445 21.8272 10.329 21.8791 10.6661C21.9328 11.0129 21.9151 11.4257 21.8272 11.893C21.7259 12.4304 21.5622 12.8985 21.341 13.2815C21.1376 13.6344 20.8785 13.9271 20.5708 14.1539C20.277 14.3695 19.928 14.5331 19.5333 14.6378C19.1509 14.7407 18.7149 14.7926 18.2367 14.7926H17.9286C17.7083 14.7926 17.4943 14.8746 17.3263 15.0216C17.1579 15.1717 17.0465 15.3767 17.0123 15.601L16.989 15.7315L16.599 18.2857L16.5814 18.3794C16.5767 18.4091 16.5686 18.4239 16.5568 18.4339C16.5463 18.4431 16.5311 18.4492 16.5164 18.4492H14.614Z"
              fill="#28356A"/>
        <path fill-rule="evenodd" clip-rule="evenodd"
              d="M21.2761 9.07562C21.2644 9.1537 21.2508 9.2335 21.2356 9.31549C20.7136 12.0861 18.9273 13.0433 16.646 13.0433H15.4845C15.2055 13.0433 14.9703 13.2526 14.9269 13.5371L14.1638 18.5403C14.1356 18.7272 14.2748 18.8954 14.4571 18.8954H16.5173C16.7612 18.8954 16.9684 18.7123 17.0069 18.4636L17.0271 18.3555L17.415 15.8112L17.4399 15.6717C17.4779 15.4222 17.6856 15.2389 17.9295 15.2389H18.2376C20.2336 15.2389 21.7961 14.4014 22.2528 11.9775C22.4435 10.965 22.3448 10.1195 21.84 9.52493C21.6873 9.34567 21.4977 9.19684 21.2761 9.07562Z"
              fill="#298FC2"/>
        <path fill-rule="evenodd" clip-rule="evenodd"
              d="M20.7298 8.8506C20.65 8.82653 20.5677 8.80478 20.4833 8.7851C20.3984 8.76592 20.3115 8.74893 20.222 8.73403C19.9089 8.68173 19.5656 8.65692 19.1981 8.65692H16.0951C16.0186 8.65692 15.946 8.67476 15.8811 8.70702C15.7379 8.77814 15.6316 8.91817 15.6058 9.08961L14.9457 13.4111L14.9268 13.5371C14.9701 13.2527 15.2053 13.0433 15.4843 13.0433H16.6459C18.9271 13.0433 20.7134 12.0857 21.2354 9.31555C21.2511 9.23356 21.2642 9.15376 21.2759 9.07568C21.1438 9.00322 21.0008 8.94127 20.8467 8.88848C20.8087 8.87541 20.7694 8.86282 20.7298 8.8506Z"
              fill="#22284F"/>
        <path fill-rule="evenodd" clip-rule="evenodd"
              d="M15.6056 9.0896C15.6314 8.91816 15.7377 8.77813 15.8809 8.7075C15.9462 8.67511 16.0184 8.65727 16.0948 8.65727H19.1979C19.5654 8.65727 19.9086 8.6822 20.2218 8.7345C20.3113 8.74929 20.3982 8.76639 20.4831 8.78558C20.5675 8.80513 20.6498 8.827 20.7296 8.85095C20.7692 8.86317 20.8085 8.87588 20.8469 8.88847C21.0009 8.94125 21.1441 9.0037 21.2761 9.07567C21.4315 8.0518 21.2748 7.35468 20.7393 6.72342C20.1488 6.02838 19.0831 5.73096 17.7194 5.73096H13.7603C13.4817 5.73096 13.2441 5.94028 13.2011 6.22523L11.5521 17.0288C11.5196 17.2425 11.679 17.4354 11.8876 17.4354H14.3318L15.6056 9.0896Z"
              fill="#28356A"/>
        <rect x="0.5" y="0.500977" width="33" height="23" rx="3.5" stroke="#DDE0E4"/>
    </symbol>
</svg>