<svg width="20" height="20" viewBox="0 0 20 20" fill="none" xmlns="http://www.w3.org/2000/svg">
<path d="M2.5 5.00033L5 1.66699H15L17.5 5.00033M2.5 5.00033V16.667C2.5 17.109 2.67559 17.5329 2.98816 17.8455C3.30072 18.1581 3.72464 18.3337 4.16667 18.3337H15.8333C16.2754 18.3337 16.6993 18.1581 17.0118 17.8455C17.3244 17.5329 17.5 17.109 17.5 16.667V5.00033M2.5 5.00033H17.5M13.3333 8.33366C13.3333 9.21771 12.9821 10.0656 12.357 10.6907C11.7319 11.3158 10.8841 11.667 10 11.667C9.11594 11.667 8.2681 11.3158 7.64298 10.6907C7.01786 10.0656 6.66667 9.21771 6.66667 8.33366" stroke="white" stroke-width="1.6" stroke-linecap="round" stroke-linejoin="round"/>
</svg>
